<svg width="57" height="50" viewBox="0 0 57 50" fill="none" xmlns="http://www.w3.org/2000/svg">
<path d="M56.9879 14.0432C56.9879 6.54922 50.9132 0.474541 43.4194 0.474541C35.9254 0.474541 29.8507 6.54922 29.8507 14.0432C29.8507 21.5371 35.9254 27.6117 43.4194 27.6117C44.9595 27.6117 46.4337 27.3432 47.8138 26.8701C44.7603 44.3827 31.1038 55.6764 43.7633 46.3815C57.8008 36.0745 57.0029 14.4579 56.9872 14.0617C56.9872 14.0555 56.9879 14.05 56.9879 14.0432Z" fill="url(#paint0_linear)"/>
<path d="M27.1373 14.0432C27.1373 6.54922 21.0626 0.474541 13.5686 0.474541C6.07468 0.474541 -1.90735e-06 6.54922 -1.90735e-06 14.0432C-1.90735e-06 21.5371 6.0748 27.6117 13.5687 27.6117C15.109 27.6117 16.5831 27.3432 17.9632 26.8701C14.9097 44.3827 1.25322 55.6764 13.9127 46.3815C27.9502 36.0745 27.1524 14.4579 27.1366 14.0617C27.1366 14.0555 27.1373 14.05 27.1373 14.0432Z" fill="url(#paint1_linear)"/>
<defs>
<linearGradient id="paint0_linear" x1="43.4254" y1="0.474667" x2="43.4254" y2="49.7173" gradientUnits="userSpaceOnUse">
<stop stop-color="#F4712C"/>
<stop offset="1" stop-color="#FFB92B"/>
</linearGradient>
<linearGradient id="paint1_linear" x1="13.5747" y1="0.474667" x2="13.5747" y2="49.7173" gradientUnits="userSpaceOnUse">
<stop stop-color="#F4712C"/>
<stop offset="1" stop-color="#FFB92B"/>
</linearGradient>
</defs>
</svg>
