<svg width="187" height="188" viewBox="0 0 187 188" fill="none" xmlns="http://www.w3.org/2000/svg">
<g clip-path="url(#clip0)">
<path d="M61.305 37.1913C60.9417 38.5475 61.4381 39.4073 61.9345 40.2671C62.4309 41.1269 63.4237 42.8465 63.9201 43.7062C64.4165 44.566 64.9129 45.4258 65.9057 47.1454C66.4021 48.0052 67.2618 47.5089 68.1215 47.0125C70.7007 45.5235 72.9165 45.3906 75.4956 43.9015C78.0747 42.4125 80.2905 42.2796 82.8696 40.7905C83.7293 40.2942 85.0854 40.6576 85.9451 40.1613C86.8048 39.6649 88.1609 40.0284 89.0206 39.532C89.8803 39.0357 91.2364 39.3991 92.0962 38.9027C92.0962 38.9027 92.9559 38.4064 93.4523 39.2662C93.4523 39.2662 94.312 38.7698 94.8084 39.6296L95.3048 40.4894C95.3048 40.4894 95.3048 40.4894 95.8012 41.3492C95.8012 41.3492 95.8012 41.3492 97.1573 41.7127C98.017 41.2163 98.017 41.2163 98.017 41.2163C98.8767 40.72 100.233 41.0834 101.589 41.4469C102.945 41.8103 103.805 41.314 105.161 41.6774C106.517 42.0408 110.089 42.2714 110.585 43.1312C111.082 43.991 110.222 44.4873 111.578 44.8508L112.934 45.2142C113.431 46.074 114.29 45.5777 114.787 46.4374L116.143 46.8009C117.002 46.3045 117.002 46.3045 117.002 46.3045C118.359 46.668 118.359 46.668 118.855 47.5278C119.351 48.3876 118.855 47.5278 120.211 47.8912C121.071 47.3949 121.567 48.2547 122.923 48.6181L124.279 48.9816C124.279 48.9816 124.776 49.8414 126.132 50.2048C127.488 50.5682 127.984 51.428 129.341 51.7915C130.697 52.1549 131.193 53.0147 131.689 53.8745C132.186 54.7343 132.186 54.7343 132.186 54.7343L133.542 55.0978L134.038 55.9576C134.535 56.8173 134.535 56.8173 135.891 57.1808C136.387 58.0406 137.743 58.404 138.24 59.2638C138.736 60.1236 138.736 60.1236 138.736 60.1236C139.233 60.9834 139.233 60.9834 139.729 61.8432C140.225 62.703 140.225 62.703 140.722 63.5628C141.218 64.4226 141.218 64.4226 141.715 65.2824C142.211 66.1422 142.211 66.1422 142.707 67.002L143.204 67.8618L142.344 68.3581C142.841 69.2179 142.841 69.2179 143.337 70.0777C143.833 70.9375 144.33 71.7973 144.826 72.6571C145.323 73.5169 144.959 74.873 145.456 75.7328C145.952 76.5926 145.952 76.5926 145.952 76.5926C146.448 77.4524 146.448 77.4524 146.945 78.3122C147.441 79.172 147.078 80.5282 147.574 81.388C148.071 82.2478 147.707 83.6039 148.7 85.3235C149.197 86.1833 149.693 87.0431 150.189 87.9029C150.686 88.7627 149.826 89.259 149.826 89.259C150.323 90.1188 149.959 91.475 150.456 92.3348C150.456 92.3348 150.952 93.1946 150.092 93.6909C149.729 95.047 150.225 95.9068 149.862 97.263C150.359 98.1228 149.995 99.4789 150.492 100.339L150.128 101.695L150.625 102.555C151.121 103.414 150.758 104.771 150.758 104.771C149.898 105.267 149.402 104.407 149.038 105.763L149.535 106.623C149.535 106.623 148.675 107.119 149.172 107.979C148.808 109.335 150.164 109.699 149.305 110.195C148.941 111.551 147.222 112.544 146.859 113.9C146.859 113.9 147.355 114.76 146.495 115.256L146.132 116.612C145.769 117.969 144.909 118.465 144.546 119.821C145.042 120.681 144.182 121.177 143.323 121.674C142.463 122.17 142.463 122.17 142.959 123.03C142.959 123.03 142.596 124.386 141.736 124.882C140.877 125.379 142.1 123.526 142.1 123.526C141.603 122.666 141.967 121.31 142.33 119.954C143.19 119.458 143.553 118.102 143.553 118.102C143.057 117.242 143.057 117.242 143.42 115.886L144.28 115.389L144.643 114.033C145.006 112.677 145.369 111.321 146.229 110.824C146.592 109.468 146.956 108.112 147.319 106.756C147.682 105.4 148.046 104.044 148.409 102.688C148.772 101.331 148.276 100.472 147.779 99.6118C148.143 98.2557 148.143 98.2557 148.506 96.8995C148.01 96.0398 148.373 94.6836 149.233 94.1873C150.092 93.6909 149.596 92.8311 149.1 91.9713C148.107 90.2517 148.47 88.8956 148.337 86.6796C147.841 85.8198 148.204 84.4637 147.707 83.6039C146.582 79.6684 145.952 76.5926 143.966 73.1535C143.47 72.2937 142.974 71.4339 141.981 69.7143C141.484 68.8545 140.988 67.9947 140.492 67.1349C140.988 67.9947 141.981 69.7143 142.477 70.5741C142.974 71.4339 143.966 73.1535 144.463 74.0133C144.959 74.873 144.959 74.873 144.596 76.2292C145.092 77.089 144.233 77.5853 144.233 77.5853C144.729 78.4451 145.225 79.3049 145.225 79.3049C145.722 80.1647 146.218 81.0245 145.359 81.5209C146.351 83.2405 145.988 84.5966 145.625 85.9527C146.121 86.8125 145.261 87.3089 145.758 88.1687C146.254 89.0285 146.254 89.0285 145.891 90.3846C145.891 90.3846 145.891 90.3846 146.387 91.2444C146.387 91.2444 146.387 91.2444 146.024 92.6006C146.52 93.4604 146.52 93.4604 145.661 93.9567L144.801 94.4531C145.661 93.9567 146.654 95.6763 146.654 95.6763C147.15 96.5361 145.927 98.3886 146.423 99.2484C146.556 101.464 146.193 102.82 146.69 103.68L146.326 105.036C145.467 105.533 145.963 106.393 146.459 107.252C146.592 109.468 145.369 111.321 144.643 114.033C143.783 114.529 144.28 115.389 143.42 115.886C143.42 115.886 142.56 116.382 143.057 117.242L142.197 117.738L142.693 118.598C141.834 119.094 140.114 120.087 139.751 121.443C139.388 122.799 137.668 123.792 137.305 125.148C136.942 126.504 135.222 127.497 134.859 128.853C133.999 129.349 133.999 129.349 133.139 129.846C132.28 130.342 133.139 129.846 132.28 130.342C132.776 131.202 131.916 131.698 131.916 131.698C131.057 132.195 130.693 133.551 129.834 134.047C127.255 135.536 125.172 137.885 122.593 139.374C120.873 140.367 120.014 140.863 118.294 141.856C116.575 142.848 115.715 143.345 113.996 144.338C113.996 144.338 113.136 144.834 112.276 145.33C111.417 145.827 112.773 146.19 111.913 146.686C112.409 147.546 109.334 148.175 110.557 146.323C109.201 145.96 108.341 146.456 107.481 146.952C106.622 147.449 105.266 147.085 104.406 147.581C105.762 147.945 106.985 146.092 108.838 147.316L109.334 148.175C109.334 148.175 108.474 148.672 107.614 149.168C106.755 149.664 104.539 149.797 103.679 150.294C102.82 150.79 102.323 149.93 102.82 150.79C103.316 151.65 103.316 151.65 102.456 152.146C101.597 152.643 100.737 153.139 100.24 152.279C99.3808 152.776 98.5211 153.272 98.5211 153.272C97.6614 153.768 97.1649 152.908 96.3052 153.405C95.4455 153.901 94.9491 153.041 94.0894 153.538C93.2297 154.034 91.0139 154.167 89.6578 153.803L88.3017 153.44C86.9456 153.077 86.9456 153.077 86.0859 153.573C85.2262 154.069 84.7298 153.209 83.3737 152.846C82.3809 151.126 81.5212 151.623 80.1651 151.259C78.809 150.896 77.4528 150.532 76.0967 150.169C75.6003 149.309 75.6003 149.309 74.2442 148.946C74.2442 148.946 72.8881 148.582 72.0284 149.079C72.0284 149.079 71.532 148.219 70.6723 148.715L69.8126 149.212C68.9529 149.708 69.3162 148.352 69.3162 148.352C68.8198 147.492 67.9601 147.988 67.4637 147.129C66.9673 146.269 67.827 145.772 67.827 145.772C67.3306 144.913 67.3306 144.913 67.3306 144.913L66.8342 144.053C67.6939 143.556 67.6939 143.556 68.5536 143.06C68.5536 143.06 68.0572 142.2 67.5608 141.341C67.0644 140.481 66.2047 140.977 66.2047 140.977C65.7083 140.117 65.7083 140.117 64.3522 139.754C64.3522 139.754 64.3522 139.754 63.8558 138.894L63.3594 138.034L62.0033 137.671C61.8702 135.455 60.3809 132.876 59.1579 134.728C59.1579 134.728 58.7946 136.084 58.2982 135.224C57.8018 134.365 58.6615 133.868 58.6615 133.868C58.6615 133.868 59.0248 132.512 57.6687 132.149C57.6687 132.149 55.9493 133.141 56.4457 134.001C56.9421 134.861 56.9421 134.861 57.4385 135.721C57.9349 136.58 57.9349 136.58 58.4313 137.44C58.9277 138.3 59.4241 139.16 60.2839 138.664C60.2839 138.664 61.1436 138.167 61.64 139.027C61.64 139.027 61.64 139.027 62.1364 139.887C62.1364 139.887 62.1364 139.887 62.6328 140.747C63.1292 141.606 65.345 141.473 64.122 143.326C64.122 143.326 63.2623 143.822 62.4026 144.319L61.9062 143.459L61.4098 142.599C61.4098 142.599 61.4098 142.599 60.9134 141.739C60.9134 141.739 60.0537 142.236 59.5573 141.376C59.0608 140.516 59.0608 140.516 58.5644 139.656C58.5644 139.656 58.5644 139.656 57.2083 139.293C57.2083 139.293 56.7119 138.433 55.8522 138.929C56.2155 137.573 54.363 136.35 53.3702 134.63C50.5249 131.688 49.0357 129.108 46.1904 126.165C45.1976 124.446 44.2048 122.726 43.212 121.007C42.7156 120.147 42.2191 119.287 41.2263 117.567C40.7299 116.708 41.0932 115.351 41.0932 115.351C40.5968 114.492 40.1004 113.632 39.604 112.772C39.604 112.772 39.4709 110.556 39.9673 111.416C39.9673 111.416 40.4637 112.276 40.9601 113.135C41.4565 113.995 41.9529 114.855 42.4493 115.715C43.4422 117.434 44.435 119.154 45.4278 120.874C46.4206 122.593 47.4134 124.313 48.4062 126.032C48.9026 126.892 49.399 127.752 49.8954 128.612C50.7551 128.115 51.2515 128.975 51.2515 128.975L52.1112 128.479L52.6076 129.339C53.104 130.198 53.6004 131.058 54.9565 131.422C55.3198 130.066 54.4601 130.562 53.9637 129.702C53.4673 128.842 54.327 128.346 54.327 128.346L53.8306 127.486C53.3342 126.626 52.8378 125.767 52.8378 125.767C52.3414 124.907 51.845 124.047 50.4889 123.684C49.9925 122.824 49.4961 121.964 48.9997 121.104L48.5033 120.244L48.8666 118.888C48.3702 118.028 47.8738 117.169 47.0141 117.665C45.1616 116.442 45.0285 114.226 44.0357 112.506L43.5393 111.646L43.0428 110.787L42.5464 109.927C42.05 109.067 42.05 109.067 41.5536 108.207C41.1543 101.559 40.0284 97.6239 41.1183 93.5555C40.9492 83.3356 43.8556 72.4864 49.9707 63.2239C50.334 61.8678 50.6973 60.5116 52.4167 59.5189C53.2764 59.0226 52.78 58.1628 53.6397 57.6664L54.4994 57.1701C54.4994 57.1701 55.3591 56.6737 54.8627 55.8139C55.7224 55.3176 56.0857 53.9614 56.9454 53.4651C57.8051 52.9687 58.1684 51.6126 59.5245 51.976C59.8878 50.6199 61.6072 49.6272 62.4669 49.1308C63.3266 48.6345 66.4021 48.0052 66.7654 46.6491C66.269 45.7893 65.7726 44.9295 65.2762 44.0697C64.7798 43.2099 64.2834 42.3501 63.787 41.4903C63.2906 40.6305 62.7942 39.7707 62.7942 39.7707C61.9345 40.2671 61.0748 40.7634 60.2151 41.2598L59.3554 41.7561C59.3554 41.7561 58.4957 42.2525 58.9921 43.1123C58.1324 43.6086 57.2727 44.105 56.9094 45.4611C56.0497 45.9575 56.0497 45.9575 55.19 46.4538C54.3303 46.9502 53.4706 47.4465 52.6109 47.9429C51.7512 48.4392 50.8915 48.9356 50.5282 50.2917C49.6685 50.7881 49.3051 52.1442 48.4454 52.6406C47.5857 53.1369 47.2224 54.4931 47.2224 54.4931C46.3627 54.9894 47.3555 56.709 45.9994 56.3455C45.9994 56.3455 45.9994 56.3455 45.1397 56.8419C45.1397 56.8419 44.7764 58.198 43.9167 58.6944C43.057 59.1908 42.6937 60.5469 41.834 61.0432C40.9743 61.5396 40.1146 62.0359 40.1146 62.0359C40.1146 62.0359 40.611 62.8957 39.7513 63.3921L38.8916 63.8884C39.2549 62.5323 40.4779 60.6798 40.8412 59.3236C41.7009 58.8273 42.0642 57.4712 42.0642 57.4712C42.4275 56.115 41.5678 56.6114 40.7081 57.1077C39.4851 58.9602 37.4024 61.3091 36.6758 64.0213C35.8161 64.5177 36.3125 65.3775 35.4528 65.8738C34.5931 66.3702 34.2298 67.7263 33.7334 66.8665C33.237 66.0068 33.237 66.0068 34.0967 65.5104L34.46 64.1543L35.3197 63.6579L35.683 62.3018C36.0463 60.9456 36.0463 60.9456 36.4096 59.5895C37.2693 59.0931 37.6326 57.737 37.6326 57.737L36.7729 58.2333C36.7729 58.2333 36.7729 58.2333 36.4096 59.5895L35.5499 60.0858C34.6902 60.5822 35.1866 61.442 35.683 62.3018C35.3197 63.6579 35.3197 63.6579 34.46 64.1543C33.6003 64.6506 33.6003 64.6506 34.0967 65.5104C34.5931 66.3702 33.237 66.0068 32.8737 67.3629C31.6507 69.2154 30.9241 71.9277 31.0572 74.1436C30.3306 76.8559 29.9673 78.2121 30.1004 80.428C29.7371 81.7841 30.2335 82.6439 29.8702 84.0001C29.5069 85.3562 30.0033 86.216 29.64 87.5722C29.2767 88.9283 29.2767 88.9283 28.9134 90.2845C28.5501 91.6406 28.5501 91.6406 28.1868 92.9968C26.3343 91.7735 25.971 93.1297 26.4674 93.9895C26.4674 93.9895 26.9638 94.8493 26.1041 95.3456C26.6005 96.2054 26.6005 96.2054 26.2372 97.5615C25.3775 98.0579 26.8667 100.637 26.5034 101.993C26.2732 105.566 27.3991 109.501 28.8883 112.08L29.3847 112.94C29.8811 113.8 29.8811 113.8 29.5178 115.156C30.0142 116.016 30.5106 116.876 31.007 117.736C31.5034 118.595 31.9998 119.455 32.4962 120.315C33.489 122.035 34.4818 123.754 34.6149 125.97C35.1113 126.83 35.6077 127.69 36.1041 128.549C36.6005 129.409 37.0969 130.269 37.5933 131.129C38.0897 131.989 39.4458 132.352 39.4458 132.352C39.9422 133.212 39.9422 133.212 40.4386 134.072C40.9351 134.931 40.9351 134.931 41.4315 135.791C41.9279 136.651 42.9207 138.371 44.2768 138.734C45.2696 140.454 45.766 141.313 46.7588 143.033C46.7588 143.033 46.7588 143.033 47.2552 143.893C47.7516 144.753 48.6113 144.256 49.471 143.76L49.3379 141.544C49.3379 141.544 48.4782 142.04 47.9818 141.181C47.9818 141.181 47.4854 140.321 46.6257 140.817C46.1293 139.957 45.6329 139.098 45.1365 138.238L44.6401 137.378L45.0034 136.022C45.0034 136.022 45.0034 136.022 43.6473 135.658L43.1509 134.799C42.6545 133.939 42.1581 133.079 42.1581 133.079C42.1581 133.079 42.5214 131.723 43.3811 131.226C44.2408 130.73 45.2336 132.45 45.2336 132.45C45.73 133.309 46.5897 132.813 46.2264 134.169L46.7228 135.029C47.2192 135.889 47.7156 136.749 49.0717 137.112C49.2048 139.328 49.7012 140.188 50.1976 141.048C50.694 141.907 51.1904 142.767 52.5465 143.131C53.9026 143.494 55.2587 143.858 55.2587 143.858C55.7551 144.717 54.8954 145.214 54.8954 145.214C54.0357 145.71 54.0357 145.71 53.176 146.206C53.176 146.206 52.6796 145.347 51.8199 145.843L51.4566 147.199C51.0933 148.555 55.1616 149.646 56.5177 150.009C57.3774 149.513 56.5177 150.009 56.0213 149.149C55.5249 148.289 55.0285 147.43 55.0285 147.43C56.2515 145.577 56.7479 146.437 57.6076 145.941C58.9637 146.304 60.3199 146.667 60.8163 147.527C61.3127 148.387 61.8091 149.247 61.8091 149.247L62.3055 150.107C62.8019 150.966 62.3055 150.107 61.4458 150.603C61.4458 150.603 60.5861 151.099 60.0897 150.24C60.0897 150.24 58.7335 149.876 57.8738 150.372C57.1472 153.085 62.0753 153.679 62.0753 153.679C63.4314 154.042 64.2911 153.546 64.7875 154.406C65.2839 155.265 65.7803 156.125 66.64 155.629C67.1364 156.489 67.9961 155.992 68.4925 156.852C69.8486 157.216 69.3522 156.356 70.2119 155.859C71.0716 155.363 72.4277 155.727 72.9241 156.586C74.7766 157.81 73.5536 159.662 74.4133 159.166C74.9097 160.025 76.2658 160.389 76.2658 160.389C77.622 160.752 78.9781 161.116 80.3342 161.479C81.1939 160.983 81.6903 161.843 83.0464 162.206L83.9061 161.71C83.9061 161.71 84.7658 161.213 85.2622 162.073L86.255 163.793L87.6111 164.156C87.9744 162.8 89.3305 163.164 89.3305 163.164C90.1902 162.667 91.5463 163.031 92.406 162.534C95.9779 162.765 99.5499 162.995 103.485 161.87C104.841 162.233 107.057 162.1 108.776 161.108C110.992 160.975 113.208 160.842 115.787 159.353C116.647 158.856 117.507 158.36 118.366 157.864C119.722 158.227 120.582 157.731 121.442 157.234C122.301 156.738 121.805 155.878 122.665 155.382C123.524 154.886 123.161 156.242 124.021 155.745C124.881 155.249 125.74 154.753 126.6 154.256C126.963 152.9 126.963 152.9 126.467 152.04C125.97 151.181 125.97 151.181 125.97 151.181L125.111 151.677L124.251 152.173C124.251 152.173 123.391 152.67 122.532 153.166C121.176 152.803 122.895 151.81 123.755 151.314C124.614 150.817 125.474 150.321 126.334 149.824C127.193 149.328 128.053 148.832 128.913 148.335C130.632 147.343 133.211 145.854 134.931 144.861C136.65 143.868 137.873 142.016 139.593 141.023C139.956 139.667 142.402 135.962 144.848 132.257C145.708 131.761 146.071 130.404 147.294 128.552C148.154 128.056 147.657 127.196 148.517 126.699C148.88 125.343 149.74 124.847 149.244 123.987C150.103 123.491 149.607 122.631 150.467 122.135C151.326 121.638 150.83 120.779 151.69 120.282C151.69 120.282 152.053 118.926 152.913 118.43C153.772 117.933 153.276 117.074 153.639 115.717C153.639 115.717 154.499 115.221 154.003 114.361C154.366 113.005 154.366 113.005 154.729 111.649C154.596 109.433 155.819 107.581 156.182 106.224C156.049 104.008 156.413 102.652 157.139 99.94C157.502 98.5839 157.369 96.3679 156.873 95.5081C156.377 94.6483 156.74 93.2922 156.243 92.4324C156.11 90.2165 155.977 88.0005 155.844 85.7846C155.348 84.9248 155.711 83.5686 155.215 82.7088C156.074 82.2125 155.081 80.4929 155.941 79.9965C156.801 79.5002 155.941 79.9965 155.941 79.9965L156.438 80.8563L156.934 81.7161C157.43 82.5759 157.067 83.9321 157.564 84.7919C157.697 87.0078 157.83 89.2237 157.466 90.5799C157.963 91.4397 157.6 92.7958 158.096 93.6556C158.592 94.5154 157.733 95.0118 157.369 96.3679L157.866 97.2277L158.362 98.0875L157.502 98.5839L157.139 99.94C158.132 101.66 158.628 102.519 158.761 104.735C158.398 106.091 157.538 106.588 157.538 106.588L158.035 107.448L157.672 108.804C157.308 110.16 157.805 111.02 156.945 111.516C157.078 113.732 156.218 114.228 155.855 115.584C154.632 117.437 154.765 119.653 153.542 121.505C153.179 122.862 153.179 122.862 152.319 123.358C151.459 123.854 151.459 123.854 150.6 124.351C149.74 124.847 151.096 125.21 150.236 125.707L149.873 127.063C150.369 127.923 149.146 129.775 148.783 131.131C147.923 131.628 148.42 132.488 147.56 132.984C146.7 133.48 146.7 133.48 145.841 133.977C145.974 136.192 145.114 136.689 143.395 137.682C142.535 138.178 141.675 138.674 141.312 140.03C140.452 140.527 139.593 141.023 139.229 142.379C137.51 143.372 136.287 145.224 134.568 146.217C132.848 147.21 130.765 149.559 129.046 150.551C129.046 150.551 128.186 151.048 128.683 151.908C129.179 152.767 129.542 151.411 130.402 150.915C131.262 150.418 132.122 149.922 132.122 149.922C132.981 149.426 133.345 148.07 134.204 147.573C135.427 145.721 137.643 145.588 138.866 143.735C140.949 141.387 143.031 139.038 145.114 136.689C147.197 134.34 149.28 131.991 151.362 129.642C153.445 127.293 154.172 124.581 154.898 121.869C156.121 120.016 155.988 117.8 155.855 115.584C157.574 114.592 157.938 113.236 157.938 113.236L158.301 111.88L157.805 111.02L159.028 109.167C160.251 107.315 159.754 106.455 160.614 105.959C160.977 104.602 160.844 102.386 161.207 101.03C161.074 98.8144 161.438 97.4583 161.305 95.2423C161.535 91.6702 160.542 89.9506 160.905 88.5945L161.269 87.2383L160.772 86.3786C160.276 85.5188 160.639 84.1626 160.143 83.3028C159.646 82.443 160.01 81.0869 159.513 80.2271L159.017 79.3673C158.52 78.5075 159.38 78.0111 158.884 77.1514L158.387 76.2916C157.891 75.4318 157.891 75.4318 157.394 74.572C156.898 73.7122 157.261 72.356 156.765 71.4962C156.268 70.6364 156.268 70.6364 156.632 69.2803C156.135 68.4205 156.995 67.9241 156.499 67.0643C156.002 66.2046 156.002 66.2046 155.506 65.3448C155.009 64.485 155.009 64.485 154.513 63.6252C154.017 62.7654 153.52 61.9056 153.024 61.0458L152.527 60.186C152.031 59.3262 152.031 59.3262 151.535 58.4664L151.038 57.6066L150.542 56.7468C150.045 55.887 149.549 55.0272 149.053 54.1674C148.06 52.4478 146.207 51.2246 145.215 49.505C143.725 46.9256 141.376 44.8426 138.168 43.2559C135.952 43.3888 134.099 42.1656 133.107 40.446C131.254 39.2227 129.402 37.9995 128.046 37.636C125.333 36.9092 122.984 34.8261 120.272 34.0992C117.56 33.3723 116.204 33.0089 113.492 32.282C112.136 31.9186 110.283 30.6953 108.067 30.8282C106.711 30.4648 103.999 29.7379 104.362 28.3817C102.643 29.3744 101.287 29.011 99.9306 28.6476C98.5745 28.2841 98.5745 28.2841 98.0781 27.4243C97.5817 26.5645 98.0781 27.4243 97.2184 27.9207C96.3587 28.417 96.3587 28.417 95.0026 28.0536C93.6465 27.6901 93.6465 27.6901 92.2904 27.3267C91.4306 27.823 91.4306 27.823 90.0745 27.4596C90.0745 27.4596 89.2148 27.9559 88.7184 27.0962L87.8587 27.5925C86.999 28.0889 85.6429 27.7254 84.7832 28.2218C83.9235 28.7181 82.5674 28.3547 81.7077 28.851C81.7077 28.851 80.848 29.3474 80.3516 28.4876C80.3516 28.4876 79.8552 27.6278 78.9955 28.1241C77.6394 27.7607 78.1358 28.6205 78.1358 28.6205C78.1358 28.6205 77.6394 27.7607 76.7797 28.257L75.92 28.7534L75.0603 29.2497C74.2006 29.7461 73.7042 28.8863 72.8444 29.3826C71.9847 29.879 71.125 30.3753 70.2653 30.8717C69.4056 31.368 68.5459 31.8644 67.6862 32.3607C66.8265 32.8571 66.4632 34.2132 66.4632 34.2132L65.1071 33.8498C64.2474 34.3461 64.2474 34.3461 63.3877 34.8425C61.6683 35.8352 61.6683 35.8352 61.305 37.1913ZM61.2079 42.9794C61.7043 43.8392 61.7043 43.8392 61.2079 42.9794V42.9794ZM58.3986 48.0405C57.9022 47.1807 60.118 47.0478 58.3986 48.0405C58.3986 48.0405 57.5389 48.5369 58.3986 48.0405C57.5389 48.5369 58.3986 48.0405 58.3986 48.0405ZM50.7944 54.7236C51.6541 54.2272 52.0174 52.8711 52.8771 52.3747C53.7368 51.8784 54.1001 50.5222 55.4562 50.8857C56.8123 51.2491 56.8123 51.2491 55.9526 51.7455L55.0929 52.2418C54.7296 53.598 53.0102 54.5907 52.1505 55.087L51.2908 55.5834C50.4311 56.0797 49.9347 55.2199 50.7944 54.7236ZM31.6507 69.2154C32.1471 70.0752 32.1471 70.0752 31.6507 69.2154C32.1471 70.0752 32.1471 70.0752 31.6507 69.2154ZM32.4133 74.5071C31.0572 74.1436 30.9241 71.9277 31.2874 70.5715L30.791 69.7117L31.6507 69.2154L32.014 67.8592C32.8737 67.3629 33.3701 68.2227 33.3701 68.2227C33.8665 69.0825 32.6435 70.935 32.2802 72.2911C33.1399 71.7948 33.7694 74.8705 32.4133 74.5071ZM43.2261 69.4107C43.2261 69.4107 42.7297 68.5509 43.093 67.1947C43.093 67.1947 43.9527 66.6984 43.4563 65.8386L43.8196 64.4824L44.6793 63.9861L45.0426 62.6299C45.4059 61.2738 46.6289 59.4213 46.9922 58.0651C46.9922 58.0651 47.3555 56.709 48.2152 56.2126L50.4311 56.0797C51.7872 56.4432 50.5642 58.2957 49.7045 58.792C48.8448 59.2884 47.985 59.7847 48.4814 60.6445C48.4814 60.6445 48.1181 62.0007 48.6146 62.8605C48.2513 64.2166 47.7548 63.3568 47.3915 64.713C46.5318 65.2093 46.1685 66.5655 46.1685 66.5655C45.8052 67.9216 45.8052 67.9216 45.4419 69.2777C44.0858 68.9143 42.8628 70.7668 43.2261 69.4107ZM33.7694 74.8705C34.2658 75.7303 33.4061 76.2267 33.9025 77.0865L33.5392 78.4426C33.0428 77.5828 33.0428 77.5828 33.9025 77.0865C33.4061 76.2267 33.4061 76.2267 33.7694 74.8705ZM29.8702 84.0001C28.5141 83.6366 29.3738 83.1403 29.3738 83.1403L29.7371 81.7841C29.2407 80.9244 29.1076 78.7084 29.9673 78.2121C30.827 77.7157 31.3234 78.5755 31.3234 78.5755C31.8198 79.4353 30.9601 79.9317 31.4565 80.7914C30.5968 81.2878 29.8702 84.0001 29.8702 84.0001ZM28.0537 90.7808C26.6976 90.4174 27.4242 87.7051 28.7803 88.0685C30.6328 89.2918 29.4098 91.1443 28.0537 90.7808ZM38.8665 85.6844C38.3701 84.8246 38.3701 84.8246 37.8737 83.9648L37.3773 83.105C38.237 82.6087 37.8737 83.9648 37.8737 83.9648L38.8665 85.6844C40.2226 86.0478 39.3629 86.5442 38.8665 85.6844ZM38.273 90.6126C39.1327 90.1163 39.1327 90.1163 38.273 90.6126C39.6291 90.9761 38.7694 91.4724 38.273 90.6126ZM27.9566 96.5688C27.9566 96.5688 29.3127 96.9323 27.9566 96.5688C28.453 97.4286 28.453 97.4286 27.9566 96.5688ZM32.2911 102.091C31.7947 101.231 31.7947 101.231 32.158 99.8751C32.6544 100.735 32.2911 102.091 32.2911 102.091C32.7875 102.951 32.2911 102.091 32.2911 102.091ZM33.5501 108.243C33.0537 107.383 33.0537 107.383 33.417 106.027C32.9206 105.167 32.9206 105.167 33.417 106.027C33.9134 106.886 34.0465 109.102 34.5429 109.962C33.6832 110.458 34.0465 109.102 33.5501 108.243ZM31.2372 114.163C32.0969 113.667 32.0969 113.667 31.2372 114.163C32.0969 113.667 31.2372 114.163 31.2372 114.163ZM35.3415 123.258C34.4818 123.754 32.9926 121.175 34.3487 121.538C34.8451 122.398 36.6976 123.621 35.3415 123.258ZM35.7048 121.902C35.2084 121.042 36.5645 121.405 35.7048 121.902C36.5645 121.405 36.2012 122.761 36.6976 123.621C37.0609 122.265 35.7048 121.902 35.7048 121.902ZM40.6688 130.5C39.3127 130.136 37.9566 129.773 37.4602 128.913C36.9638 128.053 37.8235 127.557 37.8235 127.557C37.3271 126.697 37.3271 126.697 37.3271 126.697C35.971 126.333 35.4746 125.474 35.8379 124.118L36.6976 123.621C36.6976 123.621 36.6976 123.621 37.0609 122.265C37.9206 121.769 37.9206 121.769 38.7803 121.272C38.2839 120.413 37.7875 119.553 36.7947 117.833C36.2983 116.973 36.1652 114.757 34.8091 114.394C34.4458 115.75 35.8019 116.114 36.2983 116.973C36.2983 116.973 37.2911 118.693 37.7875 119.553C36.9278 120.049 35.935 118.33 35.935 118.33C35.4386 117.47 34.5789 117.966 33.7192 118.462C33.2228 117.603 31.8667 117.239 32.7264 116.743C33.5861 116.246 33.5861 116.246 33.9494 114.89C33.453 114.031 32.9566 113.171 33.8163 112.674C34.1796 111.318 33.6832 110.458 34.5429 109.962C35.899 110.326 36.5285 113.401 37.0249 114.261C38.0177 115.981 38.5141 116.84 39.5069 118.56C40.4997 120.28 41.4925 121.999 41.9889 122.859C42.4854 123.719 43.4782 125.438 43.1149 126.795C42.2552 127.291 42.2552 127.291 41.8919 128.647C41.5286 130.003 42.025 130.863 40.6688 130.5ZM53.4062 142.634C53.4062 142.634 52.9098 141.775 52.0501 142.271C51.5537 141.411 51.5537 141.411 51.5537 141.411C51.0573 140.551 51.0573 140.551 50.1976 141.048C49.3379 141.544 49.7012 140.188 49.7012 140.188L49.2048 139.328L47.8487 138.965C47.3523 138.105 48.212 137.608 47.7156 136.749C47.2192 135.889 47.2192 135.889 46.7228 135.029C46.0933 131.953 47.5825 134.533 47.5825 134.533C48.0789 135.393 49.9314 136.616 50.4278 137.476C52.2803 138.699 52.7767 139.559 53.7695 141.278L54.2659 142.138L53.4062 142.634ZM67.3306 144.913C65.6112 145.905 64.122 143.326 65.8414 142.333C66.7011 141.837 67.1975 142.697 67.1975 142.697L67.6939 143.556C68.1903 144.416 67.3306 144.913 67.3306 144.913ZM62.3055 150.107C61.8091 149.247 62.6688 148.751 63.1652 149.61L62.3055 150.107ZM65.7443 148.121C66.604 147.625 66.604 147.625 65.7443 148.121V148.121ZM67.0033 154.273C66.1436 154.769 63.4314 154.042 63.7947 152.686L64.6544 152.19L65.5141 151.693C66.3738 151.197 65.8774 150.337 67.2335 150.701C67.2335 150.701 67.7299 151.56 69.086 151.924C69.086 151.924 70.4421 152.287 70.9385 153.147C71.4349 154.007 70.0788 153.643 70.0788 153.643C70.0788 153.643 70.0788 153.643 69.5824 152.784L68.2263 152.42C65.1508 153.05 66.5069 153.413 67.0033 154.273C66.5069 153.413 67.0033 154.273 67.0033 154.273ZM75.5032 155.097C74.6435 155.594 74.1471 154.734 73.2874 155.23C72.4277 155.727 72.4277 155.727 71.0716 155.363C71.0716 155.363 70.5752 154.503 71.4349 154.007C71.4349 154.007 72.791 154.37 73.2874 155.23C73.6507 153.874 75.0068 154.237 75.5032 155.097C76.3629 154.601 76.3629 154.601 75.5032 155.097C76.3629 154.601 75.5032 155.097 75.5032 155.097ZM75.7694 159.529C76.6291 159.033 76.6291 159.033 75.7694 159.529C77.1256 159.893 77.1256 159.893 75.7694 159.529ZM114.855 143.841C114.855 143.841 115.219 142.485 116.575 142.848C117.071 143.708 115.352 144.701 114.855 143.841ZM94.9851 161.045C94.1254 161.542 93.2657 162.038 91.9096 161.675C90.5535 161.311 91.0499 162.171 90.1902 162.667C88.4708 163.66 89.1974 160.948 87.478 161.94C86.6183 162.437 86.6183 162.437 86.1219 161.577C85.6255 160.717 85.6255 160.717 84.7658 161.213C84.7658 161.213 84.2694 160.354 83.4097 160.85L81.1939 160.983L81.5572 159.627C81.9205 158.271 82.4169 159.13 83.2766 158.634C85.8557 157.145 86.3521 158.005 87.2118 157.508C88.5679 157.872 89.0643 158.732 89.924 158.235C89.924 158.235 89.924 158.235 91.2801 158.599C92.1398 158.102 92.1398 158.102 92.1398 158.102C92.9995 157.606 94.3556 157.97 94.852 158.829C94.852 158.829 95.3484 159.689 95.8448 160.549C95.8448 160.549 95.4815 161.905 94.9851 161.045ZM115.485 146.917C115.485 146.917 116.708 145.064 117.204 145.924C117.701 146.784 115.485 146.917 115.485 146.917ZM101.996 159.29C102.856 158.794 103.352 159.654 103.352 159.654C102.492 160.15 102.492 160.15 101.996 159.29C101.136 159.787 101.136 159.787 101.996 159.29ZM100.64 158.927L101.136 159.787C101.136 159.787 100.276 160.283 99.4168 160.779C98.5571 161.276 97.2009 160.912 96.7045 160.053C96.2081 159.193 96.5714 157.837 97.9276 158.2L98.424 159.06C99.2837 158.564 99.7801 159.423 100.64 158.927ZM139.157 126.371C140.15 128.091 137.075 128.72 136.711 130.076L136.348 131.432L135.488 131.929C134.629 132.425 134.265 133.781 133.406 134.278L132.546 134.774L132.183 136.13L131.323 136.626C130.463 137.123 131.819 137.486 130.96 137.983C130.1 138.479 130.1 138.479 129.604 137.619C129.604 137.619 128.744 138.116 128.247 137.256C127.388 137.752 127.388 137.752 127.884 138.612C127.157 141.324 126.298 141.821 125.438 142.317C124.578 142.813 123.355 144.666 122.363 142.946C121.866 142.086 124.445 140.597 124.445 140.597L125.305 140.101L125.668 138.745C126.528 138.248 126.528 138.248 127.388 137.752C128.247 137.256 128.247 137.256 129.107 136.759C129.967 136.263 129.967 136.263 130.827 135.767C131.686 135.27 131.19 134.411 132.05 133.914C132.909 133.418 133.769 132.921 134.132 131.565L134.496 130.209C135.355 129.713 135.355 129.713 135.355 129.713C136.215 129.217 135.719 128.357 135.719 128.357L136.082 127.001C136.942 126.504 138.298 126.868 139.157 126.371ZM151.315 91.8384C151.315 91.8384 151.812 92.6982 150.952 93.1946C151.812 92.6982 151.315 91.8384 151.315 91.8384ZM132.912 52.022C131.556 51.6586 130.2 51.2951 129.704 50.4353C129.704 50.4353 128.348 50.0719 127.851 49.2121C127.355 48.3523 127.355 48.3523 128.711 48.7157C130.067 49.0792 130.564 49.939 131.92 50.3024C132.416 51.1622 133.276 50.6659 132.912 52.022C133.772 51.5257 133.409 52.8818 132.912 52.022ZM140.092 60.4871C139.596 59.6273 137.247 57.5442 138.107 57.0479C137.61 56.1881 133.905 53.7416 134.765 53.2453C135.625 52.7489 136.617 54.4685 136.617 54.4685C137.114 55.3283 138.47 55.6917 138.966 56.5515C139.463 57.4113 139.959 58.2711 140.456 59.1309C140.456 59.1309 140.952 59.9907 140.092 60.4871C140.952 59.9907 140.092 60.4871 140.092 60.4871ZM138.833 54.3356C138.833 54.3356 142.538 56.7821 141.679 57.2784C140.819 57.7748 139.33 55.1954 138.833 54.3356ZM142.671 58.998C143.531 58.5017 144.028 59.3615 144.028 59.3615C144.028 59.3615 144.524 60.2213 144.028 59.3615C143.664 60.7176 142.671 58.998 142.671 58.998ZM142.441 62.5701C142.441 62.5701 141.085 62.2067 141.945 61.7103L142.805 61.214L142.441 62.5701ZM143.071 65.6458C141.715 65.2824 141.582 63.0665 143.434 64.2897C145.65 64.1568 144.427 66.0093 143.071 65.6458ZM130.528 41.935C132.38 43.1583 134.233 44.3815 136.085 45.6047C137.938 46.828 139.79 48.0512 140.783 49.7708C141.279 50.6306 141.776 51.4904 141.776 51.4904C142.272 52.3502 143.132 51.8538 143.628 52.7136C144.984 53.0771 144.621 54.4332 145.977 54.7967C146.474 55.6565 146.97 56.5163 147.963 58.2359C148.459 59.0957 148.956 59.9554 149.452 60.8152C149.948 61.675 150.445 62.5348 150.941 63.3946C150.941 63.3946 151.438 64.2544 150.578 64.7508C151.074 65.6106 151.074 65.6106 151.074 65.6106C151.571 66.4704 152.067 67.3302 152.563 68.19L153.06 69.0497L153.556 69.9095C154.053 70.7693 154.549 71.6291 155.045 72.4889C155.542 73.3487 156.038 74.2085 156.535 75.0683C156.535 75.0683 157.031 75.9281 157.528 76.7879C157.528 76.7879 156.668 77.2842 155.808 77.7806C154.452 77.4172 154.815 76.061 154.319 75.2012C153.822 74.3414 153.326 73.4816 153.689 72.1255C153.193 71.2657 153.556 69.9095 153.06 69.0497C151.074 65.6106 149.089 62.1714 147.103 58.7322C145.117 55.293 142.272 52.3502 139.427 49.4074C138.93 48.5476 138.434 47.6878 137.078 47.3243C136.581 46.4645 136.581 46.4645 135.225 46.1011L134.729 45.2413L135.589 44.7449C135.589 44.7449 136.448 44.2486 135.092 43.8852C134.596 43.0254 132.876 44.0181 131.52 43.6546C131.52 43.6546 131.024 42.7948 130.528 41.935C130.528 41.935 130.031 41.0752 129.535 40.2154C129.038 39.3556 128.675 40.7118 127.319 40.3483C128.445 44.2839 130.031 41.0752 130.528 41.935ZM95.1717 38.2735C95.1717 38.2735 96.0314 37.7771 95.1717 38.2735C96.0314 37.7771 96.5278 38.6369 95.1717 38.2735ZM100.596 39.7273C100.1 38.8675 102.316 38.7346 101.952 40.0907L100.596 39.7273ZM104.168 39.9578C103.672 39.098 104.531 38.6017 105.028 39.4614L105.524 40.3212C105.524 40.3212 105.524 40.3212 104.168 39.9578ZM108.236 41.0481C107.377 41.5445 107.74 40.1883 108.6 39.692C109.956 40.0554 109.592 41.4116 108.236 41.0481ZM110.949 41.775C110.949 41.775 111.808 41.2787 110.949 41.775C111.808 41.2787 111.808 41.2787 110.949 41.775ZM118.189 36.4481C119.546 36.8115 121.398 38.0348 122.754 38.3982C123.251 39.258 124.11 38.7616 124.607 39.6214C125.103 40.4812 129.171 41.5716 128.312 42.0679C127.452 42.5643 126.956 41.7045 126.956 41.7045C126.956 41.7045 126.459 40.8447 125.6 41.341L124.74 41.8374C123.88 42.3337 124.243 40.9776 124.243 40.9776C123.747 40.1178 122.887 40.6141 122.028 41.1105C120.671 40.747 120.671 40.7471 119.315 40.3836C117.959 40.0202 117.959 40.0202 116.603 39.6567C115.61 37.9371 116.833 36.0846 118.189 36.4481ZM85.9091 32.1573C88.9846 31.528 92.0601 30.8988 95.6321 31.1293C97.8479 30.9964 100.56 31.7233 102.776 31.5904C104.992 31.4575 107.704 32.1844 109.06 32.5478C110.416 32.9113 111.772 33.2747 113.625 34.4979C114.121 35.3577 116.337 35.2248 115.477 35.7212L114.618 36.2175C113.758 36.7139 113.758 36.7139 112.402 36.3504C109.69 35.6236 106.977 34.8967 103.405 34.6661C100.693 33.9392 97.1213 33.7087 94.9055 33.8416C93.5494 33.4782 91.3335 33.6111 90.4738 34.1074C89.6141 34.6038 89.1177 33.744 88.258 34.2403C87.3983 34.7367 86.0422 34.3732 86.0422 34.3732L85.5458 33.5134C85.5458 33.5134 85.5458 33.5134 86.4055 33.0171C86.4055 33.0171 87.7616 33.3805 87.2652 32.5207C89.481 32.3878 86.4055 33.0171 85.9091 32.1573ZM84.1897 33.15C84.1897 33.15 84.6861 34.0098 84.1897 33.15C83.33 33.6463 84.1897 33.15 84.1897 33.15ZM81.6106 34.639C82.4703 34.1427 82.107 35.4988 81.6106 34.639C81.2473 35.9952 80.3876 36.4915 79.8912 35.6317C79.8912 35.6317 79.0315 36.1281 79.3948 34.7719C79.3948 34.7719 80.7509 35.1354 81.6106 34.639ZM73.7402 36.8903C73.7402 36.8903 74.5999 36.3939 75.4596 35.8976L76.3193 35.4012L76.8157 36.261C76.8157 36.261 76.8157 36.261 75.956 36.7573C75.0963 37.2537 73.7402 36.8903 72.0208 37.883C71.1611 38.3793 71.1611 38.3793 70.3014 38.8757C70.3014 38.8757 67.7222 40.3647 67.2258 39.5049C66.7294 38.6451 68.4488 37.6524 69.3085 37.1561C71.161 38.3793 72.0208 37.883 73.7402 36.8903ZM76.3193 35.4012C75.4596 35.8976 75.4596 35.8976 76.3193 35.4012C75.4596 35.8976 75.4596 35.8976 76.3193 35.4012Z" fill="url(#paint0_linear)"/>
<path d="M54.7652 61.6022C54.2688 60.7424 54.2688 60.7424 53.4091 61.2387C52.5494 61.7351 51.6897 62.2314 51.3264 63.5876L50.1034 65.4401C49.2437 65.9364 49.7401 66.7962 50.5998 66.2999C51.4595 65.8035 51.8228 64.4474 52.6825 63.951C54.4019 62.9583 54.4019 62.9583 54.7652 61.6022Z" fill="url(#paint1_linear)"/>
<path d="M122.063 49.114C123.056 50.8336 124.412 51.197 126.265 52.4203C126.761 53.2801 128.117 53.6435 128.117 53.6435C128.614 54.5033 129.97 54.8667 129.97 54.8667C130.466 55.7265 130.963 56.5863 131.822 56.09C131.822 56.09 133.178 56.4534 132.682 55.5936L132.186 54.7338C131.689 53.874 130.333 53.5106 129.837 52.6508C127.984 51.4276 127.488 50.5678 125.635 49.3445C123.916 50.3372 123.916 50.3372 122.063 49.114C123.419 49.4774 122.923 48.6176 122.063 49.114Z" fill="url(#paint2_linear)"/>
<path d="M67.8909 50.5847C68.2542 49.2285 65.6751 50.7176 64.8154 51.2139C63.9557 51.7103 63.096 52.2066 62.2363 52.703C61.3766 53.1993 61.3766 53.1993 60.5169 53.6957C60.5169 53.6957 59.6572 54.192 59.2939 55.5482C59.7903 56.408 60.1536 55.0518 60.1536 55.0518C61.0133 54.5555 61.873 54.0591 63.096 52.2066C63.9557 51.7103 63.9557 51.7103 64.8154 51.2139C66.1715 51.5774 67.8909 50.5847 67.8909 50.5847Z" fill="url(#paint3_linear)"/>
<path d="M51.7154 40.4362C52.0787 39.08 50.3593 40.0727 51.7154 40.4362C49.996 41.4289 49.1363 41.9252 48.2766 42.4216C46.5572 43.4143 47.0536 44.2741 47.1867 46.49C48.4097 44.6375 50.4924 42.2886 51.7154 40.4362Z" fill="url(#paint4_linear)"/>
<path d="M56.3768 36.5975C56.8732 37.4573 55.1538 38.45 56.0135 37.9536C56.5099 38.8134 57.3696 38.317 57.7329 36.9609C58.5926 36.4646 58.0962 35.6048 58.0962 35.6048C57.5998 34.745 58.4595 34.2486 57.9631 33.3888C57.5998 34.745 56.7401 35.2413 56.3768 36.5975Z" fill="url(#paint5_linear)"/>
<path d="M101.694 146.855C100.835 147.352 99.4786 146.988 98.6189 147.484C97.7592 147.981 96.4031 147.617 95.047 147.254C95.047 147.254 94.1873 147.75 93.6909 146.89L92.3348 146.527C91.4751 147.023 93.6909 146.89 93.6909 146.89C96.4031 147.617 99.4786 146.988 101.694 146.855Z" fill="url(#paint6_linear)"/>
<path d="M71.266 143.788C70.9027 145.144 71.7624 144.648 73.1185 145.011C74.971 146.234 71.266 143.788 73.1185 145.011C73.1185 145.011 73.6149 145.871 74.4746 145.375L75.3343 144.878L74.8379 144.018C73.1185 145.011 71.266 143.788 71.266 143.788Z" fill="url(#paint7_linear)"/>
<path d="M80.758 146.331C80.2616 145.471 80.2616 145.471 78.9055 145.108C78.0458 145.604 76.6897 145.241 77.1861 146.1C78.0458 145.604 79.4019 145.968 80.758 146.331C79.4019 145.968 81.2544 147.191 80.758 146.331Z" fill="url(#paint8_linear)"/>
<path d="M84.4634 148.778C84.9598 149.638 85.8195 149.142 86.3159 150.001C86.3159 150.001 88.1684 151.225 89.0281 150.728C90.2512 148.876 84.4634 148.778 84.4634 148.778Z" fill="url(#paint9_linear)"/>
<path d="M51.6186 46.2235C52.4783 45.7271 53.338 45.2308 53.7013 43.8746L52.8416 44.371L52.3452 43.5112C52.3452 43.5112 51.4855 44.0076 51.9819 44.8673C52.4783 45.7271 51.9819 44.8673 52.4783 45.7271C51.1222 45.3637 50.7588 46.7198 51.6186 46.2235Z" fill="url(#paint10_linear)"/>
<path d="M91.9705 147.883C91.1108 148.379 91.2439 150.595 92.1036 150.099C93.4597 150.462 93.3266 148.246 91.9705 147.883Z" fill="url(#paint11_linear)"/>
<path d="M116.07 30.7924C116.566 31.6522 117.426 31.1559 118.782 31.5193C118.782 31.5193 118.782 31.5193 119.642 31.023L119.146 30.1632L118.286 30.6595C118.286 30.6595 118.286 30.6595 116.93 30.2961C116.93 30.2961 114.714 30.429 116.07 30.7924Z" fill="url(#paint12_linear)"/>
<path d="M44.8734 52.4101C44.377 51.5503 44.7403 50.1942 45.6 49.6979C44.7403 50.1942 43.5173 52.0467 44.8734 52.4101C44.0137 52.9065 44.8734 52.4101 44.8734 52.4101Z" fill="url(#paint13_linear)"/>
<path d="M50.8274 144.123C50.8274 144.123 48.6116 144.256 49.108 145.116C49.108 145.116 50.4641 145.479 51.3238 144.983C51.8202 145.843 52.1835 144.486 50.8274 144.123Z" fill="url(#paint14_linear)"/>
<path d="M100.967 149.567C101.464 150.427 100.967 149.567 100.967 149.567C100.471 148.707 99.6112 149.204 99.6112 149.204C99.6112 149.204 98.7515 149.7 100.108 150.063C100.108 150.063 100.108 150.063 100.967 149.567Z" fill="url(#paint15_linear)"/>
<path d="M141.29 80.431C142.15 79.9346 142.646 80.7944 141.29 80.431C142.15 79.9346 142.15 79.9346 142.15 79.9346C141.654 79.0748 141.29 80.431 141.29 80.431Z" fill="url(#paint16_linear)"/>
<path d="M48.1539 70.0043C49.0136 69.5079 49.0136 69.5079 48.1539 70.0043C49.0136 69.5079 48.5172 68.6481 48.1539 70.0043C47.6575 69.1445 48.1539 70.0043 48.1539 70.0043Z" fill="url(#paint17_linear)"/>
<path d="M39.2193 54.5282C38.3596 55.0245 38.856 55.8843 39.7157 55.388C39.7157 55.388 39.5826 53.172 39.2193 54.5282Z" fill="url(#paint18_linear)"/>
<path d="M124.208 32.9739C123.711 32.1141 123.711 32.1141 122.852 32.6104C123.348 33.4702 123.348 33.4702 124.208 32.9739Z" fill="url(#paint19_linear)"/>
<path d="M76.6897 145.241C76.1933 144.381 76.5566 143.025 76.6897 145.241C76.1933 144.381 76.1933 144.381 76.6897 145.241C76.1933 144.381 76.1933 144.381 76.6897 145.241Z" fill="url(#paint20_linear)"/>
<path d="M89.7549 148.016C91.111 148.38 89.7549 148.016 89.7549 148.016V148.016Z" fill="url(#paint21_linear)"/>
<path d="M54.5934 132.778C55.4531 132.281 55.4531 132.281 54.5934 132.778C54.9567 131.422 54.5934 132.778 54.5934 132.778Z" fill="url(#paint22_linear)"/>
<path d="M80.8917 148.546C80.3953 147.687 80.3953 147.687 80.8917 148.546C80.032 149.043 80.8917 148.546 80.8917 148.546Z" fill="url(#paint23_linear)"/>
<path d="M72.9858 142.794C72.4894 141.935 71.6297 142.431 72.9858 142.794C72.1261 143.291 72.1261 143.291 72.9858 142.794Z" fill="url(#paint24_linear)"/>
<path d="M42.7916 54.7594C43.1549 53.4033 43.1549 53.4033 42.7916 54.7594V54.7594Z" fill="url(#paint25_linear)"/>
<path d="M57.1723 131.289C56.3126 131.785 55.8162 130.925 57.1723 131.289C56.3126 131.785 56.3126 131.785 57.1723 131.289Z" fill="url(#paint26_linear)"/>
<path d="M91.333 33.6104C91.8294 34.4702 93.5488 33.4775 93.0524 32.6177C92.556 31.7579 90.8366 32.7506 91.333 33.6104Z" fill="url(#paint27_linear)"/>
<path d="M95.7652 33.3453C96.2616 34.2051 97.981 33.2124 97.981 33.2124C98.8407 32.716 96.6249 32.8489 95.7652 33.3453Z" fill="url(#paint28_linear)"/>
<path d="M109.69 35.6239C109.69 35.6239 109.193 34.7641 109.69 35.6239C109.193 34.7641 108.334 35.2604 108.334 35.2604L109.69 35.6239Z" fill="url(#paint29_linear)"/>
<path d="M104.264 34.1691C104.761 35.0289 105.124 33.6728 104.264 34.1691C103.768 33.3093 104.264 34.1691 104.264 34.1691Z" fill="url(#paint30_linear)"/>
<path d="M94.9052 33.8408C95.2685 32.4847 94.4088 32.981 94.9052 33.8408V33.8408Z" fill="url(#paint31_linear)"/>
<path d="M40.8992 126.927C40.4028 126.068 39.41 124.348 39.0467 125.704C39.0467 125.704 39.5431 126.564 40.0395 127.424C40.5359 128.284 40.5359 128.284 40.8992 126.927C41.3956 127.787 41.3956 127.787 40.8992 126.927Z" fill="url(#paint32_linear)"/>
<circle cx="94.4851" cy="95.5398" r="59.7649" transform="rotate(-33.369 94.4851 95.5398)" fill="url(#paint33_linear)"/>
<g clip-path="url(#clip1)">
<path d="M111.711 76.6962C107.062 72.0475 100.881 69.4873 94.3069 69.4873C87.7325 69.4873 81.5516 72.0474 76.9028 76.6962C72.254 81.345 69.6938 87.526 69.6938 94.1004C69.6938 100.675 72.2541 106.856 76.9028 111.504C81.5515 116.153 87.7325 118.713 94.3069 118.713C100.881 118.713 107.062 116.153 111.711 111.504C116.36 106.856 118.92 100.675 118.92 94.1004C118.92 87.526 116.36 81.3451 111.711 76.6962ZM94.3069 92.5621C98.124 92.5621 101.229 95.6674 101.229 99.4845C101.229 102.645 99.0991 105.317 96.1992 106.142C95.9909 106.201 95.8452 106.389 95.8452 106.605L95.8452 107.902C95.8452 108.73 95.2087 109.443 94.3812 109.482C93.4978 109.523 92.7686 108.819 92.7686 107.945L92.7686 106.605C92.7686 106.389 92.6238 106.201 92.416 106.142C89.5286 105.321 87.4038 102.67 87.3846 99.5275C87.3795 98.6886 88.039 97.9709 88.8776 97.9468C89.7478 97.9218 90.4611 98.6198 90.4611 99.4845C90.4611 101.696 92.3376 103.478 94.5818 103.321C96.4762 103.188 98.0108 101.654 98.1431 99.7592C98.2998 97.5149 96.5183 95.6387 94.3069 95.6387C90.4899 95.6387 87.3845 92.5333 87.3845 88.7163C87.3845 85.5553 89.5148 82.8842 92.4146 82.0589C92.6229 81.9996 92.7686 81.8122 92.7686 81.5956L92.7686 80.299C92.7686 79.4706 93.4052 78.7579 94.2326 78.7189C95.1161 78.6774 95.8452 79.3813 95.8452 80.2555L95.8452 81.5959C95.8452 81.8119 95.99 81.9994 96.1978 82.0585C99.0852 82.8796 101.21 85.5306 101.229 88.6733C101.234 89.5121 100.575 90.2299 99.7362 90.2539C98.866 90.2789 98.1527 89.5809 98.1527 88.7163C98.1527 86.5047 96.2762 84.7232 94.032 84.8801C92.1376 85.0125 90.603 86.5471 90.4707 88.4416C90.314 90.6859 92.0955 92.5621 94.3069 92.5621Z" fill="white"/>
</g>
</g>
<defs>
<linearGradient id="paint0_linear" x1="36.1041" y1="128.549" x2="153.024" y2="61.0458" gradientUnits="userSpaceOnUse">
<stop stop-color="#F36E2A"/>
<stop offset="1" stop-color="#FEBD66"/>
</linearGradient>
<linearGradient id="paint1_linear" x1="49.2104" y1="65.3824" x2="55.0134" y2="62.0321" gradientUnits="userSpaceOnUse">
<stop stop-color="#F36E2A"/>
<stop offset="1" stop-color="#FEBD66"/>
</linearGradient>
<linearGradient id="paint2_linear" x1="124.904" y1="54.0339" x2="130.062" y2="51.0558" gradientUnits="userSpaceOnUse">
<stop stop-color="#F36E2A"/>
<stop offset="1" stop-color="#FEBD66"/>
</linearGradient>
<linearGradient id="paint3_linear" x1="59.156" y1="55.3093" x2="67.9261" y2="50.2459" gradientUnits="userSpaceOnUse">
<stop stop-color="#F36E2A"/>
<stop offset="1" stop-color="#FEBD66"/>
</linearGradient>
<linearGradient id="paint4_linear" x1="46.2559" y1="44.8779" x2="52.522" y2="41.2601" gradientUnits="userSpaceOnUse">
<stop stop-color="#F36E2A"/>
<stop offset="1" stop-color="#FEBD66"/>
</linearGradient>
<linearGradient id="paint5_linear" x1="55.2143" y1="37.1253" x2="58.8938" y2="35.0009" gradientUnits="userSpaceOnUse">
<stop stop-color="#F36E2A"/>
<stop offset="1" stop-color="#FEBD66"/>
</linearGradient>
<linearGradient id="paint6_linear" x1="93.3351" y1="148.815" x2="100.453" y2="144.706" gradientUnits="userSpaceOnUse">
<stop stop-color="#F36E2A"/>
<stop offset="1" stop-color="#FEBD66"/>
</linearGradient>
<linearGradient id="paint7_linear" x1="71.6545" y1="145.283" x2="74.5897" y2="143.589" gradientUnits="userSpaceOnUse">
<stop stop-color="#F36E2A"/>
<stop offset="1" stop-color="#FEBD66"/>
</linearGradient>
<linearGradient id="paint8_linear" x1="77.6438" y1="146.893" x2="80.2229" y2="145.404" gradientUnits="userSpaceOnUse">
<stop stop-color="#F36E2A"/>
<stop offset="1" stop-color="#FEBD66"/>
</linearGradient>
<linearGradient id="paint9_linear" x1="85.4562" y1="150.498" x2="88.4413" y2="148.774" gradientUnits="userSpaceOnUse">
<stop stop-color="#F36E2A"/>
<stop offset="1" stop-color="#FEBD66"/>
</linearGradient>
<linearGradient id="paint10_linear" x1="50.7661" y1="45.5693" x2="53.7013" y2="43.8746" gradientUnits="userSpaceOnUse">
<stop stop-color="#F36E2A"/>
<stop offset="1" stop-color="#FEBD66"/>
</linearGradient>
<linearGradient id="paint11_linear" x1="91.3187" y1="149.562" x2="92.8906" y2="148.654" gradientUnits="userSpaceOnUse">
<stop stop-color="#F36E2A"/>
<stop offset="1" stop-color="#FEBD66"/>
</linearGradient>
<linearGradient id="paint12_linear" x1="116.215" y1="31.6001" x2="119.035" y2="29.9721" gradientUnits="userSpaceOnUse">
<stop stop-color="#F36E2A"/>
<stop offset="1" stop-color="#FEBD66"/>
</linearGradient>
<linearGradient id="paint13_linear" x1="43.9949" y1="51.7709" x2="46.0964" y2="50.5576" gradientUnits="userSpaceOnUse">
<stop stop-color="#F36E2A"/>
<stop offset="1" stop-color="#FEBD66"/>
</linearGradient>
<linearGradient id="paint14_linear" x1="49.3487" y1="145.533" x2="51.4502" y2="144.319" gradientUnits="userSpaceOnUse">
<stop stop-color="#F36E2A"/>
<stop offset="1" stop-color="#FEBD66"/>
</linearGradient>
<linearGradient id="paint15_linear" x1="99.5876" y1="150.045" x2="100.829" y2="149.328" gradientUnits="userSpaceOnUse">
<stop stop-color="#F36E2A"/>
<stop offset="1" stop-color="#FEBD66"/>
</linearGradient>
<linearGradient id="paint16_linear" x1="141.29" y1="80.431" x2="142.15" y2="79.9346" gradientUnits="userSpaceOnUse">
<stop stop-color="#F36E2A"/>
<stop offset="1" stop-color="#FEBD66"/>
</linearGradient>
<linearGradient id="paint17_linear" x1="48.0436" y1="69.8132" x2="48.6884" y2="69.441" gradientUnits="userSpaceOnUse">
<stop stop-color="#F36E2A"/>
<stop offset="1" stop-color="#FEBD66"/>
</linearGradient>
<linearGradient id="paint18_linear" x1="38.7532" y1="55.21" x2="39.7801" y2="54.6171" gradientUnits="userSpaceOnUse">
<stop stop-color="#F36E2A"/>
<stop offset="1" stop-color="#FEBD66"/>
</linearGradient>
<linearGradient id="paint19_linear" x1="123.1" y1="33.0403" x2="123.96" y2="32.544" gradientUnits="userSpaceOnUse">
<stop stop-color="#F36E2A"/>
<stop offset="1" stop-color="#FEBD66"/>
</linearGradient>
<linearGradient id="paint20_linear" x1="76.4031" y1="144.744" x2="76.7852" y2="144.524" gradientUnits="userSpaceOnUse">
<stop stop-color="#F36E2A"/>
<stop offset="1" stop-color="#FEBD66"/>
</linearGradient>
<linearGradient id="paint21_linear" x1="89.8652" y1="148.207" x2="90.2473" y2="147.987" gradientUnits="userSpaceOnUse">
<stop stop-color="#F36E2A"/>
<stop offset="1" stop-color="#FEBD66"/>
</linearGradient>
<linearGradient id="paint22_linear" x1="54.483" y1="132.587" x2="55.1278" y2="132.214" gradientUnits="userSpaceOnUse">
<stop stop-color="#F36E2A"/>
<stop offset="1" stop-color="#FEBD66"/>
</linearGradient>
<linearGradient id="paint23_linear" x1="80.3235" y1="148.445" x2="80.7055" y2="148.224" gradientUnits="userSpaceOnUse">
<stop stop-color="#F36E2A"/>
<stop offset="1" stop-color="#FEBD66"/>
</linearGradient>
<linearGradient id="paint24_linear" x1="72.1549" y1="142.844" x2="72.7996" y2="142.472" gradientUnits="userSpaceOnUse">
<stop stop-color="#F36E2A"/>
<stop offset="1" stop-color="#FEBD66"/>
</linearGradient>
<linearGradient id="paint25_linear" x1="42.6054" y1="54.437" x2="43.2502" y2="54.0647" gradientUnits="userSpaceOnUse">
<stop stop-color="#F36E2A"/>
<stop offset="1" stop-color="#FEBD66"/>
</linearGradient>
<linearGradient id="paint26_linear" x1="56.4172" y1="131.47" x2="57.062" y2="131.098" gradientUnits="userSpaceOnUse">
<stop stop-color="#F36E2A"/>
<stop offset="1" stop-color="#FEBD66"/>
</linearGradient>
<linearGradient id="paint27_linear" x1="91.333" y1="33.6104" x2="93.0524" y2="32.6177" gradientUnits="userSpaceOnUse">
<stop stop-color="#F36E2A"/>
<stop offset="1" stop-color="#FEBD66"/>
</linearGradient>
<linearGradient id="paint28_linear" x1="96.0134" y1="33.7752" x2="97.9671" y2="32.6472" gradientUnits="userSpaceOnUse">
<stop stop-color="#F36E2A"/>
<stop offset="1" stop-color="#FEBD66"/>
</linearGradient>
<linearGradient id="paint29_linear" x1="108.582" y1="35.6903" x2="109.442" y2="35.194" gradientUnits="userSpaceOnUse">
<stop stop-color="#F36E2A"/>
<stop offset="1" stop-color="#FEBD66"/>
</linearGradient>
<linearGradient id="paint30_linear" x1="104.264" y1="34.1691" x2="104.646" y2="33.9485" gradientUnits="userSpaceOnUse">
<stop stop-color="#F36E2A"/>
<stop offset="1" stop-color="#FEBD66"/>
</linearGradient>
<linearGradient id="paint31_linear" x1="94.7191" y1="33.5184" x2="95.1012" y2="33.2978" gradientUnits="userSpaceOnUse">
<stop stop-color="#F36E2A"/>
<stop offset="1" stop-color="#FEBD66"/>
</linearGradient>
<linearGradient id="paint32_linear" x1="39.6616" y1="126.769" x2="40.5213" y2="126.273" gradientUnits="userSpaceOnUse">
<stop stop-color="#F36E2A"/>
<stop offset="1" stop-color="#FEBD66"/>
</linearGradient>
<linearGradient id="paint33_linear" x1="61.5685" y1="50.0464" x2="140.414" y2="45.8579" gradientUnits="userSpaceOnUse">
<stop stop-color="#F4722E"/>
<stop offset="0.46966" stop-color="#F99447"/>
<stop offset="1" stop-color="#FEBB64"/>
</linearGradient>
<clipPath id="clip0">
<rect width="138" height="136" fill="white" transform="translate(69 187.512) rotate(-120)"/>
</clipPath>
<clipPath id="clip1">
<rect width="49.2261" height="49.2261" fill="white" transform="translate(69.6938 69.4873)"/>
</clipPath>
</defs>
</svg>
