<svg width="188" height="187" viewBox="0 0 188 187" fill="none" xmlns="http://www.w3.org/2000/svg">
<g clip-path="url(#clip0)">
<path d="M149.824 126.334C149.461 124.978 148.601 124.481 147.741 123.985C146.881 123.488 145.162 122.496 144.302 121.999C143.442 121.503 142.582 121.006 140.863 120.014C140.003 119.517 139.507 120.377 139.01 121.237C137.521 123.816 135.669 125.039 134.18 127.618C132.691 130.197 130.838 131.42 129.349 133.999C128.853 134.859 127.497 135.222 127 136.082C126.504 136.942 125.148 137.305 124.651 138.165C124.155 139.024 122.799 139.388 122.303 140.247C122.303 140.247 121.806 141.107 120.946 140.611C120.946 140.611 120.45 141.47 119.59 140.974L118.731 140.477C118.731 140.477 118.731 140.477 117.871 139.981C117.871 139.981 117.871 139.981 116.515 140.344C116.018 141.204 116.018 141.204 116.018 141.204C115.522 142.064 114.166 142.427 112.81 142.79C111.453 143.154 110.957 144.013 109.601 144.377C108.245 144.74 105.036 146.326 104.176 145.83C103.317 145.333 103.813 144.474 102.457 144.837L101.101 145.2C100.241 144.704 99.7445 145.564 98.8847 145.067L97.5285 145.431C97.0322 146.29 97.0322 146.29 97.0322 146.29C95.676 146.654 95.6761 146.654 94.8163 146.157C93.9565 145.661 94.8163 146.157 93.4601 146.52C92.9638 147.38 92.104 146.884 90.7478 147.247L89.3917 147.61C89.3917 147.61 88.5319 147.114 87.1757 147.477C85.8196 147.841 84.9598 147.344 83.6036 147.707C82.2475 148.071 81.3877 147.574 80.5279 147.078C79.6681 146.582 79.6681 146.582 79.6681 146.582L78.312 146.945L77.4522 146.448C76.5924 145.952 76.5924 145.952 75.2362 146.315C74.3764 145.819 73.0203 146.182 72.1605 145.686C71.3007 145.189 71.3007 145.189 71.3007 145.189C70.4409 144.693 70.4409 144.693 69.5811 144.197C68.7213 143.7 68.7213 143.7 67.8615 143.204C67.0017 142.707 67.0017 142.707 66.1419 142.211C65.2821 141.715 65.2821 141.715 64.4223 141.218L63.5625 140.722L64.0589 139.862C63.1991 139.366 63.1991 139.366 62.3393 138.869C61.4795 138.373 60.6197 137.876 59.7599 137.38C58.9001 136.884 58.5367 135.528 57.6769 135.031C56.8171 134.535 56.8171 134.535 56.8171 134.535C55.9573 134.038 55.9573 134.038 55.0975 133.542C54.2377 133.046 53.8743 131.689 53.0145 131.193C52.1547 130.697 51.7912 129.341 50.0716 128.348C49.2118 127.851 48.352 127.355 47.4922 126.859C46.6325 126.362 47.1288 125.502 47.1288 125.502C46.269 125.006 45.9056 123.65 45.0458 123.153C45.0458 123.153 44.186 122.657 44.6823 121.797C44.3189 120.441 43.4591 119.945 43.0956 118.589C42.2358 118.092 41.8724 116.736 41.0126 116.24L40.6492 114.884L39.7894 114.387C38.9296 113.891 38.5661 112.535 38.5661 112.535C39.0625 111.675 39.9223 112.172 39.5588 110.815L38.699 110.319C38.699 110.319 39.1954 109.459 38.3356 108.963C37.9721 107.607 36.616 107.97 37.1124 107.11C36.7489 105.754 37.7416 104.035 37.3782 102.679C37.3782 102.679 36.5184 102.182 37.0147 101.323L36.6513 99.9666C36.2878 98.6105 36.7842 97.7508 36.4207 96.3947C35.5609 95.8983 36.0573 95.0386 36.5536 94.1788C37.05 93.3191 37.05 93.3191 36.1902 92.8227C36.1902 92.8227 35.8267 91.4666 36.3231 90.6069C36.8195 89.7472 36.6865 91.963 36.6865 91.963C37.5463 92.4594 37.9098 93.8155 38.2732 95.1717C37.7769 96.0314 38.1403 97.3875 38.1403 97.3875C39.0001 97.8839 39.0001 97.8839 39.3636 99.24L38.8672 100.1L39.2307 101.456C39.5941 102.812 39.9575 104.168 39.4612 105.028C39.8246 106.384 40.1881 107.74 40.5515 109.096C40.915 110.452 41.2784 111.808 41.6419 113.164C42.0053 114.52 42.8651 115.017 43.7249 115.513C44.0883 116.869 44.0883 116.869 44.4518 118.225C45.3116 118.722 45.675 120.078 45.1787 120.938C44.6823 121.797 45.5421 122.294 46.4019 122.79C48.1215 123.783 48.485 125.139 49.7082 126.992C50.568 127.488 50.9314 128.844 51.7912 129.341C54.7341 132.186 56.8171 134.535 60.2563 136.52C61.1161 137.017 61.9759 137.513 63.6955 138.506C64.5552 139.002 65.415 139.499 66.2748 139.995C65.415 139.499 63.6955 138.506 62.8357 138.01C61.9759 137.513 60.2563 136.52 59.3965 136.024C58.5367 135.528 58.5367 135.528 58.1732 134.171C57.3134 133.675 57.8098 132.815 57.8098 132.815C56.95 132.319 56.0902 131.823 56.0902 131.823C55.2304 131.326 54.3706 130.83 54.867 129.97C53.1474 128.977 52.7839 127.621 52.4205 126.265C51.5607 125.769 52.057 124.909 51.1972 124.413C50.3375 123.916 50.3374 123.916 49.974 122.56C49.974 122.56 49.974 122.56 49.1142 122.064C49.1142 122.064 49.1142 122.064 48.7508 120.707C47.891 120.211 47.891 120.211 48.3873 119.351L48.8837 118.492C48.3873 119.351 46.6677 118.359 46.6677 118.359C45.8079 117.862 45.9408 115.646 45.081 115.15C43.8578 113.297 43.4944 111.941 42.6346 111.445L42.2711 110.089C42.7675 109.229 41.9077 108.733 41.0479 108.236C39.8246 106.384 39.9575 104.168 39.2307 101.456C39.727 100.596 38.8672 100.1 39.3636 99.24C39.3636 99.24 39.8599 98.3803 39.0001 97.8839L39.4965 97.0242L38.6367 96.5278C39.133 95.6681 40.1257 93.9487 39.7623 92.5925C39.3988 91.2364 40.3915 89.517 40.0281 88.1609C39.6646 86.8048 40.6574 85.0854 40.2939 83.7293C40.7903 82.8696 40.7903 82.8696 41.2866 82.0099C41.783 81.1502 41.2866 82.0099 41.783 81.1502C40.9232 80.6538 41.4195 79.7941 41.4195 79.7941C41.9159 78.9344 41.5524 77.5783 42.0488 76.7186C43.5378 74.1395 44.1671 71.0639 45.6561 68.4848C46.6488 66.7654 47.1452 65.9057 48.1379 64.1863C49.1306 62.4669 49.6269 61.6072 50.6196 59.8878C50.6196 59.8878 51.116 59.0281 51.6123 58.1684C52.1087 57.3087 50.7525 57.672 51.2489 56.8123C50.3891 56.3159 52.7379 54.2332 52.605 56.449C53.9612 56.0857 54.4575 55.226 54.9539 54.3663C55.4502 53.5066 56.8064 53.1433 57.3027 52.2836C55.9466 52.6469 55.8137 54.8627 53.5977 54.7296L52.7379 54.2332C52.7379 54.2332 53.2343 53.3735 53.7306 52.5138C54.227 51.654 56.0795 50.431 56.5758 49.5713C57.0722 48.7116 57.932 49.208 57.0722 48.7116C56.2124 48.2152 56.2124 48.2152 56.7087 47.3555C57.2051 46.4958 57.7014 45.6361 58.5612 46.1325C59.0576 45.2728 59.5539 44.4131 59.5539 44.4131C60.0503 43.5534 60.9101 44.0498 61.4064 43.1901C61.9028 42.3304 62.7626 42.8268 63.2589 41.9671C63.7553 41.1074 65.6078 39.8844 66.9639 39.5211L68.3201 39.1578C69.6762 38.7945 69.6762 38.7945 70.1726 37.9348C70.6689 37.0751 71.5287 37.5715 72.8848 37.2082C74.6044 38.201 75.1008 37.3413 76.4569 36.978C77.8131 36.6147 79.1692 36.2514 80.5254 35.8881C81.3852 36.3845 81.3852 36.3845 82.7413 36.0212C82.7413 36.0212 84.0975 35.6579 84.5938 34.7982C84.5938 34.7982 85.4536 35.2946 85.95 34.4349L86.4463 33.5752C86.9427 32.7155 87.3061 34.0716 87.3061 34.0716C88.1659 34.568 88.6622 33.7083 89.522 34.2047C90.3818 34.7011 89.8855 35.5608 89.8855 35.5608C90.7453 36.0572 90.7453 36.0572 90.7453 36.0572L91.6051 36.5536C91.1087 37.4133 91.1087 37.4133 90.6124 38.273C90.6124 38.273 91.4722 38.7694 92.332 39.2658C93.1918 39.7622 93.6881 38.9025 93.6881 38.9025C94.5479 39.3989 94.5479 39.3989 95.9041 39.0356C95.9041 39.0356 95.904 39.0356 96.7638 39.532L97.6236 40.0284L98.9798 39.6651C100.203 41.5176 102.782 43.0068 102.915 40.791C102.915 40.791 102.552 39.4349 103.412 39.9313C104.271 40.4277 103.775 41.2874 103.775 41.2874C103.775 41.2874 104.139 42.6435 105.495 42.2802C105.495 42.2802 106.487 40.5608 105.628 40.0644C104.768 39.568 104.768 39.568 103.908 39.0716C103.048 38.5752 103.048 38.5752 102.188 38.0788C101.329 37.5824 100.469 37.086 99.9725 37.9457C99.9725 37.9457 99.4761 38.8054 98.6163 38.309C98.6163 38.309 98.6163 38.309 97.7565 37.8126C97.7565 37.8126 97.7565 37.8126 96.8968 37.3162C96.037 36.8198 94.1845 38.0428 94.3174 35.827C94.3174 35.827 94.8137 34.9673 95.3101 34.1076L96.1699 34.604L97.0297 35.1004C97.0297 35.1004 97.0297 35.1004 97.8895 35.5968C97.8895 35.5968 98.3858 34.7371 99.2456 35.2335C100.105 35.7299 100.105 35.7299 100.965 36.2263C100.965 36.2263 100.965 36.2263 102.321 35.863C102.321 35.863 103.181 36.3594 103.677 35.4997C104.041 36.8558 106.257 36.9889 107.976 37.9817C111.912 39.1076 114.491 40.5968 118.427 41.7227C120.146 42.7155 121.866 43.7083 123.586 44.7011C124.445 45.1975 125.305 45.694 127.025 46.6868C127.885 47.1832 128.248 48.5393 128.248 48.5393C129.108 49.0357 129.968 49.5321 130.827 50.0285C130.827 50.0285 132.051 51.881 131.191 51.3846C131.191 51.3846 130.331 50.8882 129.471 50.3918C128.612 49.8954 127.752 49.399 126.892 48.9026C125.172 47.9098 123.453 46.917 121.733 45.9242C120.014 44.9313 118.294 43.9385 116.574 42.9457C115.715 42.4493 114.855 41.9529 113.995 41.4565C113.499 42.3162 112.639 41.8198 112.639 41.8198L112.143 42.6795L111.283 42.1831C110.423 41.6867 109.563 41.1903 108.207 41.5536C108.57 42.9097 109.067 42.05 109.927 42.5464C110.786 43.0428 110.29 43.9025 110.29 43.9025L111.15 44.3989C112.01 44.8953 112.869 45.3917 112.869 45.3917C113.729 45.8881 114.589 46.3845 115.945 46.0212C116.805 46.5177 117.665 47.0141 118.525 47.5105L119.384 48.0069L119.748 49.363C120.608 49.8594 121.467 50.3558 121.964 49.4961C124.18 49.6292 125.403 51.4817 127.122 52.4745L127.982 52.9709L128.842 53.4673L129.702 53.9637C130.562 54.4601 130.562 54.4601 131.421 54.9565C135.091 60.514 138.034 63.3593 139.124 67.4277C144.381 76.1938 147.288 87.0427 146.624 98.1217C146.987 99.4778 147.351 100.834 146.358 102.553C145.862 103.413 146.721 103.909 146.225 104.769L145.729 105.629C145.729 105.629 145.232 106.489 146.092 106.985C145.596 107.845 145.959 109.201 145.463 110.06C144.967 110.92 145.33 112.276 143.974 112.64C144.337 113.996 143.345 115.715 142.848 116.575C142.352 117.435 140.003 119.517 140.366 120.873C141.226 121.37 142.086 121.866 142.946 122.363C143.806 122.859 144.665 123.355 145.525 123.852C146.385 124.348 147.245 124.845 147.245 124.845C147.741 123.985 148.238 123.125 148.734 122.265L149.23 121.406C149.23 121.406 149.727 120.546 148.867 120.05C149.363 119.19 149.86 118.33 149.496 116.974C149.992 116.114 149.992 116.114 150.489 115.255C150.985 114.395 151.481 113.535 151.978 112.676C152.474 111.816 152.971 110.956 152.607 109.6C153.103 108.74 152.74 107.384 153.236 106.525C153.733 105.665 153.369 104.309 153.369 104.309C153.866 103.449 152.146 102.456 153.502 102.093C153.502 102.093 153.502 102.093 153.998 101.233C153.998 101.233 153.635 99.8771 154.131 99.0174C154.628 98.1577 154.264 96.8016 154.761 95.9419C155.257 95.0822 155.753 94.2225 155.753 94.2225C155.753 94.2225 154.894 93.7261 155.39 92.8664L155.886 92.0067C156.25 93.3628 156.117 95.5786 156.48 96.9347C155.984 97.7944 156.347 99.1505 156.347 99.1505C156.711 100.507 157.207 99.6469 157.703 98.7872C157.836 96.5714 158.466 93.4959 157.739 90.7837C158.235 89.924 157.375 89.4276 157.872 88.5679C158.368 87.7082 158.005 86.3521 158.864 86.8485C159.724 87.3449 159.724 87.3449 159.228 88.2046L159.591 89.5607L159.095 90.4204L159.458 91.7765C159.822 93.1326 159.822 93.1326 160.185 94.4887C159.689 95.3484 160.052 96.7045 160.052 96.7045L160.549 95.8448C160.549 95.8448 160.549 95.8448 160.185 94.4887L160.682 93.629C161.178 92.7693 160.318 92.2729 159.458 91.7765C159.095 90.4204 159.095 90.4204 159.591 89.5607C160.088 88.701 160.088 88.701 159.228 88.2046C158.368 87.7082 159.724 87.3449 159.361 85.9888C159.494 83.773 158.767 81.0607 157.543 79.2082C156.817 76.496 156.453 75.1399 155.23 73.2874C154.866 71.9313 154.007 71.4349 153.643 70.0788C153.28 68.7227 152.42 68.2263 152.057 66.8702C151.693 65.5141 151.693 65.5141 151.33 64.158C150.966 62.8018 150.966 62.8019 150.603 61.4457C152.819 61.5788 152.455 60.2227 151.595 59.7263C151.595 59.7263 150.736 59.2299 151.232 58.3702C150.372 57.8738 150.372 57.8738 150.009 56.5177C150.505 55.658 147.926 54.1688 147.562 52.8127C145.976 49.6041 143.033 46.7588 140.453 45.2696L139.594 44.7732C138.734 44.2768 138.734 44.2768 138.37 42.9206C137.511 42.4242 136.651 41.9278 135.791 41.4314C134.931 40.935 134.071 40.4386 133.212 39.9422C131.492 38.9494 129.772 37.9566 128.549 36.1041C127.689 35.6077 126.83 35.1113 125.97 34.6149C125.11 34.1185 124.25 33.6221 123.39 33.1257C122.531 32.6293 121.174 32.9926 121.174 32.9926C120.315 32.4962 120.315 32.4962 119.455 31.9998C118.595 31.5034 118.595 31.5034 117.735 31.007C116.875 30.5106 115.156 29.5178 113.8 29.8811C112.08 28.8883 111.22 28.3919 109.501 27.3991C109.501 27.3991 109.501 27.3991 108.641 26.9026C107.781 26.4062 107.285 27.266 106.788 28.1257L108.012 29.9782C108.012 29.9782 108.508 29.1185 109.368 29.6149C109.368 29.6149 110.228 30.1113 110.724 29.2516C111.584 29.748 112.444 30.2444 113.303 30.7408L114.163 31.2372L114.527 32.5933C114.527 32.5933 114.527 32.5933 115.883 32.23L116.743 32.7264C117.602 33.2228 118.462 33.7192 118.462 33.7192C118.462 33.7192 118.826 35.0753 118.329 35.935C117.833 36.7947 116.113 35.8019 116.113 35.8019C115.254 35.3055 114.757 36.1652 114.394 34.8091L113.534 34.3127C112.674 33.8163 111.814 33.3199 110.458 33.6832C109.235 31.8307 108.375 31.3343 107.515 30.8379C106.656 30.3415 105.796 29.8451 104.44 30.2084C103.083 30.5717 101.727 30.935 101.727 30.935C100.868 30.4386 101.364 29.5789 101.364 29.5789C101.86 28.7192 101.86 28.7192 102.357 27.8595C102.357 27.8595 103.216 28.3559 103.713 27.4961L103.349 26.14C102.986 24.7839 98.9174 25.8738 97.5613 26.2371C97.0649 27.0968 97.5613 26.2371 98.4211 26.7335C99.2809 27.2299 100.141 27.7263 100.141 27.7263C100.008 29.9422 99.148 29.4458 98.6516 30.3055C97.2955 30.6688 95.9393 31.0321 95.0795 30.5357C94.2197 30.0393 93.3599 29.5429 93.3599 29.5429L92.5001 29.0464C91.6403 28.55 92.5001 29.0465 92.9965 28.1867C92.9965 28.1867 93.4928 27.327 94.3526 27.8234C94.3526 27.8234 95.7088 27.4601 96.2051 26.6004C95.4782 23.8882 90.9135 25.8378 90.9135 25.8378C89.5573 26.2011 89.061 27.0608 88.2012 26.5644C87.3414 26.068 86.4816 25.5716 85.9852 26.4313C85.1254 25.9349 84.6291 26.7946 83.7693 26.2982C82.4131 26.6615 83.2729 27.1579 82.7766 28.0176C82.2802 28.8773 80.9241 29.2406 80.0643 28.7442C77.8484 28.6111 77.9813 26.3953 77.4849 27.255C76.6251 26.7586 75.269 27.1219 75.269 27.1219C73.9128 27.4852 72.5567 27.8485 71.2005 28.2118C70.7042 29.0715 69.8444 28.5751 68.4882 28.9384L67.9919 29.7981C67.9919 29.7981 67.4955 30.6578 66.6357 30.1614L64.9162 29.1686L63.56 29.5319C63.9235 30.888 62.5673 31.2513 62.5673 31.2513C62.071 32.1111 60.7148 32.4744 60.2185 33.3341C57.0098 34.9204 53.8012 36.5067 50.956 39.4491C49.5998 39.8124 47.7473 41.0354 46.7546 42.7548C44.9021 43.9778 43.0496 45.2008 41.5606 47.7799C41.0642 48.6396 40.5679 49.4993 40.0715 50.359C38.7154 50.7223 38.2191 51.582 37.7227 52.4417C37.2263 53.3014 38.0861 53.7978 37.5898 54.6576C37.0934 55.5173 36.73 54.1612 36.2336 55.0209C35.7373 55.8806 35.2409 56.7403 34.7446 57.6C35.108 58.9561 35.108 58.9561 35.9678 59.4525C36.8276 59.9489 36.8276 59.9489 36.8276 59.9489L37.324 59.0892L37.8203 58.2295C37.8203 58.2295 38.3167 57.3698 38.813 56.5101C40.1692 56.1468 39.1765 57.8662 38.6801 58.7259C38.1838 59.5856 37.6874 60.4453 37.1911 61.305C36.6947 62.1647 36.1984 63.0244 35.702 63.8841C34.7093 65.6035 33.2203 68.1826 32.2276 69.902C31.2349 71.6214 31.102 73.8372 30.1093 75.5567C30.4727 76.9128 30.2069 81.3444 29.9411 85.776C29.4447 86.6357 29.8082 87.9918 29.6753 90.2076C29.1789 91.0673 30.0387 91.5637 29.5424 92.4234C29.9058 93.7795 29.4095 94.6392 30.2693 95.1356C29.7729 95.9953 30.6327 96.4918 30.1364 97.3515C29.64 98.2112 30.4998 98.7076 30.0034 99.5673C30.0034 99.5673 30.3669 100.923 29.8705 101.783C29.3742 102.643 30.234 103.139 30.5974 104.495C30.5974 104.495 30.1011 105.355 30.9609 105.851C31.3243 107.208 31.3243 107.208 31.6878 108.564C32.911 110.416 32.7781 112.632 33.1416 113.988C34.3648 115.841 34.7282 117.197 35.4551 119.909C35.8186 121.265 37.0418 123.117 37.9016 123.614C38.7614 124.11 39.1248 125.466 39.9846 125.963C41.2079 127.815 42.4311 129.668 43.6544 131.52C44.5142 132.017 44.8776 133.373 45.7374 133.869C45.241 134.729 46.9606 135.722 46.4643 136.581C45.9679 137.441 46.4643 136.581 46.4643 136.581L45.6045 136.085L44.7447 135.589C43.8849 135.092 43.5215 133.736 42.6617 133.24C41.4384 131.387 40.2152 129.535 39.8517 128.179C38.9919 127.682 38.6285 126.326 37.7687 125.83C36.9089 125.333 37.4052 124.474 37.0418 123.117L36.182 122.621L35.3222 122.125L35.8186 121.265L35.4551 119.909C33.7355 118.916 32.8757 118.42 31.6525 116.567C31.2891 115.211 31.7854 114.351 31.7854 114.351L30.9256 113.855L30.5622 112.499C30.1987 111.143 29.3389 110.646 29.8353 109.787C28.612 107.934 29.1084 107.074 28.7449 105.718C28.8778 103.502 27.6546 101.65 27.7875 99.4342C27.4241 98.0781 27.4241 98.0781 27.9204 97.2184C28.4168 96.3587 28.4168 96.3587 28.9131 95.499C29.4095 94.6393 28.0533 95.0025 28.5497 94.1428L28.1862 92.7867C27.3264 92.2903 27.4593 90.0745 27.0959 88.7184C27.5922 87.8587 26.7324 87.3623 27.2288 86.5026C27.7251 85.6429 27.7252 85.6429 28.2215 84.7832C26.9983 82.9307 27.4946 82.071 28.4873 80.3516C28.9837 79.4919 29.48 78.6322 29.1166 77.2761C29.6129 76.4164 30.1093 75.5566 29.7458 74.2005C30.7385 72.4811 30.8714 70.2653 31.8641 68.5459C32.8568 66.8265 33.4861 63.751 34.4788 62.0316C34.4788 62.0316 34.9751 61.1719 34.1153 60.6755C33.2555 60.1791 33.619 61.5352 33.1226 62.3949C32.6263 63.2546 32.1299 64.1143 32.1299 64.1143C31.6336 64.974 31.997 66.3301 31.5007 67.1898C31.3678 69.4056 29.5153 70.6286 29.3824 72.8444C28.7531 75.92 28.1239 78.9955 27.4946 82.071C26.8654 85.1465 26.2361 88.222 25.6068 91.2975C24.9776 94.373 25.7045 97.0853 26.4314 99.7975C26.2985 102.013 27.5217 103.866 28.7449 105.718C27.7522 107.438 28.1157 108.794 28.1157 108.794L28.4791 110.15L29.3389 110.646L29.206 112.862C29.0731 115.078 29.9329 115.574 29.4366 116.434C29.8 117.79 31.0232 119.643 31.3867 120.999C32.6099 122.851 32.9734 124.207 34.1966 126.06C35.7833 129.269 37.5029 130.261 37.8663 131.617L38.2298 132.974L39.0896 133.47C39.9494 133.966 40.3128 135.322 41.1726 135.819C42.0324 136.315 42.3958 137.671 43.2556 138.168L44.1154 138.664C44.9752 139.161 44.4789 140.02 45.3387 140.517L46.1985 141.013C47.0583 141.509 47.0583 141.509 47.9181 142.006C48.7779 142.502 49.1413 143.858 50.0011 144.355C50.8609 144.851 50.8609 144.851 51.2243 146.207C52.0841 146.704 51.5878 147.563 52.4476 148.06C53.3074 148.556 53.3074 148.556 54.1672 149.053C55.027 149.549 55.027 149.549 55.8868 150.045C56.7465 150.542 57.6064 151.038 58.4661 151.535L59.3259 152.031C60.1857 152.527 60.1857 152.527 61.0455 153.024L61.9053 153.52L62.7651 154.017C63.6249 154.513 64.4847 155.009 65.3445 155.506C67.0641 156.499 69.28 156.632 70.9996 157.625C73.579 159.114 76.6547 159.743 80.2268 159.513C82.0793 158.29 84.2953 158.423 86.0149 159.416C88.2308 159.549 90.4467 159.682 91.8029 159.319C94.5152 158.592 97.5909 159.222 100.303 158.495C103.015 157.769 104.372 157.405 107.084 156.679C108.44 156.315 110.656 156.448 112.509 155.225C113.865 154.862 116.577 154.136 116.94 155.492C117.933 153.772 119.289 153.409 120.645 153.046C122.002 152.682 122.002 152.682 122.861 153.179C123.721 153.675 122.861 153.179 123.358 152.319C123.854 151.459 123.854 151.459 125.21 151.096C126.566 150.733 126.566 150.733 127.922 150.369C128.419 149.51 128.419 149.51 129.775 149.146C129.775 149.146 130.271 148.287 131.131 148.783L131.627 147.923C132.124 147.064 133.48 146.7 133.976 145.841C134.473 144.981 135.829 144.618 136.325 143.758C136.325 143.758 136.821 142.898 137.681 143.395C137.681 143.395 138.541 143.891 139.037 143.031C140.394 142.668 139.534 142.172 139.534 142.172C139.534 142.172 140.394 142.668 140.89 141.808L141.386 140.949L141.883 140.089C142.379 139.229 143.239 139.726 143.735 138.866C144.231 138.006 144.728 137.147 145.224 136.287C145.721 135.427 146.217 134.568 146.713 133.708C147.21 132.848 146.846 131.492 146.846 131.492L148.202 131.129C148.699 130.269 148.699 130.269 149.195 129.409C150.188 127.69 150.188 127.69 149.824 126.334ZM147.014 121.273C146.155 120.776 146.155 120.776 147.014 121.273V121.273ZM146.917 115.485C147.776 115.981 145.924 117.204 146.917 115.485C146.917 115.485 147.413 114.625 146.917 115.485C147.413 114.625 146.917 115.485 146.917 115.485ZM150.161 105.895C149.664 106.755 150.028 108.111 149.531 108.971C149.035 109.83 149.398 111.186 148.042 111.55C146.686 111.913 146.686 111.913 147.182 111.053L147.679 110.194C147.315 108.837 148.308 107.118 148.804 106.258L149.301 105.399C149.797 104.539 150.657 105.035 150.161 105.895ZM159.494 83.773C158.634 83.2766 158.634 83.2766 159.494 83.773C158.634 83.2766 158.634 83.2766 159.494 83.773ZM156.187 79.5715C157.543 79.2082 158.767 81.0607 159.13 82.4169L159.99 82.9133L159.494 83.773L159.857 85.1291C159.361 85.9888 158.501 85.4924 158.501 85.4924C157.641 84.996 157.774 82.7802 157.411 81.424C156.914 82.2837 154.831 79.9348 156.187 79.5715ZM149.371 89.3916C149.371 89.3916 150.231 89.888 150.595 91.2441C150.595 91.2441 150.098 92.1038 150.958 92.6002L151.321 93.9563L150.825 94.816L151.189 96.1721C151.552 97.5282 151.419 99.744 151.783 101.1C151.783 101.1 152.146 102.456 151.65 103.316L149.797 104.539C148.441 104.902 148.574 102.686 149.07 101.827C149.567 100.967 150.063 100.107 149.203 99.6109C149.203 99.6109 148.84 98.2548 147.98 97.7584C147.616 96.4023 148.476 96.8987 148.113 95.5426C148.609 94.6829 148.246 93.3268 148.246 93.3268C147.882 91.9707 147.882 91.9707 147.519 90.6146C148.875 90.2513 149.008 88.0355 149.371 89.3916ZM154.831 79.9348C153.971 79.4384 154.468 78.5787 153.608 78.0823L153.245 76.7262C154.104 77.2226 154.104 77.2226 153.608 78.0823C154.468 78.5787 154.468 78.5787 154.831 79.9348ZM153.643 70.0788C154.999 69.7155 154.503 70.5752 154.503 70.5752L154.866 71.9313C155.726 72.4277 156.95 74.2802 156.453 75.1399C155.957 75.9996 155.097 75.5032 155.097 75.5032C154.237 75.0068 154.734 74.1471 153.874 73.6507C154.37 72.791 153.643 70.0788 153.643 70.0788ZM151.826 63.2983C153.182 62.935 153.909 65.6472 152.553 66.0105C150.337 65.8774 150.47 63.6616 151.826 63.2983ZM145.01 73.1183C145.87 73.6147 145.87 73.6147 146.73 74.1111L147.589 74.6075C147.093 75.4672 146.73 74.1111 146.73 74.1111L145.01 73.1183C143.654 73.4816 144.15 72.6219 145.01 73.1183ZM143.06 68.5536C142.564 69.4133 142.564 69.4133 143.06 68.5536C141.704 68.9169 142.2 68.0572 143.06 68.5536ZM149.016 58.2371C149.016 58.2371 147.66 58.6004 149.016 58.2371C148.156 57.7407 148.156 57.7407 149.016 58.2371ZM142.501 55.622C143.361 56.1184 143.361 56.1184 143.724 57.4745C142.865 56.9781 142.501 55.622 142.501 55.622C141.641 55.1256 142.501 55.622 142.501 55.622ZM138.335 50.9242C139.195 51.4206 139.195 51.4206 139.558 52.7767C140.418 53.2731 140.418 53.2731 139.558 52.7767C138.699 52.2803 137.475 50.4278 136.616 49.9314C137.112 49.0717 137.475 50.4278 138.335 50.9242ZM137.378 44.6401C136.881 45.4998 136.881 45.4998 137.378 44.6401C136.881 45.4998 137.378 44.6401 137.378 44.6401ZM129.276 38.8163C129.772 37.9566 132.352 39.4458 130.996 39.8091C130.136 39.3127 127.92 39.1796 129.276 38.8163ZM129.64 40.1724C130.499 40.6688 129.143 41.0321 129.64 40.1724C129.143 41.0321 128.78 39.676 127.92 39.1796C128.283 40.5357 129.64 40.1724 129.64 40.1724ZM121.042 35.2084C122.398 34.8451 123.754 34.4818 124.614 34.9782C125.473 35.4746 124.977 36.3343 124.977 36.3343C125.837 36.8307 125.837 36.8307 125.837 36.8307C127.193 36.4674 128.053 36.9638 128.416 38.3199L127.92 39.1796C127.92 39.1796 127.92 39.1796 128.283 40.5357C127.787 41.3954 127.787 41.3954 127.291 42.2551C128.15 42.7515 129.01 43.2479 130.73 44.2407C131.59 44.7372 132.813 46.5897 134.169 46.2264C133.806 44.8703 132.449 45.2336 131.59 44.7372C131.59 44.7372 129.87 43.7443 129.01 43.2479C129.507 42.3882 131.226 43.381 131.226 43.381C132.086 43.8774 132.582 43.0177 133.079 42.158C133.938 42.6544 135.295 42.2911 134.798 43.1508C134.302 44.0105 134.302 44.0105 134.665 45.3667C135.525 45.8631 136.385 46.3595 135.889 47.2192C136.252 48.5753 137.112 49.0717 136.616 49.9314C135.259 50.2947 133.176 47.9458 132.317 47.4494C130.597 46.4566 129.737 45.9602 128.018 44.9673C126.298 43.9745 124.578 42.9817 123.719 42.4853C122.859 41.9889 121.139 40.9961 120.776 39.64C121.272 38.7803 121.272 38.7803 120.909 37.4242C120.545 36.0681 119.685 35.5717 121.042 35.2084ZM103.943 31.0681C103.943 31.0681 104.803 31.5645 105.299 30.7048C106.159 31.2012 106.159 31.2012 106.159 31.2012C107.019 31.6976 107.019 31.6976 107.515 30.8379C108.012 29.9782 108.375 31.3343 108.375 31.3343L109.235 31.8307L110.591 31.4674C111.451 31.9638 110.955 32.8235 111.814 33.3199C112.674 33.8163 112.674 33.8163 113.534 34.3127C115.617 36.6616 113.038 35.1724 113.038 35.1724C112.178 34.676 109.962 34.5429 109.102 34.0465C106.886 33.9134 106.026 33.417 104.307 32.4242L103.447 31.9278L103.943 31.0681ZM90.7453 36.0572C91.738 34.3378 94.3174 35.827 93.3247 37.5464C92.8283 38.4061 91.9685 37.9097 91.9685 37.9097L91.1087 37.4133C90.2489 36.9169 90.7453 36.0572 90.7453 36.0572ZM92.5001 29.0464C93.3599 29.5429 92.8636 30.4026 92.0038 29.9062L92.5001 29.0464ZM90.5147 32.4853C90.0184 33.345 90.0184 33.345 90.5147 32.4853V32.4853ZM86.3487 27.7874C86.845 26.9277 89.5573 26.2011 89.9208 27.5572L89.4244 28.4169L88.9281 29.2767C88.4317 30.1364 89.2915 30.6328 87.9354 30.9961C87.9354 30.9961 87.0756 30.4997 85.7194 30.863C85.7194 30.863 84.3633 31.2263 83.5035 30.7299C82.6437 30.2335 83.9998 29.8702 83.9998 29.8702C83.9998 29.8702 83.9998 29.8702 84.8596 30.3666L86.2158 30.0033C88.5646 27.9205 87.2085 28.2838 86.3487 27.7874C87.2085 28.2838 86.3487 27.7874 86.3487 27.7874ZM78.5752 31.3234C79.0716 30.4637 79.9314 30.9601 80.4277 30.1004C80.9241 29.2406 80.9241 29.2406 82.2802 28.8773C82.2802 28.8773 83.14 29.3737 82.6437 30.2335C82.6437 30.2335 81.2875 30.5968 80.4277 30.1004C80.7912 31.4565 79.435 31.8198 78.5752 31.3234C78.0789 32.1831 78.0789 32.1831 78.5752 31.3234C78.0789 32.1831 78.5752 31.3234 78.5752 31.3234ZM76.1288 27.6183C75.6324 28.478 75.6324 28.478 76.1288 27.6183C74.7726 27.9816 74.7726 27.9816 76.1288 27.6183ZM50.1233 60.7475C50.1233 60.7475 50.4867 62.1036 49.1306 62.4669C48.2708 61.9705 49.2635 60.2511 50.1233 60.7475ZM58.7294 35.9132C59.2258 35.0535 59.7221 34.1938 61.0783 33.8305C62.4344 33.4672 61.5746 32.9708 62.071 32.1111C63.0637 30.3916 63.7905 33.1039 64.7832 31.3845C65.2796 30.5247 65.2796 30.5247 66.1394 31.0211C66.9992 31.5176 66.9992 31.5176 67.4955 30.6578C67.4955 30.6578 68.3553 31.1543 68.8517 30.2945L70.7042 29.0715L71.0676 30.4276C71.4311 31.7838 70.5713 31.2874 70.0749 32.1471C68.5859 34.7262 67.7261 34.2298 67.2297 35.0895C65.8736 35.4528 65.0138 34.9564 64.5174 35.8161C64.5174 35.8161 64.5174 35.8161 63.1613 36.1794C62.6649 37.0391 62.6649 37.0391 62.6649 37.0391C62.1686 37.8988 60.8124 38.2621 59.9527 37.7657C59.9527 37.7657 59.0929 37.2693 58.2331 36.7729C58.2331 36.7729 57.8696 35.4168 58.7294 35.9132ZM48.0402 58.3986C48.0402 58.3986 47.9073 60.6144 47.0475 60.118C46.1877 59.6216 48.0402 58.3986 48.0402 58.3986ZM53.5354 40.9383C53.039 41.798 52.1792 41.3016 52.1792 41.3016C52.6756 40.4419 52.6756 40.4419 53.5354 40.9383C54.0317 40.0786 54.0317 40.0786 53.5354 40.9383ZM54.8915 40.575L54.0317 40.0786C54.0317 40.0786 54.5281 39.2189 55.0244 38.3592C55.5208 37.4995 56.8769 37.1362 57.7367 37.6326C58.5965 38.129 58.9599 39.4851 57.6038 39.8484L56.744 39.352C56.2477 40.2117 55.3879 39.7153 54.8915 40.575ZM37.8122 88.0278C36.0926 87.035 38.4414 84.9523 38.078 83.5962L37.7145 82.2401L38.2109 81.3804C38.7072 80.5207 38.3438 79.1646 38.8401 78.3049L39.3365 77.4452L38.973 76.0891L39.4694 75.2294C39.9657 74.3697 38.6096 74.733 39.1059 73.8733C39.6023 73.0135 39.6023 73.0136 40.4621 73.51C40.4621 73.51 40.9584 72.6502 41.8182 73.1466C42.3146 72.2869 42.3146 72.2869 41.4548 71.7905C40.7279 69.0783 41.2242 68.2186 41.7206 67.3589C42.2169 66.4992 42.3498 64.2834 44.0694 65.2762C44.9292 65.7726 43.4402 68.3517 43.4402 68.3517L42.9438 69.2114L43.3073 70.5675C42.8109 71.4272 42.8109 71.4272 42.3146 72.2869C41.8182 73.1466 41.8182 73.1466 41.3219 74.0064C40.8255 74.8661 40.8255 74.8661 40.3292 75.7258C39.8328 76.5855 40.6926 77.0819 40.1963 77.9416C39.6999 78.8013 39.2036 79.661 39.567 81.0171L39.9305 82.3732C39.4341 83.2329 39.4341 83.2329 39.4341 83.2329C38.9378 84.0926 39.7975 84.589 39.7975 84.589L40.161 85.9451C39.6647 86.8048 38.3085 87.1681 37.8122 88.0278ZM44.5494 124.013C44.5494 124.013 43.6896 123.517 44.186 122.657C43.6896 123.517 44.5494 124.013 44.5494 124.013ZM80.395 149.294C81.7512 148.93 83.1073 148.567 83.9671 149.064C83.9671 149.064 85.3232 148.7 86.183 149.197C87.0428 149.693 87.0428 149.693 85.6867 150.056C84.3305 150.42 83.4707 149.923 82.1146 150.287C81.2548 149.79 80.7585 150.65 80.395 149.294C79.8987 150.153 79.5352 148.797 80.395 149.294ZM69.9446 145.553C70.8044 146.049 73.8801 146.679 73.3837 147.538C74.2435 148.035 78.6754 148.301 78.1791 149.161C77.6827 150.02 75.9631 149.028 75.9631 149.028C75.1033 148.531 73.7472 148.894 72.8874 148.398C72.0276 147.902 71.1678 147.405 70.308 146.909C70.308 146.909 69.4482 146.412 69.9446 145.553C69.4482 146.412 69.9446 145.553 69.9446 145.553ZM74.1106 150.251C74.1106 150.251 69.6787 149.984 70.1751 149.125C70.6715 148.265 73.2508 149.754 74.1106 150.251ZM68.4555 148.132C67.9592 148.992 67.0994 148.495 67.0994 148.495C67.0994 148.495 66.2396 147.999 67.0994 148.495C66.7359 147.139 68.4555 148.132 68.4555 148.132ZM66.8688 144.923C66.8688 144.923 68.225 144.56 67.7286 145.42L67.2323 146.279L66.8688 144.923ZM64.7858 142.574C66.1419 142.211 67.3652 144.064 65.1492 143.93C63.2967 145.153 63.4296 142.938 64.7858 142.574ZM87.5039 156.837C85.288 156.704 83.072 156.571 80.8561 156.438C78.6401 156.304 76.4242 156.171 74.7046 155.179C73.8448 154.682 72.985 154.186 72.985 154.186C72.1252 153.689 71.6289 154.549 70.7691 154.053C69.4129 154.416 69.0495 153.06 67.6934 153.423C66.8336 152.927 65.9738 152.43 64.2542 151.438C63.3944 150.941 62.5346 150.445 61.6748 149.948C60.815 149.452 59.9552 148.956 59.0954 148.459C59.0954 148.459 58.2356 147.963 58.7319 147.103C57.8722 146.607 57.8722 146.607 57.8722 146.607C57.0124 146.11 56.1526 145.614 55.2928 145.117L54.433 144.621L53.5732 144.125C52.7134 143.628 51.8536 143.132 50.9938 142.635C50.134 142.139 49.2742 141.643 48.4144 141.146C48.4144 141.146 47.5546 140.65 46.6948 140.153C46.6948 140.153 47.1912 139.294 47.6875 138.434C49.0437 138.071 49.4071 139.427 50.2669 139.923C51.1267 140.42 51.9865 140.916 52.3499 142.272C53.2097 142.768 53.5732 144.125 54.433 144.621C57.8722 146.607 61.3113 148.592 64.7505 150.578C68.1897 152.563 72.1252 153.689 76.0608 154.815C76.9205 155.312 77.7803 155.808 79.1365 155.445C79.9963 155.941 79.9963 155.941 81.3524 155.578L82.2122 156.074L81.7159 156.934C81.7159 156.934 81.2195 157.794 82.5757 157.43C83.4355 157.927 84.4282 156.207 85.7843 155.844C85.7843 155.844 86.6441 156.34 87.5039 156.837C87.5039 156.837 88.3637 157.333 89.2235 157.83C90.0833 158.326 89.7198 156.97 91.076 156.607C88.1332 153.761 88.3637 157.333 87.5039 156.837ZM119.954 142.33C119.954 142.33 119.457 143.19 119.954 142.33C119.457 143.19 118.598 142.693 119.954 142.33ZM114.529 143.783C115.389 144.28 113.536 145.503 113.173 144.146L114.529 143.783ZM111.321 145.369C112.18 145.866 111.684 146.726 110.824 146.229L109.964 145.733C109.964 145.733 109.964 145.733 111.321 145.369ZM107.252 146.459C107.748 145.6 108.112 146.956 107.616 147.815C106.259 148.179 105.896 146.823 107.252 146.459ZM104.54 147.186C104.54 147.186 104.043 148.046 104.54 147.186C104.043 148.046 104.043 148.046 104.54 147.186ZM100.932 155.42C99.5763 155.783 97.3604 155.65 96.0042 156.013C95.1444 155.517 94.6481 156.376 93.7883 155.88C92.9285 155.384 88.8601 156.474 89.3564 155.614C89.8528 154.754 90.7125 155.251 90.7125 155.251C90.7125 155.251 91.5723 155.747 92.0687 154.887L92.565 154.028C93.0614 153.168 93.4248 154.524 93.4248 154.524C94.2846 155.02 94.781 154.161 95.2773 153.301C96.6335 152.938 96.6335 152.938 97.9896 152.574C99.3458 152.211 99.3458 152.211 100.702 151.848C102.421 152.841 102.289 155.056 100.932 155.42ZM131.033 142.995C128.685 145.078 126.336 147.161 123.127 148.747C121.275 149.97 118.562 150.697 116.71 151.92C114.857 153.143 112.145 153.869 110.789 154.233C109.433 154.596 108.077 154.959 105.861 154.826C105.001 154.33 103.148 155.553 103.645 154.693L104.141 153.833C104.637 152.974 104.637 152.974 105.994 152.61C108.706 151.884 111.418 151.157 114.627 149.571C117.339 148.844 120.548 147.258 122.4 146.035C123.756 145.672 125.609 144.449 126.105 143.589C126.602 142.729 127.461 143.226 127.958 142.366C128.454 141.506 129.81 141.143 129.81 141.143L130.67 141.639C130.67 141.639 130.67 141.639 130.174 142.499C130.174 142.499 128.818 142.862 129.677 143.359C127.825 144.582 130.174 142.499 131.033 142.995ZM132.026 141.276C132.026 141.276 131.166 140.78 132.026 141.276C132.523 140.416 132.026 141.276 132.026 141.276ZM133.515 138.697C133.019 139.557 132.655 138.201 133.515 138.697C133.152 137.341 133.648 136.481 134.508 136.978C134.508 136.978 135.004 136.118 135.368 137.474C135.368 137.474 134.012 137.837 133.515 138.697ZM139.206 132.812C139.206 132.812 138.709 133.672 138.213 134.531L137.717 135.391L136.857 134.895C136.857 134.895 136.857 134.895 137.353 134.035C137.849 133.175 139.206 132.812 140.198 131.093C140.695 130.233 140.695 130.233 141.191 129.373C141.191 129.373 142.68 126.794 143.54 127.291C144.4 127.787 143.407 129.506 142.911 130.366C140.695 130.233 140.198 131.093 139.206 132.812ZM137.717 135.391C138.213 134.531 138.213 134.531 137.717 135.391C138.213 134.531 138.213 134.531 137.717 135.391Z" fill="url(#paint0_linear)"/>
<path d="M143.282 101.923C144.142 102.42 144.142 102.42 144.639 101.56C145.135 100.7 145.631 99.8408 145.268 98.4847L145.401 96.2689C145.897 95.4092 145.037 94.9128 144.541 95.7725C144.045 96.6322 144.408 97.9883 143.912 98.848C142.919 100.567 142.919 100.567 143.282 101.923Z" fill="url(#paint1_linear)"/>
<path d="M91.2446 146.388C89.525 145.395 88.1689 145.758 85.9529 145.625C85.0931 145.129 83.737 145.492 83.737 145.492C82.8772 144.995 81.521 145.359 81.521 145.359C80.6612 144.862 79.8015 144.366 79.3051 145.226C79.3051 145.226 77.949 145.589 78.8088 146.085L79.6685 146.582C80.5283 147.078 81.8845 146.715 82.7443 147.211C84.9602 147.344 85.82 147.841 88.036 147.974C89.0287 146.254 89.0287 146.254 91.2446 146.388C89.8884 146.751 90.7482 147.247 91.2446 146.388Z" fill="url(#paint2_linear)"/>
<path d="M137.424 118.028C137.787 119.384 139.276 116.805 139.773 115.945C140.269 115.085 140.765 114.226 141.262 113.366C141.758 112.506 141.758 112.506 142.255 111.647C142.255 111.647 142.751 110.787 142.387 109.431C141.528 108.934 141.891 110.29 141.891 110.29C141.395 111.15 140.898 112.01 140.765 114.226C140.269 115.085 140.269 115.085 139.773 115.945C138.417 116.308 137.424 118.028 137.424 118.028Z" fill="url(#paint3_linear)"/>
<path d="M156.507 118.729C156.87 120.085 157.863 118.366 156.507 118.729C157.499 117.01 157.996 116.15 158.492 115.29C159.485 113.571 158.625 113.074 157.402 111.222C157.269 113.438 156.64 116.513 156.507 118.729Z" fill="url(#paint4_linear)"/>
<path d="M154.389 124.384C153.529 123.888 154.522 122.168 154.026 123.028C153.166 122.531 152.67 123.391 153.033 124.747C152.537 125.607 153.396 126.103 153.396 126.103C154.256 126.6 153.76 127.459 154.62 127.956C154.256 126.6 154.753 125.74 154.389 124.384Z" fill="url(#paint5_linear)"/>
<path d="M60.0141 51.5568C60.5104 50.6971 61.8666 50.3338 62.3629 49.4741C62.8593 48.6144 64.2154 48.2511 65.5715 47.8878C65.5715 47.8878 66.0679 47.0281 66.9277 47.5245L68.2838 47.1612C68.7802 46.3015 66.9277 47.5245 66.9277 47.5245C64.2154 48.2511 61.8666 50.3338 60.0141 51.5568Z" fill="url(#paint6_linear)"/>
<path d="M87.8995 38.999C87.5361 37.6429 87.0397 38.5026 85.6836 38.8659C83.4677 38.7328 87.8995 38.999 85.6836 38.8659C85.6836 38.8659 84.8238 38.3695 84.3275 39.2292L83.8311 40.0889L84.6909 40.5853C85.6836 38.8659 87.8995 38.999 87.8995 38.999Z" fill="url(#paint7_linear)"/>
<path d="M78.4077 41.5426C79.2674 42.039 79.2674 42.039 80.6236 41.6757C81.1199 40.816 82.4761 40.4527 81.6163 39.9563C81.1199 40.816 79.7638 41.1793 78.4077 41.5426C79.7638 41.1793 77.5479 41.0462 78.4077 41.5426Z" fill="url(#paint8_linear)"/>
<path d="M73.9751 41.276C73.1153 40.7796 72.6189 41.6393 71.7591 41.1429C71.7591 41.1429 69.5432 41.0098 69.0468 41.8695C68.9139 44.0853 73.9751 41.276 73.9751 41.276Z" fill="url(#paint9_linear)"/>
<path d="M153.697 113.668C153.201 114.528 152.704 115.388 153.068 116.744L153.564 115.884L154.424 116.381C154.424 116.381 154.92 115.521 154.06 115.025C153.201 114.528 154.06 115.025 153.201 114.528C154.557 114.165 154.193 112.809 153.697 113.668Z" fill="url(#paint10_linear)"/>
<path d="M67.9215 45.805C68.4179 44.9453 67.1946 43.0927 66.6983 43.9525C65.3421 44.3158 66.5654 46.1683 67.9215 45.805Z" fill="url(#paint11_linear)"/>
<path d="M105.596 159.258C104.736 158.761 104.24 159.621 102.884 159.984C102.884 159.984 102.884 159.984 102.387 160.844L103.247 161.341L103.743 160.481C103.743 160.481 103.743 160.481 105.099 160.118C105.099 160.118 106.952 158.895 105.596 159.258Z" fill="url(#paint12_linear)"/>
<path d="M156.445 104.938C157.305 105.435 157.668 106.791 157.172 107.65C157.668 106.791 157.801 104.575 156.445 104.938C156.941 104.078 156.445 104.938 156.445 104.938Z" fill="url(#paint13_linear)"/>
<path d="M105.432 28.4894C105.432 28.4894 107.285 27.2664 106.425 26.77C106.425 26.77 105.069 27.1333 104.572 27.993C103.713 27.4966 104.076 28.8527 105.432 28.4894Z" fill="url(#paint14_linear)"/>
<path d="M59.2878 48.8446C58.428 48.3482 59.2878 48.8446 59.2878 48.8446C60.1476 49.341 60.6439 48.4813 60.6439 48.4813C60.6439 48.4813 61.1403 47.6216 59.7842 47.9849C59.7842 47.9849 59.7842 47.9849 59.2878 48.8446Z" fill="url(#paint15_linear)"/>
<path d="M58.9352 128.88C58.4388 129.74 57.579 129.243 58.9352 128.88C58.4388 129.74 58.4388 129.74 58.4388 129.74C59.2986 130.236 58.9352 128.88 58.9352 128.88Z" fill="url(#paint16_linear)"/>
<path d="M144.807 91.3414C144.311 92.2011 144.311 92.2011 144.807 91.3414C144.311 92.2011 145.17 92.6975 144.807 91.3414C145.667 91.8378 144.807 91.3414 144.807 91.3414Z" fill="url(#paint17_linear)"/>
<path d="M160.283 100.277C160.779 99.4171 159.919 98.9207 159.423 99.7804C159.423 99.7804 160.646 101.633 160.283 100.277Z" fill="url(#paint18_linear)"/>
<path d="M97.4575 161.438C98.3173 161.934 98.3173 161.934 98.8137 161.074C97.9539 160.578 97.9539 160.578 97.4575 161.438Z" fill="url(#paint19_linear)"/>
<path d="M82.4761 40.4526C83.3359 40.949 83.6993 42.3051 82.4761 40.4526C83.3359 40.949 83.3359 40.949 82.4761 40.4526C83.3359 40.949 83.3359 40.949 82.4761 40.4526Z" fill="url(#paint20_linear)"/>
<path d="M69.7734 44.5815C68.4172 44.9448 69.7734 44.5815 69.7734 44.5815V44.5815Z" fill="url(#paint21_linear)"/>
<path d="M107.844 40.1976C107.347 41.0573 107.347 41.0573 107.844 40.1976C108.207 41.5537 107.844 40.1976 107.844 40.1976Z" fill="url(#paint22_linear)"/>
<path d="M77.1841 39.6907C78.0439 40.1871 78.0439 40.1871 77.1841 39.6907C77.6804 38.831 77.1841 39.6907 77.1841 39.6907Z" fill="url(#paint23_linear)"/>
<path d="M86.9068 40.7191C87.7666 41.2155 88.2629 40.3558 86.9068 40.7191C87.4031 39.8594 87.4031 39.8594 86.9068 40.7191Z" fill="url(#paint24_linear)"/>
<path d="M157.073 101.863C157.437 103.219 157.437 103.219 157.073 101.863V101.863Z" fill="url(#paint25_linear)"/>
<path d="M106.355 42.7766C106.851 41.9169 107.711 42.4133 106.355 42.7766C106.851 41.9169 106.851 41.9169 106.355 42.7766Z" fill="url(#paint26_linear)"/>
<path d="M125.61 144.449C124.75 143.952 123.757 145.672 124.617 146.168C125.477 146.665 126.469 144.945 125.61 144.449Z" fill="url(#paint27_linear)"/>
<path d="M121.904 146.895C121.044 146.398 120.051 148.118 120.051 148.118C119.555 148.977 121.408 147.754 121.904 146.895Z" fill="url(#paint28_linear)"/>
<path d="M108.706 151.884C108.706 151.884 109.565 152.38 108.706 151.884C109.565 152.38 110.062 151.52 110.062 151.52L108.706 151.884Z" fill="url(#paint29_linear)"/>
<path d="M114.131 150.431C113.272 149.934 113.635 151.29 114.131 150.431C114.991 150.927 114.131 150.431 114.131 150.431Z" fill="url(#paint30_linear)"/>
<path d="M122.401 146.036C122.764 147.392 123.261 146.532 122.401 146.036V146.036Z" fill="url(#paint31_linear)"/>
<path d="M122.628 38.4172C123.488 38.9136 125.208 39.9064 124.844 38.5503C124.844 38.5503 123.984 38.0539 123.125 37.5575C122.265 37.0611 122.265 37.0611 122.628 38.4172C121.768 37.9208 121.768 37.9208 122.628 38.4172Z" fill="url(#paint32_linear)"/>
<circle cx="93.7138" cy="91.5918" r="59.7649" transform="rotate(128.387 93.7138 91.5918)" fill="url(#paint33_linear)"/>
<g clip-path="url(#clip1)">
<path d="M90.6709 63.2156C83.7685 64.2723 78.8627 68.1825 75.6667 74.3102C72.7732 79.8582 71.5044 87.14 73.9174 93.0705C73.9408 93.1284 73.9692 93.1799 74.001 93.2277C74.0349 93.4548 74.1828 93.6527 74.4723 93.7008C75.9118 93.9431 77.3985 93.9524 78.8516 93.8454C79.6318 93.7881 80.6191 93.8546 81.3654 93.5334C83.7171 95.9665 86.9065 97.6813 89.9699 97.9917C94.328 98.4331 98.5757 97.0068 101.936 94.2507C102.22 94.0177 102.476 93.7723 102.721 93.5211C102.784 93.5763 102.856 93.6238 102.946 93.6546C104.145 94.0581 105.615 93.9635 106.862 93.9702C108.131 93.977 109.477 94.1151 110.733 93.9249C111.069 93.8744 111.272 93.6194 111.346 93.3198C111.436 93.2193 111.505 93.088 111.536 92.9154C113.905 79.8893 106.732 60.757 90.6709 63.2156ZM102.331 91.2977C100.079 94.8432 95.2796 96.2757 91.3367 96.3752C87.9327 96.4612 84.721 94.5041 82.4205 92.159C79.727 89.4134 79.1506 86.0155 79.7847 82.3821C83.6166 83.3941 87.4247 82.4891 90.9671 80.7949C93.0232 79.8116 94.8076 78.3903 96.7931 77.292C99.4435 75.8259 103.048 80.5212 104.039 82.5048C104.114 82.6562 104.211 82.7619 104.317 82.8359C104.171 85.8114 103.989 88.6883 102.331 91.2977Z" fill="white"/>
<path d="M95.1559 89.266C95.08 90.7604 93.9096 91.4207 92.5188 91.4059C91.0758 91.3905 90.1144 90.3957 89.7439 89.0776C89.5155 88.2651 88.427 88.4997 88.3515 89.266C87.8481 94.378 96.859 94.5676 96.997 89.266C97.0288 88.0737 95.2163 88.0869 95.1559 89.266Z" fill="white"/>
<path d="M87.4685 84.2205C87.1023 83.8546 86.5129 83.8559 86.1338 84.1946C85.7408 84.3244 85.4427 84.624 85.4427 85.0938C85.4427 85.5768 85.8829 86.1126 86.4057 86.0568C86.8261 86.0124 87.1593 85.8786 87.4685 85.5879C87.8529 85.2273 87.8326 84.5846 87.4685 84.2205Z" fill="white"/>
<path d="M97.787 84.1256C97.7824 84.1281 97.7765 84.129 97.7722 84.1318C97.7565 84.141 97.7475 84.1549 97.7327 84.1648C97.7152 84.1786 97.6979 84.1928 97.681 84.2082C97.4041 84.4265 97.3114 84.7628 97.3736 85.1114C97.3964 85.2393 97.4553 85.3413 97.5327 85.4298C98.0277 86.2171 99.3307 85.8734 99.3307 84.9046C99.3304 84.047 98.3841 83.7178 97.787 84.1256Z" fill="white"/>
<path d="M115.197 113.355C113.377 109.614 110.582 106.17 107.681 103.212C106.005 101.503 102.75 97.383 100.125 98.5112C98.5866 99.1727 97.9013 102.167 97.3647 103.532C96.2325 106.411 95.6459 109.688 93.9921 112.342C91.5624 108.761 89.8649 104.731 87.4346 101.138C85.6878 98.5562 83.4798 98.2594 80.8303 99.7233C77.2352 101.71 74.2701 105.516 72.1179 108.922C70.0588 112.181 68.7376 116.158 69.5249 119.999C69.1374 120.274 69.188 121.019 69.7314 121.193C73.1607 122.293 76.8447 122.196 80.408 122.142C84.5876 122.078 88.7404 121.925 92.9178 122.162C96.6825 122.377 100.443 122.65 104.211 122.811C107.596 122.954 111.364 123.282 114.688 122.483C114.962 122.417 115.133 122.246 115.215 122.04C115.248 122.017 115.282 121.995 115.314 121.966C117.835 119.652 116.466 115.963 115.197 113.355Z" fill="white"/>
</g>
</g>
<defs>
<linearGradient id="paint0_linear" x1="125.97" y1="34.6149" x2="58.4661" y2="151.535" gradientUnits="userSpaceOnUse">
<stop stop-color="#F36E2A"/>
<stop offset="1" stop-color="#FEBD66"/>
</linearGradient>
<linearGradient id="paint1_linear" x1="146.203" y1="95.8723" x2="142.853" y2="101.675" gradientUnits="userSpaceOnUse">
<stop stop-color="#F36E2A"/>
<stop offset="1" stop-color="#FEBD66"/>
</linearGradient>
<linearGradient id="paint2_linear" x1="86.3247" y1="143.547" x2="83.3466" y2="148.705" gradientUnits="userSpaceOnUse">
<stop stop-color="#F36E2A"/>
<stop offset="1" stop-color="#FEBD66"/>
</linearGradient>
<linearGradient id="paint3_linear" x1="142.626" y1="109.569" x2="137.563" y2="118.339" gradientUnits="userSpaceOnUse">
<stop stop-color="#F36E2A"/>
<stop offset="1" stop-color="#FEBD66"/>
</linearGradient>
<linearGradient id="paint4_linear" x1="159.014" y1="112.153" x2="155.396" y2="118.419" gradientUnits="userSpaceOnUse">
<stop stop-color="#F36E2A"/>
<stop offset="1" stop-color="#FEBD66"/>
</linearGradient>
<linearGradient id="paint5_linear" x1="155.132" y1="123.346" x2="153.008" y2="127.025" gradientUnits="userSpaceOnUse">
<stop stop-color="#F36E2A"/>
<stop offset="1" stop-color="#FEBD66"/>
</linearGradient>
<linearGradient id="paint6_linear" x1="66.2733" y1="45.6795" x2="62.1635" y2="52.7978" gradientUnits="userSpaceOnUse">
<stop stop-color="#F36E2A"/>
<stop offset="1" stop-color="#FEBD66"/>
</linearGradient>
<linearGradient id="paint7_linear" x1="86.8154" y1="37.8983" x2="85.1208" y2="40.8335" gradientUnits="userSpaceOnUse">
<stop stop-color="#F36E2A"/>
<stop offset="1" stop-color="#FEBD66"/>
</linearGradient>
<linearGradient id="paint8_linear" x1="80.8235" y1="39.4986" x2="79.3344" y2="42.0777" gradientUnits="userSpaceOnUse">
<stop stop-color="#F36E2A"/>
<stop offset="1" stop-color="#FEBD66"/>
</linearGradient>
<linearGradient id="paint9_linear" x1="72.2555" y1="40.2832" x2="70.532" y2="43.2683" gradientUnits="userSpaceOnUse">
<stop stop-color="#F36E2A"/>
<stop offset="1" stop-color="#FEBD66"/>
</linearGradient>
<linearGradient id="paint10_linear" x1="154.762" y1="113.809" x2="153.068" y2="116.744" gradientUnits="userSpaceOnUse">
<stop stop-color="#F36E2A"/>
<stop offset="1" stop-color="#FEBD66"/>
</linearGradient>
<linearGradient id="paint11_linear" x1="67.6465" y1="44.0251" x2="66.739" y2="45.597" gradientUnits="userSpaceOnUse">
<stop stop-color="#F36E2A"/>
<stop offset="1" stop-color="#FEBD66"/>
</linearGradient>
<linearGradient id="paint12_linear" x1="105.066" y1="158.631" x2="103.438" y2="161.451" gradientUnits="userSpaceOnUse">
<stop stop-color="#F36E2A"/>
<stop offset="1" stop-color="#FEBD66"/>
</linearGradient>
<linearGradient id="paint13_linear" x1="157.525" y1="105.052" x2="156.312" y2="107.154" gradientUnits="userSpaceOnUse">
<stop stop-color="#F36E2A"/>
<stop offset="1" stop-color="#FEBD66"/>
</linearGradient>
<linearGradient id="paint14_linear" x1="106.008" y1="26.5293" x2="104.795" y2="28.6308" gradientUnits="userSpaceOnUse">
<stop stop-color="#F36E2A"/>
<stop offset="1" stop-color="#FEBD66"/>
</linearGradient>
<linearGradient id="paint15_linear" x1="60.2436" y1="47.7407" x2="59.5266" y2="48.9825" gradientUnits="userSpaceOnUse">
<stop stop-color="#F36E2A"/>
<stop offset="1" stop-color="#FEBD66"/>
</linearGradient>
<linearGradient id="paint16_linear" x1="58.9352" y1="128.88" x2="58.4388" y2="129.74" gradientUnits="userSpaceOnUse">
<stop stop-color="#F36E2A"/>
<stop offset="1" stop-color="#FEBD66"/>
</linearGradient>
<linearGradient id="paint17_linear" x1="144.998" y1="91.4517" x2="144.626" y2="92.0965" gradientUnits="userSpaceOnUse">
<stop stop-color="#F36E2A"/>
<stop offset="1" stop-color="#FEBD66"/>
</linearGradient>
<linearGradient id="paint18_linear" x1="160.345" y1="99.4533" x2="159.753" y2="100.48" gradientUnits="userSpaceOnUse">
<stop stop-color="#F36E2A"/>
<stop offset="1" stop-color="#FEBD66"/>
</linearGradient>
<linearGradient id="paint19_linear" x1="98.3838" y1="160.826" x2="97.8874" y2="161.686" gradientUnits="userSpaceOnUse">
<stop stop-color="#F36E2A"/>
<stop offset="1" stop-color="#FEBD66"/>
</linearGradient>
<linearGradient id="paint20_linear" x1="82.9725" y1="40.7392" x2="82.7519" y2="41.1213" gradientUnits="userSpaceOnUse">
<stop stop-color="#F36E2A"/>
<stop offset="1" stop-color="#FEBD66"/>
</linearGradient>
<linearGradient id="paint21_linear" x1="69.5823" y1="44.4712" x2="69.3617" y2="44.8532" gradientUnits="userSpaceOnUse">
<stop stop-color="#F36E2A"/>
<stop offset="1" stop-color="#FEBD66"/>
</linearGradient>
<linearGradient id="paint22_linear" x1="108.035" y1="40.3079" x2="107.662" y2="40.9527" gradientUnits="userSpaceOnUse">
<stop stop-color="#F36E2A"/>
<stop offset="1" stop-color="#FEBD66"/>
</linearGradient>
<linearGradient id="paint23_linear" x1="77.7271" y1="39.4947" x2="77.5065" y2="39.8768" gradientUnits="userSpaceOnUse">
<stop stop-color="#F36E2A"/>
<stop offset="1" stop-color="#FEBD66"/>
</linearGradient>
<linearGradient id="paint24_linear" x1="87.6015" y1="40.2605" x2="87.2292" y2="40.9053" gradientUnits="userSpaceOnUse">
<stop stop-color="#F36E2A"/>
<stop offset="1" stop-color="#FEBD66"/>
</linearGradient>
<linearGradient id="paint25_linear" x1="157.396" y1="102.049" x2="157.023" y2="102.694" gradientUnits="userSpaceOnUse">
<stop stop-color="#F36E2A"/>
<stop offset="1" stop-color="#FEBD66"/>
</linearGradient>
<linearGradient id="paint26_linear" x1="106.918" y1="42.2421" x2="106.546" y2="42.8869" gradientUnits="userSpaceOnUse">
<stop stop-color="#F36E2A"/>
<stop offset="1" stop-color="#FEBD66"/>
</linearGradient>
<linearGradient id="paint27_linear" x1="125.61" y1="144.449" x2="124.617" y2="146.168" gradientUnits="userSpaceOnUse">
<stop stop-color="#F36E2A"/>
<stop offset="1" stop-color="#FEBD66"/>
</linearGradient>
<linearGradient id="paint28_linear" x1="121.474" y1="146.646" x2="120.346" y2="148.6" gradientUnits="userSpaceOnUse">
<stop stop-color="#F36E2A"/>
<stop offset="1" stop-color="#FEBD66"/>
</linearGradient>
<linearGradient id="paint29_linear" x1="109.632" y1="151.272" x2="109.135" y2="152.132" gradientUnits="userSpaceOnUse">
<stop stop-color="#F36E2A"/>
<stop offset="1" stop-color="#FEBD66"/>
</linearGradient>
<linearGradient id="paint30_linear" x1="114.131" y1="150.431" x2="113.911" y2="150.813" gradientUnits="userSpaceOnUse">
<stop stop-color="#F36E2A"/>
<stop offset="1" stop-color="#FEBD66"/>
</linearGradient>
<linearGradient id="paint31_linear" x1="122.723" y1="146.222" x2="122.503" y2="146.604" gradientUnits="userSpaceOnUse">
<stop stop-color="#F36E2A"/>
<stop offset="1" stop-color="#FEBD66"/>
</linearGradient>
<linearGradient id="paint32_linear" x1="123.779" y1="37.9354" x2="123.283" y2="38.7951" gradientUnits="userSpaceOnUse">
<stop stop-color="#F36E2A"/>
<stop offset="1" stop-color="#FEBD66"/>
</linearGradient>
<linearGradient id="paint33_linear" x1="49.5883" y1="19.874" x2="139.267" y2="11.0925" gradientUnits="userSpaceOnUse">
<stop stop-color="#F47530"/>
<stop offset="1" stop-color="#FDAF5C"/>
</linearGradient>
<clipPath id="clip0">
<rect width="138" height="136" fill="white" transform="translate(68) rotate(30)"/>
</clipPath>
<clipPath id="clip1">
<rect width="60" height="60" fill="white" transform="translate(63 63)"/>
</clipPath>
</defs>
</svg>
