<svg width="187" height="188" viewBox="0 0 187 188" fill="none" xmlns="http://www.w3.org/2000/svg">
<g clip-path="url(#clip0)">
<path d="M60.6662 149.824C62.0223 149.461 62.5187 148.601 63.0151 147.741C63.5115 146.881 64.5043 145.162 65.0007 144.302C65.4971 143.442 65.9935 142.582 66.9863 140.863C67.4827 140.003 66.623 139.507 65.7633 139.01C63.1842 137.521 61.9612 135.669 59.3821 134.18C56.803 132.691 55.5799 130.838 53.0008 129.349C52.1411 128.853 51.7778 127.497 50.9181 127C50.0584 126.504 49.6951 125.148 48.8354 124.652C47.9757 124.155 47.6124 122.799 46.7527 122.303C46.7527 122.303 45.893 121.806 46.3894 120.947C46.3894 120.947 45.5297 120.45 46.0261 119.59L46.5225 118.731C46.5225 118.731 46.5225 118.731 47.0189 117.871C47.0189 117.871 47.0189 117.871 46.6556 116.515C45.7959 116.018 45.7959 116.018 45.7959 116.018C44.9362 115.522 44.5729 114.166 44.2096 112.81C43.8463 111.454 42.9866 110.957 42.6233 109.601C42.26 108.245 40.6737 105.036 41.1701 104.176C41.6665 103.317 42.5262 103.813 42.1629 102.457L41.7996 101.101C42.296 100.241 41.4363 99.7445 41.9327 98.8847L41.5694 97.5286C40.7097 97.0322 40.7097 97.0322 40.7097 97.0322C40.3464 95.6761 40.3464 95.6761 40.8428 94.8163C41.3392 93.9565 40.8428 94.8163 40.4795 93.4602C39.6198 92.9638 40.1162 92.104 39.7529 90.7479L39.3896 89.3917C39.3896 89.3917 39.886 88.5319 39.5227 87.1758C39.1594 85.8196 39.6558 84.9598 39.2925 83.6037C38.9292 82.2476 39.4256 81.3878 39.922 80.528C40.4184 79.6682 40.4184 79.6682 40.4184 79.6682L40.0551 78.312L40.5515 77.4522C41.0479 76.5924 41.0479 76.5924 40.6846 75.2363C41.181 74.3765 40.8177 73.0203 41.3141 72.1606C41.8105 71.3008 41.8105 71.3008 41.8105 71.3008C42.3069 70.441 42.3069 70.441 42.8033 69.5812C43.2997 68.7214 43.2997 68.7214 43.7961 67.8616C44.2925 67.0018 44.2925 67.0018 44.7889 66.142C45.2853 65.2822 45.2853 65.2822 45.7817 64.4224L46.2781 63.5626L47.1378 64.059C47.6343 63.1992 47.6343 63.1992 48.1307 62.3394C48.6271 61.4796 49.1235 60.6198 49.6199 59.76C50.1163 58.9002 51.4724 58.5367 51.9688 57.6769C52.4652 56.8171 52.4652 56.8171 52.4652 56.8171C52.9616 55.9574 52.9616 55.9573 53.458 55.0976C53.9544 54.2378 55.3105 53.8743 55.8069 53.0145C56.3033 52.1547 57.6594 51.7913 58.6522 50.0717C59.1486 49.2119 59.645 48.3521 60.1414 47.4923C60.6378 46.6325 61.4975 47.1289 61.4975 47.1289C61.9939 46.2691 63.35 45.9056 63.8464 45.0458C63.8464 45.0458 64.3428 44.186 65.2025 44.6824C66.5586 44.3189 67.0551 43.4591 68.4112 43.0957C68.9076 42.2359 70.2637 41.8725 70.7601 41.0127L72.1162 40.6492L72.6126 39.7894C73.109 38.9296 74.4651 38.5662 74.4651 38.5662C75.3248 39.0625 74.8284 39.9223 76.1845 39.5589L76.6809 38.6991C76.6809 38.6991 77.5406 39.1954 78.037 38.3356C79.3931 37.9722 79.0298 36.6161 79.8895 37.1124C81.2456 36.749 82.965 37.7417 84.3211 37.3782C84.3211 37.3782 84.8176 36.5184 85.6773 37.0148L87.0334 36.6513C88.3895 36.2879 89.2492 36.7842 90.6053 36.4208C91.1017 35.561 91.9614 36.0573 92.8211 36.5537C93.6808 37.05 93.6808 37.05 94.1772 36.1903C94.1772 36.1903 95.5333 35.8268 96.393 36.3232C97.2527 36.8195 95.0369 36.6866 95.0369 36.6866C94.5405 37.5464 93.1844 37.9098 91.8283 38.2733C90.9686 37.7769 89.6125 38.1404 89.6125 38.1404C89.1161 39.0002 89.1161 39.0002 87.76 39.3636L86.9003 38.8673L85.5441 39.2307C84.188 39.5942 82.8319 39.9576 81.9722 39.4612C80.6161 39.8247 79.26 40.1881 77.9039 40.5516C76.5478 40.915 75.1917 41.2785 73.8356 41.6419C72.4795 42.0054 71.9831 42.8652 71.4867 43.725C70.1306 44.0884 70.1306 44.0884 68.7745 44.4518C68.2781 45.3116 66.922 45.6751 66.0623 45.1787C65.2026 44.6824 64.7061 45.5422 64.2097 46.402C63.2169 48.1216 61.8608 48.485 60.0083 49.7082C59.5119 50.568 58.1558 50.9315 57.6594 51.7913C54.8141 54.7341 52.4652 56.8171 50.4796 60.2563C49.9832 61.1161 49.4868 61.9759 48.494 63.6955C47.9976 64.5553 47.5011 65.4151 47.0047 66.2749C47.5011 65.4151 48.494 63.6955 48.9904 62.8357C49.4868 61.9759 50.4796 60.2563 50.976 59.3965C51.4724 58.5367 51.4724 58.5367 52.8285 58.1733C53.3249 57.3135 54.1846 57.8098 54.1846 57.8098C54.681 56.9501 55.1774 56.0903 55.1774 56.0903C55.6738 55.2305 56.1702 54.3707 57.0299 54.867C58.0227 53.1474 59.3788 52.784 60.7349 52.4205C61.2313 51.5607 62.091 52.0571 62.5874 51.1973C63.0838 50.3375 63.0838 50.3375 64.4399 49.9741C64.4399 49.9741 64.4399 49.9741 64.9363 49.1143C64.9363 49.1143 64.9363 49.1143 66.2924 48.7508C66.7889 47.891 66.7889 47.891 67.6486 48.3874L68.5083 48.8837C67.6486 48.3874 68.6414 46.6678 68.6414 46.6678C69.1378 45.808 71.3536 45.9409 71.85 45.0811C73.7025 43.8579 75.0586 43.4944 75.555 42.6346L76.9111 42.2712C77.7708 42.7675 78.2672 41.9077 78.7636 41.0479C80.6161 39.8247 82.8319 39.9576 85.5441 39.2307C86.4039 39.7271 86.9003 38.8673 87.76 39.3636C87.76 39.3636 88.6197 39.86 89.1161 39.0002L89.9758 39.4965L90.4722 38.6367C91.3319 39.1331 93.0513 40.1258 94.4074 39.7623C95.7635 39.3989 97.4829 40.3916 98.839 40.0281C100.195 39.6647 101.915 40.6574 103.271 40.294C104.13 40.7903 104.13 40.7903 104.99 41.2867C105.85 41.783 104.99 41.2867 105.85 41.783C106.346 40.9232 107.206 41.4196 107.206 41.4196C108.066 41.9159 109.422 41.5525 110.281 42.0488C112.86 43.5379 115.936 44.1671 118.515 45.6562C120.235 46.6489 121.094 47.1452 122.814 48.1379C124.533 49.1306 125.393 49.627 127.112 50.6197C127.112 50.6197 127.972 51.116 128.832 51.6124C129.691 52.1087 129.328 50.7526 130.188 51.2489C130.684 50.3891 132.767 52.738 130.551 52.6051C130.914 53.9612 131.774 54.4576 132.634 54.9539C133.493 55.4503 133.857 56.8064 134.716 57.3028C134.353 55.9466 132.137 55.8137 132.27 53.5978L132.767 52.738C132.767 52.738 133.626 53.2343 134.486 53.7307C135.346 54.227 136.569 56.0795 137.429 56.5759C138.288 57.0722 137.792 57.932 138.288 57.0722C138.785 56.2124 138.785 56.2124 139.644 56.7088C140.504 57.2051 141.364 57.7015 140.867 58.5613C141.727 59.0576 142.587 59.554 142.587 59.554C143.447 60.0503 142.95 60.9101 143.81 61.4065C144.67 61.9028 144.173 62.7626 145.033 63.259C145.893 63.7553 147.116 65.6078 147.479 66.964L147.842 68.3201C148.205 69.6763 148.205 69.6763 149.065 70.1726C149.925 70.669 149.428 71.5288 149.792 72.8849C148.799 74.6045 149.659 75.1008 150.022 76.457C150.385 77.8131 150.749 79.1693 151.112 80.5254C150.615 81.3852 150.615 81.3852 150.979 82.7414C150.979 82.7414 151.342 84.0975 152.202 84.5939C152.202 84.5939 151.705 85.4537 152.565 85.95L153.425 86.4464C154.284 86.9427 152.928 87.3062 152.928 87.3062C152.432 88.166 153.292 88.6623 152.795 89.5221C152.299 90.3819 151.439 89.8855 151.439 89.8855C150.943 90.7453 150.943 90.7453 150.943 90.7453L150.446 91.6051C149.587 91.1088 149.587 91.1088 148.727 90.6124C148.727 90.6124 148.231 91.4722 147.734 92.332C147.238 93.1918 148.097 93.6882 148.097 93.6882C147.601 94.548 147.601 94.548 147.964 95.9041C147.964 95.9041 147.964 95.9041 147.468 96.7639L146.972 97.6237L147.335 98.9798C145.482 100.203 143.993 102.782 146.209 102.915C146.209 102.915 147.565 102.552 147.069 103.412C146.572 104.272 145.713 103.775 145.713 103.775C145.713 103.775 144.356 104.139 144.72 105.495C144.72 105.495 146.439 106.487 146.936 105.628C147.432 104.768 147.432 104.768 147.928 103.908C148.425 103.048 148.425 103.048 148.921 102.188C149.418 101.329 149.914 100.469 149.054 99.9725C149.054 99.9725 148.195 99.4762 148.691 98.6164C148.691 98.6164 148.691 98.6164 149.187 97.7566C149.187 97.7566 149.187 97.7566 149.684 96.8968C150.18 96.037 148.957 94.1845 151.173 94.3174C151.173 94.3174 152.033 94.8138 152.892 95.3101L152.396 96.1699L151.9 97.0297C151.9 97.0297 151.9 97.0297 151.403 97.8895C151.403 97.8895 152.263 98.3859 151.766 99.2457C151.27 100.105 151.27 100.105 150.774 100.965C150.774 100.965 150.774 100.965 151.137 102.321C151.137 102.321 150.641 103.181 151.5 103.678C150.144 104.041 150.011 106.257 149.018 107.977C147.892 111.912 146.403 114.491 145.277 118.427C144.284 120.147 143.292 121.866 142.299 123.586C141.802 124.446 141.306 125.305 140.313 127.025C139.817 127.885 138.461 128.248 138.461 128.248C137.964 129.108 137.468 129.968 136.971 130.828C136.971 130.828 135.119 132.051 135.615 131.191C135.615 131.191 136.112 130.331 136.608 129.471C137.105 128.612 137.601 127.752 138.097 126.892C139.09 125.172 140.083 123.453 141.076 121.733C142.069 120.014 143.061 118.294 144.054 116.574C144.551 115.715 145.047 114.855 145.543 113.995C144.684 113.499 145.18 112.639 145.18 112.639L144.32 112.143L144.817 111.283C145.313 110.423 145.81 109.563 145.446 108.207C144.09 108.57 144.95 109.067 144.454 109.927C143.957 110.786 143.097 110.29 143.097 110.29L142.601 111.15C142.105 112.01 141.608 112.869 141.608 112.869C141.112 113.729 140.615 114.589 140.979 115.945C140.482 116.805 139.986 117.665 139.489 118.525L138.993 119.384L137.637 119.748C137.141 120.608 136.644 121.467 137.504 121.964C137.371 124.18 135.518 125.403 134.525 127.123L134.029 127.982L133.533 128.842L133.036 129.702C132.54 130.562 132.54 130.562 132.043 131.422C126.486 135.091 123.641 138.034 119.572 139.124C110.806 144.381 99.9573 147.288 88.8782 146.624C87.5221 146.987 86.166 147.351 84.4466 146.358C83.5869 145.862 83.0905 146.721 82.2308 146.225L81.3711 145.729C81.3711 145.729 80.5114 145.232 80.015 146.092C79.1553 145.596 77.7992 145.959 76.9394 145.463C76.0797 144.967 74.7236 145.33 74.3603 143.974C73.0042 144.337 71.2848 143.345 70.4251 142.848C69.5654 142.352 67.4827 140.003 66.1266 140.367C65.6302 141.226 65.1338 142.086 64.6374 142.946C64.141 143.806 63.6446 144.666 63.1482 145.525C62.6518 146.385 62.1554 147.245 62.1554 147.245C63.0151 147.741 63.8748 148.238 64.7345 148.734L65.5942 149.23C65.5942 149.23 66.4539 149.727 66.9503 148.867C67.81 149.363 68.6697 149.86 70.0258 149.496C70.8855 149.992 70.8855 149.992 71.7452 150.489C72.6049 150.985 73.4646 151.482 74.3243 151.978C75.184 152.474 76.0437 152.971 77.3998 152.607C78.2596 153.103 79.6157 152.74 80.4754 153.236C81.3351 153.733 82.6912 153.369 82.6912 153.369C83.5509 153.866 84.5437 152.146 84.907 153.502C84.907 153.502 84.907 153.502 85.7667 153.999C85.7667 153.999 87.1228 153.635 87.9825 154.131C88.8422 154.628 90.1983 154.264 91.058 154.761C91.9177 155.257 92.7774 155.753 92.7774 155.753C92.7774 155.753 93.2738 154.894 94.1335 155.39L94.9932 155.886C93.6371 156.25 91.4213 156.117 90.0652 156.48C89.2055 155.984 87.8494 156.347 87.8494 156.347C86.4933 156.711 87.353 157.207 88.2127 157.704C90.4285 157.836 93.504 158.466 96.2162 157.739C97.0759 158.235 97.5723 157.375 98.432 157.872C99.2918 158.368 100.648 158.005 100.151 158.864C99.6551 159.724 99.6551 159.724 98.7953 159.228L97.4392 159.591L96.5795 159.095L95.2234 159.458C93.8673 159.822 93.8673 159.822 92.5112 160.185C91.6515 159.689 90.2954 160.052 90.2954 160.052L91.1551 160.549C91.1551 160.549 91.1551 160.549 92.5112 160.185L93.3709 160.682C94.2306 161.178 94.727 160.318 95.2234 159.458C96.5795 159.095 96.5795 159.095 97.4392 159.591C98.2989 160.088 98.2989 160.088 98.7953 159.228C99.2918 158.368 99.6551 159.724 101.011 159.361C103.227 159.494 105.939 158.767 107.792 157.544C110.504 156.817 111.86 156.453 113.713 155.23C115.069 154.867 115.565 154.007 116.921 153.643C118.277 153.28 118.774 152.42 120.13 152.057C121.486 151.693 121.486 151.693 122.842 151.33C124.198 150.966 124.198 150.966 125.554 150.603C125.421 152.819 126.777 152.455 127.274 151.596C127.274 151.596 127.77 150.736 128.63 151.232C129.126 150.372 129.126 150.372 130.482 150.009C131.342 150.505 132.831 147.926 134.187 147.562C137.396 145.976 140.241 143.033 141.73 140.453L142.227 139.594C142.723 138.734 142.723 138.734 144.079 138.37C144.576 137.511 145.072 136.651 145.568 135.791C146.065 134.931 146.561 134.071 147.058 133.212C148.051 131.492 149.043 129.772 150.896 128.549C151.392 127.689 151.889 126.83 152.385 125.97C152.881 125.11 153.378 124.25 153.874 123.39C154.371 122.531 154.007 121.175 154.007 121.175C154.504 120.315 154.504 120.315 155 119.455C155.497 118.595 155.497 118.595 155.993 117.735C156.489 116.876 157.482 115.156 157.119 113.8C158.112 112.08 158.608 111.22 159.601 109.501C159.601 109.501 159.601 109.501 160.097 108.641C160.594 107.781 159.734 107.285 158.874 106.789L157.022 108.012C157.022 108.012 157.881 108.508 157.385 109.368C157.385 109.368 156.889 110.228 157.748 110.724C157.252 111.584 156.756 112.444 156.259 113.303L155.763 114.163L154.407 114.527C154.407 114.527 154.407 114.527 154.77 115.883L154.274 116.743C153.777 117.602 153.281 118.462 153.281 118.462C153.281 118.462 151.925 118.826 151.065 118.329C150.205 117.833 151.198 116.113 151.198 116.113C151.694 115.254 150.835 114.757 152.191 114.394L152.687 113.534C153.184 112.674 153.68 111.814 153.317 110.458C155.169 109.235 155.666 108.375 156.162 107.515C156.658 106.656 157.155 105.796 156.792 104.44C156.428 103.084 156.065 101.727 156.065 101.727C156.561 100.868 157.421 101.364 157.421 101.364C158.281 101.86 158.281 101.86 159.14 102.357C159.14 102.357 158.644 103.216 159.504 103.713L160.86 103.349C162.216 102.986 161.126 98.9175 160.763 97.5613C159.903 97.065 160.763 97.5613 160.266 98.4211C159.77 99.2809 159.274 100.141 159.274 100.141C157.058 100.008 157.554 99.148 156.694 98.6517C156.331 97.2955 155.968 95.9394 156.464 95.0796C156.961 94.2198 157.457 93.36 157.457 93.36L157.953 92.5002C158.45 91.6404 157.953 92.5002 158.813 92.9966C158.813 92.9966 159.673 93.4929 159.176 94.3527C159.176 94.3527 159.54 95.7088 160.399 96.2052C163.112 95.4783 161.162 90.9135 161.162 90.9135C160.799 89.5574 159.939 89.061 160.436 88.2012C160.932 87.3414 161.428 86.4816 160.569 85.9853C161.065 85.1255 160.205 84.6291 160.702 83.7693C160.338 82.4132 159.842 83.273 158.982 82.7766C158.123 82.2803 157.759 80.9241 158.256 80.0644C158.389 77.8484 160.605 77.9813 159.745 77.485C160.241 76.6252 159.878 75.269 159.878 75.269C159.515 73.9129 159.151 72.5567 158.788 71.2006C157.928 70.7042 158.425 69.8444 158.061 68.4883L157.202 67.9919C157.202 67.9919 156.342 67.4956 156.838 66.6358L157.831 64.9162L157.468 63.5601C156.112 63.9235 155.749 62.5674 155.749 62.5674C154.889 62.071 154.526 60.7149 153.666 60.2185C152.08 57.0099 150.493 53.8012 147.551 50.956C147.188 49.5999 145.965 47.7474 144.245 46.7547C143.022 44.9022 141.799 43.0497 139.22 41.5607C138.36 41.0643 137.501 40.568 136.641 40.0716C136.278 38.7155 135.418 38.2191 134.558 37.7228C133.698 37.2264 133.202 38.0862 132.342 37.5899C131.483 37.0935 132.839 36.7301 131.979 36.2337C131.119 35.7374 130.26 35.241 129.4 34.7447C128.044 35.1081 128.044 35.1081 127.547 35.9679C127.051 36.8277 127.051 36.8277 127.051 36.8277L127.911 37.324L128.77 37.8204C128.77 37.8204 129.63 38.3167 130.49 38.8131C130.853 40.1692 129.134 39.1765 128.274 38.6802C127.414 38.1838 126.555 37.6875 125.695 37.1911C124.835 36.6948 123.976 36.1984 123.116 35.7021C121.396 34.7094 118.817 33.2203 117.098 32.2276C115.379 31.2349 113.163 31.102 111.443 30.1093C110.087 30.4728 105.656 30.207 101.224 29.9411C100.364 29.4448 99.0081 29.8082 96.7923 29.6753C95.9326 29.179 95.4362 30.0388 94.5765 29.5424C93.2204 29.9059 92.3607 29.4095 91.8643 30.2693C91.0046 29.773 90.5082 30.6328 89.6485 30.1364C88.7888 29.6401 88.2924 30.4999 87.4327 30.0035C87.4327 30.0035 86.0766 30.3669 85.2169 29.8706C84.3572 29.3742 83.8608 30.234 82.5046 30.5975C82.5046 30.5975 81.6449 30.1011 81.1485 30.9609C79.7924 31.3244 79.7924 31.3244 78.4363 31.6878C76.5838 32.9111 74.368 32.7782 73.0119 33.1416C71.1594 34.3648 69.8033 34.7283 67.0911 35.4552C65.735 35.8186 63.8824 37.0419 63.386 37.9017C62.8896 38.7614 61.5335 39.1249 61.0371 39.9847C59.1846 41.2079 57.3321 42.4312 55.4796 43.6544C54.9832 44.5142 53.6271 44.8776 53.1307 45.7374C52.271 45.2411 51.2782 46.9607 50.4185 46.4643C49.5588 45.968 50.4185 46.4643 50.4185 46.4643L50.9149 45.6045L51.4113 44.7447C51.9077 43.8849 53.2638 43.5215 53.7602 42.6617C55.6127 41.4385 57.4652 40.2152 58.8213 39.8518C59.3177 38.992 60.6738 38.6285 61.1702 37.7687C61.6666 36.909 62.5263 37.4053 63.8824 37.0419L64.3788 36.1821L64.8753 35.3223L65.735 35.8186L67.0911 35.4552C68.0839 33.7356 68.5803 32.8758 70.4328 31.6526C71.7889 31.2891 72.6486 31.7855 72.6486 31.7855L73.145 30.9257L74.5011 30.5622C75.8572 30.1988 76.3536 29.339 77.2133 29.8353C79.0658 28.6121 79.9255 29.1084 81.2816 28.745C83.4975 28.8779 85.35 27.6547 87.5658 27.7876C88.9219 27.4241 88.9219 27.4241 89.7816 27.9205C90.6413 28.4168 90.6413 28.4168 91.501 28.9132C92.3607 29.4095 91.9974 28.0534 92.8571 28.5497L94.2132 28.1863C94.7096 27.3265 96.9254 27.4594 98.2815 27.0959C99.1412 27.5923 99.6376 26.7325 100.497 27.2289C101.357 27.7252 101.357 27.7252 102.217 28.2216C104.069 26.9983 104.929 27.4947 106.648 28.4874C107.508 28.9837 108.368 29.4801 109.724 29.1166C110.584 29.613 111.443 30.1093 112.799 29.7459C114.519 30.7386 116.735 30.8715 118.454 31.8642C120.173 32.8569 123.249 33.4861 124.968 34.4788C124.968 34.4788 125.828 34.9752 126.324 34.1154C126.821 33.2556 125.465 33.619 124.605 33.1227C123.745 32.6263 122.886 32.13 122.886 32.13C122.026 31.6336 120.67 31.9971 119.81 31.5007C117.594 31.3678 116.371 29.5153 114.156 29.3824C111.08 28.7532 108.004 28.1239 104.929 27.4947C101.853 26.8654 98.7779 26.2362 95.7024 25.6069C92.6269 24.9776 89.9147 25.7045 87.2025 26.4314C84.9867 26.2985 83.1341 27.5218 81.2816 28.745C79.5622 27.7523 78.2061 28.1157 78.2061 28.1157L76.85 28.4792L76.3536 29.339L74.1378 29.2061C71.922 29.0732 71.4256 29.933 70.5659 29.4366C69.2098 29.8001 67.3573 31.0233 66.0012 31.3867C64.1487 32.61 62.7925 32.9734 60.94 34.1967C57.7314 35.7834 56.7386 37.5029 55.3825 37.8664L54.0264 38.2298L53.53 39.0896C53.0336 39.9494 51.6775 40.3129 51.1811 41.1727C50.6847 42.0325 49.3286 42.3959 48.8322 43.2557L48.3358 44.1155C47.8394 44.9753 46.9797 44.4789 46.4833 45.3387L45.9869 46.1985C45.4905 47.0583 45.4905 47.0583 44.994 47.9181C44.4976 48.7779 43.1415 49.1414 42.6451 50.0011C42.1487 50.8609 42.1487 50.8609 40.7926 51.2244C40.2962 52.0842 39.4365 51.5878 38.9401 52.4476C38.4437 53.3074 38.4437 53.3074 37.9473 54.1672C37.4509 55.027 37.4509 55.027 36.9545 55.8868C36.4581 56.7466 35.9617 57.6064 35.4653 58.4662L34.9689 59.326C34.4725 60.1858 34.4725 60.1858 33.9761 61.0456L33.4797 61.9054L32.9833 62.7652C32.4869 63.625 31.9905 64.4848 31.4941 65.3446C30.5013 67.0641 30.3682 69.2801 29.3753 70.9997C27.8861 73.5791 27.2566 76.6548 27.4868 80.2269C28.7098 82.0794 28.5767 84.2953 27.5839 86.0149C27.4508 88.2308 27.3177 90.4468 27.681 91.8029C28.4076 94.5152 27.7781 97.591 28.5047 100.303C29.2313 103.016 29.5946 104.372 30.3212 107.084C30.6845 108.44 30.5514 110.656 31.7744 112.509C32.1377 113.865 32.8643 116.577 31.5082 116.94C33.2276 117.933 33.5909 119.289 33.9543 120.645C34.3176 122.002 34.3175 122.002 33.8211 122.861C33.3247 123.721 33.8211 122.861 34.6808 123.358C35.5406 123.854 35.5405 123.854 35.9038 125.21C36.2671 126.566 36.2671 126.566 36.6304 127.923C37.4902 128.419 37.4902 128.419 37.8535 129.775C37.8535 129.775 38.7132 130.271 38.2168 131.131L39.0765 131.628C39.9362 132.124 40.2995 133.48 41.1592 133.976C42.0189 134.473 42.3822 135.829 43.2419 136.325C43.2419 136.325 44.1016 136.822 43.6052 137.681C43.6052 137.681 43.1088 138.541 43.9685 139.037C44.3318 140.394 44.8282 139.534 44.8282 139.534C44.8282 139.534 44.3318 140.394 45.1915 140.89L46.0512 141.386L46.9109 141.883C47.7706 142.379 47.2742 143.239 48.1339 143.735C48.9936 144.232 49.8533 144.728 50.713 145.224C51.5727 145.721 52.4324 146.217 53.2921 146.713C54.1518 147.21 55.5079 146.846 55.5079 146.846L55.8712 148.202C56.7309 148.699 56.7309 148.699 57.5906 149.195C59.31 150.188 59.3101 150.188 60.6662 149.824ZM65.7273 147.014C66.2237 146.155 66.2237 146.155 65.7273 147.014V147.014ZM71.515 146.917C71.0186 147.777 69.7956 145.924 71.515 146.917C71.515 146.917 72.3747 147.413 71.515 146.917C72.3747 147.413 71.515 146.917 71.515 146.917ZM81.1049 150.161C80.2452 149.664 78.889 150.028 78.0293 149.531C77.1696 149.035 75.8135 149.398 75.4502 148.042C75.0869 146.686 75.0869 146.686 75.9466 147.183L76.8063 147.679C78.1625 147.315 79.8819 148.308 80.7416 148.805L81.6013 149.301C82.461 149.797 81.9646 150.657 81.1049 150.161ZM103.227 159.494C103.723 158.634 103.723 158.634 103.227 159.494C103.723 158.634 103.723 158.634 103.227 159.494ZM107.428 156.187C107.792 157.544 105.939 158.767 104.583 159.13L104.087 159.99L103.227 159.494L101.871 159.857C101.011 159.361 101.508 158.501 101.508 158.501C102.004 157.641 104.22 157.774 105.576 157.411C104.716 156.914 107.065 154.831 107.428 156.187ZM97.6083 149.371C97.6083 149.371 97.1119 150.231 95.7558 150.595C95.7558 150.595 94.8961 150.098 94.3997 150.958L93.0436 151.322L92.1839 150.825L90.8278 151.189C89.4717 151.552 87.2559 151.419 85.8998 151.783C85.8998 151.783 84.5437 152.146 83.684 151.65L82.461 149.797C82.0977 148.441 84.3135 148.574 85.1732 149.07C86.0329 149.567 86.8926 150.063 87.389 149.203C87.389 149.203 88.7451 148.84 89.2415 147.98C90.5976 147.617 90.1012 148.476 91.4573 148.113C92.317 148.609 93.6731 148.246 93.6731 148.246C95.0292 147.882 95.0292 147.882 96.3853 147.519C96.7486 148.875 98.9645 149.008 97.6083 149.371ZM107.065 154.831C107.561 153.971 108.421 154.468 108.918 153.608L110.274 153.245C109.777 154.104 109.777 154.104 108.918 153.608C108.421 154.468 108.421 154.468 107.065 154.831ZM116.921 153.643C117.284 154.999 116.425 154.503 116.425 154.503L115.069 154.867C114.572 155.726 112.72 156.95 111.86 156.453C111 155.957 111.497 155.097 111.497 155.097C111.993 154.237 112.853 154.734 113.349 153.874C114.209 154.37 116.921 153.643 116.921 153.643ZM123.702 151.826C124.065 153.182 121.353 153.909 120.989 152.553C121.123 150.337 123.338 150.47 123.702 151.826ZM113.882 145.01C113.385 145.87 113.385 145.87 112.889 146.73L112.392 147.589C111.533 147.093 112.889 146.73 112.889 146.73L113.882 145.01C113.518 143.654 114.378 144.15 113.882 145.01ZM118.446 143.06C117.587 142.564 117.587 142.564 118.446 143.06C118.083 141.704 118.943 142.2 118.446 143.06ZM128.763 149.016C128.763 149.016 128.4 147.66 128.763 149.016C129.259 148.156 129.259 148.156 128.763 149.016ZM131.378 142.501C130.882 143.361 130.882 143.361 129.525 143.724C130.022 142.865 131.378 142.501 131.378 142.501C131.874 141.641 131.378 142.501 131.378 142.501ZM136.076 138.335C135.579 139.195 135.579 139.195 134.223 139.558C133.727 140.418 133.727 140.418 134.223 139.558C134.72 138.699 136.572 137.475 137.069 136.616C137.928 137.112 136.572 137.475 136.076 138.335ZM142.36 137.378C141.5 136.881 141.5 136.881 142.36 137.378C141.5 136.881 142.36 137.378 142.36 137.378ZM148.184 129.276C149.043 129.772 147.554 132.352 147.191 130.996C147.687 130.136 147.82 127.92 148.184 129.276ZM146.828 129.64C146.331 130.499 145.968 129.143 146.828 129.64C145.968 129.143 147.324 128.78 147.82 127.92C146.464 128.283 146.828 129.64 146.828 129.64ZM151.792 121.042C152.155 122.398 152.518 123.754 152.022 124.614C151.525 125.473 150.666 124.977 150.666 124.977C150.169 125.837 150.169 125.837 150.169 125.837C150.533 127.193 150.036 128.053 148.68 128.416L147.82 127.92C147.82 127.92 147.82 127.92 146.464 128.283C145.605 127.787 145.605 127.787 144.745 127.291C144.248 128.151 143.752 129.01 142.759 130.73C142.263 131.59 140.41 132.813 140.774 134.169C142.13 133.806 141.766 132.449 142.263 131.59C142.263 131.59 143.256 129.87 143.752 129.01C144.612 129.507 143.619 131.226 143.619 131.226C143.122 132.086 143.982 132.582 144.842 133.079C144.345 133.939 144.709 135.295 143.849 134.798C142.989 134.302 142.989 134.302 141.633 134.665C141.137 135.525 140.64 136.385 139.781 135.889C138.425 136.252 137.928 137.112 137.069 136.616C136.705 135.259 139.054 133.176 139.551 132.317C140.543 130.597 141.04 129.737 142.033 128.018C143.025 126.298 144.018 124.578 144.515 123.719C145.011 122.859 146.004 121.139 147.36 120.776C148.22 121.272 148.22 121.272 149.576 120.909C150.932 120.545 151.428 119.685 151.792 121.042ZM155.932 103.943C155.932 103.943 155.435 104.803 156.295 105.299C155.799 106.159 155.799 106.159 155.799 106.159C155.302 107.019 155.302 107.019 156.162 107.515C157.022 108.012 155.666 108.375 155.666 108.375L155.169 109.235L155.533 110.591C155.036 111.451 154.176 110.955 153.68 111.814C153.184 112.674 153.184 112.674 152.687 113.534C150.338 115.617 151.828 113.038 151.828 113.038C152.324 112.178 152.457 109.962 152.953 109.102C153.087 106.886 153.583 106.026 154.576 104.307L155.072 103.447L155.932 103.943ZM150.943 90.7453C152.662 91.738 151.173 94.3174 149.454 93.3247C148.594 92.8284 149.09 91.9686 149.09 91.9686L149.587 91.1088C150.083 90.249 150.943 90.7453 150.943 90.7453ZM157.953 92.5002C157.457 93.36 156.597 92.8636 157.094 92.0038L157.953 92.5002ZM154.515 90.5148C153.655 90.0184 153.655 90.0184 154.515 90.5148V90.5148ZM159.212 86.3487C160.072 86.8451 160.799 89.5574 159.443 89.9208L158.583 89.4245L157.723 88.9281C156.864 88.4318 156.367 89.2916 156.004 87.9354C156.004 87.9354 156.5 87.0756 156.137 85.7195C156.137 85.7195 155.774 84.3633 156.27 83.5035C156.766 82.6437 157.13 83.9999 157.13 83.9999C157.13 83.9999 157.13 83.9999 156.633 84.8597L156.997 86.2158C159.079 88.5647 158.716 87.2085 159.212 86.3487C158.716 87.2085 159.212 86.3487 159.212 86.3487ZM155.677 78.5753C156.536 79.0717 156.04 79.9314 156.9 80.4278C157.759 80.9241 157.759 80.9241 158.123 82.2803C158.123 82.2803 157.626 83.1401 156.766 82.6437C156.766 82.6437 156.403 81.2876 156.9 80.4278C155.543 80.7912 155.18 79.4351 155.677 78.5753C154.817 78.079 154.817 78.079 155.677 78.5753C154.817 78.079 155.677 78.5753 155.677 78.5753ZM159.382 76.1288C158.522 75.6325 158.522 75.6325 159.382 76.1288C159.018 74.7727 159.018 74.7727 159.382 76.1288ZM126.252 50.1233C126.252 50.1233 124.896 50.4868 124.533 49.1306C125.029 48.2708 126.749 49.2635 126.252 50.1233ZM151.087 58.7295C151.946 59.2258 152.806 59.7222 153.169 61.0783C153.533 62.4345 154.029 61.5747 154.889 62.071C156.608 63.0637 153.896 63.7906 155.615 64.7833C156.475 65.2797 156.475 65.2797 155.979 66.1395C155.482 66.9992 155.482 66.9992 156.342 67.4956C156.342 67.4956 155.846 68.3554 156.705 68.8517L157.928 70.7042L156.572 71.0677C155.216 71.4311 155.713 70.5713 154.853 70.075C152.274 68.5859 152.77 67.7261 151.91 67.2298C151.547 65.8736 152.044 65.0138 151.184 64.5175C151.184 64.5175 151.184 64.5175 150.821 63.1613C149.961 62.665 149.961 62.665 149.961 62.665C149.101 62.1686 148.738 60.8125 149.234 59.9527C149.234 59.9527 149.731 59.0929 150.227 58.2331C150.227 58.2331 151.583 57.8697 151.087 58.7295ZM128.601 48.0403C128.601 48.0403 126.386 47.9074 126.882 47.0476C127.378 46.1878 128.601 48.0403 128.601 48.0403ZM146.062 53.5354C145.202 53.0391 145.698 52.1793 145.698 52.1793C146.558 52.6756 146.558 52.6756 146.062 53.5354C146.921 54.0318 146.921 54.0318 146.062 53.5354ZM146.425 54.8916L146.921 54.0318C146.921 54.0318 147.781 54.5281 148.641 55.0245C149.5 55.5208 149.864 56.877 149.367 57.7368C148.871 58.5966 147.515 58.96 147.152 57.6039L147.648 56.7441C146.788 56.2477 147.285 55.3879 146.425 54.8916ZM98.9721 37.8122C99.9649 36.0926 102.048 38.4415 103.404 38.078L104.76 37.7146L105.62 38.2109C106.479 38.7073 107.835 38.3438 108.695 38.8402L109.555 39.3365L110.911 38.9731L111.771 39.4694C112.63 39.9658 112.267 38.6096 113.127 39.106C113.986 39.6023 113.986 39.6023 113.49 40.4621C113.49 40.4621 114.35 40.9585 113.853 41.8183C114.713 42.3146 114.713 42.3146 115.209 41.4548C117.922 40.7279 118.781 41.2243 119.641 41.7207C120.501 42.217 122.717 42.3499 121.724 44.0695C121.227 44.9293 118.648 43.4402 118.648 43.4402L117.789 42.9439L116.432 43.3073C115.573 42.811 115.573 42.811 114.713 42.3146C113.853 41.8183 113.853 41.8183 112.994 41.3219C112.134 40.8256 112.134 40.8256 111.274 40.3292C110.414 39.8329 109.918 40.6927 109.058 40.1963C108.199 39.7 107.339 39.2036 105.983 39.5671L104.627 39.9305C103.767 39.4342 103.767 39.4342 103.767 39.4342C102.907 38.9378 102.411 39.7976 102.411 39.7976L101.055 40.1611C100.195 39.6647 99.8318 38.3086 98.9721 37.8122ZM62.9867 44.5495C62.9867 44.5495 63.4831 43.6897 64.3428 44.186C63.4831 43.6897 62.9867 44.5495 62.9867 44.5495ZM37.7062 80.3951C38.0695 81.7512 38.4328 83.1073 37.9364 83.9671C37.9364 83.9671 38.2997 85.3233 37.8033 86.1831C37.3069 87.0429 37.3069 87.0429 36.9436 85.6867C36.5803 84.3306 37.0767 83.4708 36.7134 82.1147C37.2098 81.2549 36.3501 80.7585 37.7062 80.3951C36.8465 79.8987 38.2026 79.5353 37.7062 80.3951ZM41.4472 69.9446C40.9508 70.8044 40.3213 73.8801 39.4616 73.3838C38.9652 74.2436 38.699 78.6755 37.8393 78.1791C36.9796 77.6828 37.9724 75.9632 37.9724 75.9632C38.4688 75.1034 38.1055 73.7472 38.6019 72.8874C39.0983 72.0276 39.5947 71.1679 40.0911 70.3081C40.0911 70.3081 40.5875 69.4483 41.4472 69.9446C40.5875 69.4483 41.4472 69.9446 41.4472 69.9446ZM36.7494 74.1107C36.7494 74.1107 37.0156 69.6788 37.8753 70.1752C38.735 70.6715 37.2458 73.2509 36.7494 74.1107ZM38.8681 68.4556C38.0084 67.9592 38.5048 67.0994 38.5048 67.0994C38.5048 67.0994 39.0012 66.2396 38.5048 67.0994C39.8609 66.736 38.8681 68.4556 38.8681 68.4556ZM42.0767 66.8689C42.0767 66.8689 42.44 68.225 41.5803 67.7287L40.7206 67.2323L42.0767 66.8689ZM44.4256 64.7858C44.7889 66.142 42.9364 67.3652 43.0695 65.1493C41.8465 63.2968 44.0623 63.4297 44.4256 64.7858ZM30.163 87.504C30.2961 85.288 30.4292 83.0721 30.5624 80.8561C30.6954 78.6402 30.8286 76.4243 31.8214 74.7047C32.3178 73.8449 32.8142 72.9851 32.8142 72.9851C33.3106 72.1253 32.4509 71.6289 32.9473 70.7691C32.584 69.413 33.9401 69.0495 33.5768 67.6934C34.0732 66.8336 34.5696 65.9738 35.5624 64.2542C36.0588 63.3944 36.5552 62.5346 37.0516 61.6748C37.548 60.815 38.0444 59.9552 38.5408 59.0954C38.5408 59.0954 39.0372 58.2356 39.8969 58.732C40.3933 57.8722 40.3933 57.8722 40.3933 57.8722C40.8897 57.0124 41.3861 56.1526 41.8825 55.2928L42.3789 54.433L42.8753 53.5732C43.3717 52.7134 43.8681 51.8536 44.3645 50.9938C44.8609 50.134 45.3573 49.2743 45.8537 48.4145C45.8537 48.4145 46.3501 47.5547 46.8466 46.6949C46.8466 46.6949 47.7062 47.1912 48.566 47.6876C48.9293 49.0437 47.5732 49.4072 47.0767 50.267C46.5803 51.1268 46.0839 51.9865 44.7278 52.35C44.2314 53.2098 42.8753 53.5732 42.3789 54.433C40.3933 57.8722 38.4077 61.3114 36.4221 64.7506C34.4365 68.1897 33.3106 72.1253 32.1847 76.0608C31.6883 76.9206 31.1918 77.7804 31.5552 79.1366C31.0588 79.9963 31.0588 79.9963 31.4221 81.3525L30.9257 82.2123L30.0659 81.7159C30.0659 81.7159 29.2062 81.2196 29.5695 82.5757C29.0731 83.4355 30.7926 84.4282 31.1559 85.7844C31.1559 85.7844 30.6594 86.6442 30.163 87.504C30.163 87.504 29.6666 88.3638 29.1702 89.2235C28.6738 90.0833 30.0299 89.7199 30.3932 91.076C33.2386 88.1332 29.6666 88.3638 30.163 87.504ZM44.67 119.954C44.67 119.954 43.8103 119.457 44.67 119.954C43.8103 119.457 44.3067 118.598 44.67 119.954ZM43.2168 114.529C42.7204 115.389 41.4974 113.537 42.8535 113.173L43.2168 114.529ZM41.6305 111.321C41.1341 112.18 40.2744 111.684 40.7708 110.824L41.2672 109.964C41.2672 109.964 41.2672 109.964 41.6305 111.321ZM40.5406 107.252C41.4003 107.749 40.0442 108.112 39.1845 107.616C38.8212 106.259 40.1773 105.896 40.5406 107.252ZM39.814 104.54C39.814 104.54 38.9543 104.044 39.814 104.54C38.9543 104.044 38.9543 104.044 39.814 104.54ZM31.5803 100.933C31.2169 99.5764 31.3501 97.3604 30.9867 96.0043C31.4831 95.1445 30.6234 94.6481 31.1198 93.7883C31.6163 92.9285 30.5263 88.8601 31.386 89.3565C32.2458 89.8528 31.7494 90.7126 31.7494 90.7126C31.7494 90.7126 31.2529 91.5724 32.1127 92.0687L32.9724 92.5651C33.8321 93.0614 32.476 93.4249 32.476 93.4249C31.9795 94.2847 32.8392 94.781 33.699 95.2774C34.0623 96.6335 34.0623 96.6335 34.4256 97.9897C34.7889 99.3458 34.7889 99.3458 35.1522 100.702C34.1594 102.422 31.9436 102.289 31.5803 100.933ZM44.0045 131.034C41.9218 128.685 39.8391 126.336 38.2528 123.127C37.0298 121.275 36.3032 118.562 35.0802 116.71C33.8571 114.857 33.1305 112.145 32.7672 110.789C32.4039 109.433 32.0406 108.077 32.1737 105.861C32.6701 105.001 31.4471 103.148 32.3069 103.645L33.1665 104.141C34.0263 104.637 34.0263 104.637 34.3896 105.994C35.1162 108.706 35.8428 111.418 37.4291 114.627C38.1557 117.339 39.742 120.548 40.965 122.4C41.3283 123.756 42.5513 125.609 43.411 126.105C44.2707 126.602 43.7743 127.461 44.634 127.958C45.4937 128.454 45.857 129.81 45.857 129.81L45.3606 130.67C45.3606 130.67 45.3606 130.67 44.5009 130.174C44.5009 130.174 44.1376 128.818 43.6412 129.677C42.4182 127.825 44.5009 130.174 44.0045 131.034ZM45.7239 132.026C45.7239 132.026 46.2203 131.166 45.7239 132.026C46.5836 132.523 45.7239 132.026 45.7239 132.026ZM48.303 133.515C47.4433 133.019 48.7994 132.655 48.303 133.515C49.6591 133.152 50.5188 133.648 50.0224 134.508C50.0224 134.508 50.8821 135.004 49.526 135.368C49.526 135.368 49.1627 134.012 48.303 133.515ZM54.1878 139.206C54.1878 139.206 53.3281 138.709 52.4684 138.213L51.6087 137.717L52.1051 136.857C52.1051 136.857 52.1051 136.857 52.9648 137.353C53.8245 137.85 54.1878 139.206 55.9072 140.198C56.767 140.695 56.767 140.695 57.6267 141.191C57.6267 141.191 60.2058 142.68 59.7094 143.54C59.213 144.4 57.4935 143.407 56.6338 142.911C56.7669 140.695 55.9072 140.198 54.1878 139.206ZM51.6087 137.717C52.4684 138.213 52.4684 138.213 51.6087 137.717C52.4684 138.213 52.4684 138.213 51.6087 137.717Z" fill="url(#paint0_linear)"/>
<path d="M85.0765 143.283C84.5801 144.142 84.5801 144.142 85.4398 144.639C86.2995 145.135 87.1592 145.631 88.5153 145.268L90.7311 145.401C91.5908 145.897 92.0872 145.037 91.2275 144.541C90.3678 144.045 89.0117 144.408 88.152 143.912C86.4326 142.919 86.4326 142.919 85.0765 143.283Z" fill="url(#paint1_linear)"/>
<path d="M40.6123 91.2447C41.6052 89.5251 41.2419 88.1689 41.375 85.953C41.8714 85.0932 41.5081 83.737 41.5081 83.737C42.0045 82.8772 41.6412 81.5211 41.6412 81.5211C42.1376 80.6613 42.634 79.8015 41.7743 79.3052C41.7743 79.3052 41.411 77.949 40.9146 78.8088L40.4182 79.6686C39.9217 80.5284 40.285 81.8845 39.7886 82.7443C39.6555 84.9603 39.1591 85.8201 39.026 88.036C40.7455 89.0287 40.7454 89.0287 40.6123 91.2447C40.249 89.8885 39.7526 90.7483 40.6123 91.2447Z" fill="url(#paint2_linear)"/>
<path d="M68.9722 137.424C67.6161 137.787 70.1952 139.276 71.0549 139.773C71.9146 140.269 72.7744 140.766 73.6341 141.262C74.4938 141.758 74.4938 141.758 75.3535 142.255C75.3535 142.255 76.2132 142.751 77.5693 142.387C78.0657 141.528 76.7096 141.891 76.7096 141.891C75.8499 141.395 74.9902 140.898 72.7743 140.766C71.9146 140.269 71.9146 140.269 71.0549 139.773C70.6916 138.417 68.9722 137.424 68.9722 137.424Z" fill="url(#paint3_linear)"/>
<path d="M68.271 156.507C66.9149 156.87 68.6343 157.863 68.271 156.507C69.9904 157.499 70.8501 157.996 71.7098 158.492C73.4292 159.485 73.9256 158.625 75.7781 157.402C73.5623 157.269 70.4868 156.64 68.271 156.507Z" fill="url(#paint4_linear)"/>
<path d="M62.616 154.389C63.1124 153.529 64.8318 154.522 63.9721 154.026C64.4685 153.166 63.6088 152.67 62.2527 153.033C61.393 152.537 60.8966 153.397 60.8966 153.397C60.4001 154.256 59.5404 153.76 59.044 154.62C60.4001 154.256 61.2599 154.753 62.616 154.389Z" fill="url(#paint5_linear)"/>
<path d="M135.443 60.0141C136.303 60.5105 136.666 61.8666 137.526 62.363C138.385 62.8593 138.749 64.2155 139.112 65.5716C139.112 65.5716 139.972 66.068 139.475 66.9278L139.839 68.2839C140.698 68.7802 139.475 66.9278 139.475 66.9278C138.749 64.2155 136.666 61.8666 135.443 60.0141Z" fill="url(#paint6_linear)"/>
<path d="M148.001 87.8995C149.357 87.5361 148.497 87.0397 148.134 85.6836C148.267 83.4677 148.001 87.8995 148.134 85.6836C148.134 85.6836 148.63 84.8238 147.771 84.3275L146.911 83.8311L146.415 84.6909C148.134 85.6836 148.001 87.8995 148.001 87.8995Z" fill="url(#paint7_linear)"/>
<path d="M145.457 78.4077C144.961 79.2675 144.961 79.2675 145.324 80.6237C146.184 81.12 146.547 82.4762 147.044 81.6164C146.184 81.12 145.821 79.7639 145.457 78.4077C145.821 79.7639 145.954 77.5479 145.457 78.4077Z" fill="url(#paint8_linear)"/>
<path d="M145.724 73.9751C146.22 73.1153 145.361 72.6189 145.857 71.7591C145.857 71.7591 145.99 69.5432 145.13 69.0468C142.915 68.9139 145.724 73.9751 145.724 73.9751Z" fill="url(#paint9_linear)"/>
<path d="M73.3315 153.697C72.4718 153.201 71.6121 152.704 70.256 153.068L71.1157 153.564L70.6193 154.424C70.6193 154.424 71.479 154.92 71.9754 154.06C72.4718 153.201 71.9754 154.06 72.4718 153.201C72.8351 154.557 74.1912 154.193 73.3315 153.697Z" fill="url(#paint10_linear)"/>
<path d="M141.195 67.9215C142.055 68.4179 143.907 67.1946 143.047 66.6983C142.684 65.3421 140.832 66.5654 141.195 67.9215Z" fill="url(#paint11_linear)"/>
<path d="M27.7421 105.596C28.2385 104.736 27.3788 104.24 27.0155 102.884C27.0155 102.884 27.0155 102.884 26.1558 102.387L25.6594 103.247L26.5191 103.743C26.5191 103.743 26.5191 103.743 26.8824 105.1C26.8824 105.1 28.1054 106.952 27.7421 105.596Z" fill="url(#paint12_linear)"/>
<path d="M82.0618 156.445C81.5654 157.305 80.2093 157.668 79.3496 157.172C80.2093 157.668 82.4251 157.801 82.0618 156.445C82.9215 156.941 82.0618 156.445 82.0618 156.445Z" fill="url(#paint13_linear)"/>
<path d="M158.511 105.432C158.511 105.432 159.734 107.285 160.23 106.425C160.23 106.425 159.867 105.069 159.007 104.573C159.503 103.713 158.147 104.076 158.511 105.432Z" fill="url(#paint14_linear)"/>
<path d="M138.155 59.2879C138.652 58.4281 138.155 59.2879 138.155 59.2879C137.659 60.1477 138.519 60.644 138.519 60.644C138.519 60.644 139.378 61.1404 139.015 59.7842C139.015 59.7842 139.015 59.7842 138.155 59.2879Z" fill="url(#paint15_linear)"/>
<path d="M58.1201 58.9352C57.2604 58.4389 57.7568 57.5791 58.1201 58.9352C57.2604 58.4389 57.2604 58.4389 57.2604 58.4389C56.764 59.2987 58.1201 58.9352 58.1201 58.9352Z" fill="url(#paint16_linear)"/>
<path d="M95.6585 144.807C94.7988 144.311 94.7988 144.311 95.6585 144.807C94.7988 144.311 94.3024 145.17 95.6585 144.807C95.1621 145.667 95.6585 144.807 95.6585 144.807Z" fill="url(#paint17_linear)"/>
<path d="M86.7232 160.283C87.5829 160.779 88.0793 159.919 87.2196 159.423C87.2196 159.423 85.3671 160.646 86.7232 160.283Z" fill="url(#paint18_linear)"/>
<path d="M25.5623 97.4576C25.0659 98.3174 25.0659 98.3174 25.9256 98.8138C26.422 97.954 26.422 97.954 25.5623 97.4576Z" fill="url(#paint19_linear)"/>
<path d="M146.547 82.4761C146.051 83.3359 144.695 83.6993 146.547 82.4761C146.051 83.3359 146.051 83.3359 146.547 82.4761C146.051 83.3359 146.051 83.3359 146.547 82.4761Z" fill="url(#paint20_linear)"/>
<path d="M142.418 69.7735C142.055 68.4173 142.418 69.7735 142.418 69.7735V69.7735Z" fill="url(#paint21_linear)"/>
<path d="M146.802 107.844C145.943 107.347 145.943 107.347 146.802 107.844C145.446 108.207 146.802 107.844 146.802 107.844Z" fill="url(#paint22_linear)"/>
<path d="M147.309 77.1841C146.813 78.0439 146.813 78.0439 147.309 77.1841C148.169 77.6804 147.309 77.1841 147.309 77.1841Z" fill="url(#paint23_linear)"/>
<path d="M146.281 86.9069C145.784 87.7667 146.644 88.2631 146.281 86.9069C147.141 87.4033 147.141 87.4033 146.281 86.9069Z" fill="url(#paint24_linear)"/>
<path d="M85.1372 157.073C83.7811 157.437 83.7811 157.437 85.1372 157.073V157.073Z" fill="url(#paint25_linear)"/>
<path d="M144.223 106.355C145.083 106.851 144.587 107.711 144.223 106.355C145.083 106.851 145.083 106.851 144.223 106.355Z" fill="url(#paint26_linear)"/>
<path d="M42.551 125.61C43.0474 124.75 41.328 123.757 40.8316 124.617C40.3352 125.477 42.0546 126.47 42.551 125.61Z" fill="url(#paint27_linear)"/>
<path d="M40.1053 121.904C40.6017 121.044 38.8823 120.051 38.8823 120.051C38.0226 119.555 39.2456 121.408 40.1053 121.904Z" fill="url(#paint28_linear)"/>
<path d="M35.1164 108.706C35.1164 108.706 34.62 109.565 35.1164 108.706C34.62 109.565 35.4797 110.062 35.4797 110.062L35.1164 108.706Z" fill="url(#paint29_linear)"/>
<path d="M36.5692 114.132C37.0656 113.272 35.7095 113.635 36.5692 114.132C36.0728 114.991 36.5692 114.132 36.5692 114.132Z" fill="url(#paint30_linear)"/>
<path d="M40.9644 122.401C39.6083 122.764 40.468 123.261 40.9644 122.401V122.401Z" fill="url(#paint31_linear)"/>
<path d="M148.583 122.628C148.086 123.488 147.094 125.208 148.45 124.844C148.45 124.844 148.946 123.984 149.442 123.125C149.939 122.265 149.939 122.265 148.583 122.628C149.079 121.768 149.079 121.768 148.583 122.628Z" fill="url(#paint32_linear)"/>
<circle cx="94.7058" cy="95.5397" r="59.7649" transform="rotate(-150.786 94.7058 95.5397)" fill="url(#paint33_linear)"/>
<g clip-path="url(#clip1)">
<path d="M79.0998 73.7771C71.0679 78.1536 68.2905 84.4665 68.3694 88.923C68.2873 92.1348 70.0537 95.1093 72.9131 96.5744C74.5725 97.3852 76.2808 98.0918 78.028 98.6903C79.4944 99.126 80.8885 99.7754 82.1655 100.617L102.228 79.0305C102.104 76.9115 102.373 72.2274 106.578 69.7996C100.948 68.8294 89.0928 68.3319 79.0998 73.7771ZM75.5316 90.3127C73.8322 90.3127 72.4546 88.9351 72.4546 87.2358C72.4546 85.5364 73.8322 84.1588 75.5316 84.1588C77.231 84.1588 78.6086 85.5364 78.6086 87.2358C78.6086 88.9351 77.231 90.3127 75.5316 90.3127ZM83.7368 82.1075C82.0375 82.1075 80.6599 80.7299 80.6599 79.0305C80.6599 77.3312 82.0375 75.9536 83.7368 75.9536C85.4362 75.9536 86.8138 77.3312 86.8138 79.0305C86.8138 80.7299 85.4362 82.1075 83.7368 82.1075ZM93.9934 78.0049C92.294 78.0049 90.9164 76.6273 90.9164 74.9279C90.9164 73.2286 92.294 71.851 93.9934 71.851C95.6927 71.851 97.0703 73.2286 97.0703 74.9279C97.0703 76.6273 95.6927 78.0049 93.9934 78.0049Z" fill="white"/>
<path d="M109.112 83.5927C109.407 83.0112 109.035 81.6532 107.896 80.5157C106.758 79.3783 105.397 79.0029 104.794 79.3116C104.661 79.3824 68.8003 118.017 68.6413 118.184C68.2293 118.626 68.2425 119.315 68.6711 119.742C69.0997 120.168 69.7892 120.177 70.229 119.762C90.9318 100.535 109.043 83.7189 109.112 83.5927Z" fill="white"/>
<path d="M119.484 83.7987C117.625 85.1844 114.711 86.889 111.599 86.889C110.852 86.8919 110.108 86.7883 109.389 86.5813C109.277 86.5485 109.178 86.5064 109.073 86.4664L83.717 110.028C83.0401 113.559 84.0155 116.434 86.4648 118.198C89.8084 120.607 96.6382 121.32 105.792 116.089C119.152 108.451 123.977 97.0235 119.484 83.7987ZM92.9674 115.954C91.2681 115.954 89.8904 114.576 89.8904 112.877C89.8904 111.178 91.2681 109.8 92.9674 109.8C94.6668 109.8 96.0444 111.178 96.0444 112.877C96.0444 114.576 94.6668 115.954 92.9674 115.954ZM103.224 111.851C101.979 111.851 100.857 111.102 100.381 109.952C99.905 108.802 100.168 107.479 101.048 106.599C101.928 105.719 103.252 105.455 104.401 105.932C105.551 106.408 106.301 107.53 106.301 108.774C106.301 110.474 104.923 111.851 103.224 111.851ZM111.429 103.646C109.73 103.646 108.352 102.269 108.352 100.569C108.352 98.8698 109.73 97.4922 111.429 97.4922C113.129 97.4922 114.506 98.8698 114.506 100.569C114.506 102.269 113.129 103.646 111.429 103.646Z" fill="white"/>
<path d="M120.949 64.9063C120.912 64.8345 120.79 64.5873 120.641 64.2776C120.397 63.7852 119.891 62.7627 119.793 62.5975C119.28 64.7853 118.091 69.6745 111.421 70.4089C111.01 70.4531 110.601 70.5192 110.197 70.6069C106.832 71.0727 104.316 73.9323 104.282 77.329C106.161 76.9506 108.098 77.6134 109.351 79.0634C111.057 80.7701 111.71 83.0255 110.931 84.5476C110.886 84.6317 110.829 84.7004 110.782 84.7773C114.372 85.2594 118.167 82.3075 119.295 81.3301L119.364 81.2747C122.103 78.8777 123.583 75.8664 123.442 72.9874C123.199 70.1464 122.348 67.3907 120.949 64.9063Z" fill="white"/>
</g>
</g>
<defs>
<linearGradient id="paint0_linear" x1="152.385" y1="125.97" x2="35.4653" y2="58.4662" gradientUnits="userSpaceOnUse">
<stop stop-color="#F36E2A"/>
<stop offset="1" stop-color="#FEBD66"/>
</linearGradient>
<linearGradient id="paint1_linear" x1="91.1277" y1="146.203" x2="85.3247" y2="142.853" gradientUnits="userSpaceOnUse">
<stop stop-color="#F36E2A"/>
<stop offset="1" stop-color="#FEBD66"/>
</linearGradient>
<linearGradient id="paint2_linear" x1="43.4529" y1="86.3247" x2="38.2947" y2="83.3466" gradientUnits="userSpaceOnUse">
<stop stop-color="#F36E2A"/>
<stop offset="1" stop-color="#FEBD66"/>
</linearGradient>
<linearGradient id="paint3_linear" x1="77.4314" y1="142.626" x2="68.6613" y2="137.563" gradientUnits="userSpaceOnUse">
<stop stop-color="#F36E2A"/>
<stop offset="1" stop-color="#FEBD66"/>
</linearGradient>
<linearGradient id="paint4_linear" x1="74.8474" y1="159.014" x2="68.5813" y2="155.396" gradientUnits="userSpaceOnUse">
<stop stop-color="#F36E2A"/>
<stop offset="1" stop-color="#FEBD66"/>
</linearGradient>
<linearGradient id="paint5_linear" x1="63.6543" y1="155.132" x2="59.9748" y2="153.008" gradientUnits="userSpaceOnUse">
<stop stop-color="#F36E2A"/>
<stop offset="1" stop-color="#FEBD66"/>
</linearGradient>
<linearGradient id="paint6_linear" x1="141.32" y1="66.2734" x2="134.202" y2="62.1636" gradientUnits="userSpaceOnUse">
<stop stop-color="#F36E2A"/>
<stop offset="1" stop-color="#FEBD66"/>
</linearGradient>
<linearGradient id="paint7_linear" x1="149.102" y1="86.8154" x2="146.166" y2="85.1208" gradientUnits="userSpaceOnUse">
<stop stop-color="#F36E2A"/>
<stop offset="1" stop-color="#FEBD66"/>
</linearGradient>
<linearGradient id="paint8_linear" x1="147.501" y1="80.8235" x2="144.922" y2="79.3345" gradientUnits="userSpaceOnUse">
<stop stop-color="#F36E2A"/>
<stop offset="1" stop-color="#FEBD66"/>
</linearGradient>
<linearGradient id="paint9_linear" x1="146.717" y1="72.2555" x2="143.732" y2="70.532" gradientUnits="userSpaceOnUse">
<stop stop-color="#F36E2A"/>
<stop offset="1" stop-color="#FEBD66"/>
</linearGradient>
<linearGradient id="paint10_linear" x1="73.1912" y1="154.762" x2="70.256" y2="153.068" gradientUnits="userSpaceOnUse">
<stop stop-color="#F36E2A"/>
<stop offset="1" stop-color="#FEBD66"/>
</linearGradient>
<linearGradient id="paint11_linear" x1="142.975" y1="67.6465" x2="141.403" y2="66.739" gradientUnits="userSpaceOnUse">
<stop stop-color="#F36E2A"/>
<stop offset="1" stop-color="#FEBD66"/>
</linearGradient>
<linearGradient id="paint12_linear" x1="28.3689" y1="105.066" x2="25.549" y2="103.438" gradientUnits="userSpaceOnUse">
<stop stop-color="#F36E2A"/>
<stop offset="1" stop-color="#FEBD66"/>
</linearGradient>
<linearGradient id="paint13_linear" x1="81.9475" y1="157.525" x2="79.846" y2="156.312" gradientUnits="userSpaceOnUse">
<stop stop-color="#F36E2A"/>
<stop offset="1" stop-color="#FEBD66"/>
</linearGradient>
<linearGradient id="paint14_linear" x1="160.471" y1="106.008" x2="158.369" y2="104.795" gradientUnits="userSpaceOnUse">
<stop stop-color="#F36E2A"/>
<stop offset="1" stop-color="#FEBD66"/>
</linearGradient>
<linearGradient id="paint15_linear" x1="139.259" y1="60.2436" x2="138.017" y2="59.5267" gradientUnits="userSpaceOnUse">
<stop stop-color="#F36E2A"/>
<stop offset="1" stop-color="#FEBD66"/>
</linearGradient>
<linearGradient id="paint16_linear" x1="58.1201" y1="58.9352" x2="57.2604" y2="58.4389" gradientUnits="userSpaceOnUse">
<stop stop-color="#F36E2A"/>
<stop offset="1" stop-color="#FEBD66"/>
</linearGradient>
<linearGradient id="paint17_linear" x1="95.5482" y1="144.998" x2="94.9035" y2="144.626" gradientUnits="userSpaceOnUse">
<stop stop-color="#F36E2A"/>
<stop offset="1" stop-color="#FEBD66"/>
</linearGradient>
<linearGradient id="paint18_linear" x1="87.5466" y1="160.345" x2="86.5198" y2="159.753" gradientUnits="userSpaceOnUse">
<stop stop-color="#F36E2A"/>
<stop offset="1" stop-color="#FEBD66"/>
</linearGradient>
<linearGradient id="paint19_linear" x1="26.1738" y1="98.3839" x2="25.3141" y2="97.8875" gradientUnits="userSpaceOnUse">
<stop stop-color="#F36E2A"/>
<stop offset="1" stop-color="#FEBD66"/>
</linearGradient>
<linearGradient id="paint20_linear" x1="146.261" y1="82.9725" x2="145.879" y2="82.7519" gradientUnits="userSpaceOnUse">
<stop stop-color="#F36E2A"/>
<stop offset="1" stop-color="#FEBD66"/>
</linearGradient>
<linearGradient id="paint21_linear" x1="142.529" y1="69.5824" x2="142.147" y2="69.3618" gradientUnits="userSpaceOnUse">
<stop stop-color="#F36E2A"/>
<stop offset="1" stop-color="#FEBD66"/>
</linearGradient>
<linearGradient id="paint22_linear" x1="146.692" y1="108.035" x2="146.047" y2="107.662" gradientUnits="userSpaceOnUse">
<stop stop-color="#F36E2A"/>
<stop offset="1" stop-color="#FEBD66"/>
</linearGradient>
<linearGradient id="paint23_linear" x1="147.505" y1="77.7271" x2="147.123" y2="77.5065" gradientUnits="userSpaceOnUse">
<stop stop-color="#F36E2A"/>
<stop offset="1" stop-color="#FEBD66"/>
</linearGradient>
<linearGradient id="paint24_linear" x1="146.739" y1="87.6016" x2="146.095" y2="87.2293" gradientUnits="userSpaceOnUse">
<stop stop-color="#F36E2A"/>
<stop offset="1" stop-color="#FEBD66"/>
</linearGradient>
<linearGradient id="paint25_linear" x1="84.9511" y1="157.396" x2="84.3063" y2="157.024" gradientUnits="userSpaceOnUse">
<stop stop-color="#F36E2A"/>
<stop offset="1" stop-color="#FEBD66"/>
</linearGradient>
<linearGradient id="paint26_linear" x1="144.758" y1="106.918" x2="144.113" y2="106.546" gradientUnits="userSpaceOnUse">
<stop stop-color="#F36E2A"/>
<stop offset="1" stop-color="#FEBD66"/>
</linearGradient>
<linearGradient id="paint27_linear" x1="42.551" y1="125.61" x2="40.8316" y2="124.617" gradientUnits="userSpaceOnUse">
<stop stop-color="#F36E2A"/>
<stop offset="1" stop-color="#FEBD66"/>
</linearGradient>
<linearGradient id="paint28_linear" x1="40.3535" y1="121.474" x2="38.3998" y2="120.346" gradientUnits="userSpaceOnUse">
<stop stop-color="#F36E2A"/>
<stop offset="1" stop-color="#FEBD66"/>
</linearGradient>
<linearGradient id="paint29_linear" x1="35.7279" y1="109.632" x2="34.8682" y2="109.135" gradientUnits="userSpaceOnUse">
<stop stop-color="#F36E2A"/>
<stop offset="1" stop-color="#FEBD66"/>
</linearGradient>
<linearGradient id="paint30_linear" x1="36.5692" y1="114.132" x2="36.1871" y2="113.911" gradientUnits="userSpaceOnUse">
<stop stop-color="#F36E2A"/>
<stop offset="1" stop-color="#FEBD66"/>
</linearGradient>
<linearGradient id="paint31_linear" x1="40.7783" y1="122.723" x2="40.3962" y2="122.503" gradientUnits="userSpaceOnUse">
<stop stop-color="#F36E2A"/>
<stop offset="1" stop-color="#FEBD66"/>
</linearGradient>
<linearGradient id="paint32_linear" x1="149.065" y1="123.779" x2="148.205" y2="123.283" gradientUnits="userSpaceOnUse">
<stop stop-color="#F36E2A"/>
<stop offset="1" stop-color="#FEBD66"/>
</linearGradient>
<linearGradient id="paint33_linear" x1="50.5803" y1="23.8219" x2="148.796" y2="30.6003" gradientUnits="userSpaceOnUse">
<stop stop-color="#F36E2A"/>
<stop offset="1" stop-color="#FEBD66"/>
</linearGradient>
<clipPath id="clip0">
<rect width="138" height="136" fill="white" transform="translate(187 68) rotate(120)"/>
</clipPath>
<clipPath id="clip1">
<rect width="57.4366" height="57.4366" fill="white" transform="translate(67.3262 62.6201)"/>
</clipPath>
</defs>
</svg>
