<svg width="153" height="155" viewBox="0 0 153 155" fill="none" xmlns="http://www.w3.org/2000/svg">
<g clip-path="url(#clip0)">
<path d="M67.7829 142.214C68.8917 141.353 69.0156 140.368 69.1395 139.383C69.2633 138.398 69.5111 136.428 69.635 135.443C69.7589 134.458 69.8828 133.473 70.1305 131.503C70.2544 130.518 69.2695 130.394 68.2845 130.27C65.3297 129.898 63.4837 128.665 60.5289 128.294C57.5741 127.922 55.7281 126.689 52.7733 126.318C51.7883 126.194 50.9273 125.085 49.9423 124.961C48.9574 124.837 48.0963 123.728 47.1114 123.604C46.1264 123.481 45.2654 122.372 44.2804 122.248C44.2804 122.248 43.2955 122.124 43.4194 121.139C43.4194 121.139 42.4344 121.015 42.5583 120.03L42.6822 119.045C42.6822 119.045 42.6822 119.045 42.8061 118.06C42.8061 118.06 42.8061 118.06 41.945 116.951C40.9601 116.827 40.9601 116.827 40.9601 116.827C39.9752 116.703 39.1141 115.594 38.253 114.485C37.392 113.376 36.407 113.253 35.546 112.144C34.6849 111.035 31.9779 108.693 32.1018 107.708C32.2257 106.723 33.2106 106.847 32.3495 105.738L31.4885 104.629C31.6124 103.644 30.6274 103.52 30.7513 102.535L29.8903 101.426C28.9053 101.302 28.9053 101.302 28.9053 101.302C28.0443 100.193 28.0443 100.193 28.1682 99.2082C28.292 98.2232 28.1681 99.2082 27.3071 98.0993C26.3222 97.9754 26.446 96.9904 25.585 95.8814L24.7239 94.7725C24.7239 94.7725 24.8478 93.7875 23.9868 92.6786C23.1257 91.5696 23.2496 90.5846 22.3885 89.4757C21.5275 88.3668 21.6514 87.3817 21.7752 86.3967C21.8991 85.4116 21.8991 85.4116 21.8991 85.4116L21.0381 84.3027L21.162 83.3176C21.2859 82.3326 21.2859 82.3326 20.4248 81.2237C20.5487 80.2386 19.6876 79.1297 19.8115 78.1447C19.9354 77.1596 19.9354 77.1596 19.9354 77.1596C20.0593 76.1746 20.0593 76.1746 20.1832 75.1895C20.3071 74.2045 20.3071 74.2045 20.4309 73.2194C20.5548 72.2344 20.5548 72.2344 20.6787 71.2494C20.8026 70.2643 20.8026 70.2643 20.9265 69.2793L21.0504 68.2942L22.0353 68.4181C22.1592 67.433 22.1592 67.433 22.2831 66.448C22.407 65.4629 22.5309 64.4779 22.6547 63.4929C22.7786 62.5078 23.8875 61.6466 24.0113 60.6616C24.1352 59.6765 24.1352 59.6765 24.1352 59.6765C24.2591 58.6915 24.2591 58.6915 24.383 57.7064C24.5069 56.7214 25.6157 55.8602 25.7396 54.8752C25.8635 53.8901 26.9723 53.029 27.2201 51.0589C27.344 50.0738 27.4679 49.0888 27.5917 48.1037C27.7156 47.1187 28.7006 47.2426 28.7006 47.2426C28.8245 46.2575 29.9333 45.3963 30.0572 44.4113C30.0572 44.4113 30.1811 43.4262 31.166 43.5501C32.2748 42.6889 32.3987 41.7039 33.5075 40.8427C33.6314 39.8577 34.7403 38.9965 34.8641 38.0115L35.973 37.1503L36.0969 36.1652C36.2207 35.1802 37.3296 34.319 37.3296 34.319C38.3145 34.4429 38.1906 35.4279 39.2995 34.5668L39.4233 33.5817C39.4233 33.5817 40.4083 33.7056 40.5322 32.7206C41.641 31.8594 40.7799 30.7505 41.7649 30.8743C42.8737 30.0132 44.8436 30.2609 45.9524 29.3997C45.9524 29.3997 46.0763 28.4147 47.0613 28.5386L48.1701 27.6774C49.2789 26.8162 50.2638 26.9401 51.3727 26.0789C51.4966 25.0939 52.4815 25.2177 53.4664 25.3416C54.4514 25.4655 54.4514 25.4655 54.5753 24.4804C54.5753 24.4804 55.6841 23.6193 56.669 23.7431C57.654 23.867 55.5602 24.6043 55.5602 24.6043C55.4363 25.5894 54.3275 26.4505 53.2187 27.3117C52.2337 27.1878 51.1249 28.049 51.1249 28.049C51.001 29.0341 51.001 29.0341 49.8922 29.8952L48.9073 29.7714L47.7984 30.6325C46.6896 31.4937 45.5808 32.3549 44.5958 32.231C43.487 33.0922 42.3782 33.9533 41.2693 34.8145C40.1605 35.6757 39.0517 36.5369 37.9429 37.398C36.834 38.2592 36.7101 39.2443 36.5863 40.2293C35.4774 41.0905 35.4774 41.0905 34.3686 41.9516C34.2447 42.9367 33.1359 43.7979 32.1509 43.674C31.166 43.5501 31.0421 44.5352 30.9182 45.5202C30.6705 47.4903 29.5616 48.3515 28.3289 50.1977C28.205 51.1827 27.0962 52.0439 26.9723 53.029C25.4918 56.8453 24.1352 59.6765 23.6397 63.6167C23.5158 64.6018 23.3919 65.5868 23.1441 67.5569C23.0203 68.542 22.8964 69.527 22.7725 70.5121C22.8964 69.527 23.1441 67.5569 23.268 66.5719C23.3919 65.5868 23.6397 63.6167 23.7636 62.6317C23.8875 61.6466 23.8875 61.6466 24.9963 60.7855C25.1202 59.8004 26.1051 59.9243 26.1051 59.9243C26.229 58.9392 26.3529 57.9542 26.3529 57.9542C26.4768 56.9691 26.6007 55.9841 27.5856 56.108C27.8334 54.1379 28.9422 53.2767 30.051 52.4155C30.1749 51.4305 31.1599 51.5544 31.2837 50.5693C31.4076 49.5843 31.4076 49.5843 32.5165 48.7231C32.5165 48.7231 32.5164 48.7231 32.6403 47.738C32.6403 47.738 32.6403 47.7381 33.7492 46.8769C33.8731 45.8918 33.8731 45.8918 34.858 46.0157L35.8429 46.1396C34.858 46.0157 35.1058 44.0456 35.1058 44.0456C35.2297 43.0606 37.3234 42.3233 37.4473 41.3382C38.68 39.492 39.7889 38.6308 39.9127 37.6458L41.0216 36.7846C42.0065 36.9085 42.1304 35.9234 42.2543 34.9384C43.487 33.0922 45.5808 32.3549 47.7984 30.6325C48.7834 30.7564 48.9072 29.7714 49.8922 29.8952C49.8922 29.8952 50.8771 30.0191 51.001 29.0341L51.986 29.1579L52.1099 28.1729C53.0948 28.2968 55.0647 28.5445 56.1735 27.6833C57.2823 26.8222 59.2522 27.0699 60.361 26.2087C61.4699 25.3476 63.4398 25.5953 64.5486 24.7341C65.5335 24.858 65.5335 24.858 66.5185 24.9819C67.5034 25.1057 66.5185 24.9819 67.5034 25.1057C67.6273 24.1207 68.6122 24.2446 68.6122 24.2446C69.5972 24.3684 70.706 23.5073 71.6909 23.6311C74.6458 24.0028 77.7245 23.3893 80.6793 23.761C82.6492 24.0087 83.6341 24.1326 85.604 24.3803C87.5739 24.6281 88.5588 24.7519 90.5287 24.9997C90.5287 24.9997 91.5137 25.1236 92.4986 25.2474C93.4835 25.3713 92.6225 24.2624 93.6074 24.3863C93.7313 23.4012 96.5623 24.7579 94.4685 25.4952C95.3295 26.6041 96.3145 26.728 97.2994 26.8518C98.2844 26.9757 99.1454 28.0846 100.13 28.2085C99.2693 27.0996 97.1755 27.8369 96.4384 25.7429L96.5623 24.7579C96.5623 24.7579 97.5472 24.8817 98.5321 25.0056C99.5171 25.1295 101.363 26.3623 102.348 26.4862C103.333 26.61 103.209 27.5951 103.333 26.61C103.457 25.625 103.457 25.625 104.442 25.7489C105.427 25.8727 106.412 25.9966 106.288 26.9817C107.273 27.1055 108.258 27.2294 108.258 27.2294C109.243 27.3533 109.119 28.3383 110.104 28.4622C111.089 28.5861 110.965 29.5711 111.95 29.695C112.935 29.8189 114.781 31.0516 115.642 32.1606L116.503 33.2695C117.364 34.3784 117.364 34.3784 118.349 34.5023C119.334 34.6261 119.21 35.6112 120.071 36.7201C119.823 38.6902 120.808 38.8141 121.669 39.923C122.53 41.0319 123.391 42.1408 124.252 43.2498C124.128 44.2348 124.128 44.2348 124.989 45.3437C124.989 45.3437 125.85 46.4526 126.835 46.5765C126.835 46.5765 126.712 47.5616 127.696 47.6854L128.681 47.8093C129.666 47.9332 128.557 48.7944 128.557 48.7944C128.434 49.7794 129.419 49.9033 129.295 50.8883C129.171 51.8734 128.186 51.7495 128.186 51.7495C128.062 52.7345 128.062 52.7345 128.062 52.7345L127.938 53.7196C126.953 53.5957 126.953 53.5957 125.968 53.4718C125.968 53.4718 125.844 54.4569 125.72 55.4419C125.597 56.427 126.581 56.5508 126.581 56.5508C126.458 57.5359 126.458 57.5359 127.319 58.6448C127.319 58.6448 127.319 58.6448 127.195 59.6299L127.071 60.6149L127.932 61.7238C126.699 63.57 126.328 66.5252 128.421 65.7879C128.421 65.7879 129.53 64.9267 129.406 65.9118C129.282 66.8968 128.297 66.7729 128.297 66.7729C128.297 66.7729 127.189 67.6341 128.05 68.743C128.05 68.743 130.02 68.9908 130.143 68.0057C130.267 67.0207 130.267 67.0207 130.391 66.0356C130.515 65.0506 130.515 65.0506 130.639 64.0655C130.763 63.0805 130.887 62.0954 129.902 61.9716C129.902 61.9716 128.917 61.8477 129.041 60.8626C129.041 60.8626 129.041 60.8627 129.165 59.8776C129.165 59.8776 129.165 59.8776 129.289 58.8926C129.412 57.9075 127.566 56.6747 129.66 55.9374C129.66 55.9374 130.645 56.0613 131.63 56.1852L131.506 57.1702L131.382 58.1553C131.382 58.1553 131.382 58.1553 131.258 59.1403C131.258 59.1403 132.243 59.2642 132.119 60.2492C131.996 61.2343 131.996 61.2343 131.872 62.2193C131.872 62.2193 131.872 62.2193 132.733 63.3282C132.733 63.3282 132.609 64.3133 133.594 64.4372C132.485 65.2983 133.222 67.3923 132.974 69.3624C133.464 73.4264 133.092 76.3816 133.582 80.4456C133.334 82.4157 133.086 84.3858 132.838 86.3559C132.714 87.341 132.59 88.326 132.343 90.2961C132.219 91.2811 131.11 92.1423 131.11 92.1423C130.986 93.1274 130.862 94.1124 130.738 95.0975C130.738 95.0975 129.506 96.9437 129.629 95.9586C129.629 95.9586 129.753 94.9736 129.877 93.9885C130.001 93.0035 130.125 92.0184 130.249 91.0334C130.497 89.0633 130.744 87.0932 130.992 85.1231C131.24 83.153 131.488 81.1829 131.736 79.2128C131.859 78.2278 131.983 77.2428 132.107 76.2577C131.122 76.1338 131.246 75.1488 131.246 75.1488L130.261 75.0249L130.385 74.0399C130.509 73.0548 130.633 72.0698 129.772 70.9609C128.663 71.822 129.648 71.9459 129.524 72.931C129.4 73.916 128.415 73.7921 128.415 73.7921L128.291 74.7772C128.167 75.7622 128.044 76.7473 128.044 76.7473C127.92 77.7323 127.796 78.7174 128.657 79.8263C128.533 80.8113 128.409 81.7964 128.285 82.7814L128.161 83.7665L127.052 84.6276C126.929 85.6127 126.805 86.5977 127.79 86.7216C128.527 88.8156 127.294 90.6618 127.046 92.6319L126.922 93.6169L126.799 94.602L126.675 95.587C126.551 96.5721 126.551 96.5721 126.427 97.5571C122.729 103.096 121.248 106.912 117.922 109.496C111.882 117.742 103.011 124.631 92.5426 128.318C91.4338 129.179 90.3249 130.04 88.355 129.792C87.3701 129.668 87.2462 130.653 86.2613 130.529L85.2763 130.406C85.2763 130.406 84.2914 130.282 84.1675 131.267C83.1826 131.143 82.0737 132.004 81.0888 131.88C80.1038 131.756 78.995 132.617 78.134 131.509C77.0251 132.37 75.0552 132.122 74.0703 131.998C73.0854 131.874 70.2544 130.518 69.1456 131.379C69.0217 132.364 68.8978 133.349 68.7739 134.334C68.6501 135.319 68.5262 136.304 68.4023 137.289C68.2784 138.274 68.1545 139.259 68.1545 139.259C69.1395 139.383 70.1244 139.507 71.1093 139.631L72.0943 139.755C72.0943 139.755 73.0792 139.878 73.2031 138.893C74.188 139.017 75.173 139.141 76.2818 138.28C77.2668 138.404 77.2668 138.404 78.2517 138.528C79.2366 138.652 80.2216 138.775 81.2065 138.899C82.1915 139.023 83.1764 139.147 84.2852 138.286C85.2702 138.41 86.379 137.549 87.364 137.672C88.3489 137.796 89.4577 136.935 89.4577 136.935C90.4427 137.059 90.6904 135.089 91.5515 136.198C91.5515 136.198 91.5515 136.198 92.5364 136.322C92.5364 136.322 93.6453 135.461 94.6302 135.584C95.6151 135.708 96.724 134.847 97.7089 134.971C98.6939 135.095 99.6788 135.219 99.6788 135.219C99.6788 135.219 99.8027 134.234 100.788 134.358L101.773 134.481C100.664 135.343 98.57 136.08 97.4611 136.941C96.4762 136.817 95.3674 137.678 95.3674 137.678C94.2585 138.54 95.2435 138.663 96.2284 138.787C98.3222 138.05 101.401 137.437 103.619 135.714C104.604 135.838 104.727 134.853 105.712 134.977C106.697 135.101 107.806 134.24 107.682 135.225C107.558 136.21 107.558 136.21 106.573 136.086L105.465 136.947L104.48 136.823L103.371 137.684C102.262 138.546 102.262 138.546 101.153 139.407C100.168 139.283 99.0594 140.144 99.0594 140.144L100.044 140.268C100.044 140.268 100.044 140.268 101.153 139.407L102.138 139.531C103.123 139.654 103.247 138.669 103.371 137.684C104.48 136.823 104.48 136.823 105.465 136.947C106.45 137.071 106.45 137.071 106.573 136.086C106.697 135.101 107.558 136.21 108.667 135.349C110.761 134.611 112.979 132.889 114.211 131.043C116.429 129.32 117.538 128.459 118.77 126.613C119.879 125.752 120.003 124.767 121.112 123.906C122.221 123.044 122.345 122.059 123.454 121.198C124.562 120.337 124.562 120.337 125.671 119.476C126.78 118.615 126.78 118.615 127.889 117.754C128.626 119.847 129.735 118.986 129.859 118.001C129.859 118.001 129.983 117.016 130.968 117.14C131.091 116.155 131.091 116.155 132.2 115.294C133.185 115.418 133.557 112.463 134.666 111.601C137.007 108.894 138.488 105.078 138.859 102.123L138.983 101.138C139.107 100.152 139.107 100.152 140.216 99.2913C140.34 98.3063 140.464 97.3212 140.588 96.3362C140.712 95.3511 140.835 94.3661 140.959 93.381C141.207 91.4109 141.455 89.4409 142.688 87.5946C142.811 86.6096 142.935 85.6246 143.059 84.6395C143.183 83.6545 143.307 82.6694 143.431 81.6844C143.555 80.6993 142.694 79.5904 142.694 79.5904C142.818 78.6054 142.818 78.6054 142.942 77.6203C143.065 76.6353 143.065 76.6353 143.189 75.6502C143.313 74.6652 143.561 72.6951 142.7 71.5862C142.948 69.6161 143.072 68.631 143.319 66.6609C143.319 66.6609 143.319 66.6609 143.443 65.6759C143.567 64.6908 142.582 64.567 141.597 64.4431L140.365 66.2893C140.365 66.2893 141.349 66.4132 141.226 67.3982C141.226 67.3982 141.102 68.3833 142.087 68.5071C141.963 69.4922 141.839 70.4772 141.715 71.4623L141.591 72.4473L140.482 73.3085C140.482 73.3085 140.482 73.3085 141.343 74.4174L141.219 75.4025C141.096 76.3875 140.972 77.3726 140.972 77.3726C140.972 77.3726 139.863 78.2337 138.878 78.1099C137.893 77.986 138.141 76.0159 138.141 76.0159C138.265 75.0309 137.28 74.907 138.388 74.0458L138.512 73.0608C138.636 72.0757 138.76 71.0907 137.899 69.9818C139.132 68.1355 139.256 67.1505 139.38 66.1654C139.503 65.1804 139.627 64.1953 138.766 63.0864C137.905 61.9775 137.044 60.8686 137.044 60.8686C137.168 59.8835 138.153 60.0074 138.153 60.0074C139.138 60.1313 139.138 60.1313 140.123 60.2552C140.123 60.2552 139.999 61.2402 140.984 61.3641L142.093 60.5029C143.202 59.6417 140.618 56.315 139.757 55.2061C138.772 55.0822 139.757 55.2061 139.633 56.1911C139.51 57.1761 139.386 58.1612 139.386 58.1612C137.292 58.8985 137.416 57.9134 136.431 57.7896C135.57 56.6807 134.709 55.5717 134.833 54.5867C134.957 53.6016 135.08 52.6166 135.08 52.6166L135.204 51.6316C135.328 50.6465 135.204 51.6316 136.189 51.7554C136.189 51.7554 137.174 51.8793 137.05 52.8643C137.05 52.8643 137.911 53.9733 138.896 54.0971C141.114 52.3748 137.546 48.9242 137.546 48.9242C136.685 47.8152 135.7 47.6914 135.824 46.7063C135.948 45.7213 136.072 44.7362 135.087 44.6124C135.21 43.6273 134.226 43.5034 134.349 42.5184C133.488 41.4095 133.364 42.3945 132.38 42.2706C131.395 42.1468 130.534 41.0379 130.657 40.0528C129.92 37.9588 132.014 37.2215 131.029 37.0977C131.153 36.1126 130.292 35.0037 130.292 35.0037C129.431 33.8948 128.57 32.7859 127.709 31.677C126.724 31.5531 126.848 30.568 125.987 29.4591L125.002 29.3352C125.002 29.3352 124.017 29.2114 124.141 28.2263L124.388 26.2562L123.527 25.1473C122.419 26.0085 121.557 24.8996 121.557 24.8996C120.573 24.7757 119.711 23.6668 118.727 23.5429C116.019 21.2012 113.312 18.8595 109.497 17.3789C108.635 16.27 106.789 15.0372 104.82 14.7895C102.974 13.5567 101.128 12.3239 98.1728 11.9523C97.1878 11.8284 96.2029 11.7045 95.2179 11.5807C94.3569 10.4717 93.372 10.3479 92.387 10.224C91.4021 10.1001 91.2782 11.0852 90.2932 10.9613C89.3083 10.8374 90.4171 9.97625 89.4322 9.85237C88.4472 9.7285 87.4623 9.60463 86.4774 9.48076C85.3685 10.3419 85.3685 10.3419 85.2446 11.327C85.1208 12.312 85.1208 12.312 85.1208 12.312L86.1057 12.4359L87.0906 12.5598C87.0906 12.5598 88.0756 12.6836 89.0605 12.8075C89.9216 13.9164 87.9517 13.6687 86.9668 13.5448C85.9818 13.4209 84.9969 13.2971 84.0119 13.1732C83.027 13.0493 82.0421 12.9254 81.0571 12.8016C79.0872 12.5538 76.1324 12.1822 74.1625 11.9345C72.1926 11.6867 70.0989 12.424 68.129 12.1763C67.0202 13.0374 62.8326 14.512 58.6451 15.9866C57.6601 15.8628 56.5513 16.7239 54.4575 17.4612C53.4726 17.3374 53.3487 18.3224 52.3638 18.1985C51.2549 19.0597 50.27 18.9358 50.1461 19.9209C49.1612 19.797 49.0373 20.7821 48.0523 20.6582C47.0674 20.5343 46.9435 21.5194 45.9586 21.3955C45.9586 21.3955 44.8497 22.2567 43.8648 22.1328C42.8799 22.0089 42.756 22.994 41.6471 23.8551C41.6471 23.8551 40.6622 23.7313 40.5383 24.7163C39.4295 25.5775 39.4295 25.5775 38.3207 26.4387C37.0879 28.2849 34.9942 29.0222 33.8854 29.8834C32.6526 31.7296 31.5438 32.5907 29.3261 34.3131C28.2173 35.1743 26.9846 37.0205 26.8607 38.0055C26.7368 38.9906 25.628 39.8517 25.5041 40.8368C24.2714 42.683 23.0387 44.5292 21.806 46.3754C21.6821 47.3605 20.5733 48.2217 20.4494 49.2067C19.4644 49.0828 19.2167 51.0529 18.2317 50.9291C17.2468 50.8052 18.2317 50.9291 18.2317 50.9291L18.3556 49.944L18.4795 48.959C18.6034 47.9739 19.7122 47.1128 19.8361 46.1277C21.0688 44.2815 22.3015 42.4353 23.4104 41.5741C23.5342 40.589 24.6431 39.7279 24.767 38.7428C24.8908 37.7578 25.8758 37.8817 26.9846 37.0205L27.1085 36.0354L27.2324 35.0504L28.2173 35.1743L29.3261 34.3131C29.5739 32.343 29.6978 31.358 30.9305 29.5117C32.0394 28.6506 33.0243 28.7744 33.0243 28.7744L33.1482 27.7894L34.257 26.9282C35.3658 26.067 35.4897 25.082 36.4747 25.2059C37.7074 23.3596 38.6923 23.4835 39.8011 22.6223C41.8949 21.885 43.1276 20.0388 45.2214 19.3015C46.3302 18.4404 46.3302 18.4404 47.3152 18.5642C48.3001 18.6881 48.3001 18.6881 49.2851 18.812C50.27 18.9358 49.4089 17.8269 50.3939 17.9508L51.5027 17.0896C51.6266 16.1046 53.7204 15.3673 54.8292 14.5061C55.8141 14.63 55.938 13.6449 56.923 13.7688C57.9079 13.8927 57.9079 13.8927 58.8928 14.0166C60.1256 12.1703 61.1105 12.2942 63.0804 12.542C64.0653 12.6658 65.0503 12.7897 66.1591 11.9285C67.144 12.0524 68.129 12.1763 69.2378 11.3151C71.2077 11.5628 73.3015 10.8255 75.2713 11.0733C77.2412 11.321 80.3199 10.7076 82.2898 10.9554C82.2898 10.9554 83.2748 11.0792 83.3986 10.0942C83.5225 9.10914 82.4137 9.97031 81.4288 9.84644C80.4438 9.72256 79.4589 9.59869 79.4589 9.59869C78.4739 9.47482 77.3651 10.336 76.3802 10.2121C74.2864 10.9494 72.4404 9.71663 70.3466 10.4539C67.2679 11.0674 64.1892 11.6808 61.1105 12.2942C58.0318 12.9076 54.9531 13.5211 51.8744 14.1345C48.7957 14.7479 46.578 16.4703 44.3603 18.1926C42.2666 18.9299 41.0339 20.7761 39.8011 22.6223C37.8313 22.3746 36.7224 23.2358 36.7224 23.2358L35.6136 24.0969L35.4897 25.082L33.396 25.8193C31.3022 26.5566 31.1783 27.5416 30.1934 27.4178C29.0845 28.2789 27.8518 30.1252 26.743 30.9863C25.5103 32.8326 24.4014 33.6937 23.1687 35.5399C20.8272 38.2473 20.5794 40.2174 19.4706 41.0786L18.3618 41.9398L18.2379 42.9248C18.114 43.9099 17.0052 44.771 16.8813 45.7561C16.7574 46.7411 15.6486 47.6023 15.5247 48.5874L15.4008 49.5724C15.2769 50.5574 14.292 50.4336 14.1681 51.4186L14.0442 52.4037C13.9203 53.3887 13.9203 53.3887 13.7964 54.3738C13.6725 55.3588 12.5637 56.22 12.4398 57.205C12.3159 58.1901 12.3159 58.1901 11.2071 59.0512C11.0832 60.0363 10.0983 59.9124 9.97439 60.8975C9.85051 61.8825 9.85051 61.8825 9.72662 62.8676C9.60274 63.8526 9.60274 63.8526 9.47885 64.8376C9.35496 65.8227 9.23108 66.8077 9.10719 67.7928L8.9833 68.7778C8.85942 69.7629 8.85942 69.7629 8.73553 70.7479L8.61165 71.733L8.48776 72.718C8.36387 73.7031 8.23999 74.6881 8.1161 75.6732C7.86833 77.6432 8.60549 79.7372 8.35772 81.7073C7.98606 84.6624 8.59935 87.7415 10.1976 90.9443C12.0436 92.1771 12.7807 94.2711 12.533 96.2412C13.2701 98.3351 14.0073 100.429 14.8684 101.538C16.5905 103.756 17.2038 106.835 18.9259 109.053C20.648 111.271 21.509 112.379 23.2311 114.597C24.0922 115.706 24.8294 117.8 26.6754 119.033C27.5364 120.142 29.2585 122.36 28.1497 123.221C30.1196 123.469 30.9806 124.578 31.8417 125.687C32.7028 126.795 32.7028 126.795 32.5789 127.78C32.455 128.766 32.5789 127.78 33.5638 127.904C34.5488 128.028 34.5488 128.028 35.4098 129.137C36.2709 130.246 36.2709 130.246 37.1319 131.355C38.1169 131.479 38.1169 131.479 38.9779 132.588C38.9779 132.588 39.9629 132.712 39.839 133.697L40.8239 133.821C41.8089 133.944 42.6699 135.053 43.6549 135.177C44.6398 135.301 45.5009 136.41 46.4858 136.534C46.4858 136.534 47.4707 136.658 47.3469 137.643C47.3469 137.643 47.223 138.628 48.2079 138.752C49.069 139.861 49.1928 138.876 49.1928 138.876C49.1928 138.876 49.069 139.861 50.0539 139.985L51.0388 140.108L52.0238 140.232C53.0087 140.356 52.8848 141.341 53.8698 141.465C54.8547 141.589 55.8397 141.713 56.8246 141.837C57.8095 141.961 58.7945 142.084 59.7794 142.208C60.7644 142.332 61.8732 141.471 61.8732 141.471L62.7343 142.58C63.7192 142.704 63.7192 142.704 64.7041 142.828C66.674 143.075 66.674 143.075 67.7829 142.214ZM71.3571 137.661C71.481 136.676 71.481 136.676 71.3571 137.661V137.661ZM76.6535 135.325C76.5296 136.31 74.6836 135.077 76.6535 135.325C76.6535 135.325 77.6384 135.449 76.6535 135.325C77.6384 135.449 76.6535 135.325 76.6535 135.325ZM86.7507 134.593C85.7657 134.47 84.6569 135.331 83.672 135.207C82.687 135.083 81.5782 135.944 80.7171 134.835C79.8561 133.726 79.8561 133.726 80.841 133.85L81.826 133.974C82.9348 133.113 84.9047 133.361 85.8896 133.485L86.8746 133.608C87.8595 133.732 87.7356 134.717 86.7507 134.593ZM110.761 134.611C110.885 133.626 110.885 133.626 110.761 134.611C110.885 133.626 110.885 133.626 110.761 134.611ZM113.35 129.934C114.211 131.043 112.979 132.889 111.87 133.75L111.746 134.735L110.761 134.611L109.652 135.472C108.667 135.349 108.791 134.364 108.791 134.364C108.915 133.379 111.009 132.641 112.118 131.78C111.133 131.656 112.489 128.825 113.35 129.934ZM101.655 127.462C101.655 127.462 101.531 128.447 100.422 129.309C100.422 129.309 99.4372 129.185 99.3133 130.17L98.2045 131.031L97.2195 130.907L96.1107 131.768C95.0019 132.629 92.9081 133.367 91.7993 134.228C91.7993 134.228 90.6904 135.089 89.7055 134.965L87.8595 133.732C86.9984 132.623 89.0922 131.886 90.0771 132.01C91.0621 132.134 92.047 132.258 92.1709 131.273C92.1709 131.273 93.2797 130.411 93.4036 129.426C94.5125 128.565 94.3886 129.55 95.4974 128.689C96.4823 128.813 97.5912 127.952 97.5912 127.952C98.7 127.091 98.7 127.091 99.8088 126.229C100.67 127.338 102.764 126.601 101.655 127.462ZM112.489 128.825C112.613 127.84 113.598 127.964 113.722 126.979L114.831 126.118C114.707 127.103 114.707 127.103 113.722 126.979C113.598 127.964 113.598 127.964 112.489 128.825ZM121.112 123.906C121.973 125.015 120.988 124.891 120.988 124.891L119.879 125.752C119.755 126.737 118.523 128.583 117.538 128.459C116.553 128.335 116.677 127.35 116.677 127.35C116.801 126.365 117.786 126.489 117.909 125.504C118.894 125.628 121.112 123.906 121.112 123.906ZM126.656 119.6C127.517 120.709 125.3 122.431 124.439 121.322C123.701 119.228 125.795 118.491 126.656 119.6ZM114.961 117.128C114.837 118.113 114.837 118.113 114.713 119.098L114.589 120.083C113.604 119.959 114.713 119.098 114.713 119.098L114.961 117.128C114.1 116.019 115.085 116.143 114.961 117.128ZM118.411 113.56C117.426 113.436 117.426 113.436 118.411 113.56C117.55 112.451 118.535 112.575 118.411 113.56ZM130.23 115.046C130.23 115.046 129.369 113.937 130.23 115.046C130.354 114.061 130.354 114.061 130.23 115.046ZM130.113 108.027C129.989 109.012 129.989 109.012 128.88 109.873C129.004 108.888 130.113 108.027 130.113 108.027C130.237 107.042 130.113 108.027 130.113 108.027ZM132.826 102.364C132.702 103.349 132.702 103.349 131.593 104.211C131.469 105.196 131.469 105.196 131.593 104.211C131.717 103.226 132.95 101.379 133.074 100.394C134.059 100.518 132.95 101.379 132.826 102.364ZM138.246 99.0436C137.261 98.9197 137.261 98.9197 138.246 99.0436C137.261 98.9197 138.246 99.0436 138.246 99.0436ZM140.47 89.317C141.455 89.4409 141.083 92.396 140.222 91.2871C140.346 90.302 139.609 88.2081 140.47 89.317ZM139.361 90.1782C139.237 91.1632 138.376 90.0543 139.361 90.1782C138.376 90.0543 139.485 89.1931 139.609 88.2081C138.5 89.0692 139.361 90.1782 139.361 90.1782ZM140.6 80.3277C141.461 81.4366 142.322 82.5455 142.198 83.5306C142.074 84.5156 141.089 84.3918 141.089 84.3918C140.965 85.3768 140.965 85.3768 140.965 85.3768C141.827 86.4857 141.703 87.4708 140.594 88.3319L139.609 88.2081C139.609 88.2081 139.609 88.2081 138.5 89.0692C137.515 88.9454 137.515 88.9454 136.53 88.8215C136.406 89.8065 136.282 90.7916 136.035 92.7617C135.911 93.7467 134.678 95.5929 135.539 96.7019C136.648 95.8407 135.787 94.7318 135.911 93.7467C135.911 93.7467 136.159 91.7766 136.282 90.7916C137.267 90.9155 137.02 92.8856 137.02 92.8856C136.896 93.8706 137.881 93.9945 138.866 94.1183C138.742 95.1034 139.603 96.2123 138.618 96.0884C137.633 95.9646 137.633 95.9646 136.524 96.8257C136.4 97.8108 136.276 98.7958 135.291 98.672C134.182 99.5331 134.059 100.518 133.074 100.394C132.213 99.2854 133.569 96.4541 133.693 95.4691C133.941 93.499 134.065 92.5139 134.313 90.5438C134.56 88.5738 134.808 86.6037 134.932 85.6186C135.056 84.6336 135.304 82.6635 136.412 81.8023C137.397 81.9262 137.397 81.9262 138.506 81.065C139.615 80.2038 139.739 79.2188 140.6 80.3277ZM137.781 62.9626C137.781 62.9626 137.657 63.9476 138.642 64.0715C138.519 65.0565 138.519 65.0565 138.519 65.0565C138.395 66.0416 138.395 66.0416 139.38 66.1654C140.365 66.2893 139.256 67.1505 139.256 67.1505L139.132 68.1355L139.993 69.2445C139.869 70.2295 138.884 70.1056 138.76 71.0907C138.636 72.0757 138.636 72.0757 138.512 73.0608C137.156 75.892 137.527 72.9369 137.527 72.9369C137.651 71.9518 136.914 69.8579 137.038 68.8728C136.301 66.7789 136.425 65.7938 136.673 63.8237L136.796 62.8387L137.781 62.9626ZM128.062 52.7345C130.032 52.9823 129.66 55.9374 127.69 55.6897C126.705 55.5658 126.829 54.5808 126.829 54.5808L126.953 53.5957C127.077 52.6107 128.062 52.7345 128.062 52.7345ZM135.204 51.6316C135.08 52.6166 134.095 52.4927 134.219 51.5077L135.204 51.6316ZM131.265 51.1361C130.28 51.0122 130.28 51.0122 131.265 51.1361V51.1361ZM133.978 45.4735C134.963 45.5974 136.685 47.8152 135.576 48.6764L134.591 48.5525L133.606 48.4287C132.621 48.3048 132.497 49.2898 131.636 48.1809C131.636 48.1809 131.76 47.1959 130.899 46.087C130.899 46.087 130.038 44.978 130.162 43.993C130.286 43.0079 131.147 44.1169 131.147 44.1169C131.147 44.1169 131.147 44.1169 131.023 45.1019L131.884 46.2108C134.715 47.5675 133.854 46.4586 133.978 45.4735C133.854 46.4586 133.978 45.4735 133.978 45.4735ZM127.703 39.6812C128.688 39.8051 128.564 40.7901 129.549 40.914C130.534 41.0379 130.534 41.0379 131.395 42.1468C131.395 42.1468 131.271 43.1318 130.286 43.0079C130.286 43.0079 129.425 41.899 129.549 40.914C128.44 41.7752 127.579 40.6662 127.703 39.6812C126.718 39.5573 126.718 39.5573 127.703 39.6812C126.718 39.5573 127.703 39.6812 127.703 39.6812ZM130.168 35.9888C129.183 35.8649 129.183 35.8649 130.168 35.9888C129.307 34.8798 129.307 34.8798 130.168 35.9888ZM89.5438 24.8758C89.5438 24.8758 88.4349 25.737 87.5739 24.6281C87.6978 23.643 89.6677 23.8908 89.5438 24.8758ZM115.772 23.1713C116.757 23.2952 117.742 23.419 118.603 24.5279C119.464 25.6369 119.588 24.6518 120.573 24.7757C122.542 25.0234 120.325 26.7458 122.295 26.9935C123.28 27.1174 123.28 27.1174 123.156 28.1024C123.032 29.0875 123.032 29.0875 124.017 29.2114C124.017 29.2114 123.893 30.1964 124.878 30.3203L126.724 31.5531L125.615 32.4142C124.506 33.2754 124.63 32.2904 123.645 32.1665C120.69 31.7949 120.814 30.8098 119.829 30.686C118.968 29.577 119.092 28.592 118.107 28.4681C118.107 28.4681 118.107 28.4681 117.246 27.3592C116.261 27.2353 116.261 27.2353 116.261 27.2353C115.276 27.1115 114.415 26.0025 114.539 25.0175C114.539 25.0175 114.663 24.0325 114.787 23.0474C114.787 23.0474 115.896 22.1862 115.772 23.1713ZM90.9004 22.0445C90.9004 22.0445 88.8066 22.7818 88.9305 21.7968C89.0544 20.8118 90.9004 22.0445 90.9004 22.0445ZM109.125 20.3341C108.14 20.2102 108.264 19.2252 108.264 19.2252C109.249 19.349 109.249 19.349 109.125 20.3341C110.11 20.4579 110.11 20.4579 109.125 20.3341ZM109.986 21.443L110.11 20.4579C110.11 20.4579 111.095 20.5818 112.08 20.7057C113.065 20.8296 113.926 21.9385 113.802 22.9235C113.678 23.9086 112.569 24.7698 111.708 23.6608L111.832 22.6758C110.847 22.5519 110.971 21.5669 109.986 21.443ZM59.6239 24.1148C59.8716 22.1447 62.7026 23.5013 63.8114 22.6402L64.9202 21.779L65.9052 21.9029C66.8901 22.0267 67.9989 21.1656 68.9839 21.2894L69.9688 21.4133L71.0777 20.5521L72.0626 20.676C73.0475 20.7999 72.1865 19.691 73.1714 19.8148C74.1564 19.9387 74.1564 19.9387 74.0325 20.9238C74.0325 20.9238 75.0174 21.0476 74.8935 22.0327C75.8785 22.1565 75.8785 22.1565 76.0024 21.1715C78.22 19.4492 79.205 19.573 80.1899 19.6969C81.1748 19.8208 83.2686 19.0835 83.0208 21.0536C82.897 22.0386 79.9421 21.667 79.9421 21.667L78.9572 21.5431L77.8484 22.4043C76.8634 22.2804 76.8634 22.2804 75.8785 22.1565C74.8935 22.0327 74.8935 22.0327 73.9086 21.9088C72.9237 21.7849 72.9237 21.7849 71.9387 21.6611C70.9538 21.5372 70.8299 22.5222 69.8449 22.3984C68.86 22.2745 67.8751 22.1506 66.7662 23.0118L65.6574 23.873C64.6725 23.7491 64.6725 23.7491 64.6725 23.7491C63.6875 23.6252 63.5636 24.6103 63.5636 24.6103L62.4548 25.4714C61.4699 25.3476 60.6088 24.2386 59.6239 24.1148ZM29.0722 44.2874C29.0722 44.2874 29.1961 43.3024 30.1811 43.4262C29.1961 43.3024 29.0722 44.2874 29.0722 44.2874ZM19.6815 87.134C20.5425 88.2429 21.4036 89.3518 21.2797 90.3368C21.2797 90.3368 22.1408 91.4458 22.0169 92.4308C21.893 93.4159 21.893 93.4159 21.0319 92.3069C20.1709 91.198 20.2948 90.213 19.4337 89.1041C19.5576 88.119 18.5727 87.9951 19.6815 87.134C18.6965 87.0101 19.8054 86.1489 19.6815 87.134ZM19.0743 76.0507C18.9505 77.0358 19.5637 80.1148 18.5788 79.9909C18.4549 80.9759 19.9293 85.1639 18.9443 85.04C17.9594 84.9161 18.2071 82.946 18.2071 82.946C18.331 81.961 17.47 80.8521 17.5939 79.867C17.7177 78.882 17.8416 77.8969 17.9655 76.9119C17.9655 76.9119 18.0894 75.9268 19.0743 76.0507C18.0894 75.9268 19.0743 76.0507 19.0743 76.0507ZM16.3611 81.7132C16.3611 81.7132 14.8868 77.5253 15.8717 77.6492C16.8567 77.7731 16.485 80.7282 16.3611 81.7132ZM16.1195 75.6791C15.1346 75.5552 15.2585 74.5702 15.2585 74.5702C15.2585 74.5702 15.3823 73.5851 15.2585 74.5702C16.3673 73.709 16.1195 75.6791 16.1195 75.6791ZM18.4611 72.9717C18.4611 72.9717 19.3221 74.0806 18.3372 73.9567L17.3522 73.8329L18.4611 72.9717ZM19.8177 70.1404C20.6787 71.2494 19.446 73.0956 18.7088 71.0016C16.8628 69.7688 18.9566 69.0315 19.8177 70.1404ZM15.4878 96.6128C14.7506 94.5188 14.0134 92.4249 13.2763 90.3309C12.5391 88.2369 11.8019 86.143 12.0497 84.1729C12.1736 83.1878 12.2975 82.2028 12.2975 82.2028C12.4214 81.2177 11.4364 81.0939 11.5603 80.1088C10.6993 78.9999 11.8081 78.1387 10.947 77.0298C11.0709 76.0448 11.1948 75.0597 11.4426 73.0896C11.5665 72.1046 11.6904 71.1195 11.8142 70.1345C11.9381 69.1494 12.062 68.1644 12.1859 67.1794C12.1859 67.1794 12.3098 66.1943 13.2947 66.3182C13.4186 65.3331 13.4186 65.3331 13.4186 65.3331C13.5425 64.3481 13.6664 63.363 13.7903 62.378L13.9142 61.3929L14.038 60.4079C14.1619 59.4229 14.2858 58.4378 14.4097 57.4528C14.5336 56.4677 14.6575 55.4827 14.7814 54.4976C14.7814 54.4976 14.9052 53.5126 15.0291 52.5275C15.0291 52.5275 16.0141 52.6514 16.999 52.7753C17.8601 53.8842 16.7512 54.7454 16.6273 55.7304C16.5035 56.7155 16.3796 57.7005 15.2708 58.5617C15.1469 59.5467 14.038 60.4079 13.9142 61.3929C13.4186 65.3331 12.9231 69.2733 12.4275 73.2135C11.932 77.1537 12.4214 81.2177 12.9108 85.2818C12.7869 86.2668 12.663 87.2519 13.5241 88.3608C13.4002 89.3459 13.4002 89.3459 14.2612 90.4548L14.1373 91.4398L13.1524 91.316C13.1524 91.316 12.1674 91.1921 13.0285 92.301C12.9046 93.286 14.8745 93.5338 15.7356 94.6427C15.7356 94.6427 15.6117 95.6278 15.4878 96.6128C15.4878 96.6128 15.3639 97.5978 15.24 98.5829C15.1161 99.5679 16.225 98.7068 17.086 99.8157C18.5665 95.9994 15.3639 97.5978 15.4878 96.6128ZM41.4495 120.891C41.4495 120.891 40.4645 120.767 41.4495 120.891C40.4645 120.767 40.5884 119.782 41.4495 120.891ZM38.0053 116.455C37.8814 117.44 36.0354 116.208 37.1442 115.346L38.0053 116.455ZM35.2982 114.114C35.1743 115.099 34.1894 114.975 34.3133 113.99L34.4372 113.005C34.4372 113.005 34.4372 113.005 35.2982 114.114ZM32.7151 110.787C33.7 110.911 32.5912 111.772 31.6062 111.648C30.7452 110.539 31.854 109.678 32.7151 110.787ZM30.9929 108.569C30.9929 108.569 30.008 108.445 30.9929 108.569C30.008 108.445 30.008 108.445 30.9929 108.569ZM22.0046 108.439C21.1435 107.33 20.4064 105.236 19.5453 104.127C19.6692 103.142 18.6842 103.019 18.8081 102.034C18.932 101.048 16.3488 97.7217 17.3338 97.8456C18.3187 97.9695 18.1948 98.9545 18.1948 98.9545C18.1948 98.9545 18.071 99.9395 19.0559 100.063L20.0408 100.187C21.0258 100.311 19.917 101.172 19.917 101.172C19.7931 102.157 20.778 102.281 21.763 102.405C22.624 103.514 22.624 103.514 23.4851 104.623C24.3461 105.732 24.3461 105.732 25.2072 106.841C24.9594 108.811 22.8656 109.548 22.0046 108.439ZM45.1353 131.361C42.3044 130.004 39.4735 128.648 36.7664 126.306C34.9204 125.073 33.1983 122.855 31.3523 121.622C29.5063 120.39 27.7842 118.172 26.9231 117.063C26.0621 115.954 25.201 114.845 24.4639 112.751C24.5877 111.766 22.7418 110.533 23.7267 110.657L24.7116 110.781C25.6966 110.905 25.6966 110.905 26.5576 112.014C28.2797 114.232 30.0019 116.449 32.7089 118.791C34.431 121.009 37.1381 123.351 38.9841 124.584C39.8451 125.692 41.6911 126.925 42.6761 127.049C43.661 127.173 43.5371 128.158 44.5221 128.282C45.507 128.406 46.3681 129.515 46.3681 129.515L46.2442 130.5C46.2442 130.5 46.2442 130.5 45.2592 130.376C45.2592 130.376 44.3982 129.267 44.2743 130.252C42.4283 129.019 45.2592 130.376 45.1353 131.361ZM47.1052 131.609C47.1052 131.609 47.2291 130.624 47.1052 131.609C48.0902 131.733 47.1052 131.609 47.1052 131.609ZM50.06 131.98C49.0751 131.856 50.1839 130.995 50.06 131.98C51.1689 131.119 52.1538 131.243 52.0299 132.228C52.0299 132.228 53.0149 132.352 51.906 133.213C51.906 133.213 51.045 132.104 50.06 131.98ZM57.6918 134.941C57.6918 134.941 56.7069 134.817 55.7219 134.694L54.737 134.57L54.8609 133.585C54.8609 133.585 54.8609 133.585 55.8458 133.709C56.8308 133.832 57.6918 134.941 59.6617 135.189C60.6466 135.313 60.6466 135.313 61.6316 135.437C61.6316 135.437 64.5864 135.808 64.4625 136.794C64.3386 137.779 62.3688 137.531 61.3838 137.407C60.6466 135.313 59.6617 135.189 57.6918 134.941ZM54.737 134.57C55.7219 134.694 55.7219 134.694 54.737 134.57C55.7219 134.694 55.7219 134.694 54.737 134.57Z" fill="url(#paint0_linear)"/>
<path d="M87.7422 126.713C87.6183 127.698 87.6183 127.698 88.6032 127.822C89.5882 127.946 90.5731 128.07 91.682 127.209L93.7757 126.471C94.7607 126.595 94.8845 125.61 93.8996 125.486C92.9147 125.362 91.8058 126.224 90.8209 126.1C88.851 125.852 88.851 125.852 87.7422 126.713Z" fill="url(#paint1_linear)"/>
<path d="M26.5699 96.0058C26.8176 94.0357 25.9566 92.9268 25.2194 90.8329C25.3433 89.8478 24.4822 88.7389 24.4822 88.7389C24.6061 87.7539 23.7451 86.6449 23.7451 86.6449C23.869 85.6599 23.9928 84.6748 23.0079 84.551C23.0079 84.551 22.1469 83.4421 22.023 84.4271L21.8991 85.4121C21.7752 86.3972 22.6362 87.5061 22.5124 88.4912C23.2495 90.5851 23.1256 91.5702 23.8628 93.6641C25.8327 93.9119 25.8327 93.9119 26.5699 96.0058C25.7088 94.8969 25.5849 95.882 26.5699 96.0058Z" fill="url(#paint2_linear)"/>
<path d="M70.6265 127.563C69.5176 128.424 72.4725 128.795 73.4574 128.919C74.4424 129.043 75.4273 129.167 76.4122 129.291C77.3972 129.415 77.3972 129.415 78.3821 129.539C78.3821 129.539 79.3671 129.662 80.4759 128.801C80.5998 127.816 79.4909 128.677 79.4909 128.677C78.506 128.554 77.5211 128.43 75.4273 129.167C74.4423 129.043 74.4424 129.043 73.4574 128.919C72.5964 127.81 70.6265 127.563 70.6265 127.563Z" fill="url(#paint3_linear)"/>
<path d="M77.3848 145.422C76.276 146.283 78.2459 146.531 77.3848 145.422C79.3547 145.67 80.3396 145.794 81.3246 145.918C83.2945 146.165 83.4183 145.18 84.6511 143.334C82.5573 144.072 79.4786 144.685 77.3848 145.422Z" fill="url(#paint4_linear)"/>
<path d="M71.3512 145.665C71.4751 144.68 73.445 144.928 72.46 144.804C72.5839 143.819 71.599 143.695 70.4902 144.556C69.5052 144.432 69.3813 145.417 69.3813 145.417C69.2574 146.402 68.2725 146.278 68.1486 147.263C69.2574 146.402 70.2424 146.526 71.3512 145.665Z" fill="url(#paint5_linear)"/>
<path d="M101.852 30.4255C102.837 30.5494 103.698 31.6583 104.683 31.7822C105.668 31.906 106.529 33.015 107.39 34.1239C107.39 34.1239 108.375 34.2478 108.251 35.2328L109.112 36.3417C110.097 36.4656 108.251 35.2328 108.251 35.2328C106.529 33.015 103.698 31.6583 101.852 30.4255Z" fill="url(#paint6_linear)"/>
<path d="M124.246 51.2532C125.355 50.392 124.37 50.2681 123.509 49.1592C122.772 47.0653 124.246 51.2532 123.509 49.1592C123.509 49.1592 123.633 48.1742 122.648 48.0503L121.663 47.9264L121.539 48.9115C123.509 49.1592 124.246 51.2532 124.246 51.2532Z" fill="url(#paint7_linear)"/>
<path d="M118.219 43.4921C118.095 44.4771 118.095 44.4771 118.956 45.5861C119.941 45.7099 120.802 46.8188 120.926 45.8338C119.941 45.7099 119.08 44.601 118.219 43.4921C119.08 44.601 118.343 42.507 118.219 43.4921Z" fill="url(#paint8_linear)"/>
<path d="M116.745 39.3033C116.869 38.3183 115.884 38.1944 116.008 37.2094C116.008 37.2094 115.27 35.1154 114.286 34.9915C112.192 35.7288 116.745 39.3033 116.745 39.3033Z" fill="url(#paint9_linear)"/>
<path d="M80.9585 140.869C79.9735 140.745 78.9886 140.621 77.8798 141.482L78.8647 141.606L78.7408 142.591C78.7408 142.591 79.7258 142.715 79.8497 141.73C79.9735 140.745 79.8497 141.73 79.9735 140.745C80.8346 141.854 81.9434 140.993 80.9585 140.869Z" fill="url(#paint10_linear)"/>
<path d="M110.222 35.4815C111.207 35.6053 112.439 33.7591 111.454 33.6352C110.593 32.5263 109.361 34.3726 110.222 35.4815Z" fill="url(#paint11_linear)"/>
<path d="M20.2766 114.227C20.4005 113.242 19.4156 113.118 18.5545 112.009C18.5545 112.009 18.5545 112.009 17.5696 111.885L17.4457 112.87L18.4306 112.994C18.4306 112.994 18.4306 112.994 19.2917 114.103C19.2917 114.103 21.1377 115.335 20.2766 114.227Z" fill="url(#paint12_linear)"/>
<path d="M90.0712 140.014C89.9473 140.999 88.8384 141.86 87.8535 141.736C88.8384 141.86 90.9322 141.123 90.0712 140.014C91.0561 140.138 90.0712 140.014 90.0712 140.014Z" fill="url(#paint13_linear)"/>
<path d="M140.736 63.3343C140.736 63.3343 142.582 64.5671 142.706 63.582C142.706 63.582 141.845 62.4731 140.86 62.3492C140.983 61.3642 139.875 62.2254 140.736 63.3343Z" fill="url(#paint14_linear)"/>
<path d="M104.07 28.7037C104.194 27.7186 104.07 28.7037 104.07 28.7037C103.946 29.6887 104.931 29.8126 104.931 29.8126C104.931 29.8126 105.916 29.9365 105.055 28.8276C105.055 28.8276 105.055 28.8276 104.07 28.7037Z" fill="url(#paint15_linear)"/>
<path d="M30.169 59.4344C29.1841 59.3105 29.308 58.3255 30.169 59.4344C29.1841 59.3105 29.1841 59.3105 29.1841 59.3105C29.0602 60.2956 30.169 59.4344 30.169 59.4344Z" fill="url(#paint16_linear)"/>
<path d="M98.0867 124.012C97.1017 123.888 97.1017 123.888 98.0867 124.012C97.1017 123.888 96.9779 124.873 98.0867 124.012C97.9628 124.997 98.0867 124.012 98.0867 124.012Z" fill="url(#paint17_linear)"/>
<path d="M95.8564 141.742C96.8413 141.866 96.9652 140.881 95.9803 140.757C95.9803 140.757 94.7476 142.604 95.8564 141.742Z" fill="url(#paint18_linear)"/>
<path d="M15.1099 107.572C14.986 108.557 14.986 108.557 15.9709 108.681C16.0948 107.696 16.0948 107.696 15.1099 107.572Z" fill="url(#paint19_linear)"/>
<path d="M120.802 46.8187C120.678 47.8038 119.569 48.6649 120.802 46.8187C120.678 47.8038 120.678 47.8038 120.802 46.8187C120.678 47.8038 120.678 47.8038 120.802 46.8187Z" fill="url(#paint20_linear)"/>
<path d="M112.068 36.7134C111.207 35.6045 112.068 36.7134 112.068 36.7134V36.7134Z" fill="url(#paint21_linear)"/>
<path d="M130.88 70.0997C129.895 69.9759 129.895 69.9759 130.88 70.0997C129.772 70.9609 130.88 70.0997 130.88 70.0997Z" fill="url(#paint22_linear)"/>
<path d="M119.451 41.6458C119.327 42.6308 119.327 42.6308 119.451 41.6458C120.436 41.7696 119.451 41.6458 119.451 41.6458Z" fill="url(#paint23_linear)"/>
<path d="M122.276 51.0057C122.152 51.9908 123.137 52.1146 122.276 51.0057C123.261 51.1296 123.261 51.1296 122.276 51.0057Z" fill="url(#paint24_linear)"/>
<path d="M93.1494 139.4C92.0406 140.261 92.0406 140.261 93.1494 139.4V139.4Z" fill="url(#paint25_linear)"/>
<path d="M127.926 69.7281C128.911 69.852 128.787 70.8371 127.926 69.7281C128.911 69.852 128.911 69.852 127.926 69.7281Z" fill="url(#paint26_linear)"/>
<path d="M41.6912 126.926C41.8151 125.941 39.8452 125.693 39.7213 126.678C39.5974 127.663 41.5673 127.911 41.6912 126.926Z" fill="url(#paint27_linear)"/>
<path d="M37.9992 124.46C38.123 123.475 36.1532 123.227 36.1532 123.227C35.1682 123.103 37.0142 124.336 37.9992 124.46Z" fill="url(#paint28_linear)"/>
<path d="M28.2798 114.231C28.2798 114.231 28.1559 115.216 28.2798 114.231C28.1559 115.216 29.1409 115.34 29.1409 115.34L28.2798 114.231Z" fill="url(#paint29_linear)"/>
<path d="M31.7242 118.668C31.8481 117.683 30.7393 118.544 31.7242 118.668C31.6004 119.653 31.7242 118.668 31.7242 118.668Z" fill="url(#paint30_linear)"/>
<path d="M38.9838 124.584C37.8749 125.446 38.8599 125.569 38.9838 124.584V124.584Z" fill="url(#paint31_linear)"/>
<path d="M138.258 83.0351C138.134 84.0201 137.887 85.9902 138.995 85.1291C138.995 85.1291 139.119 84.144 139.243 83.159C139.367 82.1739 139.367 82.1739 138.258 83.0351C138.382 82.05 138.382 82.05 138.258 83.0351Z" fill="url(#paint32_linear)"/>
<circle cx="78.0916" cy="78.9748" r="59.7649" transform="rotate(-173.618 78.0916 78.9748)" fill="url(#paint33_linear)"/>
<g clip-path="url(#clip1)">
<path d="M53.8585 51C51.1943 51 48.9278 52.7027 48.0878 55.0793C47.9223 55.5476 47.9944 56.067 48.2813 56.4725C48.5682 56.878 49.0338 57.119 49.5305 57.119L59.9775 57.119C59.9775 53.7396 57.2379 51 53.8585 51Z" fill="white"/>
<path d="M76.4067 97.096C76.0602 99.487 74.9051 101.604 73.2585 103.215L93.3885 103.215C96.213 103.215 98.6844 101.676 100.009 99.3921C100.283 98.9187 100.284 98.3347 100.011 97.8606C99.7375 97.3866 99.2318 97.0959 98.6846 97.0959L76.4067 97.0959L76.4067 97.096Z" fill="white"/>
<path d="M87.2693 51L60.6492 51C61.6837 52.147 64.6605 54.7097 62.0746 68.017C60.3803 77.1563 56.8666 86.6082 56.9488 95.877C57.1159 99.9476 60.4553 103.215 64.5662 103.215C68.7835 103.215 72.2149 99.7837 72.2149 95.5664C72.2149 94.7209 72.8991 94.0367 73.7446 94.0367L88.8303 94.0367C89.0574 88.5168 90.4557 82.967 91.8121 77.583C93.3603 71.4354 94.918 65.0162 94.918 58.6487C94.918 54.4314 91.4865 51 87.2693 51V51ZM84.1933 84.6543L64.8419 84.6543C63.997 84.6543 63.3121 83.9694 63.3121 83.1245C63.3121 82.2797 63.997 81.5948 64.8419 81.5948L84.1933 81.5948C85.0381 81.5948 85.723 82.2797 85.723 83.1245C85.723 83.9694 85.0382 84.6543 84.1933 84.6543ZM85.6477 78.5353L66.3366 78.5353C65.4918 78.5353 64.8069 77.8504 64.8069 77.0056C64.8069 76.1608 65.4918 75.4758 66.3366 75.4758L85.6476 75.4758C86.4924 75.4758 87.1773 76.1608 87.1773 77.0056C87.1773 77.8504 86.4925 78.5353 85.6477 78.5353ZM87.1424 72.4164L67.7469 72.4164C66.9021 72.4164 66.2172 71.7314 66.2172 70.8866C66.2172 70.0418 66.9021 69.3569 67.7469 69.3569L87.1424 69.3569C87.9872 69.3569 88.6722 70.0418 88.6722 70.8866C88.6722 71.7314 87.9873 72.4164 87.1424 72.4164ZM88.3094 66.2974L68.8057 66.2974C67.9609 66.2974 67.276 65.6125 67.276 64.7677C67.276 63.9228 67.9609 63.2379 68.8057 63.2379L88.3095 63.2379C89.1543 63.2379 89.8392 63.9228 89.8392 64.7677C89.8392 65.6125 89.1542 66.2974 88.3094 66.2974Z" fill="white"/>
</g>
</g>
<defs>
<linearGradient id="paint0_linear" x1="143.059" y1="84.6395" x2="9.10719" y2="67.7928" gradientUnits="userSpaceOnUse">
<stop stop-color="#F36E2A"/>
<stop offset="1" stop-color="#FEBD66"/>
</linearGradient>
<linearGradient id="paint1_linear" x1="94.4525" y1="127.057" x2="87.8041" y2="126.221" gradientUnits="userSpaceOnUse">
<stop stop-color="#F36E2A"/>
<stop offset="1" stop-color="#FEBD66"/>
</linearGradient>
<linearGradient id="paint2_linear" x1="27.2788" y1="90.3692" x2="21.3691" y2="89.626" gradientUnits="userSpaceOnUse">
<stop stop-color="#F36E2A"/>
<stop offset="1" stop-color="#FEBD66"/>
</linearGradient>
<linearGradient id="paint3_linear" x1="80.4415" y1="129.075" x2="70.3938" y2="127.811" gradientUnits="userSpaceOnUse">
<stop stop-color="#F36E2A"/>
<stop offset="1" stop-color="#FEBD66"/>
</linearGradient>
<linearGradient id="paint4_linear" x1="84.4188" y1="145.181" x2="77.2399" y2="144.278" gradientUnits="userSpaceOnUse">
<stop stop-color="#F36E2A"/>
<stop offset="1" stop-color="#FEBD66"/>
</linearGradient>
<linearGradient id="paint5_linear" x1="72.5964" y1="145.947" x2="68.3809" y2="145.416" gradientUnits="userSpaceOnUse">
<stop stop-color="#F36E2A"/>
<stop offset="1" stop-color="#FEBD66"/>
</linearGradient>
<linearGradient id="paint6_linear" x1="109.698" y1="33.9138" x2="101.542" y2="32.8881" gradientUnits="userSpaceOnUse">
<stop stop-color="#F36E2A"/>
<stop offset="1" stop-color="#FEBD66"/>
</linearGradient>
<linearGradient id="paint7_linear" x1="124.84" y1="49.8269" x2="121.477" y2="49.404" gradientUnits="userSpaceOnUse">
<stop stop-color="#F36E2A"/>
<stop offset="1" stop-color="#FEBD66"/>
</linearGradient>
<linearGradient id="paint8_linear" x1="121.04" y1="44.9255" x2="118.085" y2="44.5539" gradientUnits="userSpaceOnUse">
<stop stop-color="#F36E2A"/>
<stop offset="1" stop-color="#FEBD66"/>
</linearGradient>
<linearGradient id="paint9_linear" x1="116.993" y1="37.3333" x2="113.573" y2="36.9031" gradientUnits="userSpaceOnUse">
<stop stop-color="#F36E2A"/>
<stop offset="1" stop-color="#FEBD66"/>
</linearGradient>
<linearGradient id="paint10_linear" x1="81.2426" y1="141.905" x2="77.8798" y2="141.482" gradientUnits="userSpaceOnUse">
<stop stop-color="#F36E2A"/>
<stop offset="1" stop-color="#FEBD66"/>
</linearGradient>
<linearGradient id="paint11_linear" x1="111.755" y1="34.5374" x2="109.954" y2="34.3109" gradientUnits="userSpaceOnUse">
<stop stop-color="#F36E2A"/>
<stop offset="1" stop-color="#FEBD66"/>
</linearGradient>
<linearGradient id="paint12_linear" x1="20.6488" y1="113.495" x2="17.4182" y2="113.089" gradientUnits="userSpaceOnUse">
<stop stop-color="#F36E2A"/>
<stop offset="1" stop-color="#FEBD66"/>
</linearGradient>
<linearGradient id="paint13_linear" x1="90.385" y1="141.054" x2="87.9774" y2="140.751" gradientUnits="userSpaceOnUse">
<stop stop-color="#F36E2A"/>
<stop offset="1" stop-color="#FEBD66"/>
</linearGradient>
<linearGradient id="paint14_linear" x1="142.766" y1="63.1044" x2="140.358" y2="62.8016" gradientUnits="userSpaceOnUse">
<stop stop-color="#F36E2A"/>
<stop offset="1" stop-color="#FEBD66"/>
</linearGradient>
<linearGradient id="paint15_linear" x1="105.458" y1="29.1562" x2="104.036" y2="28.9773" gradientUnits="userSpaceOnUse">
<stop stop-color="#F36E2A"/>
<stop offset="1" stop-color="#FEBD66"/>
</linearGradient>
<linearGradient id="paint16_linear" x1="30.169" y1="59.4344" x2="29.1841" y2="59.3105" gradientUnits="userSpaceOnUse">
<stop stop-color="#F36E2A"/>
<stop offset="1" stop-color="#FEBD66"/>
</linearGradient>
<linearGradient id="paint17_linear" x1="98.0591" y1="124.231" x2="97.3204" y2="124.138" gradientUnits="userSpaceOnUse">
<stop stop-color="#F36E2A"/>
<stop offset="1" stop-color="#FEBD66"/>
</linearGradient>
<linearGradient id="paint18_linear" x1="96.6397" y1="141.481" x2="95.4632" y2="141.333" gradientUnits="userSpaceOnUse">
<stop stop-color="#F36E2A"/>
<stop offset="1" stop-color="#FEBD66"/>
</linearGradient>
<linearGradient id="paint19_linear" x1="16.0328" y1="108.188" x2="15.0479" y2="108.064" gradientUnits="userSpaceOnUse">
<stop stop-color="#F36E2A"/>
<stop offset="1" stop-color="#FEBD66"/>
</linearGradient>
<linearGradient id="paint20_linear" x1="120.731" y1="47.3874" x2="120.293" y2="47.3324" gradientUnits="userSpaceOnUse">
<stop stop-color="#F36E2A"/>
<stop offset="1" stop-color="#FEBD66"/>
</linearGradient>
<linearGradient id="paint21_linear" x1="112.095" y1="36.4945" x2="111.658" y2="36.4395" gradientUnits="userSpaceOnUse">
<stop stop-color="#F36E2A"/>
<stop offset="1" stop-color="#FEBD66"/>
</linearGradient>
<linearGradient id="paint22_linear" x1="130.853" y1="70.3186" x2="130.114" y2="70.2257" gradientUnits="userSpaceOnUse">
<stop stop-color="#F36E2A"/>
<stop offset="1" stop-color="#FEBD66"/>
</linearGradient>
<linearGradient id="paint23_linear" x1="119.842" y1="42.0702" x2="119.405" y2="42.0151" gradientUnits="userSpaceOnUse">
<stop stop-color="#F36E2A"/>
<stop offset="1" stop-color="#FEBD66"/>
</linearGradient>
<linearGradient id="paint24_linear" x1="122.968" y1="51.468" x2="122.229" y2="51.3751" gradientUnits="userSpaceOnUse">
<stop stop-color="#F36E2A"/>
<stop offset="1" stop-color="#FEBD66"/>
</linearGradient>
<linearGradient id="paint25_linear" x1="93.103" y1="139.769" x2="92.3642" y2="139.676" gradientUnits="userSpaceOnUse">
<stop stop-color="#F36E2A"/>
<stop offset="1" stop-color="#FEBD66"/>
</linearGradient>
<linearGradient id="paint26_linear" x1="128.637" y1="70.0399" x2="127.898" y2="69.947" gradientUnits="userSpaceOnUse">
<stop stop-color="#F36E2A"/>
<stop offset="1" stop-color="#FEBD66"/>
</linearGradient>
<linearGradient id="paint27_linear" x1="41.6912" y1="126.926" x2="39.7213" y2="126.678" gradientUnits="userSpaceOnUse">
<stop stop-color="#F36E2A"/>
<stop offset="1" stop-color="#FEBD66"/>
</linearGradient>
<linearGradient id="paint28_linear" x1="38.0611" y1="123.967" x2="35.8228" y2="123.686" gradientUnits="userSpaceOnUse">
<stop stop-color="#F36E2A"/>
<stop offset="1" stop-color="#FEBD66"/>
</linearGradient>
<linearGradient id="paint29_linear" x1="29.2028" y1="114.848" x2="28.2179" y2="114.724" gradientUnits="userSpaceOnUse">
<stop stop-color="#F36E2A"/>
<stop offset="1" stop-color="#FEBD66"/>
</linearGradient>
<linearGradient id="paint30_linear" x1="31.7242" y1="118.668" x2="31.2865" y2="118.613" gradientUnits="userSpaceOnUse">
<stop stop-color="#F36E2A"/>
<stop offset="1" stop-color="#FEBD66"/>
</linearGradient>
<linearGradient id="paint31_linear" x1="38.9373" y1="124.954" x2="38.4995" y2="124.899" gradientUnits="userSpaceOnUse">
<stop stop-color="#F36E2A"/>
<stop offset="1" stop-color="#FEBD66"/>
</linearGradient>
<linearGradient id="paint32_linear" x1="139.149" y1="83.9089" x2="138.164" y2="83.785" gradientUnits="userSpaceOnUse">
<stop stop-color="#F36E2A"/>
<stop offset="1" stop-color="#FEBD66"/>
</linearGradient>
<linearGradient id="paint33_linear" x1="33.9661" y1="7.25696" x2="132.182" y2="14.0353" gradientUnits="userSpaceOnUse">
<stop stop-color="#F36E2A"/>
<stop offset="1" stop-color="#FEBD66"/>
</linearGradient>
<clipPath id="clip0">
<rect width="138" height="136" fill="white" transform="translate(152.468 17.7803) rotate(97.1683)"/>
</clipPath>
<clipPath id="clip1">
<rect width="52.2151" height="52.2151" fill="white" transform="translate(48 51)"/>
</clipPath>
</defs>
</svg>
