<svg width="187" height="188" viewBox="0 0 187 188" fill="none" xmlns="http://www.w3.org/2000/svg">
<g clip-path="url(#clip0)">
<path d="M61.305 37.1915C60.9417 38.5476 61.4381 39.4074 61.9345 40.2672C62.4309 41.127 63.4237 42.8466 63.9201 43.7064C64.4165 44.5662 64.9129 45.426 65.9057 47.1456C66.4021 48.0053 67.2618 47.509 68.1215 47.0127C70.7007 45.5236 72.9165 45.3907 75.4956 43.9016C78.0747 42.4126 80.2905 42.2797 82.8696 40.7906C83.7293 40.2943 85.0854 40.6577 85.9451 40.1614C86.8048 39.665 88.1609 40.0285 89.0206 39.5321C89.8803 39.0358 91.2364 39.3992 92.0962 38.9029C92.0962 38.9029 92.9559 38.4065 93.4523 39.2663C93.4523 39.2663 94.312 38.77 94.8084 39.6298L95.3048 40.4895C95.3048 40.4895 95.3048 40.4896 95.8012 41.3493C95.8012 41.3493 95.8012 41.3493 97.1573 41.7128C98.017 41.2164 98.017 41.2164 98.017 41.2164C98.8767 40.7201 100.233 41.0835 101.589 41.447C102.945 41.8104 103.805 41.3141 105.161 41.6775C106.517 42.041 110.089 42.2715 110.585 43.1313C111.082 43.9911 110.222 44.4874 111.578 44.8509L112.934 45.2143C113.431 46.0741 114.29 45.5778 114.787 46.4376L116.143 46.801C117.002 46.3047 117.002 46.3047 117.002 46.3047C118.359 46.6681 118.359 46.6681 118.855 47.5279C119.351 48.3877 118.855 47.5279 120.211 47.8913C121.071 47.395 121.567 48.2548 122.923 48.6182L124.279 48.9817C124.279 48.9817 124.776 49.8415 126.132 50.2049C127.488 50.5684 127.984 51.4282 129.341 51.7916C130.697 52.155 131.193 53.0148 131.689 53.8746C132.186 54.7344 132.186 54.7344 132.186 54.7344L133.542 55.0979L134.038 55.9577C134.535 56.8175 134.535 56.8175 135.891 57.1809C136.387 58.0407 137.743 58.4042 138.24 59.2639C138.736 60.1237 138.736 60.1237 138.736 60.1237C139.233 60.9835 139.233 60.9835 139.729 61.8433C140.225 62.7031 140.225 62.7031 140.722 63.5629C141.218 64.4227 141.218 64.4227 141.715 65.2825C142.211 66.1423 142.211 66.1423 142.707 67.0021L143.204 67.8619L142.344 68.3583C142.841 69.2181 142.841 69.2181 143.337 70.0778C143.833 70.9376 144.33 71.7974 144.826 72.6572C145.323 73.517 144.959 74.8732 145.456 75.733C145.952 76.5928 145.952 76.5928 145.952 76.5928C146.448 77.4526 146.448 77.4526 146.945 78.3124C147.441 79.1721 147.078 80.5283 147.574 81.3881C148.071 82.2479 147.707 83.604 148.7 85.3236C149.197 86.1834 149.693 87.0432 150.189 87.903C150.686 88.7628 149.826 89.2591 149.826 89.2591C150.323 90.1189 149.959 91.4751 150.456 92.3349C150.456 92.3349 150.952 93.1947 150.092 93.691C149.729 95.0472 150.225 95.907 149.862 97.2631C150.359 98.1229 149.995 99.4791 150.492 100.339L150.128 101.695L150.625 102.555C151.121 103.415 150.758 104.771 150.758 104.771C149.898 105.267 149.402 104.407 149.038 105.763L149.535 106.623C149.535 106.623 148.675 107.12 149.172 107.979C148.808 109.336 150.164 109.699 149.305 110.195C148.941 111.551 147.222 112.544 146.859 113.9C146.859 113.9 147.355 114.76 146.495 115.256L146.132 116.613C145.769 117.969 144.909 118.465 144.546 119.821C145.042 120.681 144.182 121.177 143.323 121.674C142.463 122.17 142.463 122.17 142.959 123.03C142.959 123.03 142.596 124.386 141.736 124.882C140.877 125.379 142.1 123.526 142.1 123.526C141.603 122.666 141.967 121.31 142.33 119.954C143.19 119.458 143.553 118.102 143.553 118.102C143.057 117.242 143.057 117.242 143.42 115.886L144.28 115.389L144.643 114.033C145.006 112.677 145.369 111.321 146.229 110.825C146.592 109.468 146.956 108.112 147.319 106.756C147.682 105.4 148.046 104.044 148.409 102.688C148.772 101.332 148.276 100.472 147.779 99.612C148.143 98.2558 148.143 98.2558 148.506 96.8997C148.01 96.0399 148.373 94.6837 149.233 94.1874C150.092 93.691 149.596 92.8312 149.1 91.9714C148.107 90.2518 148.47 88.8957 148.337 86.6798C147.841 85.82 148.204 84.4638 147.707 83.604C146.582 79.6685 145.952 76.5928 143.966 73.1536C143.47 72.2938 142.974 71.434 141.981 69.7144C141.484 68.8546 140.988 67.9948 140.492 67.135C140.988 67.9948 141.981 69.7144 142.477 70.5742C142.974 71.434 143.966 73.1536 144.463 74.0134C144.959 74.8732 144.959 74.8732 144.596 76.2293C145.092 77.0891 144.233 77.5855 144.233 77.5855C144.729 78.4453 145.225 79.305 145.225 79.305C145.722 80.1648 146.218 81.0246 145.359 81.521C146.351 83.2406 145.988 84.5967 145.625 85.9529C146.121 86.8127 145.261 87.309 145.758 88.1688C146.254 89.0286 146.254 89.0286 145.891 90.3848C145.891 90.3848 145.891 90.3847 146.387 91.2445C146.387 91.2445 146.387 91.2445 146.024 92.6007C146.52 93.4605 146.52 93.4605 145.661 93.9568L144.801 94.4532C145.661 93.9568 146.654 95.6764 146.654 95.6764C147.15 96.5362 145.927 98.3887 146.423 99.2485C146.556 101.464 146.193 102.821 146.69 103.68L146.326 105.037C145.467 105.533 145.963 106.393 146.459 107.252C146.592 109.468 145.369 111.321 144.643 114.033C143.783 114.53 144.28 115.389 143.42 115.886C143.42 115.886 142.56 116.382 143.057 117.242L142.197 117.738L142.693 118.598C141.834 119.094 140.114 120.087 139.751 121.443C139.388 122.799 137.668 123.792 137.305 125.148C136.942 126.504 135.222 127.497 134.859 128.853C133.999 129.35 133.999 129.35 133.139 129.846C132.28 130.342 133.139 129.846 132.28 130.342C132.776 131.202 131.916 131.698 131.916 131.698C131.057 132.195 130.693 133.551 129.834 134.047C127.255 135.536 125.172 137.885 122.593 139.374C120.873 140.367 120.014 140.863 118.294 141.856C116.575 142.849 115.715 143.345 113.996 144.338C113.996 144.338 113.136 144.834 112.276 145.33C111.417 145.827 112.773 146.19 111.913 146.687C112.409 147.546 109.334 148.176 110.557 146.323C109.201 145.96 108.341 146.456 107.481 146.952C106.622 147.449 105.266 147.085 104.406 147.582C105.762 147.945 106.985 146.093 108.838 147.316L109.334 148.176C109.334 148.176 108.474 148.672 107.614 149.168C106.755 149.665 104.539 149.798 103.679 150.294C102.82 150.79 102.323 149.93 102.82 150.79C103.316 151.65 103.316 151.65 102.456 152.146C101.597 152.643 100.737 153.139 100.24 152.279C99.3808 152.776 98.5211 153.272 98.5211 153.272C97.6614 153.768 97.1649 152.909 96.3052 153.405C95.4455 153.901 94.9491 153.041 94.0894 153.538C93.2297 154.034 91.0139 154.167 89.6578 153.804L88.3017 153.44C86.9456 153.077 86.9456 153.077 86.0859 153.573C85.2262 154.069 84.7298 153.21 83.3737 152.846C82.3809 151.127 81.5212 151.623 80.1651 151.259C78.809 150.896 77.4528 150.533 76.0967 150.169C75.6003 149.309 75.6003 149.309 74.2442 148.946C74.2442 148.946 72.8881 148.582 72.0284 149.079C72.0284 149.079 71.532 148.219 70.6723 148.715L69.8126 149.212C68.9529 149.708 69.3162 148.352 69.3162 148.352C68.8198 147.492 67.9601 147.988 67.4637 147.129C66.9673 146.269 67.827 145.773 67.827 145.773C67.3306 144.913 67.3306 144.913 67.3306 144.913L66.8342 144.053C67.6939 143.557 67.6939 143.557 68.5536 143.06C68.5536 143.06 68.0572 142.2 67.5608 141.341C67.0644 140.481 66.2047 140.977 66.2047 140.977C65.7083 140.117 65.7083 140.117 64.3522 139.754C64.3522 139.754 64.3522 139.754 63.8558 138.894L63.3594 138.034L62.0033 137.671C61.8702 135.455 60.3809 132.876 59.1579 134.728C59.1579 134.728 58.7946 136.084 58.2982 135.224C57.8018 134.365 58.6615 133.868 58.6615 133.868C58.6615 133.868 59.0248 132.512 57.6687 132.149C57.6687 132.149 55.9493 133.141 56.4457 134.001C56.9421 134.861 56.9421 134.861 57.4385 135.721C57.9349 136.581 57.9349 136.581 58.4313 137.44C58.9277 138.3 59.4241 139.16 60.2839 138.664C60.2839 138.664 61.1436 138.167 61.64 139.027C61.64 139.027 61.64 139.027 62.1364 139.887C62.1364 139.887 62.1364 139.887 62.6328 140.747C63.1292 141.606 65.345 141.474 64.122 143.326C64.122 143.326 63.2623 143.822 62.4026 144.319L61.9062 143.459L61.4098 142.599C61.4098 142.599 61.4098 142.599 60.9134 141.739C60.9134 141.739 60.0537 142.236 59.5573 141.376C59.0608 140.516 59.0608 140.516 58.5644 139.656C58.5644 139.656 58.5644 139.656 57.2083 139.293C57.2083 139.293 56.7119 138.433 55.8522 138.929C56.2155 137.573 54.363 136.35 53.3702 134.63C50.5249 131.688 49.0357 129.108 46.1904 126.165C45.1976 124.446 44.2048 122.726 43.212 121.007C42.7156 120.147 42.2191 119.287 41.2263 117.567C40.7299 116.708 41.0932 115.352 41.0932 115.352C40.5968 114.492 40.1004 113.632 39.604 112.772C39.604 112.772 39.4709 110.556 39.9673 111.416C39.9673 111.416 40.4637 112.276 40.9601 113.136C41.4565 113.995 41.9529 114.855 42.4493 115.715C43.4422 117.435 44.435 119.154 45.4278 120.874C46.4206 122.593 47.4134 124.313 48.4062 126.033C48.9026 126.892 49.399 127.752 49.8954 128.612C50.7551 128.116 51.2515 128.975 51.2515 128.975L52.1112 128.479L52.6076 129.339C53.104 130.199 53.6004 131.058 54.9565 131.422C55.3198 130.066 54.4601 130.562 53.9637 129.702C53.4673 128.842 54.327 128.346 54.327 128.346L53.8306 127.486C53.3342 126.627 52.8378 125.767 52.8378 125.767C52.3414 124.907 51.845 124.047 50.4889 123.684C49.9925 122.824 49.4961 121.964 48.9997 121.104L48.5033 120.245L48.8666 118.888C48.3702 118.029 47.8738 117.169 47.0141 117.665C45.1616 116.442 45.0285 114.226 44.0357 112.506L43.5393 111.647L43.0428 110.787L42.5464 109.927C42.05 109.067 42.05 109.067 41.5536 108.207C41.1543 101.56 40.0284 97.624 41.1183 93.5556C40.9492 83.3357 43.8556 72.4865 49.9707 63.224C50.334 61.8679 50.6973 60.5117 52.4167 59.519C53.2764 59.0227 52.78 58.1629 53.6397 57.6665L54.4994 57.1702C54.4994 57.1702 55.3591 56.6738 54.8627 55.8141C55.7224 55.3177 56.0857 53.9616 56.9454 53.4652C57.8051 52.9689 58.1684 51.6127 59.5245 51.9762C59.8878 50.62 61.6072 49.6273 62.4669 49.131C63.3266 48.6346 66.4021 48.0053 66.7654 46.6492C66.269 45.7894 65.7726 44.9296 65.2762 44.0698C64.7798 43.21 64.2834 42.3502 63.787 41.4904C63.2906 40.6306 62.7942 39.7708 62.7942 39.7708C61.9345 40.2672 61.0748 40.7635 60.2151 41.2599L59.3554 41.7563C59.3554 41.7563 58.4957 42.2526 58.9921 43.1124C58.1324 43.6087 57.2727 44.1051 56.9094 45.4612C56.0497 45.9576 56.0497 45.9576 55.19 46.4539C54.3303 46.9503 53.4706 47.4466 52.6109 47.943C51.7512 48.4393 50.8915 48.9357 50.5282 50.2918C49.6685 50.7882 49.3051 52.1443 48.4454 52.6407C47.5857 53.137 47.2224 54.4932 47.2224 54.4932C46.3627 54.9895 47.3555 56.7091 45.9994 56.3457C45.9994 56.3457 45.9994 56.3457 45.1397 56.842C45.1397 56.842 44.7764 58.1982 43.9167 58.6945C43.057 59.1909 42.6937 60.547 41.834 61.0434C40.9743 61.5397 40.1146 62.0361 40.1146 62.0361C40.1146 62.0361 40.611 62.8959 39.7513 63.3922L38.8916 63.8886C39.2549 62.5324 40.4779 60.6799 40.8412 59.3238C41.7009 58.8274 42.0642 57.4713 42.0642 57.4713C42.4275 56.1151 41.5678 56.6115 40.7081 57.1078C39.4851 58.9603 37.4024 61.3092 36.6758 64.0215C35.8161 64.5178 36.3125 65.3776 35.4528 65.874C34.5931 66.3703 34.2298 67.7265 33.7334 66.8667C33.237 66.0069 33.237 66.0069 34.0967 65.5105L34.46 64.1544L35.3197 63.658L35.683 62.3019C36.0463 60.9457 36.0463 60.9457 36.4096 59.5896C37.2693 59.0932 37.6326 57.7371 37.6326 57.7371L36.7729 58.2335C36.7729 58.2335 36.7729 58.2334 36.4096 59.5896L35.5499 60.0859C34.6902 60.5823 35.1866 61.4421 35.683 62.3019C35.3197 63.658 35.3197 63.658 34.46 64.1544C33.6003 64.6507 33.6003 64.6507 34.0967 65.5105C34.5931 66.3703 33.237 66.0069 32.8737 67.363C31.6507 69.2155 30.9241 71.9278 31.0572 74.1437C30.3306 76.856 29.9673 78.2122 30.1004 80.4281C29.7371 81.7843 30.2335 82.6441 29.8702 84.0002C29.5069 85.3564 30.0033 86.2162 29.64 87.5723C29.2767 88.9284 29.2767 88.9284 28.9134 90.2846C28.5501 91.6407 28.5501 91.6407 28.1868 92.9969C26.3343 91.7736 25.971 93.1298 26.4674 93.9896C26.4674 93.9896 26.9638 94.8494 26.1041 95.3457C26.6005 96.2055 26.6005 96.2055 26.2372 97.5617C25.3775 98.058 26.8667 100.637 26.5034 101.994C26.2732 105.566 27.3991 109.501 28.8883 112.081L29.3847 112.94C29.8811 113.8 29.8811 113.8 29.5178 115.156C30.0142 116.016 30.5106 116.876 31.007 117.736C31.5034 118.595 31.9998 119.455 32.4962 120.315C33.489 122.035 34.4818 123.754 34.6149 125.97C35.1113 126.83 35.6077 127.69 36.1041 128.55C36.6005 129.409 37.0969 130.269 37.5933 131.129C38.0897 131.989 39.4458 132.352 39.4458 132.352C39.9422 133.212 39.9422 133.212 40.4386 134.072C40.9351 134.932 40.9351 134.932 41.4315 135.791C41.9279 136.651 42.9207 138.371 44.2768 138.734C45.2696 140.454 45.766 141.314 46.7588 143.033C46.7588 143.033 46.7588 143.033 47.2552 143.893C47.7516 144.753 48.6113 144.256 49.471 143.76L49.3379 141.544C49.3379 141.544 48.4782 142.04 47.9818 141.181C47.9818 141.181 47.4854 140.321 46.6257 140.817C46.1293 139.957 45.6329 139.098 45.1365 138.238L44.6401 137.378L45.0034 136.022C45.0034 136.022 45.0034 136.022 43.6473 135.658L43.1509 134.799C42.6545 133.939 42.1581 133.079 42.1581 133.079C42.1581 133.079 42.5214 131.723 43.3811 131.227C44.2408 130.73 45.2336 132.45 45.2336 132.45C45.73 133.31 46.5897 132.813 46.2264 134.169L46.7228 135.029C47.2192 135.889 47.7156 136.749 49.0717 137.112C49.2048 139.328 49.7012 140.188 50.1976 141.048C50.694 141.908 51.1904 142.767 52.5465 143.131C53.9026 143.494 55.2587 143.858 55.2587 143.858C55.7551 144.717 54.8954 145.214 54.8954 145.214C54.0357 145.71 54.0357 145.71 53.176 146.207C53.176 146.207 52.6796 145.347 51.8199 145.843L51.4566 147.199C51.0933 148.555 55.1616 149.646 56.5177 150.009C57.3774 149.513 56.5177 150.009 56.0213 149.149C55.5249 148.29 55.0285 147.43 55.0285 147.43C56.2515 145.577 56.7479 146.437 57.6076 145.941C58.9637 146.304 60.3199 146.668 60.8163 147.527C61.3127 148.387 61.8091 149.247 61.8091 149.247L62.3055 150.107C62.8019 150.967 62.3055 150.107 61.4458 150.603C61.4458 150.603 60.5861 151.099 60.0897 150.24C60.0897 150.24 58.7335 149.876 57.8738 150.373C57.1472 153.085 62.0753 153.679 62.0753 153.679C63.4314 154.042 64.2911 153.546 64.7875 154.406C65.2839 155.266 65.7803 156.125 66.64 155.629C67.1364 156.489 67.9961 155.992 68.4925 156.852C69.8486 157.216 69.3522 156.356 70.2119 155.86C71.0716 155.363 72.4277 155.727 72.9241 156.586C74.7766 157.81 73.5536 159.662 74.4133 159.166C74.9097 160.026 76.2658 160.389 76.2658 160.389C77.622 160.753 78.9781 161.116 80.3342 161.479C81.1939 160.983 81.6903 161.843 83.0464 162.206L83.9061 161.71C83.9061 161.71 84.7658 161.214 85.2622 162.073L86.255 163.793L87.6111 164.156C87.9744 162.8 89.3305 163.164 89.3305 163.164C90.1902 162.667 91.5463 163.031 92.406 162.534C95.9779 162.765 99.5499 162.996 103.485 161.87C104.841 162.233 107.057 162.1 108.776 161.108C110.992 160.975 113.208 160.842 115.787 159.353C116.647 158.857 117.507 158.36 118.366 157.864C119.722 158.227 120.582 157.731 121.442 157.235C122.301 156.738 121.805 155.878 122.665 155.382C123.524 154.886 123.161 156.242 124.021 155.746C124.881 155.249 125.74 154.753 126.6 154.256C126.963 152.9 126.963 152.9 126.467 152.041C125.97 151.181 125.97 151.181 125.97 151.181L125.111 151.677L124.251 152.173C124.251 152.173 123.391 152.67 122.532 153.166C121.176 152.803 122.895 151.81 123.755 151.314C124.614 150.817 125.474 150.321 126.334 149.825C127.193 149.328 128.053 148.832 128.913 148.336C130.632 147.343 133.211 145.854 134.931 144.861C136.65 143.868 137.873 142.016 139.593 141.023C139.956 139.667 142.402 135.962 144.848 132.257C145.708 131.761 146.071 130.405 147.294 128.552C148.154 128.056 147.657 127.196 148.517 126.7C148.88 125.343 149.74 124.847 149.244 123.987C150.103 123.491 149.607 122.631 150.467 122.135C151.326 121.638 150.83 120.779 151.69 120.282C151.69 120.282 152.053 118.926 152.913 118.43C153.772 117.933 153.276 117.074 153.639 115.718C153.639 115.718 154.499 115.221 154.003 114.361C154.366 113.005 154.366 113.005 154.729 111.649C154.596 109.433 155.819 107.581 156.182 106.225C156.049 104.009 156.413 102.652 157.139 99.9401C157.502 98.584 157.369 96.368 156.873 95.5083C156.377 94.6485 156.74 93.2923 156.243 92.4325C156.11 90.2166 155.977 88.0006 155.844 85.7847C155.348 84.9249 155.711 83.5687 155.215 82.709C156.074 82.2126 155.081 80.493 155.941 79.9967C156.801 79.5003 155.941 79.9967 155.941 79.9967L156.438 80.8565L156.934 81.7163C157.43 82.576 157.067 83.9322 157.564 84.792C157.697 87.0079 157.83 89.2239 157.466 90.58C157.963 91.4398 157.6 92.796 158.096 93.6558C158.592 94.5155 157.733 95.0119 157.369 96.368L157.866 97.2278L158.362 98.0876L157.502 98.584L157.139 99.9401C158.132 101.66 158.628 102.52 158.761 104.735C158.398 106.092 157.538 106.588 157.538 106.588L158.035 107.448L157.672 108.804C157.308 110.16 157.805 111.02 156.945 111.516C157.078 113.732 156.218 114.228 155.855 115.585C154.632 117.437 154.765 119.653 153.542 121.506C153.179 122.862 153.179 122.862 152.319 123.358C151.459 123.854 151.459 123.854 150.6 124.351C149.74 124.847 151.096 125.211 150.236 125.707L149.873 127.063C150.369 127.923 149.146 129.775 148.783 131.131C147.923 131.628 148.42 132.488 147.56 132.984C146.7 133.48 146.7 133.48 145.841 133.977C145.974 136.193 145.114 136.689 143.395 137.682C142.535 138.178 141.675 138.674 141.312 140.031C140.452 140.527 139.593 141.023 139.229 142.379C137.51 143.372 136.287 145.225 134.568 146.217C132.848 147.21 130.765 149.559 129.046 150.552C129.046 150.552 128.186 151.048 128.683 151.908C129.179 152.767 129.542 151.411 130.402 150.915C131.262 150.419 132.122 149.922 132.122 149.922C132.981 149.426 133.345 148.07 134.204 147.573C135.427 145.721 137.643 145.588 138.866 143.736C140.949 141.387 143.031 139.038 145.114 136.689C147.197 134.34 149.28 131.991 151.362 129.642C153.445 127.294 154.172 124.581 154.898 121.869C156.121 120.017 155.988 117.801 155.855 115.585C157.574 114.592 157.938 113.236 157.938 113.236L158.301 111.88L157.805 111.02L159.028 109.167C160.251 107.315 159.754 106.455 160.614 105.959C160.977 104.603 160.844 102.387 161.207 101.03C161.074 98.8145 161.438 97.4584 161.305 95.2424C161.535 91.6704 160.542 89.9508 160.905 88.5946L161.269 87.2385L160.772 86.3787C160.276 85.5189 160.639 84.1627 160.143 83.3029C159.646 82.4431 160.01 81.087 159.513 80.2272L159.017 79.3674C158.52 78.5076 159.38 78.0113 158.884 77.1515L158.387 76.2917C157.891 75.4319 157.891 75.4319 157.394 74.5721C156.898 73.7123 157.261 72.3561 156.765 71.4964C156.268 70.6366 156.268 70.6366 156.632 69.2804C156.135 68.4206 156.995 67.9243 156.499 67.0645C156.002 66.2047 156.002 66.2047 155.506 65.3449C155.009 64.4851 155.009 64.4851 154.513 63.6253C154.017 62.7655 153.52 61.9057 153.024 61.0459L152.527 60.1861C152.031 59.3263 152.031 59.3263 151.535 58.4665L151.038 57.6067L150.542 56.7469C150.045 55.8871 149.549 55.0273 149.053 54.1675C148.06 52.448 146.207 51.2247 145.215 49.5051C143.725 46.9257 141.376 44.8427 138.168 43.256C135.952 43.3889 134.099 42.1657 133.107 40.4461C131.254 39.2229 129.402 37.9996 128.046 37.6362C125.333 36.9093 122.984 34.8262 120.272 34.0993C117.56 33.3725 116.204 33.009 113.492 32.2821C112.136 31.9187 110.283 30.6954 108.067 30.8283C106.711 30.4649 103.999 29.738 104.362 28.3819C102.643 29.3746 101.287 29.0111 99.9306 28.6477C98.5745 28.2842 98.5745 28.2842 98.0781 27.4244C97.5817 26.5646 98.0781 27.4244 97.2184 27.9208C96.3587 28.4171 96.3587 28.4171 95.0026 28.0537C93.6465 27.6902 93.6465 27.6902 92.2904 27.3268C91.4306 27.8232 91.4306 27.8232 90.0745 27.4597C90.0745 27.4597 89.2148 27.9561 88.7184 27.0963L87.8587 27.5926C86.999 28.089 85.6429 27.7255 84.7832 28.2219C83.9235 28.7182 82.5674 28.3548 81.7077 28.8511C81.7077 28.8511 80.848 29.3475 80.3516 28.4877C80.3516 28.4877 79.8552 27.6279 78.9955 28.1243C77.6394 27.7608 78.1358 28.6206 78.1358 28.6206C78.1358 28.6206 77.6394 27.7608 76.7797 28.2572L75.92 28.7535L75.0603 29.2499C74.2006 29.7462 73.7042 28.8864 72.8444 29.3828C71.9847 29.8791 71.125 30.3755 70.2653 30.8718C69.4056 31.3681 68.5459 31.8645 67.6862 32.3609C66.8265 32.8572 66.4632 34.2134 66.4632 34.2134L65.1071 33.8499C64.2474 34.3463 64.2474 34.3463 63.3877 34.8426C61.6683 35.8353 61.6683 35.8353 61.305 37.1915ZM61.2079 42.9795C61.7043 43.8393 61.7043 43.8393 61.2079 42.9795V42.9795ZM58.3986 48.0406C57.9022 47.1808 60.118 47.0479 58.3986 48.0406C58.3986 48.0406 57.5389 48.537 58.3986 48.0406C57.5389 48.537 58.3986 48.0406 58.3986 48.0406ZM50.7944 54.7237C51.6541 54.2274 52.0174 52.8712 52.8771 52.3749C53.7368 51.8785 54.1001 50.5224 55.4562 50.8858C56.8123 51.2493 56.8123 51.2493 55.9526 51.7456L55.0929 52.242C54.7296 53.5981 53.0102 54.5908 52.1505 55.0872L51.2908 55.5835C50.4311 56.0799 49.9347 55.2201 50.7944 54.7237ZM31.6507 69.2155C32.1471 70.0753 32.1471 70.0753 31.6507 69.2155C32.1471 70.0753 32.1471 70.0753 31.6507 69.2155ZM32.4133 74.5072C31.0572 74.1437 30.9241 71.9278 31.2874 70.5717L30.791 69.7119L31.6507 69.2155L32.014 67.8594C32.8737 67.363 33.3701 68.2228 33.3701 68.2228C33.8665 69.0826 32.6435 70.9351 32.2802 72.2913C33.1399 71.7949 33.7694 74.8706 32.4133 74.5072ZM43.2261 69.4108C43.2261 69.4108 42.7297 68.551 43.093 67.1948C43.093 67.1948 43.9527 66.6985 43.4563 65.8387L43.8196 64.4825L44.6793 63.9862L45.0426 62.63C45.4059 61.2739 46.6289 59.4214 46.9922 58.0653C46.9922 58.0653 47.3555 56.7091 48.2152 56.2128L50.4311 56.0799C51.7872 56.4433 50.5642 58.2958 49.7045 58.7922C48.8448 59.2885 47.985 59.7848 48.4814 60.6446C48.4814 60.6446 48.1181 62.0008 48.6146 62.8606C48.2513 64.2167 47.7548 63.3569 47.3915 64.7131C46.5318 65.2094 46.1685 66.5656 46.1685 66.5656C45.8052 67.9217 45.8052 67.9217 45.4419 69.2779C44.0858 68.9144 42.8628 70.7669 43.2261 69.4108ZM33.7694 74.8706C34.2658 75.7304 33.4061 76.2268 33.9025 77.0866L33.5392 78.4427C33.0428 77.5829 33.0428 77.5829 33.9025 77.0866C33.4061 76.2268 33.4061 76.2268 33.7694 74.8706ZM29.8702 84.0002C28.5141 83.6368 29.3738 83.1404 29.3738 83.1404L29.7371 81.7843C29.2407 80.9245 29.1076 78.7085 29.9673 78.2122C30.827 77.7158 31.3234 78.5756 31.3234 78.5756C31.8198 79.4354 30.9601 79.9318 31.4565 80.7916C30.5968 81.2879 29.8702 84.0002 29.8702 84.0002ZM28.0537 90.7809C26.6976 90.4175 27.4242 87.7052 28.7803 88.0686C30.6328 89.2919 29.4098 91.1444 28.0537 90.7809ZM38.8665 85.6845C38.3701 84.8247 38.3701 84.8247 37.8737 83.9649L37.3773 83.1051C38.237 82.6088 37.8737 83.9649 37.8737 83.9649L38.8665 85.6845C40.2226 86.048 39.3629 86.5443 38.8665 85.6845ZM38.273 90.6128C39.1327 90.1164 39.1327 90.1164 38.273 90.6128C39.6291 90.9762 38.7694 91.4726 38.273 90.6128ZM27.9566 96.569C27.9566 96.569 29.3127 96.9324 27.9566 96.569C28.453 97.4288 28.453 97.4288 27.9566 96.569ZM32.2911 102.091C31.7947 101.231 31.7947 101.231 32.158 99.8752C32.6544 100.735 32.2911 102.091 32.2911 102.091C32.7875 102.951 32.2911 102.091 32.2911 102.091ZM33.5501 108.243C33.0537 107.383 33.0537 107.383 33.417 106.027C32.9206 105.167 32.9206 105.167 33.417 106.027C33.9134 106.887 34.0465 109.102 34.5429 109.962C33.6832 110.459 34.0465 109.102 33.5501 108.243ZM31.2372 114.164C32.0969 113.667 32.0969 113.667 31.2372 114.164C32.0969 113.667 31.2372 114.164 31.2372 114.164ZM35.3415 123.258C34.4818 123.754 32.9926 121.175 34.3487 121.538C34.8451 122.398 36.6976 123.621 35.3415 123.258ZM35.7048 121.902C35.2084 121.042 36.5645 121.405 35.7048 121.902C36.5645 121.405 36.2012 122.762 36.6976 123.621C37.0609 122.265 35.7048 121.902 35.7048 121.902ZM40.6688 130.5C39.3127 130.136 37.9566 129.773 37.4602 128.913C36.9638 128.053 37.8235 127.557 37.8235 127.557C37.3271 126.697 37.3271 126.697 37.3271 126.697C35.971 126.334 35.4746 125.474 35.8379 124.118L36.6976 123.621C36.6976 123.621 36.6976 123.621 37.0609 122.265C37.9206 121.769 37.9206 121.769 38.7803 121.272C38.2839 120.413 37.7875 119.553 36.7947 117.833C36.2983 116.974 36.1652 114.758 34.8091 114.394C34.4458 115.75 35.8019 116.114 36.2983 116.974C36.2983 116.974 37.2911 118.693 37.7875 119.553C36.9278 120.049 35.935 118.33 35.935 118.33C35.4386 117.47 34.5789 117.966 33.7192 118.463C33.2228 117.603 31.8667 117.239 32.7264 116.743C33.5861 116.247 33.5861 116.247 33.9494 114.89C33.453 114.031 32.9566 113.171 33.8163 112.675C34.1796 111.318 33.6832 110.459 34.5429 109.962C35.899 110.326 36.5285 113.401 37.0249 114.261C38.0177 115.981 38.5141 116.841 39.5069 118.56C40.4997 120.28 41.4925 121.999 41.9889 122.859C42.4854 123.719 43.4782 125.439 43.1149 126.795C42.2552 127.291 42.2552 127.291 41.8919 128.647C41.5286 130.003 42.025 130.863 40.6688 130.5ZM53.4062 142.634C53.4062 142.634 52.9098 141.775 52.0501 142.271C51.5537 141.411 51.5537 141.411 51.5537 141.411C51.0573 140.551 51.0573 140.551 50.1976 141.048C49.3379 141.544 49.7012 140.188 49.7012 140.188L49.2048 139.328L47.8487 138.965C47.3523 138.105 48.212 137.609 47.7156 136.749C47.2192 135.889 47.2192 135.889 46.7228 135.029C46.0933 131.953 47.5825 134.533 47.5825 134.533C48.0789 135.393 49.9314 136.616 50.4278 137.476C52.2803 138.699 52.7767 139.559 53.7695 141.278L54.2659 142.138L53.4062 142.634ZM67.3306 144.913C65.6112 145.905 64.122 143.326 65.8414 142.333C66.7011 141.837 67.1975 142.697 67.1975 142.697L67.6939 143.557C68.1903 144.416 67.3306 144.913 67.3306 144.913ZM62.3055 150.107C61.8091 149.247 62.6688 148.751 63.1652 149.61L62.3055 150.107ZM65.7443 148.121C66.604 147.625 66.604 147.625 65.7443 148.121V148.121ZM67.0033 154.273C66.1436 154.769 63.4314 154.042 63.7947 152.686L64.6544 152.19L65.5141 151.693C66.3738 151.197 65.8774 150.337 67.2335 150.701C67.2335 150.701 67.7299 151.561 69.086 151.924C69.086 151.924 70.4421 152.287 70.9385 153.147C71.4349 154.007 70.0788 153.644 70.0788 153.644C70.0788 153.644 70.0788 153.644 69.5824 152.784L68.2263 152.42C65.1508 153.05 66.5069 153.413 67.0033 154.273C66.5069 153.413 67.0033 154.273 67.0033 154.273ZM75.5032 155.097C74.6435 155.594 74.1471 154.734 73.2874 155.23C72.4277 155.727 72.4277 155.727 71.0716 155.363C71.0716 155.363 70.5752 154.503 71.4349 154.007C71.4349 154.007 72.791 154.37 73.2874 155.23C73.6507 153.874 75.0068 154.238 75.5032 155.097C76.3629 154.601 76.3629 154.601 75.5032 155.097C76.3629 154.601 75.5032 155.097 75.5032 155.097ZM75.7694 159.529C76.6291 159.033 76.6291 159.033 75.7694 159.529C77.1256 159.893 77.1256 159.893 75.7694 159.529ZM114.855 143.841C114.855 143.841 115.219 142.485 116.575 142.849C117.071 143.708 115.352 144.701 114.855 143.841ZM94.9851 161.045C94.1254 161.542 93.2657 162.038 91.9096 161.675C90.5535 161.311 91.0499 162.171 90.1902 162.667C88.4708 163.66 89.1974 160.948 87.478 161.94C86.6183 162.437 86.6183 162.437 86.1219 161.577C85.6255 160.717 85.6255 160.717 84.7658 161.214C84.7658 161.214 84.2694 160.354 83.4097 160.85L81.1939 160.983L81.5572 159.627C81.9205 158.271 82.4169 159.131 83.2766 158.634C85.8557 157.145 86.3521 158.005 87.2118 157.509C88.5679 157.872 89.0643 158.732 89.924 158.235C89.924 158.235 89.924 158.235 91.2801 158.599C92.1398 158.103 92.1398 158.103 92.1398 158.103C92.9995 157.606 94.3556 157.97 94.852 158.829C94.852 158.829 95.3484 159.689 95.8448 160.549C95.8448 160.549 95.4815 161.905 94.9851 161.045ZM115.485 146.917C115.485 146.917 116.708 145.065 117.204 145.924C117.701 146.784 115.485 146.917 115.485 146.917ZM101.996 159.291C102.856 158.794 103.352 159.654 103.352 159.654C102.492 160.15 102.492 160.15 101.996 159.291C101.136 159.787 101.136 159.787 101.996 159.291ZM100.64 158.927L101.136 159.787C101.136 159.787 100.276 160.283 99.4168 160.78C98.5571 161.276 97.2009 160.913 96.7045 160.053C96.2081 159.193 96.5714 157.837 97.9276 158.2L98.424 159.06C99.2837 158.564 99.7801 159.423 100.64 158.927ZM139.157 126.371C140.15 128.091 137.075 128.72 136.711 130.076L136.348 131.433L135.488 131.929C134.629 132.425 134.265 133.781 133.406 134.278L132.546 134.774L132.183 136.13L131.323 136.627C130.463 137.123 131.819 137.486 130.96 137.983C130.1 138.479 130.1 138.479 129.604 137.619C129.604 137.619 128.744 138.116 128.247 137.256C127.388 137.752 127.388 137.752 127.884 138.612C127.157 141.324 126.298 141.821 125.438 142.317C124.578 142.813 123.355 144.666 122.363 142.946C121.866 142.086 124.445 140.597 124.445 140.597L125.305 140.101L125.668 138.745C126.528 138.249 126.528 138.249 127.388 137.752C128.247 137.256 128.247 137.256 129.107 136.76C129.967 136.263 129.967 136.263 130.827 135.767C131.686 135.27 131.19 134.411 132.05 133.914C132.909 133.418 133.769 132.922 134.132 131.565L134.496 130.209C135.355 129.713 135.355 129.713 135.355 129.713C136.215 129.217 135.719 128.357 135.719 128.357L136.082 127.001C136.942 126.504 138.298 126.868 139.157 126.371ZM151.315 91.8385C151.315 91.8385 151.812 92.6983 150.952 93.1947C151.812 92.6983 151.315 91.8385 151.315 91.8385ZM132.912 52.0221C131.556 51.6587 130.2 51.2953 129.704 50.4355C129.704 50.4355 128.348 50.072 127.851 49.2122C127.355 48.3524 127.355 48.3524 128.711 48.7159C130.067 49.0793 130.564 49.9391 131.92 50.3026C132.416 51.1623 133.276 50.666 132.912 52.0221C133.772 51.5258 133.409 52.8819 132.912 52.0221ZM140.092 60.4872C139.596 59.6274 137.247 57.5444 138.107 57.048C137.61 56.1882 133.905 53.7417 134.765 53.2454C135.625 52.749 136.617 54.4686 136.617 54.4686C137.114 55.3284 138.47 55.6919 138.966 56.5517C139.463 57.4115 139.959 58.2712 140.456 59.131C140.456 59.131 140.952 59.9908 140.092 60.4872C140.952 59.9908 140.092 60.4872 140.092 60.4872ZM138.833 54.3357C138.833 54.3357 142.538 56.7822 141.679 57.2786C140.819 57.7749 139.33 55.1955 138.833 54.3357ZM142.671 58.9981C143.531 58.5018 144.028 59.3616 144.028 59.3616C144.028 59.3616 144.524 60.2214 144.028 59.3616C143.664 60.7177 142.671 58.9981 142.671 58.9981ZM142.441 62.5702C142.441 62.5702 141.085 62.2068 141.945 61.7104L142.805 61.2141L142.441 62.5702ZM143.071 65.646C141.715 65.2825 141.582 63.0666 143.434 64.2898C145.65 64.1569 144.427 66.0094 143.071 65.646ZM130.528 41.9351C132.38 43.1584 134.233 44.3816 136.085 45.6049C137.938 46.8281 139.79 48.0513 140.783 49.7709C141.279 50.6307 141.776 51.4905 141.776 51.4905C142.272 52.3503 143.132 51.854 143.628 52.7138C144.984 53.0772 144.621 54.4334 145.977 54.7968C146.474 55.6566 146.97 56.5164 147.963 58.236C148.459 59.0958 148.956 59.9556 149.452 60.8154C149.948 61.6752 150.445 62.535 150.941 63.3948C150.941 63.3948 151.438 64.2545 150.578 64.7509C151.074 65.6107 151.074 65.6107 151.074 65.6107C151.571 66.4705 152.067 67.3303 152.563 68.1901L153.06 69.0499L153.556 69.9097C154.053 70.7695 154.549 71.6293 155.045 72.4891C155.542 73.3488 156.038 74.2086 156.535 75.0684C156.535 75.0684 157.031 75.9282 157.528 76.788C157.528 76.788 156.668 77.2844 155.808 77.7807C154.452 77.4173 154.815 76.0611 154.319 75.2013C153.822 74.3415 153.326 73.4817 153.689 72.1256C153.193 71.2658 153.556 69.9097 153.06 69.0499C151.074 65.6107 149.089 62.1715 147.103 58.7323C145.117 55.2931 142.272 52.3503 139.427 49.4075C138.93 48.5477 138.434 47.6879 137.078 47.3244C136.581 46.4647 136.581 46.4647 135.225 46.1012L134.729 45.2414L135.589 44.7451C135.589 44.7451 136.448 44.2487 135.092 43.8853C134.596 43.0255 132.876 44.0182 131.52 43.6547C131.52 43.6547 131.024 42.7949 130.528 41.9351C130.528 41.9351 130.031 41.0753 129.535 40.2156C129.038 39.3558 128.675 40.7119 127.319 40.3485C128.445 44.284 130.031 41.0753 130.528 41.9351ZM95.1717 38.2736C95.1717 38.2736 96.0314 37.7773 95.1717 38.2736C96.0314 37.7773 96.5278 38.6371 95.1717 38.2736ZM100.596 39.7274C100.1 38.8676 102.316 38.7347 101.952 40.0908L100.596 39.7274ZM104.168 39.9579C103.672 39.0981 104.531 38.6018 105.028 39.4616L105.524 40.3214C105.524 40.3214 105.524 40.3214 104.168 39.9579ZM108.236 41.0483C107.377 41.5446 107.74 40.1885 108.6 39.6921C109.956 40.0556 109.592 41.4117 108.236 41.0483ZM110.949 41.7751C110.949 41.7751 111.808 41.2788 110.949 41.7751C111.808 41.2788 111.808 41.2788 110.949 41.7751ZM118.189 36.4482C119.546 36.8116 121.398 38.0349 122.754 38.3983C123.251 39.2581 124.11 38.7618 124.607 39.6216C125.103 40.4814 129.171 41.5717 128.312 42.068C127.452 42.5644 126.956 41.7046 126.956 41.7046C126.956 41.7046 126.459 40.8448 125.6 41.3412L124.74 41.8375C123.88 42.3339 124.243 40.9777 124.243 40.9777C123.747 40.1179 122.887 40.6143 122.028 41.1106C120.671 40.7472 120.671 40.7472 119.315 40.3837C117.959 40.0203 117.959 40.0203 116.603 39.6568C115.61 37.9373 116.833 36.0848 118.189 36.4482ZM85.9091 32.1574C88.9846 31.5282 92.0601 30.8989 95.6321 31.1294C97.8479 30.9965 100.56 31.7234 102.776 31.5905C104.992 31.4576 107.704 32.1845 109.06 32.5479C110.416 32.9114 111.772 33.2748 113.625 34.4981C114.121 35.3579 116.337 35.225 115.477 35.7213L114.618 36.2177C113.758 36.714 113.758 36.714 112.402 36.3506C109.69 35.6237 106.977 34.8968 103.405 34.6663C100.693 33.9394 97.1213 33.7088 94.9055 33.8417C93.5494 33.4783 91.3335 33.6112 90.4738 34.1075C89.6141 34.6039 89.1177 33.7441 88.258 34.2404C87.3983 34.7368 86.0422 34.3734 86.0422 34.3734L85.5458 33.5136C85.5458 33.5136 85.5458 33.5135 86.4055 33.0172C86.4055 33.0172 87.7616 33.3806 87.2652 32.5209C89.481 32.3879 86.4055 33.0172 85.9091 32.1574ZM84.1897 33.1501C84.1897 33.1501 84.6861 34.0099 84.1897 33.1501C83.33 33.6465 84.1897 33.1501 84.1897 33.1501ZM81.6106 34.6392C82.4703 34.1428 82.107 35.499 81.6106 34.6392C81.2473 35.9953 80.3876 36.4917 79.8912 35.6319C79.8912 35.6319 79.0315 36.1282 79.3948 34.7721C79.3948 34.7721 80.7509 35.1355 81.6106 34.6392ZM73.7402 36.8904C73.7402 36.8904 74.5999 36.394 75.4596 35.8977L76.3193 35.4013L76.8157 36.2611C76.8157 36.2611 76.8157 36.2611 75.956 36.7575C75.0963 37.2538 73.7402 36.8904 72.0208 37.8831C71.1611 38.3794 71.1611 38.3794 70.3014 38.8758C70.3014 38.8758 67.7222 40.3648 67.2258 39.505C66.7294 38.6452 68.4488 37.6525 69.3085 37.1562C71.161 38.3794 72.0208 37.8831 73.7402 36.8904ZM76.3193 35.4013C75.4596 35.8977 75.4596 35.8977 76.3193 35.4013C75.4596 35.8977 75.4596 35.8977 76.3193 35.4013Z" fill="url(#paint0_linear)"/>
<path d="M54.7652 61.6024C54.2688 60.7426 54.2688 60.7426 53.4091 61.239C52.5494 61.7353 51.6897 62.2317 51.3264 63.5878L50.1034 65.4403C49.2437 65.9367 49.7401 66.7965 50.5998 66.3001C51.4595 65.8038 51.8228 64.4476 52.6825 63.9513C54.4019 62.9586 54.4019 62.9586 54.7652 61.6024Z" fill="url(#paint1_linear)"/>
<path d="M122.063 49.1142C123.056 50.8338 124.412 51.1973 126.265 52.4205C126.761 53.2803 128.117 53.6437 128.117 53.6437C128.614 54.5035 129.97 54.867 129.97 54.867C130.466 55.7268 130.963 56.5866 131.822 56.0902C131.822 56.0902 133.178 56.4537 132.682 55.5939L132.186 54.7341C131.689 53.8743 130.333 53.5108 129.837 52.651C127.984 51.4278 127.488 50.568 125.635 49.3448C123.916 50.3375 123.916 50.3375 122.063 49.1142C123.419 49.4777 122.923 48.6179 122.063 49.1142Z" fill="url(#paint2_linear)"/>
<path d="M67.8909 50.585C68.2542 49.2289 65.6751 50.7179 64.8154 51.2143C63.9557 51.7107 63.096 52.207 62.2363 52.7034C61.3766 53.1997 61.3766 53.1997 60.5169 53.6961C60.5169 53.6961 59.6572 54.1924 59.2939 55.5485C59.7903 56.4083 60.1536 55.0522 60.1536 55.0522C61.0133 54.5558 61.873 54.0595 63.096 52.207C63.9557 51.7106 63.9557 51.7107 64.8154 51.2143C66.1715 51.5777 67.8909 50.585 67.8909 50.585Z" fill="url(#paint3_linear)"/>
<path d="M51.7154 40.4364C52.0787 39.0803 50.3593 40.073 51.7154 40.4364C49.996 41.4291 49.1363 41.9254 48.2766 42.4218C46.5572 43.4145 47.0536 44.2743 47.1867 46.4902C48.4097 44.6377 50.4924 42.2889 51.7154 40.4364Z" fill="url(#paint4_linear)"/>
<path d="M56.3768 36.5973C56.8732 37.4571 55.1538 38.4498 56.0135 37.9535C56.5099 38.8133 57.3696 38.3169 57.7329 36.9608C58.5926 36.4644 58.0962 35.6046 58.0962 35.6046C57.5998 34.7448 58.4595 34.2485 57.9631 33.3887C57.5998 34.7448 56.7401 35.2412 56.3768 36.5973Z" fill="url(#paint5_linear)"/>
<path d="M101.694 146.855C100.835 147.351 99.4786 146.988 98.6189 147.484C97.7592 147.981 96.4031 147.617 95.047 147.254C95.047 147.254 94.1873 147.75 93.6909 146.89L92.3348 146.527C91.475 147.023 93.6909 146.89 93.6909 146.89C96.4031 147.617 99.4786 146.988 101.694 146.855Z" fill="url(#paint6_linear)"/>
<path d="M71.266 143.788C70.9027 145.144 71.7624 144.648 73.1185 145.011C74.971 146.234 71.266 143.788 73.1185 145.011C73.1185 145.011 73.6149 145.871 74.4746 145.374L75.3343 144.878L74.8379 144.018C73.1185 145.011 71.266 143.788 71.266 143.788Z" fill="url(#paint7_linear)"/>
<path d="M80.758 146.331C80.2616 145.471 80.2616 145.471 78.9055 145.108C78.0458 145.604 76.6897 145.241 77.1861 146.101C78.0458 145.604 79.4019 145.968 80.758 146.331C79.4019 145.968 81.2544 147.191 80.758 146.331Z" fill="url(#paint8_linear)"/>
<path d="M84.4634 148.778C84.9598 149.638 85.8195 149.142 86.3159 150.001C86.3159 150.001 88.1684 151.225 89.0281 150.728C90.2512 148.876 84.4634 148.778 84.4634 148.778Z" fill="url(#paint9_linear)"/>
<path d="M51.6186 46.2236C52.4783 45.7273 53.338 45.2309 53.7013 43.8748L52.8416 44.3711L52.3452 43.5113C52.3452 43.5113 51.4855 44.0077 51.9819 44.8675C52.4783 45.7273 51.9819 44.8675 52.4783 45.7273C51.1222 45.3638 50.7588 46.72 51.6186 46.2236Z" fill="url(#paint10_linear)"/>
<path d="M91.9705 147.883C91.1108 148.379 91.2439 150.595 92.1036 150.099C93.4597 150.462 93.3266 148.246 91.9705 147.883Z" fill="url(#paint11_linear)"/>
<path d="M116.07 30.7928C116.566 31.6526 117.426 31.1562 118.782 31.5197C118.782 31.5197 118.782 31.5197 119.642 31.0233L119.146 30.1635L118.286 30.6599C118.286 30.6599 118.286 30.6599 116.93 30.2964C116.93 30.2964 114.714 30.4293 116.07 30.7928Z" fill="url(#paint12_linear)"/>
<path d="M44.8734 52.4103C44.377 51.5505 44.7403 50.1943 45.6 49.698C44.7403 50.1943 43.5173 52.0468 44.8734 52.4103C44.0137 52.9066 44.8734 52.4103 44.8734 52.4103Z" fill="url(#paint13_linear)"/>
<path d="M50.8274 144.123C50.8274 144.123 48.6116 144.256 49.108 145.116C49.108 145.116 50.4641 145.479 51.3238 144.983C51.8202 145.842 52.1835 144.486 50.8274 144.123Z" fill="url(#paint14_linear)"/>
<path d="M100.967 149.567C101.464 150.427 100.967 149.567 100.967 149.567C100.471 148.708 99.6112 149.204 99.6112 149.204C99.6112 149.204 98.7515 149.7 100.108 150.064C100.108 150.064 100.108 150.064 100.967 149.567Z" fill="url(#paint15_linear)"/>
<path d="M141.29 80.4309C142.15 79.9345 142.646 80.7943 141.29 80.4309C142.15 79.9345 142.15 79.9345 142.15 79.9345C141.654 79.0747 141.29 80.4309 141.29 80.4309Z" fill="url(#paint16_linear)"/>
<path d="M48.1539 70.0044C49.0136 69.508 49.0136 69.508 48.1539 70.0044C49.0136 69.508 48.5172 68.6483 48.1539 70.0044C47.6575 69.1446 48.1539 70.0044 48.1539 70.0044Z" fill="url(#paint17_linear)"/>
<path d="M39.2193 54.5282C38.3596 55.0245 38.856 55.8843 39.7157 55.388C39.7157 55.388 39.5826 53.172 39.2193 54.5282Z" fill="url(#paint18_linear)"/>
<path d="M124.208 32.9739C123.711 32.1141 123.711 32.1141 122.852 32.6104C123.348 33.4702 123.348 33.4702 124.208 32.9739Z" fill="url(#paint19_linear)"/>
<path d="M76.6897 145.241C76.1933 144.381 76.5566 143.025 76.6897 145.241C76.1933 144.381 76.1933 144.381 76.6897 145.241C76.1933 144.381 76.1933 144.381 76.6897 145.241Z" fill="url(#paint20_linear)"/>
<path d="M89.755 148.016C91.1111 148.38 89.755 148.016 89.755 148.016V148.016Z" fill="url(#paint21_linear)"/>
<path d="M54.5934 132.778C55.4531 132.281 55.4531 132.281 54.5934 132.778C54.9567 131.422 54.5934 132.778 54.5934 132.778Z" fill="url(#paint22_linear)"/>
<path d="M80.8917 148.546C80.3953 147.687 80.3953 147.687 80.8917 148.546C80.032 149.043 80.8917 148.546 80.8917 148.546Z" fill="url(#paint23_linear)"/>
<path d="M72.9858 142.795C72.4894 141.935 71.6297 142.431 72.9858 142.795C72.1261 143.291 72.1261 143.291 72.9858 142.795Z" fill="url(#paint24_linear)"/>
<path d="M42.7916 54.7593C43.1549 53.4031 43.1549 53.4031 42.7916 54.7593V54.7593Z" fill="url(#paint25_linear)"/>
<path d="M57.1723 131.289C56.3126 131.785 55.8162 130.925 57.1723 131.289C56.3126 131.785 56.3126 131.785 57.1723 131.289Z" fill="url(#paint26_linear)"/>
<path d="M91.333 33.6105C91.8294 34.4703 93.5488 33.4776 93.0524 32.6178C92.556 31.758 90.8366 32.7507 91.333 33.6105Z" fill="url(#paint27_linear)"/>
<path d="M95.7652 33.3453C96.2616 34.2051 97.981 33.2124 97.981 33.2124C98.8407 32.716 96.6249 32.8489 95.7652 33.3453Z" fill="url(#paint28_linear)"/>
<path d="M109.69 35.6243C109.69 35.6243 109.193 34.7644 109.69 35.6243C109.193 34.7644 108.334 35.2608 108.334 35.2608L109.69 35.6243Z" fill="url(#paint29_linear)"/>
<path d="M104.264 34.1691C104.761 35.0289 105.124 33.6728 104.264 34.1691C103.768 33.3093 104.264 34.1691 104.264 34.1691Z" fill="url(#paint30_linear)"/>
<path d="M94.9052 33.8408C95.2685 32.4847 94.4088 32.981 94.9052 33.8408V33.8408Z" fill="url(#paint31_linear)"/>
<path d="M40.8992 126.928C40.4028 126.068 39.41 124.348 39.0467 125.704C39.0467 125.704 39.5431 126.564 40.0395 127.424C40.5359 128.284 40.5359 128.284 40.8992 126.928C41.3956 127.787 41.3956 127.787 40.8992 126.928Z" fill="url(#paint32_linear)"/>
</g>
<defs>
<linearGradient id="paint0_linear" x1="36.1041" y1="128.55" x2="153.024" y2="61.0459" gradientUnits="userSpaceOnUse">
<stop stop-color="#F36E2A"/>
<stop offset="1" stop-color="#FEBD66"/>
</linearGradient>
<linearGradient id="paint1_linear" x1="49.2104" y1="65.3827" x2="55.0134" y2="62.0323" gradientUnits="userSpaceOnUse">
<stop stop-color="#F36E2A"/>
<stop offset="1" stop-color="#FEBD66"/>
</linearGradient>
<linearGradient id="paint2_linear" x1="124.904" y1="54.0342" x2="130.062" y2="51.0561" gradientUnits="userSpaceOnUse">
<stop stop-color="#F36E2A"/>
<stop offset="1" stop-color="#FEBD66"/>
</linearGradient>
<linearGradient id="paint3_linear" x1="59.156" y1="55.3097" x2="67.9261" y2="50.2463" gradientUnits="userSpaceOnUse">
<stop stop-color="#F36E2A"/>
<stop offset="1" stop-color="#FEBD66"/>
</linearGradient>
<linearGradient id="paint4_linear" x1="46.2559" y1="44.8781" x2="52.522" y2="41.2604" gradientUnits="userSpaceOnUse">
<stop stop-color="#F36E2A"/>
<stop offset="1" stop-color="#FEBD66"/>
</linearGradient>
<linearGradient id="paint5_linear" x1="55.2143" y1="37.1252" x2="58.8938" y2="35.0008" gradientUnits="userSpaceOnUse">
<stop stop-color="#F36E2A"/>
<stop offset="1" stop-color="#FEBD66"/>
</linearGradient>
<linearGradient id="paint6_linear" x1="93.335" y1="148.815" x2="100.453" y2="144.706" gradientUnits="userSpaceOnUse">
<stop stop-color="#F36E2A"/>
<stop offset="1" stop-color="#FEBD66"/>
</linearGradient>
<linearGradient id="paint7_linear" x1="71.6545" y1="145.283" x2="74.5897" y2="143.588" gradientUnits="userSpaceOnUse">
<stop stop-color="#F36E2A"/>
<stop offset="1" stop-color="#FEBD66"/>
</linearGradient>
<linearGradient id="paint8_linear" x1="77.6438" y1="146.893" x2="80.2229" y2="145.404" gradientUnits="userSpaceOnUse">
<stop stop-color="#F36E2A"/>
<stop offset="1" stop-color="#FEBD66"/>
</linearGradient>
<linearGradient id="paint9_linear" x1="85.4562" y1="150.498" x2="88.4413" y2="148.774" gradientUnits="userSpaceOnUse">
<stop stop-color="#F36E2A"/>
<stop offset="1" stop-color="#FEBD66"/>
</linearGradient>
<linearGradient id="paint10_linear" x1="50.7661" y1="45.5694" x2="53.7013" y2="43.8748" gradientUnits="userSpaceOnUse">
<stop stop-color="#F36E2A"/>
<stop offset="1" stop-color="#FEBD66"/>
</linearGradient>
<linearGradient id="paint11_linear" x1="91.3187" y1="149.562" x2="92.8906" y2="148.654" gradientUnits="userSpaceOnUse">
<stop stop-color="#F36E2A"/>
<stop offset="1" stop-color="#FEBD66"/>
</linearGradient>
<linearGradient id="paint12_linear" x1="116.215" y1="31.6005" x2="119.035" y2="29.9725" gradientUnits="userSpaceOnUse">
<stop stop-color="#F36E2A"/>
<stop offset="1" stop-color="#FEBD66"/>
</linearGradient>
<linearGradient id="paint13_linear" x1="43.9949" y1="51.7711" x2="46.0964" y2="50.5578" gradientUnits="userSpaceOnUse">
<stop stop-color="#F36E2A"/>
<stop offset="1" stop-color="#FEBD66"/>
</linearGradient>
<linearGradient id="paint14_linear" x1="49.3487" y1="145.533" x2="51.4502" y2="144.319" gradientUnits="userSpaceOnUse">
<stop stop-color="#F36E2A"/>
<stop offset="1" stop-color="#FEBD66"/>
</linearGradient>
<linearGradient id="paint15_linear" x1="99.5876" y1="150.046" x2="100.829" y2="149.329" gradientUnits="userSpaceOnUse">
<stop stop-color="#F36E2A"/>
<stop offset="1" stop-color="#FEBD66"/>
</linearGradient>
<linearGradient id="paint16_linear" x1="141.29" y1="80.4309" x2="142.15" y2="79.9345" gradientUnits="userSpaceOnUse">
<stop stop-color="#F36E2A"/>
<stop offset="1" stop-color="#FEBD66"/>
</linearGradient>
<linearGradient id="paint17_linear" x1="48.0436" y1="69.8133" x2="48.6884" y2="69.4411" gradientUnits="userSpaceOnUse">
<stop stop-color="#F36E2A"/>
<stop offset="1" stop-color="#FEBD66"/>
</linearGradient>
<linearGradient id="paint18_linear" x1="38.7532" y1="55.21" x2="39.7801" y2="54.6171" gradientUnits="userSpaceOnUse">
<stop stop-color="#F36E2A"/>
<stop offset="1" stop-color="#FEBD66"/>
</linearGradient>
<linearGradient id="paint19_linear" x1="123.1" y1="33.0403" x2="123.96" y2="32.544" gradientUnits="userSpaceOnUse">
<stop stop-color="#F36E2A"/>
<stop offset="1" stop-color="#FEBD66"/>
</linearGradient>
<linearGradient id="paint20_linear" x1="76.4031" y1="144.744" x2="76.7852" y2="144.524" gradientUnits="userSpaceOnUse">
<stop stop-color="#F36E2A"/>
<stop offset="1" stop-color="#FEBD66"/>
</linearGradient>
<linearGradient id="paint21_linear" x1="89.8653" y1="148.207" x2="90.2474" y2="147.987" gradientUnits="userSpaceOnUse">
<stop stop-color="#F36E2A"/>
<stop offset="1" stop-color="#FEBD66"/>
</linearGradient>
<linearGradient id="paint22_linear" x1="54.483" y1="132.587" x2="55.1278" y2="132.215" gradientUnits="userSpaceOnUse">
<stop stop-color="#F36E2A"/>
<stop offset="1" stop-color="#FEBD66"/>
</linearGradient>
<linearGradient id="paint23_linear" x1="80.3235" y1="148.445" x2="80.7056" y2="148.224" gradientUnits="userSpaceOnUse">
<stop stop-color="#F36E2A"/>
<stop offset="1" stop-color="#FEBD66"/>
</linearGradient>
<linearGradient id="paint24_linear" x1="72.1549" y1="142.845" x2="72.7996" y2="142.472" gradientUnits="userSpaceOnUse">
<stop stop-color="#F36E2A"/>
<stop offset="1" stop-color="#FEBD66"/>
</linearGradient>
<linearGradient id="paint25_linear" x1="42.6054" y1="54.4369" x2="43.2502" y2="54.0646" gradientUnits="userSpaceOnUse">
<stop stop-color="#F36E2A"/>
<stop offset="1" stop-color="#FEBD66"/>
</linearGradient>
<linearGradient id="paint26_linear" x1="56.4172" y1="131.47" x2="57.062" y2="131.098" gradientUnits="userSpaceOnUse">
<stop stop-color="#F36E2A"/>
<stop offset="1" stop-color="#FEBD66"/>
</linearGradient>
<linearGradient id="paint27_linear" x1="91.333" y1="33.6105" x2="93.0524" y2="32.6178" gradientUnits="userSpaceOnUse">
<stop stop-color="#F36E2A"/>
<stop offset="1" stop-color="#FEBD66"/>
</linearGradient>
<linearGradient id="paint28_linear" x1="96.0134" y1="33.7752" x2="97.9671" y2="32.6472" gradientUnits="userSpaceOnUse">
<stop stop-color="#F36E2A"/>
<stop offset="1" stop-color="#FEBD66"/>
</linearGradient>
<linearGradient id="paint29_linear" x1="108.582" y1="35.6907" x2="109.442" y2="35.1943" gradientUnits="userSpaceOnUse">
<stop stop-color="#F36E2A"/>
<stop offset="1" stop-color="#FEBD66"/>
</linearGradient>
<linearGradient id="paint30_linear" x1="104.264" y1="34.1691" x2="104.646" y2="33.9485" gradientUnits="userSpaceOnUse">
<stop stop-color="#F36E2A"/>
<stop offset="1" stop-color="#FEBD66"/>
</linearGradient>
<linearGradient id="paint31_linear" x1="94.7191" y1="33.5184" x2="95.1012" y2="33.2978" gradientUnits="userSpaceOnUse">
<stop stop-color="#F36E2A"/>
<stop offset="1" stop-color="#FEBD66"/>
</linearGradient>
<linearGradient id="paint32_linear" x1="39.6616" y1="126.769" x2="40.5213" y2="126.273" gradientUnits="userSpaceOnUse">
<stop stop-color="#F36E2A"/>
<stop offset="1" stop-color="#FEBD66"/>
</linearGradient>
<clipPath id="clip0">
<rect width="138" height="136" fill="white" transform="translate(69 187.512) rotate(-120)"/>
</clipPath>
</defs>
</svg>
