<svg width="187" height="188" viewBox="0 0 187 188" fill="none" xmlns="http://www.w3.org/2000/svg">
<g clip-path="url(#clip0)">
<path d="M60.6662 149.824C62.0223 149.461 62.5187 148.601 63.0151 147.741C63.5115 146.882 64.5043 145.162 65.0007 144.302C65.4971 143.442 65.9935 142.583 66.9863 140.863C67.4827 140.003 66.623 139.507 65.7633 139.011C63.1842 137.521 61.9612 135.669 59.3821 134.18C56.803 132.691 55.5799 130.838 53.0008 129.349C52.1411 128.853 51.7778 127.497 50.9181 127C50.0584 126.504 49.6951 125.148 48.8354 124.652C47.9757 124.155 47.6124 122.799 46.7527 122.303C46.7527 122.303 45.893 121.806 46.3894 120.947C46.3894 120.947 45.5297 120.45 46.0261 119.59L46.5225 118.731C46.5225 118.731 46.5225 118.731 47.0189 117.871C47.0189 117.871 47.0189 117.871 46.6556 116.515C45.7959 116.018 45.7959 116.018 45.7959 116.018C44.9362 115.522 44.5729 114.166 44.2096 112.81C43.8463 111.454 42.9866 110.957 42.6233 109.601C42.26 108.245 40.6737 105.036 41.1701 104.177C41.6665 103.317 42.5262 103.813 42.1629 102.457L41.7996 101.101C42.296 100.241 41.4363 99.7447 41.9327 98.8849L41.5694 97.5287C40.7097 97.0324 40.7097 97.0324 40.7097 97.0324C40.3464 95.6762 40.3464 95.6762 40.8428 94.8164C41.3392 93.9566 40.8428 94.8164 40.4795 93.4603C39.6198 92.9639 40.1162 92.1041 39.7529 90.748L39.3896 89.3919C39.3896 89.3919 39.886 88.5321 39.5227 87.1759C39.1594 85.8198 39.6558 84.96 39.2925 83.6038C38.9292 82.2477 39.4256 81.3879 39.922 80.5281C40.4184 79.6683 40.4184 79.6683 40.4184 79.6683L40.0551 78.3121L40.5515 77.4524C41.0479 76.5926 41.0479 76.5926 40.6846 75.2364C41.181 74.3766 40.8177 73.0205 41.3141 72.1607C41.8105 71.3009 41.8105 71.3009 41.8105 71.3009C42.3069 70.4411 42.3069 70.4411 42.8033 69.5813C43.2997 68.7215 43.2997 68.7215 43.7961 67.8617C44.2925 67.0019 44.2925 67.0019 44.7889 66.1421C45.2853 65.2823 45.2853 65.2823 45.7817 64.4225L46.2781 63.5627L47.1378 64.0591C47.6343 63.1993 47.6343 63.1993 48.1307 62.3395C48.6271 61.4797 49.1235 60.6199 49.6199 59.7601C50.1163 58.9003 51.4724 58.5369 51.9688 57.6771C52.4652 56.8173 52.4652 56.8173 52.4652 56.8173C52.9616 55.9575 52.9616 55.9575 53.458 55.0977C53.9544 54.2379 55.3105 53.8744 55.8069 53.0146C56.3033 52.1549 57.6594 51.7914 58.6522 50.0718C59.1486 49.212 59.645 48.3522 60.1414 47.4924C60.6378 46.6326 61.4975 47.129 61.4975 47.129C61.9939 46.2692 63.35 45.9057 63.8464 45.046C63.8464 45.046 64.3428 44.1862 65.2025 44.6825C66.5586 44.3191 67.0551 43.4593 68.4112 43.0958C68.9076 42.236 70.2637 41.8726 70.7601 41.0128L72.1162 40.6493L72.6126 39.7895C73.109 38.9298 74.4651 38.5663 74.4651 38.5663C75.3248 39.0627 74.8284 39.9224 76.1845 39.559L76.6809 38.6992C76.6809 38.6992 77.5406 39.1956 78.037 38.3358C79.3931 37.9723 79.0298 36.6162 79.8895 37.1125C81.2456 36.7491 82.965 37.7418 84.3211 37.3783C84.3211 37.3783 84.8176 36.5185 85.6773 37.0149L87.0334 36.6514C88.3895 36.288 89.2492 36.7844 90.6053 36.4209C91.1017 35.5611 91.9614 36.0575 92.8211 36.5538C93.6808 37.0502 93.6808 37.0502 94.1772 36.1904C94.1772 36.1904 95.5333 35.8269 96.393 36.3233C97.2527 36.8196 95.0369 36.6867 95.0369 36.6867C94.5405 37.5465 93.1844 37.91 91.8283 38.2734C90.9686 37.7771 89.6125 38.1405 89.6125 38.1405C89.1161 39.0003 89.1161 39.0003 87.76 39.3637L86.9003 38.8674L85.5441 39.2308C84.188 39.5943 82.8319 39.9577 81.9722 39.4614C80.6161 39.8248 79.26 40.1883 77.9039 40.5517C76.5478 40.9152 75.1917 41.2786 73.8356 41.642C72.4795 42.0055 71.9831 42.8653 71.4867 43.7251C70.1306 44.0885 70.1306 44.0885 68.7745 44.452C68.2781 45.3118 66.922 45.6752 66.0623 45.1789C65.2026 44.6825 64.7061 45.5423 64.2097 46.4021C63.2169 48.1217 61.8608 48.4851 60.0083 49.7084C59.5119 50.5682 58.1558 50.9316 57.6594 51.7914C54.8141 54.7342 52.4652 56.8173 50.4796 60.2564C49.9832 61.1162 49.4868 61.976 48.494 63.6956C47.9976 64.5554 47.5011 65.4152 47.0047 66.275C47.5011 65.4152 48.494 63.6956 48.9904 62.8358C49.4868 61.976 50.4796 60.2564 50.976 59.3967C51.4724 58.5369 51.4724 58.5369 52.8285 58.1734C53.3249 57.3136 54.1846 57.81 54.1846 57.81C54.681 56.9502 55.1774 56.0904 55.1774 56.0904C55.6738 55.2306 56.1702 54.3708 57.0299 54.8671C58.0227 53.1475 59.3788 52.7841 60.7349 52.4207C61.2313 51.5609 62.091 52.0572 62.5874 51.1974C63.0838 50.3376 63.0838 50.3376 64.4399 49.9742C64.4399 49.9742 64.4399 49.9742 64.9363 49.1144C64.9363 49.1144 64.9363 49.1144 66.2924 48.7509C66.7889 47.8911 66.7889 47.8912 67.6486 48.3875L68.5083 48.8838C67.6486 48.3875 68.6414 46.6679 68.6414 46.6679C69.1378 45.8081 71.3536 45.941 71.85 45.0812C73.7025 43.858 75.0586 43.4945 75.555 42.6347L76.9111 42.2713C77.7708 42.7677 78.2672 41.9079 78.7636 41.0481C80.6161 39.8248 82.8319 39.9577 85.5441 39.2308C86.4039 39.7272 86.9003 38.8674 87.76 39.3637C87.76 39.3637 88.6197 39.8601 89.1161 39.0003L89.9758 39.4966L90.4722 38.6369C91.3319 39.1332 93.0513 40.1259 94.4074 39.7625C95.7635 39.399 97.4829 40.3917 98.839 40.0283C100.195 39.6648 101.915 40.6575 103.271 40.2941C104.13 40.7904 104.13 40.7904 104.99 41.2868C105.85 41.7831 104.99 41.2868 105.85 41.7831C106.346 40.9233 107.206 41.4197 107.206 41.4197C108.066 41.916 109.422 41.5526 110.281 42.0489C112.86 43.538 115.936 44.1673 118.515 45.6563C120.235 46.649 121.094 47.1454 122.814 48.1381C124.533 49.1308 125.393 49.6271 127.112 50.6198C127.112 50.6198 127.972 51.1162 128.832 51.6125C129.691 52.1089 129.328 50.7527 130.188 51.2491C130.684 50.3893 132.767 52.7381 130.551 52.6052C130.914 53.9614 131.774 54.4577 132.634 54.9541C133.493 55.4504 133.857 56.8066 134.716 57.3029C134.353 55.9468 132.137 55.8138 132.27 53.5979L132.767 52.7381C132.767 52.7381 133.626 53.2345 134.486 53.7308C135.346 54.2272 136.569 56.0797 137.429 56.576C138.288 57.0724 137.792 57.9322 138.288 57.0724C138.785 56.2126 138.785 56.2126 139.644 56.7089C140.504 57.2053 141.364 57.7016 140.867 58.5614C141.727 59.0578 142.587 59.5541 142.587 59.5541C143.447 60.0505 142.95 60.9103 143.81 61.4066C144.67 61.903 144.173 62.7628 145.033 63.2591C145.893 63.7555 147.116 65.6079 147.479 66.9641L147.842 68.3202C148.205 69.6764 148.205 69.6764 149.065 70.1727C149.925 70.6691 149.428 71.5289 149.792 72.885C148.799 74.6046 149.659 75.101 150.022 76.4571C150.385 77.8133 150.749 79.1694 151.112 80.5256C150.615 81.3853 150.615 81.3853 150.979 82.7415C150.979 82.7415 151.342 84.0976 152.202 84.594C152.202 84.594 151.705 85.4538 152.565 85.9501L153.425 86.4465C154.284 86.9428 152.928 87.3063 152.928 87.3063C152.432 88.1661 153.292 88.6624 152.795 89.5222C152.299 90.382 151.439 89.8857 151.439 89.8857C150.943 90.7455 150.943 90.7455 150.943 90.7455L150.446 91.6053C149.587 91.1089 149.587 91.1089 148.727 90.6126C148.727 90.6126 148.231 91.4723 147.734 92.3321C147.238 93.1919 148.097 93.6883 148.097 93.6883C147.601 94.5481 147.601 94.5481 147.964 95.9042C147.964 95.9042 147.964 95.9042 147.468 96.764L146.972 97.6238L147.335 98.98C145.482 100.203 143.993 102.783 146.209 102.915C146.209 102.915 147.565 102.552 147.069 103.412C146.572 104.272 145.713 103.775 145.713 103.775C145.713 103.775 144.356 104.139 144.72 105.495C144.72 105.495 146.439 106.488 146.936 105.628C147.432 104.768 147.432 104.768 147.928 103.908C148.425 103.048 148.425 103.048 148.921 102.189C149.418 101.329 149.914 100.469 149.054 99.9727C149.054 99.9727 148.195 99.4763 148.691 98.6165C148.691 98.6165 148.691 98.6165 149.187 97.7567C149.187 97.7567 149.187 97.7567 149.684 96.8969C150.18 96.0371 148.957 94.1846 151.173 94.3175C151.173 94.3175 152.033 94.8139 152.892 95.3102L152.396 96.17L151.9 97.0298C151.9 97.0298 151.9 97.0298 151.403 97.8896C151.403 97.8896 152.263 98.386 151.766 99.2458C151.27 100.106 151.27 100.106 150.774 100.965C150.774 100.965 150.774 100.965 151.137 102.322C151.137 102.322 150.641 103.181 151.5 103.678C150.144 104.041 150.011 106.257 149.018 107.977C147.892 111.912 146.403 114.492 145.277 118.427C144.284 120.147 143.292 121.866 142.299 123.586C141.802 124.446 141.306 125.305 140.313 127.025C139.817 127.885 138.461 128.248 138.461 128.248C137.964 129.108 137.468 129.968 136.971 130.828C136.971 130.828 135.119 132.051 135.615 131.191C135.615 131.191 136.112 130.331 136.608 129.472C137.105 128.612 137.601 127.752 138.097 126.892C139.09 125.173 140.083 123.453 141.076 121.733C142.069 120.014 143.061 118.294 144.054 116.575C144.551 115.715 145.047 114.855 145.543 113.995C144.684 113.499 145.18 112.639 145.18 112.639L144.32 112.143L144.817 111.283C145.313 110.423 145.81 109.563 145.446 108.207C144.09 108.571 144.95 109.067 144.454 109.927C143.957 110.787 143.097 110.29 143.097 110.29L142.601 111.15C142.105 112.01 141.608 112.87 141.608 112.87C141.112 113.729 140.615 114.589 140.979 115.945C140.482 116.805 139.986 117.665 139.489 118.525L138.993 119.385L137.637 119.748C137.141 120.608 136.644 121.468 137.504 121.964C137.371 124.18 135.518 125.403 134.525 127.123L134.029 127.982L133.533 128.842L133.036 129.702C132.54 130.562 132.54 130.562 132.043 131.422C126.486 135.091 123.641 138.034 119.572 139.125C110.806 144.381 99.9573 147.288 88.8782 146.624C87.5221 146.987 86.166 147.351 84.4466 146.358C83.5869 145.862 83.0905 146.722 82.2308 146.225L81.3711 145.729C81.3711 145.729 80.5114 145.233 80.015 146.092C79.1553 145.596 77.7992 145.959 76.9394 145.463C76.0797 144.967 74.7236 145.33 74.3603 143.974C73.0042 144.337 71.2848 143.345 70.4251 142.848C69.5654 142.352 67.4827 140.003 66.1266 140.367C65.6302 141.226 65.1338 142.086 64.6374 142.946C64.141 143.806 63.6446 144.666 63.1482 145.525C62.6518 146.385 62.1554 147.245 62.1554 147.245C63.0151 147.741 63.8748 148.238 64.7345 148.734L65.5942 149.23C65.5942 149.23 66.4539 149.727 66.9503 148.867C67.81 149.363 68.6697 149.86 70.0258 149.496C70.8855 149.993 70.8855 149.993 71.7452 150.489C72.6049 150.985 73.4646 151.482 74.3243 151.978C75.184 152.474 76.0437 152.971 77.3998 152.607C78.2596 153.104 79.6157 152.74 80.4754 153.237C81.3351 153.733 82.6912 153.369 82.6912 153.369C83.5509 153.866 84.5437 152.146 84.907 153.502C84.907 153.502 84.907 153.502 85.7667 153.999C85.7667 153.999 87.1228 153.635 87.9825 154.132C88.8422 154.628 90.1983 154.264 91.058 154.761C91.9177 155.257 92.7774 155.754 92.7774 155.754C92.7774 155.754 93.2738 154.894 94.1335 155.39L94.9932 155.886C93.6371 156.25 91.4213 156.117 90.0652 156.48C89.2055 155.984 87.8494 156.348 87.8494 156.348C86.4933 156.711 87.353 157.207 88.2127 157.704C90.4285 157.837 93.504 158.466 96.2162 157.739C97.0759 158.235 97.5723 157.375 98.432 157.872C99.2918 158.368 100.648 158.005 100.151 158.865C99.6551 159.724 99.6551 159.724 98.7953 159.228L97.4392 159.591L96.5795 159.095L95.2234 159.459C93.8673 159.822 93.8673 159.822 92.5112 160.185C91.6515 159.689 90.2954 160.052 90.2954 160.052L91.1551 160.549C91.1551 160.549 91.1551 160.549 92.5112 160.185L93.3709 160.682C94.2306 161.178 94.727 160.318 95.2234 159.459C96.5795 159.095 96.5795 159.095 97.4392 159.591C98.2989 160.088 98.2989 160.088 98.7953 159.228C99.2918 158.368 99.6551 159.724 101.011 159.361C103.227 159.494 105.939 158.767 107.792 157.544C110.504 156.817 111.86 156.453 113.713 155.23C115.069 154.867 115.565 154.007 116.921 153.643C118.277 153.28 118.774 152.42 120.13 152.057C121.486 151.693 121.486 151.693 122.842 151.33C124.198 150.966 124.198 150.966 125.554 150.603C125.421 152.819 126.777 152.455 127.274 151.596C127.274 151.596 127.77 150.736 128.63 151.232C129.126 150.372 129.126 150.372 130.482 150.009C131.342 150.505 132.831 147.926 134.187 147.562C137.396 145.976 140.241 143.033 141.73 140.454L142.227 139.594C142.723 138.734 142.723 138.734 144.079 138.371C144.576 137.511 145.072 136.651 145.568 135.791C146.065 134.931 146.561 134.072 147.058 133.212C148.051 131.492 149.043 129.773 150.896 128.549C151.392 127.69 151.889 126.83 152.385 125.97C152.881 125.11 153.378 124.25 153.874 123.391C154.371 122.531 154.007 121.175 154.007 121.175C154.504 120.315 154.504 120.315 155 119.455C155.497 118.595 155.497 118.595 155.993 117.735C156.489 116.876 157.482 115.156 157.119 113.8C158.112 112.08 158.608 111.221 159.601 109.501C159.601 109.501 159.601 109.501 160.097 108.641C160.594 107.781 159.734 107.285 158.874 106.789L157.022 108.012C157.022 108.012 157.881 108.508 157.385 109.368C157.385 109.368 156.889 110.228 157.748 110.724C157.252 111.584 156.756 112.444 156.259 113.304L155.763 114.163L154.407 114.527C154.407 114.527 154.407 114.527 154.77 115.883L154.274 116.743C153.777 117.603 153.281 118.462 153.281 118.462C153.281 118.462 151.925 118.826 151.065 118.329C150.205 117.833 151.198 116.114 151.198 116.114C151.694 115.254 150.835 114.757 152.191 114.394L152.687 113.534C153.184 112.674 153.68 111.815 153.317 110.458C155.169 109.235 155.666 108.375 156.162 107.516C156.658 106.656 157.155 105.796 156.792 104.44C156.428 103.084 156.065 101.728 156.065 101.728C156.561 100.868 157.421 101.364 157.421 101.364C158.281 101.86 158.281 101.86 159.14 102.357C159.14 102.357 158.644 103.217 159.504 103.713L160.86 103.349C162.216 102.986 161.126 98.9176 160.763 97.5615C159.903 97.0651 160.763 97.5615 160.266 98.4213C159.77 99.2811 159.274 100.141 159.274 100.141C157.058 100.008 157.554 99.1481 156.694 98.6518C156.331 97.2956 155.968 95.9395 156.464 95.0797C156.961 94.2199 157.457 93.3601 157.457 93.3601L157.953 92.5003C158.45 91.6405 157.953 92.5003 158.813 92.9967C158.813 92.9967 159.673 93.493 159.176 94.3528C159.176 94.3528 159.54 95.709 160.399 96.2053C163.112 95.4784 161.162 90.9136 161.162 90.9136C160.799 89.5575 159.939 89.0611 160.436 88.2013C160.932 87.3416 161.428 86.4818 160.569 85.9854C161.065 85.1256 160.205 84.6293 160.702 83.7695C160.338 82.4133 159.842 83.2731 158.982 82.7768C158.123 82.2804 157.759 80.9243 158.256 80.0645C158.389 77.8485 160.605 77.9814 159.745 77.4851C160.241 76.6253 159.878 75.2691 159.878 75.2691C159.515 73.913 159.151 72.5569 158.788 71.2007C157.928 70.7044 158.425 69.8446 158.061 68.4884L157.202 67.9921C157.202 67.9921 156.342 67.4957 156.838 66.6359L157.831 64.9163L157.468 63.5602C156.112 63.9236 155.749 62.5675 155.749 62.5675C154.889 62.0711 154.526 60.715 153.666 60.2186C152.08 57.01 150.493 53.8014 147.551 50.9562C147.188 49.6 145.965 47.7475 144.245 46.7548C143.022 44.9023 141.799 43.0498 139.22 41.5608C138.36 41.0644 137.501 40.5681 136.641 40.0717C136.278 38.7156 135.418 38.2192 134.558 37.7229C133.698 37.2265 133.202 38.0863 132.342 37.59C131.483 37.0936 132.839 36.7302 131.979 36.2338C131.119 35.7375 130.26 35.2411 129.4 34.7448C128.044 35.1082 128.044 35.1082 127.547 35.968C127.051 36.8278 127.051 36.8278 127.051 36.8278L127.911 37.3242L128.77 37.8205C128.77 37.8205 129.63 38.3169 130.49 38.8132C130.853 40.1694 129.134 39.1767 128.274 38.6803C127.414 38.184 126.555 37.6876 125.695 37.1913C124.835 36.6949 123.976 36.1986 123.116 35.7022C121.396 34.7095 118.817 33.2205 117.098 32.2278C115.379 31.2351 113.163 31.1021 111.443 30.1094C110.087 30.4729 105.656 30.2071 101.224 29.9413C100.364 29.4449 99.0081 29.8084 96.7923 29.6755C95.9326 29.1791 95.4362 30.0389 94.5765 29.5425C93.2204 29.906 92.3607 29.4096 91.8643 30.2694C91.0046 29.7731 90.5082 30.6329 89.6485 30.1365C88.7888 29.6402 88.2924 30.5 87.4327 30.0036C87.4327 30.0036 86.0766 30.3671 85.2169 29.8707C84.3572 29.3744 83.8608 30.2342 82.5046 30.5976C82.5046 30.5976 81.6449 30.1013 81.1485 30.9611C79.7924 31.3245 79.7924 31.3245 78.4363 31.6879C76.5838 32.9112 74.368 32.7783 73.0119 33.1417C71.1594 34.365 69.8033 34.7284 67.0911 35.4553C65.735 35.8187 63.8824 37.042 63.386 37.9018C62.8896 38.7616 61.5335 39.125 61.0371 39.9848C59.1846 41.2081 57.3321 42.4313 55.4796 43.6545C54.9832 44.5143 53.6271 44.8778 53.1307 45.7376C52.271 45.2412 51.2782 46.9608 50.4185 46.4645C49.5588 45.9681 50.4185 46.4645 50.4185 46.4645L50.9149 45.6047L51.4113 44.7449C51.9077 43.8851 53.2638 43.5216 53.7602 42.6618C55.6127 41.4386 57.4652 40.2153 58.8213 39.8519C59.3177 38.9921 60.6738 38.6287 61.1702 37.7689C61.6666 36.9091 62.5263 37.4054 63.8824 37.042L64.3788 36.1822L64.8753 35.3224L65.735 35.8187L67.0911 35.4553C68.0839 33.7357 68.5803 32.8759 70.4328 31.6527C71.7889 31.2892 72.6486 31.7856 72.6486 31.7856L73.145 30.9258L74.5011 30.5623C75.8572 30.1989 76.3536 29.3391 77.2133 29.8354C79.0658 28.6122 79.9255 29.1086 81.2816 28.7451C83.4975 28.878 85.35 27.6548 87.5658 27.7877C88.9219 27.4242 88.9219 27.4242 89.7816 27.9206C90.6413 28.4169 90.6413 28.4169 91.501 28.9133C92.3607 29.4096 91.9974 28.0535 92.8571 28.5499L94.2132 28.1864C94.7096 27.3266 96.9254 27.4595 98.2815 27.0961C99.1412 27.5924 99.6376 26.7326 100.497 27.229C101.357 27.7253 101.357 27.7253 102.217 28.2217C104.069 26.9984 104.929 27.4948 106.648 28.4875C107.508 28.9838 108.368 29.4802 109.724 29.1167C110.584 29.6131 111.443 30.1094 112.799 29.746C114.519 30.7387 116.735 30.8716 118.454 31.8643C120.173 32.857 123.249 33.4863 124.968 34.479C124.968 34.479 125.828 34.9753 126.324 34.1155C126.821 33.2557 125.465 33.6192 124.605 33.1228C123.745 32.6265 122.886 32.1301 122.886 32.1301C122.026 31.6338 120.67 31.9972 119.81 31.5009C117.594 31.368 116.371 29.5155 114.156 29.3826C111.08 28.7533 108.004 28.124 104.929 27.4948C101.853 26.8655 98.7779 26.2363 95.7024 25.607C92.6269 24.9778 89.9147 25.7047 87.2025 26.4315C84.9867 26.2986 83.1341 27.5219 81.2816 28.7451C79.5622 27.7524 78.2061 28.1159 78.2061 28.1159L76.85 28.4793L76.3536 29.3391L74.1378 29.2062C71.922 29.0733 71.4256 29.9331 70.5659 29.4367C69.2098 29.8002 67.3573 31.0234 66.0012 31.3869C64.1487 32.6101 62.7925 32.9735 60.94 34.1968C57.7314 35.7835 56.7386 37.5031 55.3825 37.8665L54.0264 38.2299L53.53 39.0897C53.0336 39.9495 51.6775 40.313 51.1811 41.1728C50.6847 42.0326 49.3286 42.396 48.8322 43.2558L48.3358 44.1156C47.8394 44.9754 46.9797 44.4791 46.4833 45.3389L45.9869 46.1986C45.4905 47.0584 45.4905 47.0584 44.994 47.9182C44.4976 48.778 43.1415 49.1415 42.6451 50.0013C42.1487 50.8611 42.1487 50.8611 40.7926 51.2245C40.2962 52.0843 39.4365 51.588 38.9401 52.4478C38.4437 53.3075 38.4437 53.3075 37.9473 54.1673C37.4509 55.0271 37.4509 55.0271 36.9545 55.8869C36.4581 56.7467 35.9617 57.6065 35.4653 58.4663L34.9689 59.3261C34.4725 60.1859 34.4725 60.1859 33.9761 61.0457L33.4797 61.9055L32.9833 62.7653C32.4869 63.6251 31.9905 64.4849 31.4941 65.3447C30.5013 67.0643 30.3682 69.2802 29.3753 70.9998C27.8861 73.5792 27.2566 76.6549 27.4868 80.227C28.7098 82.0795 28.5767 84.2954 27.5839 86.015C27.4508 88.231 27.3177 90.4469 27.681 91.8031C28.4076 94.5154 27.7781 97.5911 28.5047 100.303C29.2313 103.016 29.5946 104.372 30.3212 107.084C30.6845 108.44 30.5514 110.656 31.7744 112.509C32.1377 113.865 32.8643 116.577 31.5082 116.941C33.2276 117.933 33.5909 119.289 33.9543 120.646C34.3176 122.002 34.3175 122.002 33.8211 122.861C33.3247 123.721 33.8211 122.861 34.6808 123.358C35.5406 123.854 35.5405 123.854 35.9038 125.21C36.2671 126.566 36.2671 126.566 36.6304 127.923C37.4902 128.419 37.4902 128.419 37.8535 129.775C37.8535 129.775 38.7132 130.271 38.2168 131.131L39.0765 131.628C39.9362 132.124 40.2995 133.48 41.1592 133.976C42.0189 134.473 42.3822 135.829 43.2419 136.325C43.2419 136.325 44.1016 136.822 43.6052 137.681C43.6052 137.681 43.1088 138.541 43.9685 139.038C44.3318 140.394 44.8282 139.534 44.8282 139.534C44.8282 139.534 44.3318 140.394 45.1915 140.89L46.0512 141.386L46.9109 141.883C47.7706 142.379 47.2742 143.239 48.1339 143.735C48.9936 144.232 49.8533 144.728 50.713 145.224C51.5727 145.721 52.4324 146.217 53.2921 146.713C54.1518 147.21 55.5079 146.846 55.5079 146.846L55.8712 148.202C56.7309 148.699 56.7309 148.699 57.5906 149.195C59.31 150.188 59.3101 150.188 60.6662 149.824ZM65.7273 147.014C66.2237 146.155 66.2237 146.155 65.7273 147.014V147.014ZM71.515 146.917C71.0186 147.777 69.7956 145.924 71.515 146.917C71.515 146.917 72.3747 147.413 71.515 146.917C72.3747 147.413 71.515 146.917 71.515 146.917ZM81.1049 150.161C80.2452 149.664 78.889 150.028 78.0293 149.532C77.1696 149.035 75.8135 149.399 75.4502 148.042C75.0869 146.686 75.0869 146.686 75.9466 147.183L76.8063 147.679C78.1625 147.316 79.8819 148.308 80.7416 148.805L81.6013 149.301C82.461 149.797 81.9646 150.657 81.1049 150.161ZM103.227 159.494C103.723 158.634 103.723 158.634 103.227 159.494C103.723 158.634 103.723 158.634 103.227 159.494ZM107.428 156.188C107.792 157.544 105.939 158.767 104.583 159.13L104.087 159.99L103.227 159.494L101.871 159.857C101.011 159.361 101.508 158.501 101.508 158.501C102.004 157.641 104.22 157.774 105.576 157.411C104.716 156.914 107.065 154.831 107.428 156.188ZM97.6083 149.372C97.6083 149.372 97.1119 150.231 95.7558 150.595C95.7558 150.595 94.8961 150.098 94.3997 150.958L93.0436 151.322L92.1839 150.825L90.8278 151.189C89.4717 151.552 87.2559 151.419 85.8998 151.783C85.8998 151.783 84.5437 152.146 83.684 151.65L82.461 149.797C82.0977 148.441 84.3135 148.574 85.1732 149.07C86.0329 149.567 86.8926 150.063 87.389 149.203C87.389 149.203 88.7451 148.84 89.2415 147.98C90.5976 147.617 90.1012 148.476 91.4573 148.113C92.317 148.609 93.6731 148.246 93.6731 148.246C95.0292 147.882 95.0292 147.882 96.3853 147.519C96.7486 148.875 98.9645 149.008 97.6083 149.372ZM107.065 154.831C107.561 153.972 108.421 154.468 108.918 153.608L110.274 153.245C109.777 154.104 109.777 154.104 108.918 153.608C108.421 154.468 108.421 154.468 107.065 154.831ZM116.921 153.643C117.284 155 116.425 154.503 116.425 154.503L115.069 154.867C114.572 155.726 112.72 156.95 111.86 156.453C111 155.957 111.497 155.097 111.497 155.097C111.993 154.237 112.853 154.734 113.349 153.874C114.209 154.37 116.921 153.643 116.921 153.643ZM123.702 151.826C124.065 153.182 121.353 153.909 120.989 152.553C121.123 150.337 123.338 150.47 123.702 151.826ZM113.882 145.01C113.385 145.87 113.385 145.87 112.889 146.73L112.392 147.59C111.533 147.093 112.889 146.73 112.889 146.73L113.882 145.01C113.518 143.654 114.378 144.15 113.882 145.01ZM118.446 143.06C117.587 142.564 117.587 142.564 118.446 143.06C118.083 141.704 118.943 142.2 118.446 143.06ZM128.763 149.016C128.763 149.016 128.4 147.66 128.763 149.016C129.259 148.156 129.259 148.156 128.763 149.016ZM131.378 142.501C130.882 143.361 130.882 143.361 129.525 143.725C130.022 142.865 131.378 142.501 131.378 142.501C131.874 141.642 131.378 142.501 131.378 142.501ZM136.076 138.335C135.579 139.195 135.579 139.195 134.223 139.559C133.727 140.418 133.727 140.418 134.223 139.559C134.72 138.699 136.572 137.475 137.069 136.616C137.928 137.112 136.572 137.475 136.076 138.335ZM142.36 137.378C141.5 136.881 141.5 136.881 142.36 137.378C141.5 136.881 142.36 137.378 142.36 137.378ZM148.184 129.276C149.043 129.773 147.554 132.352 147.191 130.996C147.687 130.136 147.82 127.92 148.184 129.276ZM146.828 129.64C146.331 130.499 145.968 129.143 146.828 129.64C145.968 129.143 147.324 128.78 147.82 127.92C146.464 128.284 146.828 129.64 146.828 129.64ZM151.792 121.042C152.155 122.398 152.518 123.754 152.022 124.614C151.525 125.474 150.666 124.977 150.666 124.977C150.169 125.837 150.169 125.837 150.169 125.837C150.533 127.193 150.036 128.053 148.68 128.416L147.82 127.92C147.82 127.92 147.82 127.92 146.464 128.284C145.605 127.787 145.605 127.787 144.745 127.291C144.248 128.151 143.752 129.01 142.759 130.73C142.263 131.59 140.41 132.813 140.774 134.169C142.13 133.806 141.766 132.45 142.263 131.59C142.263 131.59 143.256 129.87 143.752 129.01C144.612 129.507 143.619 131.226 143.619 131.226C143.122 132.086 143.982 132.583 144.842 133.079C144.345 133.939 144.709 135.295 143.849 134.798C142.989 134.302 142.989 134.302 141.633 134.666C141.137 135.525 140.64 136.385 139.781 135.889C138.425 136.252 137.928 137.112 137.069 136.616C136.705 135.26 139.054 133.177 139.551 132.317C140.543 130.597 141.04 129.737 142.033 128.018C143.025 126.298 144.018 124.579 144.515 123.719C145.011 122.859 146.004 121.139 147.36 120.776C148.22 121.272 148.22 121.272 149.576 120.909C150.932 120.545 151.428 119.686 151.792 121.042ZM155.932 103.943C155.932 103.943 155.435 104.803 156.295 105.3C155.799 106.159 155.799 106.159 155.799 106.159C155.302 107.019 155.302 107.019 156.162 107.516C157.022 108.012 155.666 108.375 155.666 108.375L155.169 109.235L155.533 110.591C155.036 111.451 154.176 110.955 153.68 111.815C153.184 112.674 153.184 112.674 152.687 113.534C150.338 115.617 151.828 113.038 151.828 113.038C152.324 112.178 152.457 109.962 152.953 109.102C153.087 106.886 153.583 106.027 154.576 104.307L155.072 103.447L155.932 103.943ZM150.943 90.7455C152.662 91.7382 151.173 94.3175 149.454 93.3248C148.594 92.8285 149.09 91.9687 149.09 91.9687L149.587 91.1089C150.083 90.2491 150.943 90.7455 150.943 90.7455ZM157.953 92.5003C157.457 93.3601 156.597 92.8638 157.094 92.004L157.953 92.5003ZM154.515 90.5149C153.655 90.0186 153.655 90.0186 154.515 90.5149V90.5149ZM159.212 86.3489C160.072 86.8452 160.799 89.5575 159.443 89.9209L158.583 89.4246L157.723 88.9282C156.864 88.4319 156.367 89.2917 156.004 87.9355C156.004 87.9355 156.5 87.0757 156.137 85.7196C156.137 85.7196 155.774 84.3635 156.27 83.5037C156.766 82.6439 157.13 84 157.13 84C157.13 84 157.13 84 156.633 84.8598L156.997 86.2159C159.079 88.5648 158.716 87.2086 159.212 86.3489C158.716 87.2086 159.212 86.3489 159.212 86.3489ZM155.677 78.5754C156.536 79.0718 156.04 79.9316 156.9 80.4279C157.759 80.9243 157.759 80.9243 158.123 82.2804C158.123 82.2804 157.626 83.1402 156.766 82.6439C156.766 82.6439 156.403 81.2877 156.9 80.4279C155.543 80.7914 155.18 79.4352 155.677 78.5754C154.817 78.0791 154.817 78.0791 155.677 78.5754C154.817 78.0791 155.677 78.5754 155.677 78.5754ZM159.382 76.1289C158.522 75.6326 158.522 75.6326 159.382 76.1289C159.018 74.7728 159.018 74.7728 159.382 76.1289ZM126.252 50.1235C126.252 50.1235 124.896 50.4869 124.533 49.1308C125.029 48.271 126.749 49.2637 126.252 50.1235ZM151.087 58.7296C151.946 59.2259 152.806 59.7223 153.169 61.0784C153.533 62.4346 154.029 61.5748 154.889 62.0711C156.608 63.0638 153.896 63.7907 155.615 64.7834C156.475 65.2798 156.475 65.2798 155.979 66.1396C155.482 66.9994 155.482 66.9994 156.342 67.4957C156.342 67.4957 155.846 68.3555 156.705 68.8519L157.928 70.7044L156.572 71.0678C155.216 71.4313 155.713 70.5715 154.853 70.0751C152.274 68.5861 152.77 67.7263 151.91 67.2299C151.547 65.8738 152.044 65.014 151.184 64.5176C151.184 64.5176 151.184 64.5176 150.821 63.1615C149.961 62.6651 149.961 62.6651 149.961 62.6651C149.101 62.1688 148.738 60.8126 149.234 59.9528C149.234 59.9528 149.731 59.093 150.227 58.2332C150.227 58.2332 151.583 57.8698 151.087 58.7296ZM128.601 48.0404C128.601 48.0404 126.386 47.9075 126.882 47.0477C127.378 46.1879 128.601 48.0404 128.601 48.0404ZM146.062 53.5355C145.202 53.0392 145.698 52.1794 145.698 52.1794C146.558 52.6758 146.558 52.6758 146.062 53.5355C146.921 54.0319 146.921 54.0319 146.062 53.5355ZM146.425 54.8917L146.921 54.0319C146.921 54.0319 147.781 54.5282 148.641 55.0246C149.5 55.521 149.864 56.8771 149.367 57.7369C148.871 58.5967 147.515 58.9601 147.152 57.604L147.648 56.7442C146.788 56.2478 147.285 55.388 146.425 54.8917ZM98.9721 37.8123C99.9649 36.0927 102.048 38.4416 103.404 38.0781L104.76 37.7147L105.62 38.211C106.479 38.7074 107.835 38.3439 108.695 38.8403L109.555 39.3367L110.911 38.9732L111.771 39.4696C112.63 39.9659 112.267 38.6098 113.127 39.1061C113.986 39.6025 113.986 39.6025 113.49 40.4623C113.49 40.4623 114.35 40.9586 113.853 41.8184C114.713 42.3148 114.713 42.3148 115.209 41.455C117.922 40.7281 118.781 41.2244 119.641 41.7208C120.501 42.2171 122.717 42.35 121.724 44.0696C121.227 44.9294 118.648 43.4404 118.648 43.4404L117.789 42.944L116.432 43.3075C115.573 42.8111 115.573 42.8111 114.713 42.3148C113.853 41.8184 113.853 41.8184 112.994 41.322C112.134 40.8257 112.134 40.8257 111.274 40.3294C110.414 39.833 109.918 40.6928 109.058 40.1964C108.199 39.7001 107.339 39.2037 105.983 39.5672L104.627 39.9306C103.767 39.4343 103.767 39.4343 103.767 39.4343C102.907 38.9379 102.411 39.7977 102.411 39.7977L101.055 40.1612C100.195 39.6648 99.8318 38.3087 98.9721 37.8123ZM62.9867 44.5496C62.9867 44.5496 63.4831 43.6898 64.3428 44.1862C63.4831 43.6898 62.9867 44.5496 62.9867 44.5496ZM37.7062 80.3952C38.0695 81.7513 38.4328 83.1075 37.9364 83.9673C37.9364 83.9673 38.2997 85.3234 37.8033 86.1832C37.3069 87.043 37.3069 87.043 36.9436 85.6869C36.5803 84.3307 37.0767 83.4709 36.7134 82.1148C37.2098 81.255 36.3501 80.7586 37.7062 80.3952C36.8465 79.8988 38.2026 79.5354 37.7062 80.3952ZM41.4472 69.9447C40.9508 70.8045 40.3213 73.8803 39.4616 73.3839C38.9652 74.2437 38.699 78.6756 37.8393 78.1792C36.9796 77.6829 37.9724 75.9633 37.9724 75.9633C38.4688 75.1035 38.1055 73.7474 38.6019 72.8876C39.0983 72.0278 39.5947 71.168 40.0911 70.3082C40.0911 70.3082 40.5875 69.4484 41.4472 69.9447C40.5875 69.4484 41.4472 69.9447 41.4472 69.9447ZM36.7494 74.1108C36.7494 74.1108 37.0156 69.6789 37.8753 70.1753C38.735 70.6716 37.2458 73.251 36.7494 74.1108ZM38.8681 68.4557C38.0084 67.9593 38.5048 67.0995 38.5048 67.0995C38.5048 67.0995 39.0012 66.2397 38.5048 67.0995C39.8609 66.7361 38.8681 68.4557 38.8681 68.4557ZM42.0767 66.869C42.0767 66.869 42.44 68.2251 41.5803 67.7288L40.7206 67.2324L42.0767 66.869ZM44.4256 64.786C44.7889 66.1421 42.9364 67.3654 43.0695 65.1494C41.8465 63.2969 44.0623 63.4298 44.4256 64.786ZM30.163 87.5041C30.2961 85.2881 30.4292 83.0722 30.5624 80.8563C30.6954 78.6403 30.8286 76.4244 31.8214 74.7048C32.3178 73.845 32.8142 72.9852 32.8142 72.9852C33.3106 72.1254 32.4509 71.6291 32.9473 70.7693C32.584 69.4131 33.9401 69.0497 33.5768 67.6935C34.0732 66.8337 34.5696 65.9739 35.5624 64.2543C36.0588 63.3946 36.5552 62.5348 37.0516 61.675C37.548 60.8152 38.0444 59.9554 38.5408 59.0956C38.5408 59.0956 39.0372 58.2358 39.8969 58.7321C40.3933 57.8723 40.3933 57.8723 40.3933 57.8723C40.8897 57.0125 41.3861 56.1527 41.8825 55.2929L42.3789 54.4331L42.8753 53.5734C43.3717 52.7136 43.8681 51.8538 44.3645 50.994C44.8609 50.1342 45.3573 49.2744 45.8537 48.4146C45.8537 48.4146 46.3501 47.5548 46.8466 46.695C46.8466 46.695 47.7062 47.1913 48.566 47.6877C48.9293 49.0438 47.5732 49.4073 47.0767 50.2671C46.5803 51.1269 46.0839 51.9867 44.7278 52.3501C44.2314 53.2099 42.8753 53.5734 42.3789 54.4331C40.3933 57.8723 38.4077 61.3115 36.4221 64.7507C34.4365 68.1899 33.3106 72.1254 32.1847 76.0609C31.6883 76.9207 31.1918 77.7805 31.5552 79.1367C31.0588 79.9965 31.0588 79.9965 31.4221 81.3526L30.9257 82.2124L30.0659 81.7161C30.0659 81.7161 29.2062 81.2197 29.5695 82.5758C29.0731 83.4356 30.7926 84.4283 31.1559 85.7845C31.1559 85.7845 30.6594 86.6443 30.163 87.5041C30.163 87.5041 29.6666 88.3639 29.1702 89.2237C28.6738 90.0835 30.0299 89.72 30.3932 91.0762C33.2386 88.1333 29.6666 88.3639 30.163 87.5041ZM44.67 119.954C44.67 119.954 43.8103 119.458 44.67 119.954C43.8103 119.458 44.3067 118.598 44.67 119.954ZM43.2168 114.529C42.7204 115.389 41.4974 113.537 42.8535 113.173L43.2168 114.529ZM41.6305 111.321C41.1341 112.181 40.2744 111.684 40.7708 110.824L41.2672 109.965C41.2672 109.965 41.2672 109.965 41.6305 111.321ZM40.5406 107.252C41.4003 107.749 40.0442 108.112 39.1845 107.616C38.8212 106.26 40.1773 105.896 40.5406 107.252ZM39.814 104.54C39.814 104.54 38.9543 104.044 39.814 104.54C38.9543 104.044 38.9543 104.044 39.814 104.54ZM31.5803 100.933C31.2169 99.5765 31.3501 97.3605 30.9867 96.0044C31.4831 95.1446 30.6234 94.6483 31.1198 93.7885C31.6163 92.9287 30.5263 88.8602 31.386 89.3566C32.2458 89.8529 31.7494 90.7127 31.7494 90.7127C31.7494 90.7127 31.2529 91.5725 32.1127 92.0689L32.9724 92.5652C33.8321 93.0616 32.476 93.425 32.476 93.425C31.9795 94.2848 32.8392 94.7812 33.699 95.2775C34.0623 96.6337 34.0623 96.6337 34.4256 97.9898C34.7889 99.3459 34.7889 99.3459 35.1522 100.702C34.1594 102.422 31.9436 102.289 31.5803 100.933ZM44.0045 131.034C41.9218 128.685 39.8391 126.336 38.2528 123.127C37.0298 121.275 36.3032 118.563 35.0802 116.71C33.8571 114.858 33.1305 112.145 32.7672 110.789C32.4039 109.433 32.0406 108.077 32.1737 105.861C32.6701 105.001 31.4471 103.149 32.3069 103.645L33.1665 104.141C34.0263 104.638 34.0263 104.638 34.3896 105.994C35.1162 108.706 35.8428 111.418 37.4291 114.627C38.1557 117.339 39.742 120.548 40.965 122.4C41.3283 123.757 42.5513 125.609 43.411 126.105C44.2707 126.602 43.7743 127.462 44.634 127.958C45.4937 128.454 45.857 129.81 45.857 129.81L45.3606 130.67C45.3606 130.67 45.3606 130.67 44.5009 130.174C44.5009 130.174 44.1376 128.818 43.6412 129.678C42.4182 127.825 44.5009 130.174 44.0045 131.034ZM45.7239 132.026C45.7239 132.026 46.2203 131.167 45.7239 132.026C46.5836 132.523 45.7239 132.026 45.7239 132.026ZM48.303 133.515C47.4433 133.019 48.7994 132.656 48.303 133.515C49.6591 133.152 50.5188 133.648 50.0224 134.508C50.0224 134.508 50.8821 135.004 49.526 135.368C49.526 135.368 49.1627 134.012 48.303 133.515ZM54.1878 139.206C54.1878 139.206 53.3281 138.709 52.4684 138.213L51.6087 137.717L52.1051 136.857C52.1051 136.857 52.1051 136.857 52.9648 137.353C53.8245 137.85 54.1878 139.206 55.9072 140.198C56.767 140.695 56.767 140.695 57.6267 141.191C57.6267 141.191 60.2058 142.68 59.7094 143.54C59.213 144.4 57.4935 143.407 56.6338 142.911C56.7669 140.695 55.9072 140.198 54.1878 139.206ZM51.6087 137.717C52.4684 138.213 52.4684 138.213 51.6087 137.717C52.4684 138.213 52.4684 138.213 51.6087 137.717Z" fill="url(#paint0_linear)"/>
<path d="M85.0765 143.283C84.5801 144.143 84.5801 144.143 85.4398 144.639C86.2995 145.135 87.1592 145.632 88.5153 145.268L90.7311 145.401C91.5908 145.897 92.0872 145.038 91.2275 144.541C90.3678 144.045 89.0117 144.408 88.152 143.912C86.4326 142.919 86.4326 142.919 85.0765 143.283Z" fill="url(#paint1_linear)"/>
<path d="M40.6123 91.2447C41.6052 89.5251 41.2419 88.1689 41.375 85.953C41.8714 85.0932 41.5081 83.737 41.5081 83.737C42.0045 82.8772 41.6412 81.5211 41.6412 81.5211C42.1376 80.6613 42.634 79.8015 41.7743 79.3052C41.7743 79.3052 41.411 77.949 40.9146 78.8088L40.4182 79.6686C39.9217 80.5284 40.285 81.8845 39.7886 82.7443C39.6555 84.9603 39.1591 85.8201 39.026 88.036C40.7455 89.0287 40.7454 89.0287 40.6123 91.2447C40.249 89.8885 39.7526 90.7483 40.6123 91.2447Z" fill="url(#paint2_linear)"/>
<path d="M68.9722 137.424C67.6161 137.787 70.1952 139.276 71.0549 139.773C71.9146 140.269 72.7743 140.766 73.634 141.262C74.4937 141.758 74.4937 141.758 75.3534 142.255C75.3534 142.255 76.2131 142.751 77.5692 142.387C78.0656 141.528 76.7095 141.891 76.7095 141.891C75.8498 141.395 74.9901 140.898 72.7743 140.766C71.9146 140.269 71.9146 140.269 71.0549 139.773C70.6916 138.417 68.9722 137.424 68.9722 137.424Z" fill="url(#paint3_linear)"/>
<path d="M68.271 156.507C66.9149 156.87 68.6343 157.863 68.271 156.507C69.9904 157.499 70.8501 157.996 71.7098 158.492C73.4292 159.485 73.9256 158.625 75.7781 157.402C73.5623 157.269 70.4868 156.64 68.271 156.507Z" fill="url(#paint4_linear)"/>
<path d="M62.616 154.389C63.1124 153.53 64.8318 154.522 63.9721 154.026C64.4685 153.166 63.6088 152.67 62.2527 153.033C61.393 152.537 60.8966 153.397 60.8966 153.397C60.4001 154.256 59.5404 153.76 59.044 154.62C60.4001 154.256 61.2599 154.753 62.616 154.389Z" fill="url(#paint5_linear)"/>
<path d="M135.443 60.0142C136.303 60.5106 136.666 61.8667 137.526 62.3631C138.386 62.8594 138.749 64.2156 139.112 65.5717C139.112 65.5717 139.972 66.0681 139.475 66.9279L139.839 68.284C140.698 68.7804 139.475 66.9279 139.475 66.9279C138.749 64.2156 136.666 61.8667 135.443 60.0142Z" fill="url(#paint6_linear)"/>
<path d="M148.001 87.8997C149.357 87.5362 148.497 87.0399 148.134 85.6837C148.267 83.4678 148.001 87.8997 148.134 85.6837C148.134 85.6837 148.63 84.8239 147.771 84.3276L146.911 83.8312L146.415 84.691C148.134 85.6837 148.001 87.8997 148.001 87.8997Z" fill="url(#paint7_linear)"/>
<path d="M145.457 78.4076C144.961 79.2674 144.961 79.2674 145.324 80.6235C146.184 81.1199 146.547 82.476 147.044 81.6162C146.184 81.1199 145.821 79.7637 145.457 78.4076C145.821 79.7637 145.954 77.5478 145.457 78.4076Z" fill="url(#paint8_linear)"/>
<path d="M145.724 73.9753C146.22 73.1155 145.361 72.6192 145.857 71.7594C145.857 71.7594 145.99 69.5434 145.13 69.0471C142.915 68.9142 145.724 73.9753 145.724 73.9753Z" fill="url(#paint9_linear)"/>
<path d="M73.3315 153.697C72.4718 153.201 71.6121 152.705 70.256 153.068L71.1157 153.564L70.6193 154.424C70.6193 154.424 71.479 154.92 71.9754 154.061C72.4718 153.201 71.9754 154.061 72.4718 153.201C72.8351 154.557 74.1912 154.194 73.3315 153.697Z" fill="url(#paint10_linear)"/>
<path d="M141.195 67.9219C142.055 68.4183 143.907 67.195 143.047 66.6987C142.684 65.3425 140.832 66.5658 141.195 67.9219Z" fill="url(#paint11_linear)"/>
<path d="M27.7421 105.596C28.2385 104.736 27.3788 104.24 27.0155 102.884C27.0155 102.884 27.0155 102.884 26.1558 102.388L25.6594 103.247L26.5191 103.744C26.5191 103.744 26.5191 103.744 26.8824 105.1C26.8824 105.1 28.1054 106.952 27.7421 105.596Z" fill="url(#paint12_linear)"/>
<path d="M82.0618 156.445C81.5654 157.305 80.2093 157.668 79.3496 157.172C80.2093 157.668 82.4251 157.801 82.0618 156.445C82.9215 156.941 82.0618 156.445 82.0618 156.445Z" fill="url(#paint13_linear)"/>
<path d="M158.511 105.432C158.511 105.432 159.734 107.285 160.23 106.425C160.23 106.425 159.867 105.069 159.007 104.572C159.503 103.713 158.147 104.076 158.511 105.432Z" fill="url(#paint14_linear)"/>
<path d="M138.155 59.2882C138.652 58.4284 138.155 59.2882 138.155 59.2882C137.659 60.148 138.519 60.6444 138.519 60.6444C138.519 60.6444 139.378 61.1407 139.015 59.7846C139.015 59.7846 139.015 59.7846 138.155 59.2882Z" fill="url(#paint15_linear)"/>
<path d="M58.1201 58.9354C57.2604 58.439 57.7568 57.5792 58.1201 58.9354C57.2604 58.439 57.2604 58.439 57.2604 58.439C56.764 59.2988 58.1201 58.9354 58.1201 58.9354Z" fill="url(#paint16_linear)"/>
<path d="M95.6586 144.807C94.7989 144.311 94.7989 144.311 95.6586 144.807C94.7989 144.311 94.3025 145.171 95.6586 144.807C95.1622 145.667 95.6586 144.807 95.6586 144.807Z" fill="url(#paint17_linear)"/>
<path d="M86.7232 160.283C87.5829 160.779 88.0793 159.919 87.2196 159.423C87.2196 159.423 85.3671 160.646 86.7232 160.283Z" fill="url(#paint18_linear)"/>
<path d="M25.5624 97.4578C25.066 98.3176 25.066 98.3176 25.9257 98.8139C26.4221 97.9541 26.4221 97.9541 25.5624 97.4578Z" fill="url(#paint19_linear)"/>
<path d="M146.547 82.4761C146.051 83.3359 144.695 83.6993 146.547 82.4761C146.051 83.3359 146.051 83.3359 146.547 82.4761C146.051 83.3359 146.051 83.3359 146.547 82.4761Z" fill="url(#paint20_linear)"/>
<path d="M142.418 69.7737C142.055 68.4176 142.418 69.7737 142.418 69.7737V69.7737Z" fill="url(#paint21_linear)"/>
<path d="M146.802 107.844C145.943 107.347 145.943 107.347 146.802 107.844C145.446 108.207 146.802 107.844 146.802 107.844Z" fill="url(#paint22_linear)"/>
<path d="M147.309 77.1842C146.813 78.044 146.813 78.044 147.309 77.1842C148.169 77.6805 147.309 77.1842 147.309 77.1842Z" fill="url(#paint23_linear)"/>
<path d="M146.281 86.907C145.784 87.7668 146.644 88.2632 146.281 86.907C147.141 87.4034 147.141 87.4034 146.281 86.907Z" fill="url(#paint24_linear)"/>
<path d="M85.1373 157.074C83.7812 157.437 83.7812 157.437 85.1373 157.074V157.074Z" fill="url(#paint25_linear)"/>
<path d="M144.223 106.355C145.083 106.851 144.587 107.711 144.223 106.355C145.083 106.851 145.083 106.851 144.223 106.355Z" fill="url(#paint26_linear)"/>
<path d="M42.551 125.61C43.0474 124.75 41.328 123.757 40.8316 124.617C40.3352 125.477 42.0546 126.469 42.551 125.61Z" fill="url(#paint27_linear)"/>
<path d="M40.1053 121.904C40.6017 121.044 38.8823 120.052 38.8823 120.052C38.0226 119.555 39.2456 121.408 40.1053 121.904Z" fill="url(#paint28_linear)"/>
<path d="M35.1164 108.706C35.1164 108.706 34.62 109.566 35.1164 108.706C34.62 109.566 35.4797 110.062 35.4797 110.062L35.1164 108.706Z" fill="url(#paint29_linear)"/>
<path d="M36.5692 114.132C37.0656 113.272 35.7095 113.635 36.5692 114.132C36.0728 114.991 36.5692 114.132 36.5692 114.132Z" fill="url(#paint30_linear)"/>
<path d="M40.9644 122.401C39.6083 122.764 40.468 123.261 40.9644 122.401V122.401Z" fill="url(#paint31_linear)"/>
<path d="M148.583 122.628C148.086 123.488 147.094 125.208 148.45 124.844C148.45 124.844 148.946 123.985 149.442 123.125C149.939 122.265 149.939 122.265 148.583 122.628C149.079 121.769 149.079 121.769 148.583 122.628Z" fill="url(#paint32_linear)"/>
</g>
<defs>
<linearGradient id="paint0_linear" x1="152.385" y1="125.97" x2="35.4653" y2="58.4663" gradientUnits="userSpaceOnUse">
<stop stop-color="#F36E2A"/>
<stop offset="1" stop-color="#FEBD66"/>
</linearGradient>
<linearGradient id="paint1_linear" x1="91.1277" y1="146.203" x2="85.3247" y2="142.853" gradientUnits="userSpaceOnUse">
<stop stop-color="#F36E2A"/>
<stop offset="1" stop-color="#FEBD66"/>
</linearGradient>
<linearGradient id="paint2_linear" x1="43.4529" y1="86.3247" x2="38.2947" y2="83.3466" gradientUnits="userSpaceOnUse">
<stop stop-color="#F36E2A"/>
<stop offset="1" stop-color="#FEBD66"/>
</linearGradient>
<linearGradient id="paint3_linear" x1="77.4313" y1="142.626" x2="68.6613" y2="137.563" gradientUnits="userSpaceOnUse">
<stop stop-color="#F36E2A"/>
<stop offset="1" stop-color="#FEBD66"/>
</linearGradient>
<linearGradient id="paint4_linear" x1="74.8474" y1="159.014" x2="68.5813" y2="155.396" gradientUnits="userSpaceOnUse">
<stop stop-color="#F36E2A"/>
<stop offset="1" stop-color="#FEBD66"/>
</linearGradient>
<linearGradient id="paint5_linear" x1="63.6543" y1="155.132" x2="59.9748" y2="153.008" gradientUnits="userSpaceOnUse">
<stop stop-color="#F36E2A"/>
<stop offset="1" stop-color="#FEBD66"/>
</linearGradient>
<linearGradient id="paint6_linear" x1="141.32" y1="66.2735" x2="134.202" y2="62.1637" gradientUnits="userSpaceOnUse">
<stop stop-color="#F36E2A"/>
<stop offset="1" stop-color="#FEBD66"/>
</linearGradient>
<linearGradient id="paint7_linear" x1="149.102" y1="86.8156" x2="146.166" y2="85.1209" gradientUnits="userSpaceOnUse">
<stop stop-color="#F36E2A"/>
<stop offset="1" stop-color="#FEBD66"/>
</linearGradient>
<linearGradient id="paint8_linear" x1="147.501" y1="80.8234" x2="144.922" y2="79.3344" gradientUnits="userSpaceOnUse">
<stop stop-color="#F36E2A"/>
<stop offset="1" stop-color="#FEBD66"/>
</linearGradient>
<linearGradient id="paint9_linear" x1="146.717" y1="72.2557" x2="143.732" y2="70.5323" gradientUnits="userSpaceOnUse">
<stop stop-color="#F36E2A"/>
<stop offset="1" stop-color="#FEBD66"/>
</linearGradient>
<linearGradient id="paint10_linear" x1="73.1912" y1="154.763" x2="70.256" y2="153.068" gradientUnits="userSpaceOnUse">
<stop stop-color="#F36E2A"/>
<stop offset="1" stop-color="#FEBD66"/>
</linearGradient>
<linearGradient id="paint11_linear" x1="142.975" y1="67.6469" x2="141.403" y2="66.7393" gradientUnits="userSpaceOnUse">
<stop stop-color="#F36E2A"/>
<stop offset="1" stop-color="#FEBD66"/>
</linearGradient>
<linearGradient id="paint12_linear" x1="28.3689" y1="105.066" x2="25.549" y2="103.438" gradientUnits="userSpaceOnUse">
<stop stop-color="#F36E2A"/>
<stop offset="1" stop-color="#FEBD66"/>
</linearGradient>
<linearGradient id="paint13_linear" x1="81.9475" y1="157.525" x2="79.846" y2="156.312" gradientUnits="userSpaceOnUse">
<stop stop-color="#F36E2A"/>
<stop offset="1" stop-color="#FEBD66"/>
</linearGradient>
<linearGradient id="paint14_linear" x1="160.471" y1="106.008" x2="158.369" y2="104.795" gradientUnits="userSpaceOnUse">
<stop stop-color="#F36E2A"/>
<stop offset="1" stop-color="#FEBD66"/>
</linearGradient>
<linearGradient id="paint15_linear" x1="139.259" y1="60.244" x2="138.017" y2="59.5271" gradientUnits="userSpaceOnUse">
<stop stop-color="#F36E2A"/>
<stop offset="1" stop-color="#FEBD66"/>
</linearGradient>
<linearGradient id="paint16_linear" x1="58.1201" y1="58.9354" x2="57.2604" y2="58.439" gradientUnits="userSpaceOnUse">
<stop stop-color="#F36E2A"/>
<stop offset="1" stop-color="#FEBD66"/>
</linearGradient>
<linearGradient id="paint17_linear" x1="95.5483" y1="144.998" x2="94.9035" y2="144.626" gradientUnits="userSpaceOnUse">
<stop stop-color="#F36E2A"/>
<stop offset="1" stop-color="#FEBD66"/>
</linearGradient>
<linearGradient id="paint18_linear" x1="87.5467" y1="160.346" x2="86.5198" y2="159.753" gradientUnits="userSpaceOnUse">
<stop stop-color="#F36E2A"/>
<stop offset="1" stop-color="#FEBD66"/>
</linearGradient>
<linearGradient id="paint19_linear" x1="26.1739" y1="98.384" x2="25.3142" y2="97.8877" gradientUnits="userSpaceOnUse">
<stop stop-color="#F36E2A"/>
<stop offset="1" stop-color="#FEBD66"/>
</linearGradient>
<linearGradient id="paint20_linear" x1="146.261" y1="82.9725" x2="145.879" y2="82.7519" gradientUnits="userSpaceOnUse">
<stop stop-color="#F36E2A"/>
<stop offset="1" stop-color="#FEBD66"/>
</linearGradient>
<linearGradient id="paint21_linear" x1="142.529" y1="69.5827" x2="142.147" y2="69.3621" gradientUnits="userSpaceOnUse">
<stop stop-color="#F36E2A"/>
<stop offset="1" stop-color="#FEBD66"/>
</linearGradient>
<linearGradient id="paint22_linear" x1="146.692" y1="108.035" x2="146.047" y2="107.663" gradientUnits="userSpaceOnUse">
<stop stop-color="#F36E2A"/>
<stop offset="1" stop-color="#FEBD66"/>
</linearGradient>
<linearGradient id="paint23_linear" x1="147.505" y1="77.7272" x2="147.123" y2="77.5066" gradientUnits="userSpaceOnUse">
<stop stop-color="#F36E2A"/>
<stop offset="1" stop-color="#FEBD66"/>
</linearGradient>
<linearGradient id="paint24_linear" x1="146.739" y1="87.6017" x2="146.095" y2="87.2295" gradientUnits="userSpaceOnUse">
<stop stop-color="#F36E2A"/>
<stop offset="1" stop-color="#FEBD66"/>
</linearGradient>
<linearGradient id="paint25_linear" x1="84.9511" y1="157.396" x2="84.3063" y2="157.024" gradientUnits="userSpaceOnUse">
<stop stop-color="#F36E2A"/>
<stop offset="1" stop-color="#FEBD66"/>
</linearGradient>
<linearGradient id="paint26_linear" x1="144.758" y1="106.918" x2="144.113" y2="106.546" gradientUnits="userSpaceOnUse">
<stop stop-color="#F36E2A"/>
<stop offset="1" stop-color="#FEBD66"/>
</linearGradient>
<linearGradient id="paint27_linear" x1="42.551" y1="125.61" x2="40.8316" y2="124.617" gradientUnits="userSpaceOnUse">
<stop stop-color="#F36E2A"/>
<stop offset="1" stop-color="#FEBD66"/>
</linearGradient>
<linearGradient id="paint28_linear" x1="40.3535" y1="121.474" x2="38.3998" y2="120.346" gradientUnits="userSpaceOnUse">
<stop stop-color="#F36E2A"/>
<stop offset="1" stop-color="#FEBD66"/>
</linearGradient>
<linearGradient id="paint29_linear" x1="35.7279" y1="109.632" x2="34.8682" y2="109.136" gradientUnits="userSpaceOnUse">
<stop stop-color="#F36E2A"/>
<stop offset="1" stop-color="#FEBD66"/>
</linearGradient>
<linearGradient id="paint30_linear" x1="36.5692" y1="114.132" x2="36.1871" y2="113.911" gradientUnits="userSpaceOnUse">
<stop stop-color="#F36E2A"/>
<stop offset="1" stop-color="#FEBD66"/>
</linearGradient>
<linearGradient id="paint31_linear" x1="40.7783" y1="122.723" x2="40.3962" y2="122.503" gradientUnits="userSpaceOnUse">
<stop stop-color="#F36E2A"/>
<stop offset="1" stop-color="#FEBD66"/>
</linearGradient>
<linearGradient id="paint32_linear" x1="149.065" y1="123.779" x2="148.205" y2="123.283" gradientUnits="userSpaceOnUse">
<stop stop-color="#F36E2A"/>
<stop offset="1" stop-color="#FEBD66"/>
</linearGradient>
<clipPath id="clip0">
<rect width="138" height="136" fill="white" transform="translate(187 68) rotate(120)"/>
</clipPath>
</defs>
</svg>
