<svg width="188" height="187" viewBox="0 0 188 187" fill="none" xmlns="http://www.w3.org/2000/svg">
<g clip-path="url(#clip0)">
<path d="M150.32 61.3049C148.964 60.9416 148.104 61.438 147.245 61.9344C146.385 62.4308 144.665 63.4236 143.805 63.92C142.946 64.4164 142.086 64.9128 140.366 65.9056C139.506 66.402 140.003 67.2617 140.499 68.1214C141.988 70.7005 142.121 72.9163 143.61 75.4954C145.099 78.0745 145.232 80.2904 146.721 82.8695C147.218 83.7292 146.854 85.0853 147.35 85.945C147.847 86.8047 147.483 88.1608 147.98 89.0205C148.476 89.8802 148.113 91.2363 148.609 92.096C148.609 92.096 149.105 92.9557 148.246 93.4521C148.246 93.4521 148.742 94.3118 147.882 94.8082L147.022 95.3046C147.022 95.3046 147.022 95.3046 146.162 95.801C146.162 95.801 146.162 95.801 145.799 97.1571C146.295 98.0168 146.295 98.0168 146.295 98.0168C146.792 98.8765 146.428 100.233 146.065 101.589C145.701 102.945 146.198 103.805 145.834 105.161C145.471 106.517 145.24 110.089 144.381 110.585C143.521 111.082 143.024 110.222 142.661 111.578L142.298 112.934C141.438 113.43 141.934 114.29 141.074 114.787L140.711 116.143C141.207 117.002 141.207 117.002 141.207 117.002C140.844 118.358 140.844 118.358 139.984 118.855C139.124 119.351 139.984 118.855 139.62 120.211C140.117 121.071 139.257 121.567 138.894 122.923L138.53 124.279C138.53 124.279 137.67 124.776 137.307 126.132C136.943 127.488 136.084 127.984 135.72 129.34C135.357 130.697 134.497 131.193 133.637 131.689C132.777 132.186 132.777 132.186 132.777 132.186L132.414 133.542L131.554 134.038C130.694 134.535 130.694 134.535 130.331 135.891C129.471 136.387 129.108 137.743 128.248 138.24C127.388 138.736 127.388 138.736 127.388 138.736C126.528 139.232 126.528 139.232 125.669 139.729C124.809 140.225 124.809 140.225 123.949 140.722C123.089 141.218 123.089 141.218 122.229 141.714C121.37 142.211 121.37 142.211 120.51 142.707L119.65 143.204L119.154 142.344C118.294 142.84 118.294 142.84 117.434 143.337C116.574 143.833 115.714 144.33 114.855 144.826C113.995 145.322 112.639 144.959 111.779 145.455C110.919 145.952 110.919 145.952 110.919 145.952C110.059 146.448 110.059 146.448 109.199 146.945C108.34 147.441 106.984 147.078 106.124 147.574C105.264 148.071 103.908 147.707 102.188 148.7C101.328 149.197 100.469 149.693 99.6088 150.189C98.749 150.686 98.2527 149.826 98.2527 149.826C97.3929 150.322 96.0367 149.959 95.1769 150.456C95.1769 150.456 94.3172 150.952 93.8208 150.092C92.4647 149.729 91.6049 150.225 90.2487 149.862C89.3889 150.358 88.0328 149.995 87.173 150.492L85.8168 150.128L84.957 150.625C84.0972 151.121 82.7411 150.758 82.7411 150.758C82.2448 149.898 83.1046 149.402 81.7484 149.038L80.8886 149.535C80.8886 149.535 80.3923 148.675 79.5325 149.171C78.1763 148.808 77.8129 150.164 77.3165 149.305C75.9604 148.941 74.9677 147.222 73.6115 146.859C73.6115 146.859 72.7517 147.355 72.2554 146.495L70.8992 146.132C69.5431 145.769 69.0467 144.909 67.6906 144.546C66.8308 145.042 66.3345 144.182 65.8381 143.323C65.3418 142.463 65.3418 142.463 64.482 142.959C64.482 142.959 63.1258 142.596 62.6295 141.736C62.1331 140.877 63.9856 142.1 63.9856 142.1C64.8454 141.603 66.2015 141.967 67.5577 142.33C68.054 143.19 69.4102 143.553 69.4102 143.553C70.27 143.056 70.27 143.056 71.6261 143.42L72.1225 144.279L73.4786 144.643C74.8348 145.006 76.1909 145.369 76.6873 146.229C78.0434 146.592 79.3996 146.956 80.7557 147.319C82.1118 147.682 83.468 148.046 84.8241 148.409C86.1803 148.772 87.0401 148.276 87.8999 147.779C89.256 148.143 89.256 148.143 90.6122 148.506C91.472 148.01 92.8281 148.373 93.3245 149.233C93.8208 150.092 94.6806 149.596 95.5404 149.099C97.26 148.107 98.6161 148.47 100.832 148.337C101.692 147.84 103.048 148.204 103.908 147.707C107.843 146.581 110.919 145.952 114.358 143.966C115.218 143.47 116.078 142.973 117.797 141.981C118.657 141.484 119.517 140.988 120.377 140.491C119.517 140.988 117.797 141.981 116.938 142.477C116.078 142.973 114.358 143.966 113.498 144.463C112.639 144.959 112.639 144.959 111.283 144.596C110.423 145.092 109.926 144.232 109.926 144.232C109.067 144.729 108.207 145.225 108.207 145.225C107.347 145.722 106.487 146.218 105.991 145.358C104.271 146.351 102.915 145.988 101.559 145.625C100.699 146.121 100.203 145.261 99.343 145.758C98.4832 146.254 98.4832 146.254 97.1271 145.891C97.1271 145.891 97.1271 145.891 96.2673 146.387C96.2673 146.387 96.2673 146.387 94.9111 146.024C94.0513 146.52 94.0513 146.52 93.555 145.661L93.0587 144.801C93.555 145.661 91.8354 146.653 91.8354 146.653C90.9756 147.15 89.1231 145.927 88.2633 146.423C86.0474 146.556 84.6912 146.193 83.8314 146.689L82.4753 146.326C81.9789 145.466 81.1191 145.963 80.2594 146.459C78.0434 146.592 76.1909 145.369 73.4786 144.643C72.9823 143.783 72.1225 144.279 71.6261 143.42C71.6261 143.42 71.1298 142.56 70.27 143.056L69.7736 142.197L68.9138 142.693C68.4175 141.833 67.4248 140.114 66.0686 139.751C64.7125 139.387 63.7198 137.668 62.3637 137.305C61.0075 136.941 60.0148 135.222 58.6587 134.859C58.1623 133.999 58.1623 133.999 57.666 133.139C57.1696 132.28 57.666 133.139 57.1696 132.28C56.3098 132.776 55.8135 131.916 55.8135 131.916C55.3171 131.057 53.961 130.693 53.4646 129.834C51.9756 127.254 49.6267 125.172 48.1377 122.593C47.145 120.873 46.6486 120.014 45.6559 118.294C44.6632 116.575 44.1669 115.715 43.1742 113.996C43.1742 113.996 42.6778 113.136 42.1815 112.276C41.6851 111.416 41.3217 112.773 40.8253 111.913C39.9655 112.409 39.3363 109.334 41.1888 110.557C41.5522 109.201 41.0559 108.341 40.5595 107.481C40.0632 106.622 40.4266 105.265 39.9303 104.406C39.5668 105.762 41.4193 106.985 40.1961 108.837L39.3363 109.334C39.3363 109.334 38.8399 108.474 38.3436 107.614C37.8472 106.755 37.7143 104.539 37.218 103.679C36.7216 102.819 37.5814 102.323 36.7216 102.819C35.8618 103.316 35.8618 103.316 35.3655 102.456C34.8691 101.596 34.3728 100.737 35.2326 100.24C34.7362 99.3806 34.2399 98.5209 34.2399 98.5209C33.7435 97.6612 34.6033 97.1648 34.107 96.3051C33.6106 95.4454 34.4704 94.949 33.974 94.0893C33.4777 93.2296 33.3448 91.0138 33.7082 89.6577L34.0717 88.3016C34.4351 86.9454 34.4351 86.9454 33.9388 86.0857C33.4424 85.226 34.3022 84.7296 34.6657 83.3735C36.3853 82.3807 35.8889 81.521 36.2523 80.1649C36.6158 78.8088 36.9792 77.4527 37.3427 76.0966C38.2025 75.6002 38.2025 75.6002 38.5659 74.2441C38.5659 74.2441 38.9294 72.888 38.433 72.0283C38.433 72.0283 39.2928 71.5319 38.7965 70.6722L38.3001 69.8125C37.8038 68.9528 39.1599 69.3161 39.1599 69.3161C40.0197 68.8196 39.5233 67.9599 40.3831 67.4635C41.2429 66.9671 41.7393 67.8268 41.7393 67.8268C42.5991 67.3304 42.5991 67.3304 42.5991 67.3304L43.4589 66.834C43.9552 67.6937 43.9552 67.6937 44.4516 68.5534C44.4516 68.5534 45.3114 68.057 46.1712 67.5606C47.031 67.0642 46.5346 66.2045 46.5346 66.2045C47.3944 65.7081 47.3944 65.7081 47.7579 64.352C47.7579 64.352 47.7579 64.352 48.6177 63.8556L49.4774 63.3592L49.8409 62.0031C52.0568 61.87 54.6362 60.3808 52.7837 59.1578C52.7837 59.1578 51.4276 58.7945 52.2874 58.2981C53.1472 57.8017 53.6435 58.6614 53.6435 58.6614C53.6435 58.6614 54.9997 59.0247 55.3631 57.6686C55.3631 57.6686 54.3704 55.9492 53.5106 56.4456C52.6508 56.942 52.6508 56.942 51.791 57.4384C50.9312 57.9348 50.9312 57.9348 50.0714 58.4312C49.2116 58.9276 48.3518 59.424 48.8482 60.2837C48.8482 60.2837 49.3445 61.1434 48.4847 61.6398C48.4847 61.6398 48.4847 61.6398 47.6249 62.1362C47.6249 62.1362 47.625 62.1362 46.7652 62.6326C45.9054 63.129 46.0383 65.3448 44.1858 64.1218C44.1858 64.1218 43.6894 63.2621 43.1931 62.4024L44.0529 61.906L44.9127 61.4096C44.9127 61.4096 44.9127 61.4096 45.7725 60.9132C45.7725 60.9132 45.2761 60.0535 46.1359 59.5571C46.9957 59.0607 46.9957 59.0607 47.8555 58.5643C47.8555 58.5643 47.8555 58.5643 48.2189 57.2082C48.2189 57.2082 49.0787 56.7118 48.5824 55.8521C49.9385 56.2154 51.1618 54.3629 52.8814 53.3701C55.8242 50.5247 58.4036 49.0355 61.3464 46.1902C63.066 45.1974 64.7856 44.2046 66.5052 43.2118C67.365 42.7154 68.2248 42.219 69.9444 41.2262C70.8041 40.7298 72.1603 41.0931 72.1603 41.0931C73.0201 40.5967 73.8799 40.1003 74.7397 39.6039C74.7397 39.6039 76.9556 39.4708 76.0958 39.9672C76.0958 39.9672 75.236 40.4636 74.3762 40.96C73.5164 41.4564 72.6566 41.9528 71.7968 42.4492C70.0773 43.442 68.3577 44.4348 66.6381 45.4276C64.9185 46.4204 63.1989 47.4132 61.4793 48.406C60.6195 48.9024 59.7597 49.3988 58.8999 49.8952C59.3963 50.7549 58.5365 51.2514 58.5365 51.2514L59.0328 52.1111L58.173 52.6075C57.3132 53.1039 56.4534 53.6003 56.09 54.9564C57.4461 55.3197 56.9498 54.46 57.8096 53.9636C58.6694 53.4672 59.1657 54.3269 59.1657 54.3269L60.0255 53.8305C60.8853 53.3341 61.7451 52.8377 61.7451 52.8377C62.6049 52.3413 63.4647 51.8449 63.8282 50.4887C64.6879 49.9923 65.5477 49.4959 66.4075 48.9995L67.2673 48.5031L68.6235 48.8664C69.4833 48.37 70.3431 47.8736 69.8467 47.0139C71.07 45.1614 73.2859 45.0283 75.0055 44.0355L75.8653 43.5391L76.7251 43.0427L77.5849 42.5463C78.4447 42.0499 78.4447 42.0499 79.3045 41.5535C85.9523 41.1542 89.8878 40.0283 93.9563 41.1182C104.176 40.9491 115.025 43.8555 124.288 49.9705C125.644 50.3338 127 50.6971 127.993 52.4165C128.489 53.2762 129.349 52.7798 129.845 53.6395L130.342 54.4992C130.342 54.4992 130.838 55.3589 131.698 54.8625C132.194 55.7222 133.55 56.0855 134.047 56.9452C134.543 57.8049 135.899 58.1682 135.536 59.5244C136.892 59.8877 137.885 61.6071 138.381 62.4668C138.877 63.3265 139.506 66.402 140.863 66.7653C141.722 66.2689 142.582 65.7725 143.442 65.2761C144.302 64.7797 145.162 64.2833 146.021 63.7869C146.881 63.2905 147.741 62.7941 147.741 62.7941C147.245 61.9344 146.748 61.0747 146.252 60.215L145.756 59.3553C145.756 59.3553 145.259 58.4955 144.399 58.9919C143.903 58.1322 143.407 57.2725 142.051 56.9092C141.554 56.0495 141.554 56.0495 141.058 55.1898C140.562 54.3301 140.065 53.4704 139.569 52.6107C139.072 51.751 138.576 50.8913 137.22 50.528C136.724 49.6683 135.368 49.305 134.871 48.4453C134.375 47.5856 133.019 47.2223 133.019 47.2223C132.522 46.3626 130.803 47.3554 131.166 45.9993C131.166 45.9993 131.166 45.9993 130.67 45.1396C130.67 45.1396 129.314 44.7763 128.817 43.9166C128.321 43.0569 126.965 42.6936 126.468 41.8339C125.972 40.9742 125.476 40.1145 125.476 40.1145C125.476 40.1145 124.616 40.6109 124.12 39.7512L123.623 38.8915C124.979 39.2548 126.832 40.4778 128.188 40.8411C128.684 41.7008 130.041 42.0641 130.041 42.0641C131.397 42.4274 130.9 41.5677 130.404 40.708C128.552 39.485 126.203 37.4023 123.49 36.6756C122.994 35.8159 122.134 36.3123 121.638 35.4526C121.142 34.5929 119.785 34.2296 120.645 33.7332C121.505 33.2368 121.505 33.2368 122.001 34.0965L123.357 34.4598L123.854 35.3195L125.21 35.6828C126.566 36.0461 126.566 36.0461 127.922 36.4094C128.419 37.2691 129.775 37.6325 129.775 37.6325L129.278 36.7727C129.278 36.7727 129.278 36.7727 127.922 36.4094L127.426 35.5497C126.93 34.69 126.07 35.1864 125.21 35.6828C123.854 35.3195 123.854 35.3195 123.357 34.4598C122.861 33.6001 122.861 33.6001 122.001 34.0965C121.142 34.5929 121.505 33.2368 120.149 32.8735C118.296 31.6505 115.584 30.9239 113.368 31.057C110.656 30.3304 109.3 29.9671 107.084 30.1002C105.728 29.7369 104.868 30.2333 103.512 29.87C102.155 29.5067 101.296 30.0031 99.9395 29.6398C98.5834 29.2765 98.5834 29.2765 97.2273 28.9132C95.8711 28.5499 95.8711 28.5499 94.515 28.1866C95.7382 26.3341 94.3821 25.9708 93.5223 26.4672C93.5223 26.4672 92.6625 26.9636 92.1661 26.1039C91.3063 26.6003 91.3063 26.6003 89.9502 26.237C89.4538 25.3773 86.8744 26.8665 85.5183 26.5032C81.9462 26.273 78.0107 27.3989 75.4313 28.8881L74.5715 29.3845C73.7117 29.8809 73.7117 29.8809 72.3556 29.5176C71.4958 30.014 70.636 30.5104 69.7762 31.0068C68.9164 31.5032 68.0566 31.9997 67.1968 32.4961C65.4772 33.4889 63.7576 34.4817 61.5417 34.6148C60.6819 35.1112 59.8221 35.6076 58.9623 36.104C58.1025 36.6004 57.2427 37.0968 56.3829 37.5932C55.5231 38.0896 55.1597 39.4457 55.1597 39.4457C54.2999 39.9421 54.2999 39.9421 53.4401 40.4385C52.5803 40.9349 52.5803 40.9349 51.7205 41.4313C50.8607 41.9277 49.1411 42.9205 48.7776 44.2766C47.0581 45.2694 46.1983 45.7658 44.4787 46.7586C44.4787 46.7586 44.4787 46.7586 43.6189 47.255C42.7591 47.7514 43.2554 48.6111 43.7518 49.4709L45.9677 49.3377C45.9677 49.3377 45.4714 48.478 46.3312 47.9816C46.3312 47.9816 47.191 47.4852 46.6946 46.6255C47.5544 46.1291 48.4142 45.6327 49.274 45.1363L50.1338 44.6399L51.4899 45.0032C51.4899 45.0032 51.4899 45.0032 51.8534 43.6471L52.7132 43.1507C53.573 42.6543 54.4328 42.1579 54.4328 42.1579C54.4328 42.1579 55.7889 42.5212 56.2853 43.3809C56.7816 44.2406 55.062 45.2334 55.062 45.2334C54.2022 45.7298 54.6986 46.5895 53.3424 46.2262L52.4826 46.7226C51.6228 47.219 50.763 47.7154 50.3996 49.0715C48.1837 49.2046 47.3239 49.701 46.4641 50.1975C45.6043 50.6939 44.7445 51.1903 44.381 52.5464C44.0176 53.9025 43.6541 55.2586 43.6541 55.2586C42.7944 55.755 42.298 54.8953 42.298 54.8953C41.8017 54.0356 41.8017 54.0356 41.3053 53.1759C41.3053 53.1759 42.1651 52.6795 41.6687 51.8198L40.3126 51.4565C38.9565 51.0932 37.8661 55.1615 37.5027 56.5176C37.999 57.3773 37.5027 56.5176 38.3625 56.0212C39.2223 55.5248 40.0821 55.0284 40.0821 55.0284C41.9346 56.2514 41.0748 56.7478 41.5711 57.6075C41.2077 58.9636 40.8442 60.3197 39.9844 60.8161C39.1246 61.3125 38.2648 61.8089 38.2648 61.8089L37.405 62.3053C36.5452 62.8017 37.405 62.3053 36.9087 61.4456C36.9087 61.4456 36.4123 60.5859 37.2721 60.0895C37.2721 60.0895 37.6356 58.7334 37.1392 57.8737C34.4269 57.1471 33.833 62.0751 33.833 62.0751C33.4695 63.4312 33.9659 64.2909 33.1061 64.7873C32.2463 65.2837 31.3865 65.7801 31.8828 66.6398C31.023 67.1362 31.5194 67.9959 30.6596 68.4924C30.2961 69.8485 31.1559 69.3521 31.6523 70.2118C32.1486 71.0715 31.7852 72.4276 30.9254 72.924C29.7022 74.7765 27.8497 73.5535 28.346 74.4132C27.4862 74.9096 27.1228 76.2657 27.1228 76.2657C26.7593 77.6218 26.3959 78.9779 26.0324 80.334C26.5288 81.1937 25.669 81.6901 25.3056 83.0462L25.8019 83.9059C25.8019 83.9059 26.2983 84.7656 25.4385 85.262L23.7189 86.2548L23.3554 87.611C24.7116 87.9743 24.3481 89.3304 24.3481 89.3304C24.8445 90.1901 24.481 91.5462 24.9774 92.4059C24.7468 95.9778 24.5163 99.5497 25.6419 103.485C25.2785 104.841 25.4114 107.057 26.4041 108.776C26.537 110.992 26.6699 113.208 28.1589 115.787C28.6553 116.647 29.1516 117.506 29.648 118.366C29.2845 119.722 29.7809 120.582 30.2772 121.442C30.7736 122.301 31.6334 121.805 32.1297 122.665C32.6261 123.524 31.2699 123.161 31.7663 124.021C32.2626 124.88 32.759 125.74 33.2553 126.6C34.6115 126.963 34.6115 126.963 35.4713 126.467C36.3311 125.97 36.3311 125.97 36.3311 125.97L35.8347 125.111L35.3384 124.251C35.3384 124.251 34.842 123.391 34.3457 122.532C34.7091 121.175 35.7018 122.895 36.1982 123.755C36.6945 124.614 37.1909 125.474 37.6872 126.334C38.1836 127.193 38.6799 128.053 39.1763 128.913C40.169 130.632 41.658 133.211 42.6507 134.931C43.6434 136.65 45.4959 137.873 46.4886 139.593C47.8448 139.956 51.5498 142.402 55.2548 144.848C55.7511 145.708 57.1072 146.071 58.9597 147.294C59.4561 148.154 60.3159 147.657 60.8122 148.517C62.1684 148.88 62.6647 149.74 63.5245 149.243C64.0209 150.103 64.8807 149.607 65.377 150.466C65.8734 151.326 66.7332 150.83 67.2295 151.689C67.2295 151.689 68.5857 152.053 69.082 152.912C69.5784 153.772 70.4382 153.276 71.7943 153.639C71.7943 153.639 72.2907 154.499 73.1505 154.002C74.5066 154.366 74.5066 154.366 75.8627 154.729C78.0787 154.596 79.9312 155.819 81.2873 156.182C83.5033 156.049 84.8594 156.412 87.5717 157.139C88.9278 157.502 91.1438 157.369 92.0036 156.873C92.8634 156.376 94.2195 156.74 95.0793 156.243C97.2953 156.11 99.5112 155.977 101.727 155.844C102.587 155.348 103.943 155.711 104.803 155.214C105.299 156.074 107.019 155.081 107.515 155.941C108.012 156.801 107.515 155.941 107.515 155.941L106.655 156.437L105.796 156.934C104.936 157.43 103.58 157.067 102.72 157.563C100.504 157.696 98.288 157.83 96.9318 157.466C96.072 157.963 94.7159 157.599 93.8561 158.096C92.9963 158.592 92.4999 157.732 91.1438 157.369L90.284 157.866L89.4242 158.362L88.9278 157.502L87.5717 157.139C85.8521 158.132 84.9923 158.628 82.7764 158.761C81.4202 158.398 80.9239 157.538 80.9239 157.538L80.0641 158.035L78.7079 157.671C77.3518 157.308 76.492 157.804 75.9957 156.945C73.7797 157.078 73.2834 156.218 71.9272 155.855C70.0747 154.632 67.8588 154.765 66.0063 153.542C64.6501 153.179 64.6501 153.179 64.1538 152.319C63.6574 151.459 63.6574 151.459 63.1611 150.6C62.6647 149.74 62.3013 151.096 61.8049 150.236L60.4488 149.873C59.589 150.369 57.7365 149.146 56.3804 148.783C55.884 147.923 55.0242 148.42 54.5279 147.56C54.0315 146.7 54.0315 146.7 53.5352 145.841C51.3192 145.974 50.8229 145.114 49.8302 143.395C49.3338 142.535 48.8375 141.675 47.4813 141.312C46.985 140.452 46.4886 139.592 45.1325 139.229C44.1398 137.51 42.2873 136.287 41.2946 134.567C40.3019 132.848 37.953 130.765 36.9603 129.046C36.9603 129.046 36.464 128.186 35.6042 128.683C34.7444 129.179 36.1005 129.542 36.5969 130.402C37.0932 131.262 37.5896 132.121 37.5896 132.121C38.0859 132.981 39.4421 133.344 39.9384 134.204C41.7909 135.427 41.9238 137.643 43.7763 138.866C46.1252 140.949 48.474 143.031 50.8229 145.114C53.1717 147.197 55.5206 149.279 57.8694 151.362C60.2183 153.445 62.9305 154.171 65.6428 154.898C67.4953 156.121 69.7113 155.988 71.9272 155.855C72.9199 157.574 74.2761 157.938 74.2761 157.938L75.6322 158.301L76.492 157.804L78.3445 159.027C80.197 160.25 81.0568 159.754 81.5531 160.614C82.9093 160.977 85.1252 160.844 86.4814 161.207C88.6973 161.074 90.0535 161.437 92.2694 161.304C95.8415 161.535 97.5611 160.542 98.9172 160.905L100.273 161.268L101.133 160.772C101.993 160.276 103.349 160.639 104.209 160.142C105.069 159.646 106.425 160.009 107.285 159.513L108.144 159.017C109.004 158.52 109.501 159.38 110.36 158.883L111.22 158.387C112.08 157.891 112.08 157.891 112.94 157.394C113.8 156.898 115.156 157.261 116.015 156.765C116.875 156.268 116.875 156.268 118.231 156.632C119.091 156.135 119.588 156.995 120.447 156.499C121.307 156.002 121.307 156.002 122.167 155.506C123.027 155.009 123.027 155.009 123.887 154.513C124.746 154.017 125.606 153.52 126.466 153.024L127.326 152.527C128.186 152.031 128.186 152.031 129.045 151.535L129.905 151.038L130.765 150.542C131.625 150.045 132.484 149.549 133.344 149.052C135.064 148.06 136.287 146.207 138.007 145.214C140.586 143.725 142.669 141.376 144.256 138.168C144.123 135.952 145.346 134.099 147.066 133.107C148.289 131.254 149.512 129.401 149.876 128.045C150.603 125.333 152.686 122.984 153.412 120.272C154.139 117.56 154.503 116.204 155.23 113.492C155.593 112.135 156.816 110.283 156.683 108.067C157.047 106.711 157.774 103.999 159.13 104.362C158.137 102.643 158.501 101.287 158.864 99.9304C159.228 98.5743 159.228 98.5743 160.087 98.0779C160.947 97.5815 160.087 98.0779 159.591 97.2182C159.095 96.3585 159.095 96.3585 159.458 95.0024C159.822 93.6463 159.822 93.6463 160.185 92.2902C159.689 91.4305 159.689 91.4305 160.052 90.0744C160.052 90.0744 159.556 89.2147 160.416 88.7183L159.919 87.8586C159.423 86.9989 159.786 85.6428 159.29 84.7831C158.794 83.9234 159.157 82.5673 158.661 81.7076C158.661 81.7076 158.164 80.8478 159.024 80.3514C159.024 80.3514 159.884 79.855 159.388 78.9953C159.751 77.6392 158.891 78.1356 158.891 78.1356C158.891 78.1356 159.751 77.6392 159.255 76.7795L158.758 75.9198L158.262 75.0601C157.766 74.2004 158.625 73.704 158.129 72.8443C157.633 71.9846 157.136 71.1249 156.64 70.2652C156.144 69.4055 155.647 68.5458 155.151 67.6861C154.655 66.8264 153.298 66.4631 153.298 66.4631L153.662 65.107C153.166 64.2473 153.166 64.2473 152.669 63.3876C151.677 61.6682 151.677 61.6682 150.32 61.3049ZM144.532 61.2078C143.673 61.7042 143.673 61.7042 144.532 61.2078V61.2078ZM139.471 58.3984C140.331 57.902 140.464 60.1179 139.471 58.3984C139.471 58.3984 138.975 57.5387 139.471 58.3984C138.975 57.5387 139.471 58.3984 139.471 58.3984ZM132.788 50.7942C133.284 51.6539 134.641 52.0172 135.137 52.8769C135.633 53.7366 136.989 54.0999 136.626 55.456C136.263 56.8121 136.263 56.8121 135.766 55.9524L135.27 55.0927C133.914 54.7294 132.921 53.01 132.425 52.1503L131.928 51.2906C131.432 50.4309 132.292 49.9345 132.788 50.7942ZM118.296 31.6505C117.437 32.1469 117.437 32.1469 118.296 31.6505C117.437 32.1469 117.437 32.1469 118.296 31.6505ZM113.005 32.4131C113.368 31.057 115.584 30.9239 116.94 31.2872L117.8 30.7908L118.296 31.6505L119.652 32.0138C120.149 32.8735 119.289 33.3699 119.289 33.3699C118.429 33.8663 116.577 32.6433 115.221 32.28C115.717 33.1397 112.641 33.7692 113.005 32.4131ZM118.101 43.226C118.101 43.226 118.961 42.7296 120.317 43.0929C120.317 43.0929 120.813 43.9526 121.673 43.4562L123.029 43.8195L123.526 44.6792L124.882 45.0425C126.238 45.4058 128.09 46.6288 129.447 46.9921C129.447 46.9921 130.803 47.3554 131.299 48.2151L131.432 50.4309C131.069 51.787 129.216 50.564 128.72 49.7043C128.223 48.8446 127.727 47.9849 126.867 48.4813C126.867 48.4813 125.511 48.118 124.651 48.6144C123.295 48.2511 124.155 47.7547 122.799 47.3914C122.302 46.5317 120.946 46.1684 120.946 46.1684C119.59 45.8051 119.59 45.8051 118.234 45.4418C118.597 44.0857 116.745 42.8627 118.101 43.226ZM112.641 33.7692C111.781 34.2656 111.285 33.4059 110.425 33.9023L109.069 33.539C109.929 33.0426 109.929 33.0426 110.425 33.9023C111.285 33.4059 111.285 33.4059 112.641 33.7692ZM103.512 29.87C103.875 28.5139 104.371 29.3736 104.371 29.3736L105.728 29.7369C106.587 29.2405 108.803 29.1074 109.3 29.9671C109.796 30.8268 108.936 31.3232 108.936 31.3232C108.076 31.8196 107.58 30.9599 106.72 31.4563C106.224 30.5966 103.512 29.87 103.512 29.87ZM96.7309 28.0535C97.0943 26.6974 99.8066 27.424 99.4432 28.7801C98.22 30.6326 96.3675 29.4096 96.7309 28.0535ZM101.827 38.8664C102.687 38.37 102.687 38.37 103.547 37.8736L104.407 37.3772C104.903 38.2369 103.547 37.8736 103.547 37.8736L101.827 38.8664C101.464 40.2225 100.968 39.3628 101.827 38.8664ZM96.8991 38.2729C97.3954 39.1326 97.3954 39.1326 96.8991 38.2729C96.5356 39.629 96.0393 38.7693 96.8991 38.2729ZM90.9429 27.9564C90.9429 27.9564 90.5794 29.3125 90.9429 27.9564C90.0831 28.4528 90.0831 28.4528 90.9429 27.9564ZM85.4207 32.2909C86.2805 31.7945 86.2805 31.7945 87.6366 32.1578C86.7768 32.6542 85.4207 32.2909 85.4207 32.2909C84.5609 32.7873 85.4207 32.2909 85.4207 32.2909ZM79.2692 33.55C80.129 33.0536 80.129 33.0536 81.4851 33.4169C82.3449 32.9204 82.3449 32.9204 81.4851 33.4169C80.6253 33.9133 78.4094 34.0464 77.5496 34.5428C77.0532 33.6831 78.4094 34.0464 79.2692 33.55ZM73.3483 31.237C73.8446 32.0967 73.8446 32.0967 73.3483 31.237C73.8446 32.0967 73.3483 31.237 73.3483 31.237ZM64.254 35.3414C63.7576 34.4817 66.337 32.9925 65.9735 34.3486C65.1138 34.845 63.8905 36.6975 64.254 35.3414ZM65.6101 35.7047C66.4699 35.2083 66.1065 36.5644 65.6101 35.7047C66.1065 36.5644 64.7503 36.2011 63.8905 36.6975C65.2467 37.0608 65.6101 35.7047 65.6101 35.7047ZM57.0122 40.6687C57.3756 39.3126 57.739 37.9565 58.5988 37.4601C59.4586 36.9637 59.955 37.8234 59.955 37.8234C60.8148 37.327 60.8148 37.327 60.8148 37.327C61.1782 35.9709 62.038 35.4745 63.3942 35.8378L63.8905 36.6975C63.8905 36.6975 63.8905 36.6975 65.2467 37.0608C65.743 37.9205 65.743 37.9205 66.2394 38.7802C67.0992 38.2838 67.9589 37.7874 69.6785 36.7946C70.5383 36.2982 72.7543 36.1651 73.1177 34.809C71.7616 34.4457 71.3981 35.8018 70.5383 36.2982C70.5383 36.2982 68.8187 37.291 67.959 37.7874C67.4626 36.9277 69.1822 35.9349 69.1822 35.9349C70.042 35.4385 69.5456 34.5788 69.0493 33.7191C69.9091 33.2227 70.2725 31.8665 70.7689 32.7263C71.2652 33.586 71.2652 33.586 72.6214 33.9493C73.4812 33.4529 74.341 32.9565 74.8373 33.8162C76.1935 34.1795 77.0532 33.6831 77.5496 34.5428C77.1862 35.8989 74.1104 36.5284 73.2506 37.0248C71.531 38.0176 70.6712 38.514 68.9517 39.5068C67.2321 40.4996 65.5125 41.4924 64.6527 41.9888C63.7929 42.4852 62.0733 43.478 60.7171 43.1147C60.2208 42.255 60.2208 42.255 58.8646 41.8917C57.5085 41.5284 56.6487 42.0248 57.0122 40.6687ZM44.8774 53.4061C44.8774 53.4061 45.7372 52.9097 45.2408 52.05C46.1006 51.5536 46.1006 51.5536 46.1006 51.5536C46.9604 51.0572 46.9604 51.0572 46.4641 50.1975C45.9677 49.3377 47.3239 49.701 47.3239 49.701L48.1837 49.2046L48.5471 47.8485C49.4069 47.3521 49.9033 48.2118 50.763 47.7154C51.6228 47.219 51.6228 47.219 52.4826 46.7226C55.5584 46.0931 52.979 47.5823 52.979 47.5823C52.1192 48.0787 50.896 49.9312 50.0362 50.4277C48.8129 52.2802 47.9531 52.7766 46.2335 53.7694L45.3737 54.2658L44.8774 53.4061ZM42.5991 67.3304C41.6064 65.611 44.1858 64.1218 45.1785 65.8412C45.6748 66.7009 44.815 67.1973 44.815 67.1973L43.9552 67.6937C43.0954 68.1901 42.5991 67.3304 42.5991 67.3304ZM37.405 62.3053C38.2648 61.8089 38.7612 62.6686 37.9014 63.165L37.405 62.3053ZM39.3904 65.7441C39.8868 66.6038 39.8868 66.6038 39.3904 65.7441V65.7441ZM33.239 67.0031C32.7426 66.1434 33.4695 63.4312 34.8257 63.7945L35.322 64.6542L35.8184 65.5139C36.3147 66.3736 37.1745 65.8772 36.8111 67.2333C36.8111 67.2333 35.9513 67.7297 35.5878 69.0859C35.5878 69.0859 35.2244 70.442 34.3646 70.9384C33.5048 71.4348 33.8682 70.0787 33.8682 70.0787C33.8682 70.0787 33.8682 70.0787 34.728 69.5823L35.0915 68.2261C34.4622 65.1506 34.0988 66.5067 33.239 67.0031C34.0988 66.5067 33.239 67.0031 33.239 67.0031ZM32.4145 75.5031C31.9181 74.6434 32.7779 74.147 32.2815 73.2873C31.7852 72.4276 31.7852 72.4276 32.1486 71.0715C32.1486 71.0715 33.0084 70.5751 33.5048 71.4348C33.5048 71.4348 33.1413 72.7909 32.2815 73.2873C33.6377 73.6506 33.2742 75.0067 32.4145 75.5031C32.9108 76.3628 32.9108 76.3628 32.4145 75.5031C32.9108 76.3628 32.4145 75.5031 32.4145 75.5031ZM27.9826 75.7693C28.4789 76.629 28.4789 76.629 27.9826 75.7693C27.6191 77.1254 27.6191 77.1254 27.9826 75.7693ZM43.6705 114.855C43.6705 114.855 45.0267 115.219 44.6632 116.575C43.8034 117.071 42.8107 115.352 43.6705 114.855ZM26.4664 94.985C25.9701 94.1253 25.4737 93.2656 25.8372 91.9095C26.2006 90.5534 25.3408 91.0498 24.8445 90.1901C23.8518 88.4707 26.5641 89.1973 25.5714 87.4779C25.075 86.6181 25.075 86.6181 25.9348 86.1217C26.7946 85.6253 26.7946 85.6253 26.2983 84.7656C26.2983 84.7656 27.158 84.2692 26.6617 83.4095L26.5288 81.1937L27.8849 81.557C29.2411 81.9203 28.3813 82.4167 28.8776 83.2764C30.3667 85.8555 29.5069 86.3519 30.0032 87.2116C29.6398 88.5678 28.78 89.0642 29.2764 89.9239C29.2764 89.9239 29.2764 89.9239 28.9129 91.28C29.4093 92.1397 29.4093 92.1397 29.4093 92.1397C29.9056 92.9994 29.5422 94.3555 28.6824 94.8519C28.6824 94.8519 27.8226 95.3483 26.9628 95.8447C26.9628 95.8447 25.6066 95.4814 26.4664 94.985ZM40.5948 115.485C40.5948 115.485 42.4473 116.708 41.5875 117.204C40.7277 117.701 40.5948 115.485 40.5948 115.485ZM28.2213 101.996C28.7176 102.855 27.8578 103.352 27.8578 103.352C27.3615 102.492 27.3615 102.492 28.2213 101.996C27.7249 101.136 27.7249 101.136 28.2213 101.996ZM28.5847 100.64L27.7249 101.136C27.7249 101.136 27.2286 100.276 26.7322 99.4166C26.2359 98.5569 26.5993 97.2008 27.4591 96.7044C28.3189 96.208 29.6751 96.5713 29.3116 97.9274L28.4518 98.4238C28.9482 99.2835 28.0884 99.7799 28.5847 100.64ZM61.1404 139.157C59.4208 140.15 58.7916 137.074 57.4354 136.711L56.0793 136.348L55.5829 135.488C55.0866 134.628 53.7304 134.265 53.2341 133.405L52.7377 132.546L51.3816 132.182L50.8852 131.323C50.3889 130.463 50.0254 131.819 49.5291 130.959C49.0327 130.1 49.0327 130.1 49.8925 129.603C49.8925 129.603 49.3962 128.744 50.256 128.247C49.7596 127.388 49.7596 127.388 48.8998 127.884C46.1875 127.157 45.6912 126.298 45.1948 125.438C44.6985 124.578 42.846 123.355 44.5656 122.362C45.4254 121.866 46.9144 124.445 46.9144 124.445L47.4108 125.305L48.7669 125.668C49.2633 126.528 49.2633 126.528 49.7596 127.388C50.256 128.247 50.256 128.247 50.7523 129.107C51.2487 129.967 51.2487 129.967 51.745 130.826C52.2414 131.686 53.1012 131.19 53.5975 132.049C54.0939 132.909 54.5902 133.769 55.9464 134.132L57.3025 134.495C57.7989 135.355 57.7989 135.355 57.7989 135.355C58.2952 136.215 59.155 135.718 59.155 135.718L60.5112 136.082C61.0075 136.941 60.6441 138.297 61.1404 139.157ZM95.6733 151.315C95.6733 151.315 94.8135 151.812 94.3172 150.952C94.8135 151.812 95.6733 151.315 95.6733 151.315ZM135.49 132.912C135.853 131.556 136.217 130.2 137.076 129.704C137.076 129.704 137.44 128.348 138.3 127.851C139.159 127.355 139.159 127.355 138.796 128.711C138.433 130.067 137.573 130.563 137.209 131.92C136.349 132.416 136.846 133.276 135.49 132.912C135.986 133.772 134.63 133.409 135.49 132.912ZM127.025 140.092C127.884 139.596 129.967 137.247 130.464 138.107C131.324 137.61 133.77 133.905 134.266 134.765C134.763 135.625 133.043 136.617 133.043 136.617C132.183 137.114 131.82 138.47 130.96 138.966C130.1 139.463 129.241 139.959 128.381 140.455C128.381 140.455 127.521 140.952 127.025 140.092C127.521 140.952 127.025 140.092 127.025 140.092ZM133.176 138.833C133.176 138.833 130.73 142.538 130.233 141.678C129.737 140.819 132.316 139.33 133.176 138.833ZM128.514 142.671C129.01 143.531 128.15 144.027 128.15 144.027C128.15 144.027 127.29 144.524 128.15 144.027C126.794 143.664 128.514 142.671 128.514 142.671ZM124.942 142.441C124.942 142.441 125.305 141.085 125.801 141.945L126.298 142.804L124.942 142.441ZM121.866 143.071C122.229 141.714 124.445 141.581 123.222 143.434C123.355 145.65 121.502 144.427 121.866 143.071ZM145.577 130.527C144.353 132.38 143.13 134.232 141.907 136.085C140.684 137.937 139.46 139.79 137.741 140.783C136.881 141.279 136.021 141.776 136.021 141.776C135.162 142.272 135.658 143.132 134.798 143.628C134.435 144.984 133.078 144.621 132.715 145.977C131.855 146.473 130.995 146.97 129.276 147.963C128.416 148.459 127.556 148.955 126.696 149.452C125.837 149.948 124.977 150.445 124.117 150.941C124.117 150.941 123.257 151.437 122.761 150.578C121.901 151.074 121.901 151.074 121.901 151.074C121.041 151.571 120.182 152.067 119.322 152.563L118.462 153.06L117.602 153.556C116.742 154.053 115.883 154.549 115.023 155.045C114.163 155.542 113.303 156.038 112.443 156.535C112.443 156.535 111.584 157.031 110.724 157.527C110.724 157.527 110.227 156.668 109.731 155.808C110.095 154.452 111.451 154.815 112.31 154.319C113.17 153.822 114.03 153.326 115.386 153.689C116.246 153.193 117.602 153.556 118.462 153.06C121.901 151.074 125.34 149.089 128.78 147.103C132.219 145.117 135.162 142.272 138.104 139.427C138.964 138.93 139.824 138.434 140.187 137.078C141.047 136.581 141.047 136.581 141.411 135.225L142.27 134.729L142.767 135.589C142.767 135.589 143.263 136.448 143.627 135.092C144.486 134.596 143.494 132.876 143.857 131.52C143.857 131.52 144.717 131.024 145.577 130.527C145.577 130.527 146.436 130.031 147.296 129.535C148.156 129.038 146.8 128.675 147.163 127.319C143.228 128.445 146.436 130.031 145.577 130.527ZM149.238 95.1715C149.238 95.1715 149.735 96.0312 149.238 95.1715C149.735 96.0312 148.875 96.5276 149.238 95.1715ZM147.784 100.596C148.644 100.1 148.777 102.315 147.421 101.952L147.784 100.596ZM147.554 104.168C148.414 103.671 148.91 104.531 148.05 105.028L147.19 105.524C147.19 105.524 147.19 105.524 147.554 104.168ZM146.464 108.236C145.967 107.376 147.323 107.74 147.82 108.599C147.456 109.956 146.1 109.592 146.464 108.236ZM145.737 110.948C145.737 110.948 146.233 111.808 145.737 110.948C146.233 111.808 146.233 111.808 145.737 110.948ZM151.064 118.189C150.7 119.545 149.477 121.398 149.114 122.754C148.254 123.25 148.75 124.11 147.89 124.607C147.03 125.103 145.94 129.171 145.444 128.312C144.947 127.452 145.807 126.955 145.807 126.955C145.807 126.955 146.667 126.459 146.171 125.599L145.674 124.74C145.178 123.88 146.534 124.243 146.534 124.243C147.394 123.747 146.898 122.887 146.401 122.027C146.765 120.671 146.765 120.671 147.128 119.315C147.492 117.959 147.492 117.959 147.855 116.603C149.575 115.61 151.427 116.833 151.064 118.189ZM155.354 85.909C155.984 88.9845 156.613 92.06 156.382 95.6319C156.515 97.8477 155.788 100.56 155.921 102.776C156.054 104.992 155.327 107.704 154.964 109.06C154.6 110.416 154.237 111.772 153.014 113.625C152.154 114.121 152.287 116.337 151.791 115.477L151.294 114.617C150.798 113.758 150.798 113.758 151.161 112.402C151.888 109.689 152.615 106.977 152.846 103.405C153.572 100.693 153.803 97.1211 153.67 94.9053C154.034 93.5492 153.901 91.3334 153.404 90.4737C152.908 89.614 153.768 89.1176 153.271 88.2579C152.775 87.3982 153.138 86.0421 153.138 86.0421L153.998 85.5457C153.998 85.5457 153.998 85.5457 154.495 86.4054C154.495 86.4054 154.131 87.7615 154.991 87.2651C155.124 89.4809 154.495 86.4054 155.354 85.909ZM154.362 84.1896C154.362 84.1896 153.502 84.686 154.362 84.1896C153.865 83.3299 154.362 84.1896 154.362 84.1896ZM152.873 81.6105C153.369 82.4702 152.013 82.1069 152.873 81.6105C151.517 81.2472 151.02 80.3875 151.88 79.891C151.88 79.891 151.384 79.0313 152.74 79.3946C152.74 79.3946 152.376 80.7507 152.873 81.6105ZM150.621 73.74C150.621 73.74 151.118 74.5997 151.614 75.4594L152.111 76.3191L151.251 76.8155C151.251 76.8155 151.251 76.8155 150.754 75.9558C150.258 75.0961 150.621 73.74 149.629 72.0206C149.132 71.1609 149.132 71.1609 148.636 70.3012C148.636 70.3012 147.147 67.7221 148.007 67.2257C148.867 66.7293 149.859 68.4487 150.356 69.3084C149.132 71.1609 149.629 72.0206 150.621 73.74ZM152.111 76.3191C151.614 75.4594 151.614 75.4594 152.111 76.3191C151.614 75.4594 151.614 75.4594 152.111 76.3191Z" fill="url(#paint0_linear)"/>
<path d="M125.91 54.7653C126.769 54.2689 126.769 54.2689 126.273 53.4092C125.777 52.5495 125.28 51.6898 123.924 51.3265L122.072 50.1035C121.575 49.2437 120.716 49.7402 121.212 50.5999C121.708 51.4596 123.064 51.8229 123.561 52.6826C124.553 54.402 124.553 54.402 125.91 54.7653Z" fill="url(#paint1_linear)"/>
<path d="M138.398 122.063C136.678 123.056 136.315 124.412 135.091 126.265C134.232 126.761 133.868 128.117 133.868 128.117C133.008 128.613 132.645 129.97 132.645 129.97C131.785 130.466 130.925 130.962 131.422 131.822C131.422 131.822 131.058 133.178 131.918 132.682L132.778 132.185C133.638 131.689 134.001 130.333 134.861 129.836C136.084 127.984 136.944 127.488 138.167 125.635C137.174 123.916 137.174 123.916 138.398 122.063C138.034 123.419 138.894 122.923 138.398 122.063Z" fill="url(#paint2_linear)"/>
<path d="M136.927 67.8906C138.283 68.2539 136.794 65.6748 136.298 64.8151C135.801 63.9554 135.305 63.0957 134.809 62.236C134.312 61.3763 134.312 61.3763 133.816 60.5165C133.816 60.5165 133.32 59.6568 131.963 59.2935C131.104 59.7899 132.46 60.1532 132.46 60.1532C132.956 61.0129 133.452 61.8727 135.305 63.0957C135.801 63.9554 135.801 63.9554 136.298 64.8151C135.934 66.1712 136.927 67.8906 136.927 67.8906Z" fill="url(#paint3_linear)"/>
<path d="M147.076 51.7152C148.432 52.0785 147.439 50.3591 147.076 51.7152C146.083 49.9958 145.587 49.1361 145.09 48.2764C144.097 46.557 143.238 47.0534 141.022 47.1865C142.874 48.4095 145.223 50.4922 147.076 51.7152Z" fill="url(#paint4_linear)"/>
<path d="M150.914 56.3767C150.054 56.8731 149.062 55.1537 149.558 56.0134C148.698 56.5098 149.195 57.3695 150.551 57.7328C151.047 58.5925 151.907 58.0961 151.907 58.0961C152.767 57.5997 153.263 58.4595 154.123 57.9631C152.767 57.5997 152.27 56.74 150.914 56.3767Z" fill="url(#paint5_linear)"/>
<path d="M40.6565 101.694C40.1602 100.834 40.5236 99.4782 40.0273 98.6185C39.5309 97.7588 39.8944 96.4027 40.2578 95.0466C40.2578 95.0466 39.7615 94.1869 40.6213 93.6905L40.9847 92.3344C40.4884 91.4747 40.6213 93.6905 40.6213 93.6905C39.8944 96.4027 40.5236 99.4782 40.6565 101.694Z" fill="url(#paint6_linear)"/>
<path d="M43.7238 71.2658C42.3677 70.9025 42.864 71.7622 42.5006 73.1183C41.2773 74.9708 43.7238 71.2658 42.5006 73.1183C42.5006 73.1183 41.6408 73.6147 42.1371 74.4744L42.6335 75.3341L43.4933 74.8377C42.5006 73.1183 43.7238 71.2658 43.7238 71.2658Z" fill="url(#paint7_linear)"/>
<path d="M41.1807 80.7581C42.0405 80.2617 42.0405 80.2617 42.404 78.9056C41.9076 78.0459 42.2711 76.6898 41.4113 77.1862C41.9076 78.0459 41.5442 79.402 41.1807 80.7581C41.5442 79.402 40.3209 81.2545 41.1807 80.7581Z" fill="url(#paint8_linear)"/>
<path d="M38.7336 84.4631C37.8738 84.9595 38.3702 85.8192 37.5104 86.3156C37.5104 86.3156 36.2871 88.1681 36.7835 89.0278C38.636 90.2508 38.7336 84.4631 38.7336 84.4631Z" fill="url(#paint9_linear)"/>
<path d="M141.288 51.6183C141.785 52.478 142.281 53.3377 143.637 53.701L143.141 52.8413L144.001 52.3449C144.001 52.3449 143.504 51.4852 142.644 51.9816C141.785 52.478 142.644 51.9816 141.785 52.478C142.148 51.1219 140.792 50.7586 141.288 51.6183Z" fill="url(#paint10_linear)"/>
<path d="M39.629 91.9705C39.1327 91.1108 36.9167 91.2439 37.4131 92.1036C37.0496 93.4597 39.2656 93.3266 39.629 91.9705Z" fill="url(#paint11_linear)"/>
<path d="M156.719 116.07C155.859 116.566 156.356 117.426 155.992 118.782C155.992 118.782 155.992 118.782 156.489 119.642L157.349 119.145L156.852 118.285C156.852 118.285 156.852 118.285 157.216 116.929C157.216 116.929 157.083 114.714 156.719 116.07Z" fill="url(#paint12_linear)"/>
<path d="M135.102 44.8733C135.961 44.3769 137.318 44.7402 137.814 45.5999C137.318 44.7402 135.465 43.5172 135.102 44.8733C134.605 44.0136 135.102 44.8733 135.102 44.8733Z" fill="url(#paint13_linear)"/>
<path d="M43.3887 50.8274C43.3887 50.8274 43.2558 48.6116 42.396 49.108C42.396 49.108 42.0325 50.4641 42.5289 51.3239C41.6691 51.8203 43.0252 52.1836 43.3887 50.8274Z" fill="url(#paint14_linear)"/>
<path d="M37.9447 100.967C37.0849 101.463 37.9447 100.967 37.9447 100.967C38.8045 100.471 38.3081 99.6109 38.3081 99.6109C38.3081 99.6109 37.8118 98.7512 37.4483 100.107C37.4483 100.107 37.4483 100.107 37.9447 100.967Z" fill="url(#paint15_linear)"/>
<path d="M107.081 141.29C107.577 142.15 106.717 142.646 107.081 141.29C107.577 142.15 107.577 142.15 107.577 142.15C108.437 141.653 107.081 141.29 107.081 141.29Z" fill="url(#paint16_linear)"/>
<path d="M117.507 48.1538C118.004 49.0135 118.004 49.0135 117.507 48.1538C118.004 49.0135 118.864 48.5171 117.507 48.1538C118.367 47.6574 117.507 48.1538 117.507 48.1538Z" fill="url(#paint17_linear)"/>
<path d="M132.984 39.2192C132.487 38.3595 131.627 38.8559 132.124 39.7156C132.124 39.7156 134.34 39.5825 132.984 39.2192Z" fill="url(#paint18_linear)"/>
<path d="M154.538 124.208C155.398 123.711 155.398 123.711 154.901 122.852C154.042 123.348 154.042 123.348 154.538 124.208Z" fill="url(#paint19_linear)"/>
<path d="M42.2711 76.6895C43.1309 76.1931 44.4871 76.5564 42.2711 76.6895C43.1309 76.1931 43.1309 76.1931 42.2711 76.6895C43.1309 76.1931 43.1309 76.1931 42.2711 76.6895Z" fill="url(#paint20_linear)"/>
<path d="M39.4954 89.755C39.132 91.1111 39.4954 89.755 39.4954 89.755V89.755Z" fill="url(#paint21_linear)"/>
<path d="M54.734 54.5933C55.2304 55.453 55.2304 55.453 54.734 54.5933C56.0902 54.9566 54.734 54.5933 54.734 54.5933Z" fill="url(#paint22_linear)"/>
<path d="M38.9652 80.8914C39.825 80.395 39.825 80.395 38.9652 80.8914C38.4689 80.0317 38.9652 80.8914 38.9652 80.8914Z" fill="url(#paint23_linear)"/>
<path d="M44.7172 72.9856C45.577 72.4892 45.0807 71.6295 44.7172 72.9856C44.2209 72.1259 44.2209 72.1259 44.7172 72.9856Z" fill="url(#paint24_linear)"/>
<path d="M132.752 42.7915C134.108 43.1548 134.108 43.1548 132.752 42.7915V42.7915Z" fill="url(#paint25_linear)"/>
<path d="M56.223 57.1721C55.7266 56.3124 56.5864 55.816 56.223 57.1721C55.7266 56.3124 55.7266 56.3124 56.223 57.1721Z" fill="url(#paint26_linear)"/>
<path d="M153.901 91.3328C153.042 91.8292 154.034 93.5486 154.894 93.0522C155.754 92.5558 154.761 90.8364 153.901 91.3328Z" fill="url(#paint27_linear)"/>
<path d="M154.166 95.7648C153.307 96.2612 154.299 97.9806 154.299 97.9806C154.796 98.8403 154.663 96.6245 154.166 95.7648Z" fill="url(#paint28_linear)"/>
<path d="M151.888 109.69C151.888 109.69 152.748 109.193 151.888 109.69C152.748 109.193 152.251 108.334 152.251 108.334L151.888 109.69Z" fill="url(#paint29_linear)"/>
<path d="M153.343 104.264C152.483 104.761 153.839 105.124 153.343 104.264C154.202 103.768 153.343 104.264 153.343 104.264Z" fill="url(#paint30_linear)"/>
<path d="M153.671 94.9053C155.027 95.2686 154.531 94.4089 153.671 94.9053V94.9053Z" fill="url(#paint31_linear)"/>
<path d="M60.5843 40.899C61.4441 40.4026 63.1637 39.4098 61.8076 39.0465C61.8076 39.0465 60.9478 39.5429 60.088 40.0393C59.2282 40.5357 59.2282 40.5357 60.5843 40.899C59.7245 41.3954 59.7245 41.3954 60.5843 40.899Z" fill="url(#paint32_linear)"/>
</g>
<defs>
<linearGradient id="paint0_linear" x1="58.9623" y1="36.104" x2="126.466" y2="153.024" gradientUnits="userSpaceOnUse">
<stop stop-color="#F36E2A"/>
<stop offset="1" stop-color="#FEBD66"/>
</linearGradient>
<linearGradient id="paint1_linear" x1="122.129" y1="49.2105" x2="125.48" y2="55.0135" gradientUnits="userSpaceOnUse">
<stop stop-color="#F36E2A"/>
<stop offset="1" stop-color="#FEBD66"/>
</linearGradient>
<linearGradient id="paint2_linear" x1="133.478" y1="124.904" x2="136.456" y2="130.062" gradientUnits="userSpaceOnUse">
<stop stop-color="#F36E2A"/>
<stop offset="1" stop-color="#FEBD66"/>
</linearGradient>
<linearGradient id="paint3_linear" x1="132.202" y1="59.1557" x2="137.266" y2="67.9257" gradientUnits="userSpaceOnUse">
<stop stop-color="#F36E2A"/>
<stop offset="1" stop-color="#FEBD66"/>
</linearGradient>
<linearGradient id="paint4_linear" x1="142.634" y1="46.2558" x2="146.252" y2="52.5219" gradientUnits="userSpaceOnUse">
<stop stop-color="#F36E2A"/>
<stop offset="1" stop-color="#FEBD66"/>
</linearGradient>
<linearGradient id="paint5_linear" x1="150.386" y1="55.2143" x2="152.511" y2="58.8938" gradientUnits="userSpaceOnUse">
<stop stop-color="#F36E2A"/>
<stop offset="1" stop-color="#FEBD66"/>
</linearGradient>
<linearGradient id="paint6_linear" x1="38.6962" y1="93.3347" x2="42.806" y2="100.453" gradientUnits="userSpaceOnUse">
<stop stop-color="#F36E2A"/>
<stop offset="1" stop-color="#FEBD66"/>
</linearGradient>
<linearGradient id="paint7_linear" x1="42.2285" y1="71.6543" x2="43.9232" y2="74.5895" gradientUnits="userSpaceOnUse">
<stop stop-color="#F36E2A"/>
<stop offset="1" stop-color="#FEBD66"/>
</linearGradient>
<linearGradient id="paint8_linear" x1="40.6184" y1="77.6439" x2="42.1075" y2="80.223" gradientUnits="userSpaceOnUse">
<stop stop-color="#F36E2A"/>
<stop offset="1" stop-color="#FEBD66"/>
</linearGradient>
<linearGradient id="paint9_linear" x1="37.014" y1="85.4559" x2="38.7375" y2="88.441" gradientUnits="userSpaceOnUse">
<stop stop-color="#F36E2A"/>
<stop offset="1" stop-color="#FEBD66"/>
</linearGradient>
<linearGradient id="paint10_linear" x1="141.942" y1="50.7658" x2="143.637" y2="53.701" gradientUnits="userSpaceOnUse">
<stop stop-color="#F36E2A"/>
<stop offset="1" stop-color="#FEBD66"/>
</linearGradient>
<linearGradient id="paint11_linear" x1="37.9501" y1="91.3188" x2="38.8576" y2="92.8907" gradientUnits="userSpaceOnUse">
<stop stop-color="#F36E2A"/>
<stop offset="1" stop-color="#FEBD66"/>
</linearGradient>
<linearGradient id="paint12_linear" x1="155.912" y1="116.215" x2="157.54" y2="119.035" gradientUnits="userSpaceOnUse">
<stop stop-color="#F36E2A"/>
<stop offset="1" stop-color="#FEBD66"/>
</linearGradient>
<linearGradient id="paint13_linear" x1="135.741" y1="43.9948" x2="136.954" y2="46.0963" gradientUnits="userSpaceOnUse">
<stop stop-color="#F36E2A"/>
<stop offset="1" stop-color="#FEBD66"/>
</linearGradient>
<linearGradient id="paint14_linear" x1="41.9791" y1="49.3487" x2="43.1924" y2="51.4502" gradientUnits="userSpaceOnUse">
<stop stop-color="#F36E2A"/>
<stop offset="1" stop-color="#FEBD66"/>
</linearGradient>
<linearGradient id="paint15_linear" x1="37.4665" y1="99.5873" x2="38.1835" y2="100.829" gradientUnits="userSpaceOnUse">
<stop stop-color="#F36E2A"/>
<stop offset="1" stop-color="#FEBD66"/>
</linearGradient>
<linearGradient id="paint16_linear" x1="107.081" y1="141.29" x2="107.577" y2="142.15" gradientUnits="userSpaceOnUse">
<stop stop-color="#F36E2A"/>
<stop offset="1" stop-color="#FEBD66"/>
</linearGradient>
<linearGradient id="paint17_linear" x1="117.699" y1="48.0435" x2="118.071" y2="48.6883" gradientUnits="userSpaceOnUse">
<stop stop-color="#F36E2A"/>
<stop offset="1" stop-color="#FEBD66"/>
</linearGradient>
<linearGradient id="paint18_linear" x1="132.302" y1="38.7531" x2="132.895" y2="39.78" gradientUnits="userSpaceOnUse">
<stop stop-color="#F36E2A"/>
<stop offset="1" stop-color="#FEBD66"/>
</linearGradient>
<linearGradient id="paint19_linear" x1="154.471" y1="123.1" x2="154.968" y2="123.96" gradientUnits="userSpaceOnUse">
<stop stop-color="#F36E2A"/>
<stop offset="1" stop-color="#FEBD66"/>
</linearGradient>
<linearGradient id="paint20_linear" x1="42.7675" y1="76.4029" x2="42.9881" y2="76.7849" gradientUnits="userSpaceOnUse">
<stop stop-color="#F36E2A"/>
<stop offset="1" stop-color="#FEBD66"/>
</linearGradient>
<linearGradient id="paint21_linear" x1="39.3043" y1="89.8653" x2="39.5249" y2="90.2474" gradientUnits="userSpaceOnUse">
<stop stop-color="#F36E2A"/>
<stop offset="1" stop-color="#FEBD66"/>
</linearGradient>
<linearGradient id="paint22_linear" x1="54.9251" y1="54.4829" x2="55.2973" y2="55.1277" gradientUnits="userSpaceOnUse">
<stop stop-color="#F36E2A"/>
<stop offset="1" stop-color="#FEBD66"/>
</linearGradient>
<linearGradient id="paint23_linear" x1="39.0671" y1="80.3231" x2="39.2877" y2="80.7052" gradientUnits="userSpaceOnUse">
<stop stop-color="#F36E2A"/>
<stop offset="1" stop-color="#FEBD66"/>
</linearGradient>
<linearGradient id="paint24_linear" x1="44.6674" y1="72.1547" x2="45.0397" y2="72.7995" gradientUnits="userSpaceOnUse">
<stop stop-color="#F36E2A"/>
<stop offset="1" stop-color="#FEBD66"/>
</linearGradient>
<linearGradient id="paint25_linear" x1="133.075" y1="42.6054" x2="133.447" y2="43.2501" gradientUnits="userSpaceOnUse">
<stop stop-color="#F36E2A"/>
<stop offset="1" stop-color="#FEBD66"/>
</linearGradient>
<linearGradient id="paint26_linear" x1="56.0418" y1="56.417" x2="56.414" y2="57.0618" gradientUnits="userSpaceOnUse">
<stop stop-color="#F36E2A"/>
<stop offset="1" stop-color="#FEBD66"/>
</linearGradient>
<linearGradient id="paint27_linear" x1="153.901" y1="91.3328" x2="154.894" y2="93.0522" gradientUnits="userSpaceOnUse">
<stop stop-color="#F36E2A"/>
<stop offset="1" stop-color="#FEBD66"/>
</linearGradient>
<linearGradient id="paint28_linear" x1="153.737" y1="96.013" x2="154.865" y2="97.9667" gradientUnits="userSpaceOnUse">
<stop stop-color="#F36E2A"/>
<stop offset="1" stop-color="#FEBD66"/>
</linearGradient>
<linearGradient id="paint29_linear" x1="151.821" y1="108.582" x2="152.318" y2="109.442" gradientUnits="userSpaceOnUse">
<stop stop-color="#F36E2A"/>
<stop offset="1" stop-color="#FEBD66"/>
</linearGradient>
<linearGradient id="paint30_linear" x1="153.343" y1="104.264" x2="153.563" y2="104.646" gradientUnits="userSpaceOnUse">
<stop stop-color="#F36E2A"/>
<stop offset="1" stop-color="#FEBD66"/>
</linearGradient>
<linearGradient id="paint31_linear" x1="153.993" y1="94.7191" x2="154.214" y2="95.1012" gradientUnits="userSpaceOnUse">
<stop stop-color="#F36E2A"/>
<stop offset="1" stop-color="#FEBD66"/>
</linearGradient>
<linearGradient id="paint32_linear" x1="60.7425" y1="39.6614" x2="61.2389" y2="40.5211" gradientUnits="userSpaceOnUse">
<stop stop-color="#F36E2A"/>
<stop offset="1" stop-color="#FEBD66"/>
</linearGradient>
<clipPath id="clip0">
<rect width="138" height="136" fill="white" transform="translate(0 69) rotate(-30)"/>
</clipPath>
</defs>
</svg>
