<svg width="188" height="187" viewBox="0 0 188 187" fill="none" xmlns="http://www.w3.org/2000/svg">
<g clip-path="url(#clip0)">
<path d="M149.824 126.334C149.461 124.978 148.601 124.481 147.741 123.985C146.881 123.488 145.162 122.496 144.302 121.999C143.442 121.503 142.582 121.006 140.863 120.014C140.003 119.517 139.507 120.377 139.01 121.237C137.521 123.816 135.669 125.039 134.18 127.618C132.691 130.197 130.838 131.42 129.349 133.999C128.853 134.859 127.497 135.222 127 136.082C126.504 136.941 125.148 137.305 124.652 138.164C124.155 139.024 122.799 139.387 122.303 140.247C122.303 140.247 121.806 141.107 120.947 140.61C120.947 140.61 120.45 141.47 119.59 140.974L118.731 140.477C118.731 140.477 118.731 140.477 117.871 139.981C117.871 139.981 117.871 139.981 116.515 140.344C116.018 141.204 116.018 141.204 116.018 141.204C115.522 142.064 114.166 142.427 112.81 142.79C111.454 143.154 110.957 144.013 109.601 144.377C108.245 144.74 105.036 146.326 104.176 145.83C103.317 145.333 103.813 144.474 102.457 144.837L101.101 145.2C100.241 144.704 99.7445 145.564 98.8848 145.067L97.5286 145.43C97.0323 146.29 97.0322 146.29 97.0322 146.29C95.6761 146.653 95.6761 146.653 94.8163 146.157C93.9565 145.661 94.8163 146.157 93.4602 146.52C92.9638 147.38 92.104 146.884 90.7479 147.247L89.3917 147.61C89.3917 147.61 88.5319 147.114 87.1758 147.477C85.8197 147.84 84.9599 147.344 83.6037 147.707C82.2476 148.071 81.3878 147.574 80.528 147.078C79.6682 146.581 79.6682 146.581 79.6682 146.581L78.312 146.945L77.4522 146.448C76.5924 145.952 76.5924 145.952 75.2363 146.315C74.3765 145.819 73.0204 146.182 72.1606 145.686C71.3008 145.189 71.3008 145.189 71.3008 145.189C70.441 144.693 70.441 144.693 69.5812 144.196C68.7214 143.7 68.7214 143.7 67.8616 143.204C67.0018 142.707 67.0018 142.707 66.142 142.211C65.2822 141.714 65.2822 141.714 64.4224 141.218L63.5626 140.722L64.059 139.862C63.1992 139.366 63.1992 139.366 62.3394 138.869C61.4796 138.373 60.6198 137.876 59.76 137.38C58.9002 136.884 58.5367 135.527 57.6769 135.031C56.8172 134.535 56.8172 134.535 56.8172 134.535C55.9574 134.038 55.9574 134.038 55.0976 133.542C54.2378 133.045 53.8743 131.689 53.0145 131.193C52.1547 130.697 51.7913 129.34 50.0717 128.348C49.2119 127.851 48.3521 127.355 47.4923 126.858C46.6325 126.362 47.1289 125.502 47.1289 125.502C46.2691 125.006 45.9056 123.65 45.0458 123.153C45.0458 123.153 44.186 122.657 44.6824 121.797C44.3189 120.441 43.4591 119.945 43.0957 118.589C42.2359 118.092 41.8725 116.736 41.0127 116.24L40.6492 114.884L39.7894 114.387C38.9296 113.891 38.5662 112.535 38.5662 112.535C39.0625 111.675 39.9223 112.171 39.5589 110.815L38.6991 110.319C38.6991 110.319 39.1955 109.459 38.3357 108.963C37.9722 107.607 36.6161 107.97 37.1124 107.11C36.749 105.754 37.7417 104.035 37.3782 102.679C37.3782 102.679 36.5184 102.182 37.0148 101.323L36.6513 99.9665C36.2879 98.6104 36.7842 97.7506 36.4208 96.3945C35.561 95.8981 36.0573 95.0384 36.5537 94.1787C37.0501 93.319 37.0501 93.319 36.1903 92.8226C36.1903 92.8226 35.8268 91.4665 36.3232 90.6068C36.8195 89.7471 36.6866 91.9629 36.6866 91.9629C37.5464 92.4593 37.9098 93.8154 38.2733 95.1715C37.7769 96.0312 38.1404 97.3873 38.1404 97.3873C39.0002 97.8837 39.0002 97.8837 39.3636 99.2399L38.8673 100.1L39.2307 101.456C39.5942 102.812 39.9576 104.168 39.4613 105.028C39.8247 106.384 40.1881 107.74 40.5516 109.096C40.915 110.452 41.2785 111.808 41.6419 113.164C42.0054 114.52 42.8652 115.017 43.725 115.513C44.0884 116.869 44.0884 116.869 44.4519 118.225C45.3116 118.722 45.6751 120.078 45.1787 120.938C44.6824 121.797 45.5422 122.294 46.402 122.79C48.1216 123.783 48.485 125.139 49.7083 126.991C50.5681 127.488 50.9315 128.844 51.7913 129.34C54.7341 132.186 56.8172 134.535 60.2563 136.52C61.1161 137.017 61.9759 137.513 63.6955 138.506C64.5553 139.002 65.4151 139.499 66.2749 139.995C65.4151 139.499 63.6955 138.506 62.8357 138.009C61.9759 137.513 60.2563 136.52 59.3965 136.024C58.5367 135.527 58.5367 135.527 58.1733 134.171C57.3135 133.675 57.8099 132.815 57.8099 132.815C56.9501 132.319 56.0903 131.822 56.0903 131.822C55.2305 131.326 54.3707 130.83 54.867 129.97C53.1474 128.977 52.784 127.621 52.4205 126.265C51.5607 125.768 52.0571 124.909 51.1973 124.412C50.3375 123.916 50.3375 123.916 49.9741 122.56C49.9741 122.56 49.9741 122.56 49.1143 122.063C49.1143 122.063 49.1143 122.063 48.7508 120.707C47.891 120.211 47.891 120.211 48.3874 119.351L48.8837 118.492C48.3874 119.351 46.6678 118.358 46.6678 118.358C45.808 117.862 45.9409 115.646 45.0811 115.15C43.8579 113.297 43.4944 111.941 42.6346 111.445L42.2712 110.089C42.7675 109.229 41.9077 108.733 41.0479 108.236C39.8247 106.384 39.9576 104.168 39.2307 101.456C39.7271 100.596 38.8673 100.1 39.3636 99.2399C39.3636 99.2399 39.86 98.3802 39.0002 97.8837L39.4965 97.024L38.6367 96.5276C39.1331 95.6679 40.1258 93.9485 39.7623 92.5924C39.3989 91.2363 40.3916 89.5169 40.0282 88.1608C39.6647 86.8047 40.6574 85.0853 40.294 83.7292C40.7903 82.8695 40.7903 82.8695 41.2867 82.0098C41.783 81.1501 41.2867 82.0098 41.783 81.1501C40.9232 80.6537 41.4196 79.794 41.4196 79.794C41.9159 78.9343 41.5525 77.5781 42.0488 76.7184C43.5379 74.1393 44.1671 71.0638 45.6562 68.4847C46.6489 66.7653 47.1452 65.9056 48.1379 64.1862C49.1306 62.4668 49.627 61.6071 50.6197 59.8877C50.6197 59.8877 51.116 59.028 51.6124 58.1683C52.1087 57.3086 50.7526 57.6719 51.2489 56.8121C50.3891 56.3157 52.738 54.233 52.6051 56.4488C53.9612 56.0855 54.4576 55.2258 54.9539 54.3661C55.4503 53.5064 56.8064 53.1431 57.3028 52.2834C55.9466 52.6467 55.8137 54.8625 53.5978 54.7294L52.738 54.233C52.738 54.233 53.2343 53.3733 53.7307 52.5136C54.227 51.6539 56.0795 50.4309 56.5759 49.5712C57.0722 48.7115 57.932 49.2079 57.0722 48.7115C56.2124 48.2151 56.2124 48.2151 56.7088 47.3554C57.2051 46.4957 57.7015 45.636 58.5613 46.1324C59.0576 45.2727 59.554 44.413 59.554 44.413C60.0503 43.5533 60.9101 44.0497 61.4065 43.19C61.9028 42.3303 62.7626 42.8267 63.259 41.967C63.7553 41.1073 65.6078 39.8843 66.964 39.521L68.3201 39.1577C69.6763 38.7944 69.6763 38.7944 70.1726 37.9347C70.669 37.075 71.5288 37.5714 72.8849 37.2081C74.6045 38.2009 75.1008 37.3412 76.457 36.9779C77.8131 36.6146 79.1693 36.2513 80.5254 35.888C81.3852 36.3844 81.3852 36.3844 82.7414 36.0211C82.7414 36.0211 84.0975 35.6578 84.5939 34.7981C84.5939 34.7981 85.4537 35.2945 85.95 34.4348L86.4464 33.575C86.9427 32.7153 87.3062 34.0715 87.3062 34.0715C88.166 34.5679 88.6623 33.7082 89.5221 34.2046C90.3819 34.701 89.8855 35.5607 89.8855 35.5607C90.7453 36.0571 90.7453 36.0571 90.7453 36.0571L91.6051 36.5535C91.1088 37.4132 91.1088 37.4132 90.6124 38.2729C90.6124 38.2729 91.4722 38.7693 92.332 39.2657C93.1918 39.7621 93.6882 38.9024 93.6882 38.9024C94.548 39.3988 94.548 39.3988 95.9041 39.0355C95.9041 39.0355 95.9041 39.0355 96.7639 39.5319L97.6237 40.0283L98.9798 39.665C100.203 41.5175 102.782 43.0067 102.915 40.7909C102.915 40.7909 102.552 39.4348 103.412 39.9312C104.272 40.4276 103.775 41.2873 103.775 41.2873C103.775 41.2873 104.139 42.6434 105.495 42.2801C105.495 42.2801 106.487 40.5607 105.628 40.0643C104.768 39.5679 104.768 39.5679 103.908 39.0715C103.048 38.5751 103.048 38.5751 102.188 38.0787C101.329 37.5823 100.469 37.0859 99.9725 37.9456C99.9725 37.9456 99.4762 38.8053 98.6164 38.3089C98.6164 38.3089 98.6164 38.3089 97.7566 37.8125C97.7566 37.8125 97.7566 37.8125 96.8968 37.3161C96.037 36.8197 94.1845 38.0427 94.3174 35.8269C94.3174 35.8269 94.8138 34.9672 95.3101 34.1075L96.1699 34.6039L97.0297 35.1003C97.0297 35.1003 97.0297 35.1003 97.8895 35.5967C97.8895 35.5967 98.3859 34.737 99.2457 35.2334C100.105 35.7298 100.105 35.7298 100.965 36.2262C100.965 36.2262 100.965 36.2262 102.321 35.8629C102.321 35.8629 103.181 36.3593 103.678 35.4996C104.041 36.8557 106.257 36.9888 107.977 37.9816C111.912 39.1075 114.491 40.5967 118.427 41.7226C120.147 42.7154 121.866 43.7082 123.586 44.701C124.446 45.1974 125.305 45.6938 127.025 46.6866C127.885 47.183 128.248 48.5391 128.248 48.5391C129.108 49.0355 129.968 49.532 130.828 50.0284C130.828 50.0284 132.051 51.8809 131.191 51.3845C131.191 51.3845 130.331 50.8881 129.471 50.3917C128.612 49.8953 127.752 49.3988 126.892 48.9024C125.172 47.9096 123.453 46.9168 121.733 45.924C120.014 44.9312 118.294 43.9384 116.574 42.9456C115.715 42.4492 114.855 41.9528 113.995 41.4564C113.499 42.3161 112.639 41.8197 112.639 41.8197L112.143 42.6794L111.283 42.183C110.423 41.6866 109.563 41.1902 108.207 41.5535C108.57 42.9096 109.067 42.0499 109.927 42.5463C110.786 43.0427 110.29 43.9024 110.29 43.9024L111.15 44.3988C112.01 44.8952 112.869 45.3916 112.869 45.3916C113.729 45.888 114.589 46.3844 115.945 46.0211C116.805 46.5175 117.665 47.0139 118.525 47.5103L119.384 48.0067L119.748 49.3628C120.608 49.8592 121.467 50.3556 121.964 49.4959C124.18 49.629 125.403 51.4816 127.123 52.4744L127.982 52.9708L128.842 53.4672L129.702 53.9636C130.562 54.46 130.562 54.46 131.422 54.9564C135.091 60.5139 138.034 63.3592 139.124 67.4275C144.381 76.1937 147.288 87.0425 146.624 98.1216C146.987 99.4777 147.351 100.834 146.358 102.553C145.862 103.413 146.721 103.909 146.225 104.769L145.729 105.629C145.729 105.629 145.232 106.488 146.092 106.985C145.596 107.845 145.959 109.201 145.463 110.06C144.967 110.92 145.33 112.276 143.974 112.639C144.337 113.996 143.345 115.715 142.848 116.575C142.352 117.434 140.003 119.517 140.367 120.873C141.226 121.37 142.086 121.866 142.946 122.362C143.806 122.859 144.666 123.355 145.525 123.852C146.385 124.348 147.245 124.844 147.245 124.844C147.741 123.985 148.238 123.125 148.734 122.265L149.23 121.406C149.23 121.406 149.727 120.546 148.867 120.05C149.363 119.19 149.86 118.33 149.496 116.974C149.992 116.114 149.992 116.114 150.489 115.255C150.985 114.395 151.482 113.535 151.978 112.675C152.474 111.816 152.971 110.956 152.607 109.6C153.103 108.74 152.74 107.384 153.236 106.524C153.733 105.665 153.369 104.309 153.369 104.309C153.866 103.449 152.146 102.456 153.502 102.093C153.502 102.093 153.502 102.093 153.999 101.233C153.999 101.233 153.635 99.877 154.131 99.0173C154.628 98.1576 154.264 96.8015 154.761 95.9418C155.257 95.0821 155.753 94.2224 155.753 94.2224C155.753 94.2224 154.894 93.726 155.39 92.8663L155.886 92.0066C156.25 93.3627 156.117 95.5785 156.48 96.9346C155.984 97.7943 156.347 99.1504 156.347 99.1504C156.711 100.507 157.207 99.6468 157.704 98.7871C157.836 96.5713 158.466 93.4958 157.739 90.7836C158.235 89.9239 157.375 89.4275 157.872 88.5678C158.368 87.7081 158.005 86.352 158.864 86.8484C159.724 87.3448 159.724 87.3448 159.228 88.2045L159.591 89.5606L159.095 90.4203L159.458 91.7764C159.822 93.1325 159.822 93.1325 160.185 94.4886C159.689 95.3483 160.052 96.7044 160.052 96.7044L160.549 95.8447C160.549 95.8447 160.549 95.8447 160.185 94.4886L160.682 93.6289C161.178 92.7692 160.318 92.2728 159.458 91.7764C159.095 90.4203 159.095 90.4203 159.591 89.5606C160.088 88.7009 160.088 88.7009 159.228 88.2045C158.368 87.7081 159.724 87.3448 159.361 85.9887C159.494 83.7728 158.767 81.0606 157.544 79.2081C156.817 76.4959 156.453 75.1398 155.23 73.2873C154.867 71.9312 154.007 71.4348 153.643 70.0787C153.28 68.7226 152.42 68.2262 152.057 66.87C151.693 65.5139 151.693 65.5139 151.33 64.1578C150.966 62.8017 150.966 62.8017 150.603 61.4456C152.819 61.5787 152.455 60.2226 151.596 59.7262C151.596 59.7262 150.736 59.2298 151.232 58.3701C150.372 57.8737 150.372 57.8737 150.009 56.5176C150.505 55.6579 147.926 54.1687 147.562 52.8126C145.976 49.604 143.033 46.7586 140.453 45.2694L139.594 44.773C138.734 44.2766 138.734 44.2766 138.37 42.9205C137.511 42.4241 136.651 41.9277 135.791 41.4313C134.931 40.9349 134.071 40.4385 133.212 39.9421C131.492 38.9493 129.772 37.9565 128.549 36.104C127.689 35.6076 126.83 35.1112 125.97 34.6148C125.11 34.1184 124.25 33.622 123.39 33.1256C122.531 32.6292 121.175 32.9925 121.175 32.9925C120.315 32.4961 120.315 32.4961 119.455 31.9997C118.595 31.5033 118.595 31.5033 117.735 31.0069C116.876 30.5104 115.156 29.5176 113.8 29.8809C112.08 28.8881 111.22 28.3917 109.501 27.3989C109.501 27.3989 109.501 27.3989 108.641 26.9025C107.781 26.4061 107.285 27.2658 106.789 28.1255L108.012 29.978C108.012 29.978 108.508 29.1183 109.368 29.6147C109.368 29.6147 110.228 30.1111 110.724 29.2514C111.584 29.7478 112.444 30.2442 113.303 30.7406L114.163 31.2371L114.527 32.5932C114.527 32.5932 114.527 32.5932 115.883 32.2299L116.743 32.7263C117.602 33.2227 118.462 33.7191 118.462 33.7191C118.462 33.7191 118.826 35.0752 118.329 35.9349C117.833 36.7946 116.113 35.8018 116.113 35.8018C115.254 35.3054 114.757 36.1651 114.394 34.809L113.534 34.3126C112.674 33.8162 111.814 33.3198 110.458 33.6831C109.235 31.8306 108.375 31.3341 107.515 30.8377C106.656 30.3413 105.796 29.8449 104.44 30.2082C103.084 30.5715 101.727 30.9348 101.727 30.9348C100.868 30.4384 101.364 29.5787 101.364 29.5787C101.86 28.719 101.86 28.719 102.357 27.8593C102.357 27.8593 103.216 28.3557 103.713 27.496L103.349 26.1399C102.986 24.7838 98.9175 25.8737 97.5613 26.237C97.065 27.0967 97.5613 26.237 98.4211 26.7334C99.2809 27.2298 100.141 27.7262 100.141 27.7262C100.008 29.942 99.148 29.4456 98.6517 30.3053C97.2955 30.6686 95.9394 31.0319 95.0796 30.5355C94.2198 30.0391 93.36 29.5427 93.36 29.5427L92.5002 29.0463C91.6404 28.5499 92.5002 29.0463 92.9966 28.1866C92.9966 28.1866 93.4929 27.3269 94.3527 27.8233C94.3527 27.8233 95.7088 27.46 96.2052 26.6003C95.4783 23.8881 90.9135 25.8377 90.9135 25.8377C89.5574 26.201 89.061 27.0607 88.2012 26.5643C87.3414 26.0679 86.4816 25.5715 85.9853 26.4312C85.1255 25.9348 84.6291 26.7945 83.7693 26.2981C82.4132 26.6614 83.273 27.1578 82.7766 28.0175C82.2803 28.8772 80.9241 29.2405 80.0644 28.7441C77.8484 28.611 77.9813 26.3952 77.485 27.2549C76.6252 26.7585 75.269 27.1218 75.269 27.1218C73.9129 27.4851 72.5567 27.8484 71.2006 28.2117C70.7042 29.0714 69.8444 28.575 68.4883 28.9383L67.992 29.798C67.992 29.798 67.4956 30.6577 66.6358 30.1613L64.9162 29.1685L63.5601 29.5318C63.9235 30.8879 62.5674 31.2512 62.5674 31.2512C62.071 32.1109 60.7149 32.4742 60.2185 33.3339C57.0099 34.9202 53.8012 36.5066 50.956 39.449C49.5999 39.8123 47.7474 41.0353 46.7547 42.7547C44.9022 43.9777 43.0497 45.2007 41.5607 47.7798C41.0643 48.6395 40.568 49.4992 40.0716 50.3589C38.7155 50.7222 38.2191 51.5819 37.7228 52.4416C37.2264 53.3013 38.0862 53.7977 37.5899 54.6574C37.0935 55.5171 36.7301 54.161 36.2337 55.0207C35.7374 55.8804 35.241 56.7401 34.7447 57.5998C35.1081 58.9559 35.1081 58.956 35.9679 59.4524C36.8277 59.9488 36.8277 59.9488 36.8277 59.9488L37.324 59.0891L37.8204 58.2293C37.8204 58.2293 38.3167 57.3696 38.8131 56.5099C40.1692 56.1466 39.1765 57.866 38.6802 58.7258C38.1838 59.5855 37.6875 60.4452 37.1911 61.3049C36.6948 62.1646 36.1984 63.0243 35.7021 63.884C34.7094 65.6034 33.2203 68.1825 32.2276 69.9019C31.2349 71.6213 31.102 73.8371 30.1093 75.5565C30.4728 76.9126 30.207 81.3443 29.9412 85.7759C29.4448 86.6356 29.8082 87.9917 29.6753 90.2075C29.179 91.0672 30.0388 91.5636 29.5424 92.4233C29.9059 93.7794 29.4095 94.6391 30.2693 95.1355C29.773 95.9952 30.6328 96.4916 30.1364 97.3513C29.6401 98.211 30.4999 98.7075 30.0035 99.5672C30.0035 99.5672 30.367 100.923 29.8706 101.783C29.3743 102.643 30.2341 103.139 30.5975 104.495C30.5975 104.495 30.1011 105.355 30.9609 105.851C31.3244 107.207 31.3244 107.207 31.6878 108.563C32.9111 110.416 32.7782 112.632 33.1416 113.988C34.3649 115.84 34.7283 117.197 35.4552 119.909C35.8186 121.265 37.0419 123.117 37.9017 123.614C38.7615 124.11 39.1249 125.466 39.9847 125.963C41.2079 127.815 42.4312 129.668 43.6544 131.52C44.5142 132.017 44.8777 133.373 45.7374 133.869C45.2411 134.729 46.9607 135.722 46.4643 136.581C45.968 137.441 46.4643 136.581 46.4643 136.581L45.6045 136.085L44.7448 135.589C43.885 135.092 43.5215 133.736 42.6617 133.24C41.4385 131.387 40.2152 129.535 39.8518 128.178C38.992 127.682 38.6286 126.326 37.7688 125.83C36.909 125.333 37.4053 124.473 37.0419 123.117L36.1821 122.621L35.3223 122.125L35.8186 121.265L35.4552 119.909C33.7356 118.916 32.8758 118.42 31.6526 116.567C31.2891 115.211 31.7855 114.351 31.7855 114.351L30.9257 113.855L30.5622 112.499C30.1988 111.143 29.339 110.646 29.8353 109.787C28.6121 107.934 29.1084 107.074 28.745 105.718C28.8779 103.502 27.6547 101.65 27.7876 99.434C27.4241 98.0779 27.4241 98.0779 27.9205 97.2182C28.4168 96.3585 28.4168 96.3585 28.9132 95.4988C29.4095 94.6391 28.0534 95.0024 28.5497 94.1427L28.1863 92.7866C27.3265 92.2902 27.4594 90.0744 27.096 88.7183C27.5923 87.8586 26.7325 87.3622 27.2289 86.5025C27.7252 85.6428 27.7252 85.6428 28.2216 84.7831C26.9983 82.9306 27.4947 82.0709 28.4874 80.3515C28.9837 79.4917 29.4801 78.632 29.1166 77.2759C29.613 76.4162 30.1093 75.5565 29.7459 74.2004C30.7386 72.481 30.8715 70.2652 31.8642 68.5458C32.8569 66.8264 33.4861 63.7509 34.4788 62.0315C34.4788 62.0315 34.9752 61.1718 34.1154 60.6754C33.2556 60.179 33.6191 61.5351 33.1227 62.3948C32.6264 63.2545 32.13 64.1142 32.13 64.1142C31.6336 64.9739 31.9971 66.33 31.5007 67.1897C31.3678 69.4055 29.5153 70.6285 29.3824 72.8443C28.7532 75.9198 28.1239 78.9953 27.4947 82.0709C26.8654 85.1464 26.2362 88.2219 25.6069 91.2974C24.9776 94.3729 25.7045 97.0851 26.4314 99.7973C26.2985 102.013 27.5218 103.866 28.745 105.718C27.7523 107.438 28.1157 108.794 28.1157 108.794L28.4792 110.15L29.339 110.646L29.2061 112.862C29.0732 115.078 29.933 115.574 29.4366 116.434C29.8001 117.79 31.0233 119.643 31.3867 120.999C32.61 122.851 32.9734 124.207 34.1967 126.06C35.7834 129.268 37.5029 130.261 37.8664 131.617L38.2298 132.973L39.0896 133.47C39.9494 133.966 40.3129 135.322 41.1727 135.819C42.0325 136.315 42.3959 137.671 43.2557 138.168L44.1155 138.664C44.9753 139.16 44.4789 140.02 45.3387 140.517L46.1985 141.013C47.0583 141.509 47.0583 141.509 47.9181 142.006C48.7779 142.502 49.1414 143.858 50.0012 144.355C50.8609 144.851 50.861 144.851 51.2244 146.207C52.0842 146.704 51.5878 147.563 52.4476 148.06C53.3074 148.556 53.3074 148.556 54.1672 149.053C55.027 149.549 55.027 149.549 55.8868 150.045C56.7466 150.542 57.6064 151.038 58.4662 151.535L59.326 152.031C60.1858 152.527 60.1858 152.527 61.0456 153.024L61.9054 153.52L62.7652 154.017C63.625 154.513 64.4848 155.009 65.3446 155.506C67.0642 156.499 69.2801 156.632 70.9997 157.624C73.5791 159.114 76.6548 159.743 80.2269 159.513C82.0794 158.29 84.2953 158.423 86.0149 159.416C88.2309 159.549 90.4468 159.682 91.8029 159.319C94.5152 158.592 97.591 159.222 100.303 158.495C103.016 157.768 104.372 157.405 107.084 156.679C108.44 156.315 110.656 156.448 112.509 155.225C113.865 154.862 116.577 154.135 116.94 155.492C117.933 153.772 119.289 153.409 120.645 153.046C122.002 152.682 122.002 152.682 122.861 153.179C123.721 153.675 122.861 153.179 123.358 152.319C123.854 151.459 123.854 151.459 125.21 151.096C126.566 150.733 126.566 150.733 127.923 150.369C128.419 149.51 128.419 149.51 129.775 149.146C129.775 149.146 130.271 148.287 131.131 148.783L131.628 147.923C132.124 147.064 133.48 146.7 133.976 145.841C134.473 144.981 135.829 144.618 136.325 143.758C136.325 143.758 136.822 142.898 137.681 143.395C137.681 143.395 138.541 143.891 139.037 143.031C140.394 142.668 139.534 142.172 139.534 142.172C139.534 142.172 140.394 142.668 140.89 141.808L141.386 140.949L141.883 140.089C142.379 139.229 143.239 139.726 143.735 138.866C144.232 138.006 144.728 137.147 145.224 136.287C145.721 135.427 146.217 134.567 146.713 133.708C147.21 132.848 146.846 131.492 146.846 131.492L148.202 131.129C148.699 130.269 148.699 130.269 149.195 129.409C150.188 127.69 150.188 127.69 149.824 126.334ZM147.014 121.273C146.155 120.776 146.155 120.776 147.014 121.273V121.273ZM146.917 115.485C147.777 115.981 145.924 117.204 146.917 115.485C146.917 115.485 147.413 114.625 146.917 115.485C147.413 114.625 146.917 115.485 146.917 115.485ZM150.161 105.895C149.664 106.755 150.028 108.111 149.531 108.97C149.035 109.83 149.398 111.186 148.042 111.55C146.686 111.913 146.686 111.913 147.183 111.053L147.679 110.193C147.315 108.837 148.308 107.118 148.805 106.258L149.301 105.399C149.797 104.539 150.657 105.035 150.161 105.895ZM159.494 83.7728C158.634 83.2764 158.634 83.2764 159.494 83.7728C158.634 83.2764 158.634 83.2764 159.494 83.7728ZM156.187 79.5714C157.544 79.2081 158.767 81.0606 159.13 82.4167L159.99 82.9131L159.494 83.7728L159.857 85.1289C159.361 85.9886 158.501 85.4922 158.501 85.4922C157.641 84.9958 157.774 82.78 157.411 81.4239C156.914 82.2836 154.831 79.9347 156.187 79.5714ZM149.371 89.3915C149.371 89.3915 150.231 89.8879 150.595 91.244C150.595 91.244 150.098 92.1037 150.958 92.6001L151.322 93.9562L150.825 94.8159L151.189 96.172C151.552 97.5281 151.419 99.7439 151.783 101.1C151.783 101.1 152.146 102.456 151.65 103.316L149.797 104.539C148.441 104.902 148.574 102.686 149.07 101.827C149.567 100.967 150.063 100.107 149.203 99.6108C149.203 99.6108 148.84 98.2547 147.98 97.7583C147.617 96.4022 148.476 96.8986 148.113 95.5425C148.609 94.6828 148.246 93.3267 148.246 93.3267C147.882 91.9706 147.882 91.9706 147.519 90.6145C148.875 90.2512 149.008 88.0354 149.371 89.3915ZM154.831 79.9347C153.971 79.4383 154.468 78.5786 153.608 78.0822L153.245 76.7261C154.104 77.2225 154.104 77.2225 153.608 78.0822C154.468 78.5786 154.468 78.5786 154.831 79.9347ZM153.643 70.0787C154.999 69.7154 154.503 70.5751 154.503 70.5751L154.867 71.9312C155.726 72.4276 156.95 74.2801 156.453 75.1398C155.957 75.9995 155.097 75.5031 155.097 75.5031C154.237 75.0067 154.734 74.147 153.874 73.6506C154.37 72.7909 153.643 70.0787 153.643 70.0787ZM151.826 63.2981C153.182 62.9348 153.909 65.647 152.553 66.0103C150.337 65.8772 150.47 63.6614 151.826 63.2981ZM145.01 73.1182C145.87 73.6146 145.87 73.6146 146.73 74.111L147.589 74.6074C147.093 75.4671 146.73 74.111 146.73 74.111L145.01 73.1182C143.654 73.4815 144.15 72.6218 145.01 73.1182ZM143.06 68.5535C142.564 69.4132 142.564 69.4132 143.06 68.5535C141.704 68.9168 142.2 68.0571 143.06 68.5535ZM149.016 58.237C149.016 58.237 147.66 58.6003 149.016 58.237C148.156 57.7406 148.156 57.7406 149.016 58.237ZM142.501 55.6219C143.361 56.1183 143.361 56.1183 143.724 57.4744C142.865 56.978 142.501 55.6219 142.501 55.6219C141.641 55.1255 142.501 55.6219 142.501 55.6219ZM138.335 50.9241C139.195 51.4205 139.195 51.4205 139.558 52.7766C140.418 53.273 140.418 53.273 139.558 52.7766C138.699 52.2802 137.475 50.4277 136.616 49.9313C137.112 49.0716 137.475 50.4277 138.335 50.9241ZM137.378 44.6399C136.881 45.4996 136.881 45.4996 137.378 44.6399C136.881 45.4996 137.378 44.6399 137.378 44.6399ZM129.276 38.8162C129.772 37.9565 132.352 39.4457 130.996 39.809C130.136 39.3126 127.92 39.1795 129.276 38.8162ZM129.64 40.1723C130.499 40.6687 129.143 41.032 129.64 40.1723C129.143 41.032 128.78 39.6759 127.92 39.1795C128.283 40.5356 129.64 40.1723 129.64 40.1723ZM121.042 35.2083C122.398 34.845 123.754 34.4817 124.614 34.9781C125.473 35.4745 124.977 36.3342 124.977 36.3342C125.837 36.8306 125.837 36.8306 125.837 36.8306C127.193 36.4673 128.053 36.9637 128.416 38.3198L127.92 39.1795C127.92 39.1795 127.92 39.1795 128.283 40.5356C127.787 41.3953 127.787 41.3953 127.291 42.255C128.151 42.7514 129.01 43.2478 130.73 44.2406C131.59 44.737 132.813 46.5895 134.169 46.2262C133.806 44.8701 132.449 45.2334 131.59 44.737C131.59 44.737 129.87 43.7442 129.01 43.2478C129.507 42.3881 131.226 43.3809 131.226 43.3809C132.086 43.8773 132.582 43.0176 133.079 42.1579C133.939 42.6543 135.295 42.291 134.798 43.1507C134.302 44.0104 134.302 44.0104 134.665 45.3665C135.525 45.8629 136.385 46.3593 135.889 47.219C136.252 48.5751 137.112 49.0716 136.616 49.9313C135.259 50.2946 133.176 47.9456 132.317 47.4492C130.597 46.4564 129.737 45.96 128.018 44.9672C126.298 43.9744 124.578 42.9816 123.719 42.4852C122.859 41.9888 121.139 40.996 120.776 39.6399C121.272 38.7802 121.272 38.7802 120.909 37.4241C120.545 36.068 119.685 35.5716 121.042 35.2083ZM103.943 31.0679C103.943 31.0679 104.803 31.5643 105.299 30.7046C106.159 31.201 106.159 31.201 106.159 31.201C107.019 31.6975 107.019 31.6974 107.515 30.8377C108.012 29.978 108.375 31.3341 108.375 31.3341L109.235 31.8306L110.591 31.4673C111.451 31.9637 110.955 32.8234 111.814 33.3198C112.674 33.8162 112.674 33.8162 113.534 34.3126C115.617 36.6615 113.038 35.1723 113.038 35.1723C112.178 34.6759 109.962 34.5428 109.102 34.0464C106.886 33.9133 106.026 33.4169 104.307 32.4241L103.447 31.9276L103.943 31.0679ZM90.7453 36.0571C91.738 34.3377 94.3174 35.8269 93.3247 37.5463C92.8284 38.406 91.9686 37.9096 91.9686 37.9096L91.1088 37.4132C90.249 36.9168 90.7453 36.0571 90.7453 36.0571ZM92.5002 29.0463C93.36 29.5427 92.8636 30.4024 92.0039 29.906L92.5002 29.0463ZM90.5148 32.4851C90.0184 33.3448 90.0184 33.3448 90.5148 32.4851V32.4851ZM86.3487 27.7873C86.8451 26.9276 89.5574 26.201 89.9208 27.5571L89.4245 28.4168L88.9281 29.2765C88.4318 30.1362 89.2916 30.6326 87.9354 30.9959C87.9354 30.9959 87.0756 30.4995 85.7195 30.8628C85.7195 30.8628 84.3633 31.2261 83.5035 30.7297C82.6437 30.2333 83.9999 29.87 83.9999 29.87C83.9999 29.87 83.9999 29.87 84.8597 30.3664L86.2158 30.0031C88.5647 27.9204 87.2085 28.2837 86.3487 27.7873C87.2085 28.2837 86.3487 27.7873 86.3487 27.7873ZM78.5753 31.3232C79.0717 30.4635 79.9314 30.9599 80.4278 30.1002C80.9241 29.2405 80.9241 29.2405 82.2803 28.8772C82.2803 28.8772 83.1401 29.3736 82.6437 30.2333C82.6437 30.2333 81.2876 30.5966 80.4278 30.1002C80.7912 31.4563 79.4351 31.8196 78.5753 31.3232C78.079 32.1829 78.079 32.1829 78.5753 31.3232C78.079 32.1829 78.5753 31.3232 78.5753 31.3232ZM76.1288 27.6182C75.6325 28.4779 75.6325 28.4779 76.1288 27.6182C74.7727 27.9815 74.7727 27.9815 76.1288 27.6182ZM50.1233 60.7474C50.1233 60.7474 50.4868 62.1035 49.1306 62.4668C48.2708 61.9704 49.2635 60.251 50.1233 60.7474ZM58.7295 35.913C59.2258 35.0533 59.7222 34.1936 61.0783 33.8303C62.4345 33.467 61.5747 32.9706 62.071 32.1109C63.0637 30.3915 63.7906 33.1037 64.7833 31.3843C65.2797 30.5246 65.2797 30.5246 66.1395 31.021C66.9992 31.5174 66.9992 31.5174 67.4956 30.6577C67.4956 30.6577 68.3554 31.1541 68.8517 30.2944L70.7042 29.0714L71.0677 30.4275C71.4311 31.7836 70.5713 31.2872 70.075 32.1469C68.5859 34.726 67.7261 34.2296 67.2298 35.0893C65.8736 35.4526 65.0138 34.9562 64.5175 35.8159C64.5175 35.8159 64.5175 35.816 63.1614 36.1793C62.665 37.039 62.665 37.039 62.665 37.039C62.1686 37.8987 60.8125 38.262 59.9527 37.7656C59.9527 37.7656 59.0929 37.2692 58.2331 36.7728C58.2331 36.7728 57.8697 35.4166 58.7295 35.913ZM48.0403 58.3985C48.0403 58.3985 47.9074 60.6143 47.0476 60.1179C46.1878 59.6215 48.0403 58.3985 48.0403 58.3985ZM53.5354 40.9382C53.0391 41.7979 52.1793 41.3015 52.1793 41.3015C52.6756 40.4418 52.6756 40.4418 53.5354 40.9382C54.0318 40.0785 54.0318 40.0785 53.5354 40.9382ZM54.8916 40.5749L54.0318 40.0785C54.0318 40.0785 54.5281 39.2188 55.0245 38.3591C55.5208 37.4994 56.877 37.1361 57.7368 37.6325C58.5966 38.1289 58.96 39.485 57.6039 39.8483L56.7441 39.3519C56.2477 40.2116 55.3879 39.7152 54.8916 40.5749ZM37.8122 88.0277C36.0926 87.0349 38.4415 84.9522 38.078 83.5961L37.7146 82.24L38.2109 81.3803C38.7073 80.5206 38.3438 79.1645 38.8402 78.3047L39.3365 77.445L38.9731 76.0889L39.4694 75.2292C39.9658 74.3695 38.6096 74.7328 39.106 73.8731C39.6023 73.0134 39.6023 73.0134 40.4621 73.5098C40.4621 73.5098 40.9585 72.6501 41.8183 73.1465C42.3146 72.2868 42.3146 72.2868 41.4548 71.7904C40.728 69.0782 41.2243 68.2185 41.7207 67.3588C42.217 66.4991 42.3499 64.2833 44.0695 65.2761C44.9293 65.7725 43.4402 68.3516 43.4402 68.3516L42.9439 69.2113L43.3073 70.5674C42.811 71.4271 42.811 71.4271 42.3146 72.2868C41.8183 73.1465 41.8183 73.1465 41.3219 74.0062C40.8256 74.8659 40.8256 74.8659 40.3292 75.7256C39.8329 76.5853 40.6927 77.0817 40.1963 77.9414C39.7 78.8011 39.2036 79.6609 39.5671 81.017L39.9305 82.3731C39.4342 83.2328 39.4342 83.2328 39.4342 83.2328C38.9378 84.0925 39.7976 84.5889 39.7976 84.5889L40.1611 85.945C39.6647 86.8047 38.3086 87.168 37.8122 88.0277ZM44.5495 124.013C44.5495 124.013 43.6897 123.517 44.186 122.657C43.6897 123.517 44.5495 124.013 44.5495 124.013ZM80.3951 149.294C81.7512 148.93 83.1074 148.567 83.9671 149.063C83.9671 149.063 85.3233 148.7 86.1831 149.197C87.0429 149.693 87.0429 149.693 85.6867 150.056C84.3306 150.42 83.4708 149.923 82.1147 150.286C81.2549 149.79 80.7585 150.65 80.3951 149.294C79.8987 150.153 79.5353 148.797 80.3951 149.294ZM69.9446 145.553C70.8044 146.049 73.8801 146.679 73.3838 147.538C74.2436 148.035 78.6755 148.301 78.1791 149.161C77.6828 150.02 75.9632 149.027 75.9632 149.027C75.1034 148.531 73.7472 148.894 72.8875 148.398C72.0277 147.902 71.1679 147.405 70.3081 146.909C70.3081 146.909 69.4483 146.412 69.9446 145.553C69.4483 146.412 69.9446 145.553 69.9446 145.553ZM74.1107 150.25C74.1107 150.25 69.6788 149.984 70.1752 149.125C70.6715 148.265 73.2509 149.754 74.1107 150.25ZM68.4556 148.132C67.9592 148.991 67.0994 148.495 67.0994 148.495C67.0994 148.495 66.2396 147.999 67.0994 148.495C66.736 147.139 68.4556 148.132 68.4556 148.132ZM66.8689 144.923C66.8689 144.923 68.225 144.56 67.7287 145.419L67.2323 146.279L66.8689 144.923ZM64.7859 142.574C66.142 142.211 67.3652 144.063 65.1493 143.93C63.2968 145.153 63.4297 142.937 64.7859 142.574ZM87.504 156.837C85.288 156.704 83.0721 156.571 80.8561 156.437C78.6402 156.304 76.4243 156.171 74.7047 155.178C73.8449 154.682 72.9851 154.186 72.9851 154.186C72.1253 153.689 71.6289 154.549 70.7691 154.053C69.413 154.416 69.0496 153.06 67.6934 153.423C66.8336 152.927 65.9738 152.43 64.2542 151.437C63.3944 150.941 62.5346 150.445 61.6748 149.948C60.815 149.452 59.9553 148.955 59.0955 148.459C59.0955 148.459 58.2357 147.963 58.732 147.103C57.8722 146.606 57.8722 146.606 57.8722 146.606C57.0124 146.11 56.1526 145.614 55.2928 145.117L54.433 144.621L53.5732 144.124C52.7134 143.628 51.8536 143.132 50.9939 142.635C50.1341 142.139 49.2743 141.642 48.4145 141.146C48.4145 141.146 47.5547 140.65 46.6949 140.153C46.6949 140.153 47.1912 139.294 47.6876 138.434C49.0437 138.071 49.4072 139.427 50.267 139.923C51.1268 140.419 51.9866 140.916 52.35 142.272C53.2098 142.768 53.5732 144.124 54.433 144.621C57.8722 146.606 61.3114 148.592 64.7506 150.578C68.1898 152.563 72.1253 153.689 76.0608 154.815C76.9206 155.312 77.7804 155.808 79.1366 155.445C79.9964 155.941 79.9963 155.941 81.3525 155.578L82.2123 156.074L81.7159 156.934C81.7159 156.934 81.2196 157.794 82.5757 157.43C83.4355 157.927 84.4282 156.207 85.7844 155.844C85.7844 155.844 86.6442 156.34 87.504 156.837C87.504 156.837 88.3638 157.333 89.2236 157.83C90.0834 158.326 89.7199 156.97 91.076 156.607C88.1332 153.761 88.3638 157.333 87.504 156.837ZM119.954 142.33C119.954 142.33 119.457 143.19 119.954 142.33C119.457 143.19 118.598 142.693 119.954 142.33ZM114.529 143.783C115.389 144.279 113.537 145.502 113.173 144.146L114.529 143.783ZM111.321 145.369C112.18 145.866 111.684 146.725 110.824 146.229L109.964 145.733C109.964 145.733 109.964 145.733 111.321 145.369ZM107.252 146.459C107.749 145.6 108.112 146.956 107.616 147.815C106.259 148.179 105.896 146.823 107.252 146.459ZM104.54 147.186C104.54 147.186 104.044 148.046 104.54 147.186C104.044 148.046 104.044 148.046 104.54 147.186ZM100.933 155.42C99.5764 155.783 97.3604 155.65 96.0043 156.013C95.1445 155.517 94.6481 156.376 93.7883 155.88C92.9285 155.384 88.8601 156.473 89.3565 155.614C89.8528 154.754 90.7126 155.25 90.7126 155.25C90.7126 155.25 91.5724 155.747 92.0687 154.887L92.5651 154.027C93.0614 153.168 93.4249 154.524 93.4249 154.524C94.2847 155.02 94.781 154.161 95.2774 153.301C96.6335 152.938 96.6335 152.938 97.9897 152.574C99.3458 152.211 99.3458 152.211 100.702 151.848C102.422 152.84 102.289 155.056 100.933 155.42ZM131.034 142.995C128.685 145.078 126.336 147.161 123.127 148.747C121.275 149.97 118.562 150.697 116.71 151.92C114.857 153.143 112.145 153.869 110.789 154.233C109.433 154.596 108.077 154.959 105.861 154.826C105.001 154.33 103.148 155.553 103.645 154.693L104.141 153.833C104.638 152.974 104.638 152.974 105.994 152.61C108.706 151.884 111.418 151.157 114.627 149.571C117.339 148.844 120.548 147.258 122.4 146.035C123.756 145.672 125.609 144.449 126.105 143.589C126.602 142.729 127.461 143.226 127.958 142.366C128.454 141.506 129.81 141.143 129.81 141.143L130.67 141.639C130.67 141.639 130.67 141.639 130.174 142.499C130.174 142.499 128.818 142.862 129.677 143.359C127.825 144.582 130.174 142.499 131.034 142.995ZM132.026 141.276C132.026 141.276 131.166 140.78 132.026 141.276C132.523 140.416 132.026 141.276 132.026 141.276ZM133.515 138.697C133.019 139.557 132.655 138.2 133.515 138.697C133.152 137.341 133.648 136.481 134.508 136.977C134.508 136.977 135.004 136.118 135.368 137.474C135.368 137.474 134.012 137.837 133.515 138.697ZM139.206 132.812C139.206 132.812 138.709 133.672 138.213 134.531L137.717 135.391L136.857 134.895C136.857 134.895 136.857 134.895 137.353 134.035C137.85 133.175 139.206 132.812 140.198 131.093C140.695 130.233 140.695 130.233 141.191 129.373C141.191 129.373 142.68 126.794 143.54 127.29C144.4 127.787 143.407 129.506 142.911 130.366C140.695 130.233 140.198 131.093 139.206 132.812ZM137.717 135.391C138.213 134.531 138.213 134.531 137.717 135.391C138.213 134.531 138.213 134.531 137.717 135.391Z" fill="url(#paint0_linear)"/>
<path d="M143.283 101.923C144.142 102.42 144.142 102.42 144.639 101.56C145.135 100.7 145.631 99.8405 145.268 98.4844L145.401 96.2686C145.897 95.4089 145.037 94.9125 144.541 95.7722C144.045 96.6319 144.408 97.988 143.912 98.8477C142.919 100.567 142.919 100.567 143.283 101.923Z" fill="url(#paint1_linear)"/>
<path d="M91.2447 146.388C89.5251 145.395 88.1689 145.758 85.953 145.625C85.0932 145.129 83.737 145.492 83.737 145.492C82.8772 144.995 81.5211 145.359 81.5211 145.359C80.6613 144.862 79.8015 144.366 79.3052 145.226C79.3052 145.226 77.949 145.589 78.8088 146.085L79.6686 146.582C80.5284 147.078 81.8845 146.715 82.7443 147.211C84.9603 147.344 85.8201 147.841 88.036 147.974C89.0287 146.254 89.0287 146.254 91.2447 146.388C89.8885 146.751 90.7483 147.247 91.2447 146.388Z" fill="url(#paint2_linear)"/>
<path d="M137.424 118.028C137.787 119.384 139.276 116.805 139.773 115.945C140.269 115.085 140.766 114.225 141.262 113.366C141.758 112.506 141.758 112.506 142.255 111.646C142.255 111.646 142.751 110.787 142.387 109.431C141.528 108.934 141.891 110.29 141.891 110.29C141.395 111.15 140.898 112.01 140.766 114.225C140.269 115.085 140.269 115.085 139.773 115.945C138.417 116.308 137.424 118.028 137.424 118.028Z" fill="url(#paint3_linear)"/>
<path d="M156.507 118.729C156.87 120.085 157.863 118.366 156.507 118.729C157.499 117.009 157.996 116.15 158.492 115.29C159.485 113.571 158.625 113.074 157.402 111.222C157.269 113.437 156.64 116.513 156.507 118.729Z" fill="url(#paint4_linear)"/>
<path d="M154.389 124.384C153.529 123.887 154.522 122.168 154.026 123.028C153.166 122.531 152.67 123.391 153.033 124.747C152.537 125.607 153.397 126.103 153.397 126.103C154.256 126.599 153.76 127.459 154.62 127.956C154.256 126.599 154.753 125.74 154.389 124.384Z" fill="url(#paint5_linear)"/>
<path d="M60.0141 51.5568C60.5105 50.6971 61.8666 50.3338 62.363 49.4741C62.8593 48.6144 64.2155 48.2511 65.5716 47.8878C65.5716 47.8878 66.068 47.0281 66.9278 47.5245L68.2839 47.1612C68.7802 46.3015 66.9278 47.5245 66.9278 47.5245C64.2155 48.2511 61.8666 50.3338 60.0141 51.5568Z" fill="url(#paint6_linear)"/>
<path d="M87.8995 38.9986C87.5361 37.6425 87.0397 38.5022 85.6836 38.8655C83.4677 38.7324 87.8995 38.9986 85.6836 38.8655C85.6836 38.8655 84.8238 38.3691 84.3275 39.2288L83.8311 40.0885L84.6909 40.5849C85.6836 38.8655 87.8995 38.9986 87.8995 38.9986Z" fill="url(#paint7_linear)"/>
<path d="M78.4077 41.5422C79.2675 42.0386 79.2675 42.0386 80.6237 41.6753C81.12 40.8156 82.4762 40.4523 81.6164 39.9559C81.12 40.8156 79.7639 41.1789 78.4077 41.5422C79.7639 41.1789 77.5479 41.0458 78.4077 41.5422Z" fill="url(#paint8_linear)"/>
<path d="M73.9751 41.2757C73.1153 40.7792 72.6189 41.639 71.7591 41.1426C71.7591 41.1426 69.5432 41.0094 69.0468 41.8692C68.9139 44.085 73.9751 41.2757 73.9751 41.2757Z" fill="url(#paint9_linear)"/>
<path d="M153.697 113.668C153.201 114.528 152.704 115.388 153.068 116.744L153.564 115.884L154.424 116.38C154.424 116.38 154.92 115.521 154.06 115.024C153.201 114.528 154.06 115.024 153.201 114.528C154.557 114.165 154.193 112.808 153.697 113.668Z" fill="url(#paint10_linear)"/>
<path d="M67.9215 45.8048C68.4179 44.9451 67.1946 43.0926 66.6983 43.9523C65.3421 44.3156 66.5654 46.1681 67.9215 45.8048Z" fill="url(#paint11_linear)"/>
<path d="M105.596 159.258C104.736 158.762 104.24 159.621 102.884 159.985C102.884 159.985 102.884 159.985 102.387 160.844L103.247 161.341L103.743 160.481C103.743 160.481 103.743 160.481 105.1 160.118C105.1 160.118 106.952 158.895 105.596 159.258Z" fill="url(#paint12_linear)"/>
<path d="M156.445 104.938C157.305 105.435 157.668 106.791 157.172 107.65C157.668 106.791 157.801 104.575 156.445 104.938C156.941 104.079 156.445 104.938 156.445 104.938Z" fill="url(#paint13_linear)"/>
<path d="M105.432 28.4893C105.432 28.4893 107.285 27.2663 106.425 26.7699C106.425 26.7699 105.069 27.1332 104.573 27.9929C103.713 27.4965 104.076 28.8526 105.432 28.4893Z" fill="url(#paint14_linear)"/>
<path d="M59.2879 48.8447C58.4281 48.3483 59.2879 48.8447 59.2879 48.8447C60.1477 49.3411 60.644 48.4814 60.644 48.4814C60.644 48.4814 61.1404 47.6217 59.7842 47.985C59.7842 47.985 59.7842 47.985 59.2879 48.8447Z" fill="url(#paint15_linear)"/>
<path d="M58.9352 128.88C58.4389 129.74 57.5791 129.243 58.9352 128.88C58.4389 129.74 58.4389 129.74 58.4389 129.74C59.2987 130.236 58.9352 128.88 58.9352 128.88Z" fill="url(#paint16_linear)"/>
<path d="M144.807 91.3413C144.311 92.201 144.311 92.201 144.807 91.3413C144.311 92.201 145.17 92.6974 144.807 91.3413C145.667 91.8377 144.807 91.3413 144.807 91.3413Z" fill="url(#paint17_linear)"/>
<path d="M160.283 100.276C160.779 99.4167 159.919 98.9203 159.423 99.78C159.423 99.78 160.646 101.633 160.283 100.276Z" fill="url(#paint18_linear)"/>
<path d="M97.4576 161.437C98.3174 161.934 98.3174 161.934 98.8138 161.074C97.954 160.578 97.954 160.578 97.4576 161.437Z" fill="url(#paint19_linear)"/>
<path d="M82.4761 40.4526C83.3359 40.949 83.6993 42.3051 82.4761 40.4526C83.3359 40.949 83.3359 40.949 82.4761 40.4526C83.3359 40.949 83.3359 40.949 82.4761 40.4526Z" fill="url(#paint20_linear)"/>
<path d="M69.7735 44.5815C68.4173 44.9448 69.7735 44.5815 69.7735 44.5815V44.5815Z" fill="url(#paint21_linear)"/>
<path d="M107.844 40.1978C107.347 41.0575 107.347 41.0575 107.844 40.1978C108.207 41.5539 107.844 40.1978 107.844 40.1978Z" fill="url(#paint22_linear)"/>
<path d="M77.1841 39.6907C78.0439 40.1871 78.0439 40.1871 77.1841 39.6907C77.6804 38.831 77.1841 39.6907 77.1841 39.6907Z" fill="url(#paint23_linear)"/>
<path d="M86.9069 40.719C87.7667 41.2154 88.2631 40.3557 86.9069 40.719C87.4033 39.8593 87.4033 39.8593 86.9069 40.719Z" fill="url(#paint24_linear)"/>
<path d="M157.073 101.863C157.437 103.219 157.437 103.219 157.073 101.863V101.863Z" fill="url(#paint25_linear)"/>
<path d="M106.355 42.7766C106.851 41.9169 107.711 42.4133 106.355 42.7766C106.851 41.9169 106.851 41.9169 106.355 42.7766Z" fill="url(#paint26_linear)"/>
<path d="M125.61 144.449C124.75 143.953 123.757 145.672 124.617 146.168C125.477 146.665 126.47 144.945 125.61 144.449Z" fill="url(#paint27_linear)"/>
<path d="M121.904 146.894C121.044 146.398 120.051 148.117 120.051 148.117C119.555 148.977 121.408 147.754 121.904 146.894Z" fill="url(#paint28_linear)"/>
<path d="M108.706 151.884C108.706 151.884 109.565 152.38 108.706 151.884C109.565 152.38 110.062 151.52 110.062 151.52L108.706 151.884Z" fill="url(#paint29_linear)"/>
<path d="M114.132 150.431C113.272 149.934 113.635 151.29 114.132 150.431C114.991 150.927 114.132 150.431 114.132 150.431Z" fill="url(#paint30_linear)"/>
<path d="M122.401 146.035C122.764 147.391 123.261 146.532 122.401 146.035V146.035Z" fill="url(#paint31_linear)"/>
<path d="M122.628 38.4171C123.488 38.9135 125.208 39.9063 124.844 38.5502C124.844 38.5502 123.984 38.0538 123.125 37.5574C122.265 37.061 122.265 37.061 122.628 38.4171C121.768 37.9207 121.768 37.9207 122.628 38.4171Z" fill="url(#paint32_linear)"/>
</g>
<defs>
<linearGradient id="paint0_linear" x1="125.97" y1="34.6148" x2="58.4662" y2="151.535" gradientUnits="userSpaceOnUse">
<stop stop-color="#F36E2A"/>
<stop offset="1" stop-color="#FEBD66"/>
</linearGradient>
<linearGradient id="paint1_linear" x1="146.203" y1="95.872" x2="142.853" y2="101.675" gradientUnits="userSpaceOnUse">
<stop stop-color="#F36E2A"/>
<stop offset="1" stop-color="#FEBD66"/>
</linearGradient>
<linearGradient id="paint2_linear" x1="86.3247" y1="143.547" x2="83.3466" y2="148.705" gradientUnits="userSpaceOnUse">
<stop stop-color="#F36E2A"/>
<stop offset="1" stop-color="#FEBD66"/>
</linearGradient>
<linearGradient id="paint3_linear" x1="142.626" y1="109.568" x2="137.563" y2="118.339" gradientUnits="userSpaceOnUse">
<stop stop-color="#F36E2A"/>
<stop offset="1" stop-color="#FEBD66"/>
</linearGradient>
<linearGradient id="paint4_linear" x1="159.014" y1="112.152" x2="155.396" y2="118.419" gradientUnits="userSpaceOnUse">
<stop stop-color="#F36E2A"/>
<stop offset="1" stop-color="#FEBD66"/>
</linearGradient>
<linearGradient id="paint5_linear" x1="155.132" y1="123.345" x2="153.008" y2="127.025" gradientUnits="userSpaceOnUse">
<stop stop-color="#F36E2A"/>
<stop offset="1" stop-color="#FEBD66"/>
</linearGradient>
<linearGradient id="paint6_linear" x1="66.2734" y1="45.6795" x2="62.1636" y2="52.7978" gradientUnits="userSpaceOnUse">
<stop stop-color="#F36E2A"/>
<stop offset="1" stop-color="#FEBD66"/>
</linearGradient>
<linearGradient id="paint7_linear" x1="86.8154" y1="37.8979" x2="85.1208" y2="40.8331" gradientUnits="userSpaceOnUse">
<stop stop-color="#F36E2A"/>
<stop offset="1" stop-color="#FEBD66"/>
</linearGradient>
<linearGradient id="paint8_linear" x1="80.8235" y1="39.4982" x2="79.3345" y2="42.0773" gradientUnits="userSpaceOnUse">
<stop stop-color="#F36E2A"/>
<stop offset="1" stop-color="#FEBD66"/>
</linearGradient>
<linearGradient id="paint9_linear" x1="72.2555" y1="40.2828" x2="70.532" y2="43.2679" gradientUnits="userSpaceOnUse">
<stop stop-color="#F36E2A"/>
<stop offset="1" stop-color="#FEBD66"/>
</linearGradient>
<linearGradient id="paint10_linear" x1="154.762" y1="113.808" x2="153.068" y2="116.744" gradientUnits="userSpaceOnUse">
<stop stop-color="#F36E2A"/>
<stop offset="1" stop-color="#FEBD66"/>
</linearGradient>
<linearGradient id="paint11_linear" x1="67.6465" y1="44.025" x2="66.739" y2="45.5969" gradientUnits="userSpaceOnUse">
<stop stop-color="#F36E2A"/>
<stop offset="1" stop-color="#FEBD66"/>
</linearGradient>
<linearGradient id="paint12_linear" x1="105.066" y1="158.631" x2="103.438" y2="161.451" gradientUnits="userSpaceOnUse">
<stop stop-color="#F36E2A"/>
<stop offset="1" stop-color="#FEBD66"/>
</linearGradient>
<linearGradient id="paint13_linear" x1="157.525" y1="105.053" x2="156.312" y2="107.154" gradientUnits="userSpaceOnUse">
<stop stop-color="#F36E2A"/>
<stop offset="1" stop-color="#FEBD66"/>
</linearGradient>
<linearGradient id="paint14_linear" x1="106.008" y1="26.5292" x2="104.795" y2="28.6307" gradientUnits="userSpaceOnUse">
<stop stop-color="#F36E2A"/>
<stop offset="1" stop-color="#FEBD66"/>
</linearGradient>
<linearGradient id="paint15_linear" x1="60.2436" y1="47.7408" x2="59.5267" y2="48.9826" gradientUnits="userSpaceOnUse">
<stop stop-color="#F36E2A"/>
<stop offset="1" stop-color="#FEBD66"/>
</linearGradient>
<linearGradient id="paint16_linear" x1="58.9352" y1="128.88" x2="58.4389" y2="129.74" gradientUnits="userSpaceOnUse">
<stop stop-color="#F36E2A"/>
<stop offset="1" stop-color="#FEBD66"/>
</linearGradient>
<linearGradient id="paint17_linear" x1="144.998" y1="91.4516" x2="144.626" y2="92.0964" gradientUnits="userSpaceOnUse">
<stop stop-color="#F36E2A"/>
<stop offset="1" stop-color="#FEBD66"/>
</linearGradient>
<linearGradient id="paint18_linear" x1="160.345" y1="99.453" x2="159.753" y2="100.48" gradientUnits="userSpaceOnUse">
<stop stop-color="#F36E2A"/>
<stop offset="1" stop-color="#FEBD66"/>
</linearGradient>
<linearGradient id="paint19_linear" x1="98.3839" y1="160.826" x2="97.8875" y2="161.686" gradientUnits="userSpaceOnUse">
<stop stop-color="#F36E2A"/>
<stop offset="1" stop-color="#FEBD66"/>
</linearGradient>
<linearGradient id="paint20_linear" x1="82.9725" y1="40.7392" x2="82.7519" y2="41.1213" gradientUnits="userSpaceOnUse">
<stop stop-color="#F36E2A"/>
<stop offset="1" stop-color="#FEBD66"/>
</linearGradient>
<linearGradient id="paint21_linear" x1="69.5824" y1="44.4712" x2="69.3618" y2="44.8532" gradientUnits="userSpaceOnUse">
<stop stop-color="#F36E2A"/>
<stop offset="1" stop-color="#FEBD66"/>
</linearGradient>
<linearGradient id="paint22_linear" x1="108.035" y1="40.3081" x2="107.662" y2="40.9528" gradientUnits="userSpaceOnUse">
<stop stop-color="#F36E2A"/>
<stop offset="1" stop-color="#FEBD66"/>
</linearGradient>
<linearGradient id="paint23_linear" x1="77.7271" y1="39.4947" x2="77.5065" y2="39.8768" gradientUnits="userSpaceOnUse">
<stop stop-color="#F36E2A"/>
<stop offset="1" stop-color="#FEBD66"/>
</linearGradient>
<linearGradient id="paint24_linear" x1="87.6016" y1="40.2604" x2="87.2293" y2="40.9052" gradientUnits="userSpaceOnUse">
<stop stop-color="#F36E2A"/>
<stop offset="1" stop-color="#FEBD66"/>
</linearGradient>
<linearGradient id="paint25_linear" x1="157.396" y1="102.049" x2="157.024" y2="102.694" gradientUnits="userSpaceOnUse">
<stop stop-color="#F36E2A"/>
<stop offset="1" stop-color="#FEBD66"/>
</linearGradient>
<linearGradient id="paint26_linear" x1="106.918" y1="42.2421" x2="106.546" y2="42.8869" gradientUnits="userSpaceOnUse">
<stop stop-color="#F36E2A"/>
<stop offset="1" stop-color="#FEBD66"/>
</linearGradient>
<linearGradient id="paint27_linear" x1="125.61" y1="144.449" x2="124.617" y2="146.168" gradientUnits="userSpaceOnUse">
<stop stop-color="#F36E2A"/>
<stop offset="1" stop-color="#FEBD66"/>
</linearGradient>
<linearGradient id="paint28_linear" x1="121.474" y1="146.646" x2="120.346" y2="148.6" gradientUnits="userSpaceOnUse">
<stop stop-color="#F36E2A"/>
<stop offset="1" stop-color="#FEBD66"/>
</linearGradient>
<linearGradient id="paint29_linear" x1="109.632" y1="151.272" x2="109.135" y2="152.132" gradientUnits="userSpaceOnUse">
<stop stop-color="#F36E2A"/>
<stop offset="1" stop-color="#FEBD66"/>
</linearGradient>
<linearGradient id="paint30_linear" x1="114.132" y1="150.431" x2="113.911" y2="150.813" gradientUnits="userSpaceOnUse">
<stop stop-color="#F36E2A"/>
<stop offset="1" stop-color="#FEBD66"/>
</linearGradient>
<linearGradient id="paint31_linear" x1="122.723" y1="146.221" x2="122.503" y2="146.603" gradientUnits="userSpaceOnUse">
<stop stop-color="#F36E2A"/>
<stop offset="1" stop-color="#FEBD66"/>
</linearGradient>
<linearGradient id="paint32_linear" x1="123.779" y1="37.9353" x2="123.283" y2="38.795" gradientUnits="userSpaceOnUse">
<stop stop-color="#F36E2A"/>
<stop offset="1" stop-color="#FEBD66"/>
</linearGradient>
<clipPath id="clip0">
<rect width="138" height="136" fill="white" transform="translate(68) rotate(30)"/>
</clipPath>
</defs>
</svg>
