<svg width="64" height="65" viewBox="0 0 64 65" fill="none" xmlns="http://www.w3.org/2000/svg">
<path d="M52.1101 58.0148H32.1431C28.7567 58.0148 25.5191 56.566 23.2603 54.0401C21.0234 51.5386 19.9538 48.2004 20.3256 44.8811C20.8873 39.8665 22.5297 34.9364 25.0753 30.6239C27.7276 26.1306 31.2288 22.4149 35.4816 19.5796C35.7896 19.3743 36.1514 19.2646 36.5216 19.2646H47.7313C48.1014 19.2646 48.4633 19.3743 48.7713 19.5796C53.0242 22.4149 56.5253 26.1306 59.1776 30.6239C61.7232 34.9364 63.3656 39.8664 63.9273 44.8811C64.2992 48.2005 63.2294 51.5388 60.9926 54.0401C58.7339 56.566 55.4964 58.0148 52.1101 58.0148Z" fill="#0A789B"/>
<path d="M63.926 44.8811C63.3643 39.8665 61.7219 34.9364 59.1763 30.6239C56.524 26.1308 53.0228 22.4149 48.77 19.5796C48.462 19.3743 48.1001 19.2646 47.73 19.2646H42.125V58.0146H52.1085C55.4949 58.0146 58.7325 56.5659 60.9913 54.04C63.2281 51.5387 64.2978 48.2004 63.926 44.8811Z" fill="#0A617D"/>
<path d="M44.4578 37.0656C44.1683 36.9633 43.8732 36.8569 43.5779 36.7471V31.4595C44.1204 31.6465 44.4012 31.9186 44.4383 31.9565C45.0064 32.5985 45.9872 32.6628 46.6347 32.0988C47.2853 31.5319 47.3532 30.5449 46.7862 29.8943C46.2523 29.2816 45.1456 28.5129 43.5779 28.2509V27.3896C43.5779 26.5268 42.8784 25.8271 42.0154 25.8271C41.1524 25.8271 40.4529 26.5268 40.4529 27.3896V28.4241C40.3434 28.4526 40.2331 28.4834 40.1214 28.517C38.2324 29.086 36.8217 30.699 36.4396 32.7265C36.0892 34.5856 36.6921 36.384 38.0124 37.4196C38.6446 37.9155 39.4163 38.37 40.4528 38.8433V45.7075C39.6968 45.607 39.1311 45.3596 38.2453 44.7801C37.5232 44.3075 36.5548 44.5103 36.0823 45.2323C35.6098 45.9543 35.8123 46.9226 36.5344 47.3953C38.0666 48.3975 39.1438 48.7429 40.4528 48.851V49.8896C40.4528 50.7525 41.1523 51.4521 42.0153 51.4521C42.8783 51.4521 43.5778 50.7525 43.5778 49.8896V48.705C44.6046 48.4538 45.5383 47.9564 46.3289 47.2299C47.3863 46.2585 48.0999 44.9421 48.3384 43.5238C48.8291 40.6073 47.3057 38.0724 44.4578 37.0656ZM39.9412 34.9608C39.5482 34.6525 39.3791 34.0027 39.5106 33.3053C39.6098 32.7789 39.9071 32.1679 40.4529 31.7861V35.3151C40.2678 35.1994 40.0951 35.0815 39.9412 34.9608ZM45.2569 43.0056C45.1048 43.9105 44.5359 44.865 43.5779 45.3819V40.0733C45.4101 40.8078 45.3657 42.3593 45.2569 43.0056Z" fill="#FFF16B"/>
<path d="M44.4577 37.0659C44.1682 36.9635 43.8731 36.8571 43.5778 36.7474V31.4598C44.1203 31.6468 44.4011 31.9189 44.4382 31.9568C45.0063 32.5988 45.9871 32.663 46.6346 32.099C47.2852 31.5321 47.3531 30.5451 46.7861 29.8945C46.2522 29.2819 45.1455 28.5131 43.5778 28.2511V27.3899C43.5778 26.5644 42.9372 25.8901 42.1263 25.833V51.4468C42.9373 51.3897 43.5778 50.7153 43.5778 49.8899V48.7053C44.6046 48.454 45.5383 47.9566 46.329 47.2301C47.3863 46.2588 48.1 44.9424 48.3385 43.524C48.829 40.6075 47.3056 38.0726 44.4577 37.0659ZM45.2568 43.0059C45.1047 43.9108 44.5358 44.8653 43.5778 45.3821V40.0735C45.41 40.808 45.3656 42.3595 45.2568 43.0059Z" fill="#FFC178"/>
<path d="M47.7313 15.5147H36.5213C36.1522 15.5147 35.7913 15.4058 35.4838 15.2014L35.0425 14.9082C31.2597 12.3953 29.0013 8.1838 29.0013 3.64243C29.0013 2.95093 29.382 2.31418 29.9916 1.98793C30.6012 1.66168 31.341 1.69593 31.9163 2.07956C34.7015 3.93631 38.301 3.93631 41.0861 2.07956C41.716 1.65968 42.5365 1.65968 43.1663 2.07956C45.9515 3.93631 49.551 3.93631 52.3361 2.07956C52.9116 1.69593 53.6512 1.66031 54.2608 1.98643C54.8705 2.31268 55.2511 2.94806 55.2511 3.63968C55.2511 8.18393 52.9927 12.3954 49.21 14.9082L48.7686 15.2014C48.4613 15.4058 48.1005 15.5147 47.7313 15.5147Z" fill="#0A789B"/>
<path d="M54.2612 1.98652C53.6516 1.6604 52.9118 1.69602 52.3365 2.07965C49.5513 3.9364 45.9518 3.9364 43.1667 2.07965C42.8517 1.86965 42.4892 1.76465 42.1266 1.76465V15.5146H47.7316C48.1007 15.5146 48.4616 15.4058 48.7691 15.2014L49.2105 14.9081C52.9931 12.3955 55.2515 8.18402 55.2515 3.63977C55.2515 2.94827 54.8708 2.3129 54.2612 1.98652Z" fill="#0A617D"/>
<path d="M29.375 63.0146H6.875C5.8395 63.0146 5 62.1751 5 61.1396V56.1396C5 55.1041 5.8395 54.2646 6.875 54.2646H29.375C30.4105 54.2646 31.25 55.1041 31.25 56.1396V61.1396C31.25 62.1751 30.4105 63.0146 29.375 63.0146Z" fill="#FFF16B"/>
<path d="M29.375 54.2646H18.125V63.0146H29.375C30.4105 63.0146 31.25 62.1751 31.25 61.1396V56.1396C31.25 55.1041 30.4105 54.2646 29.375 54.2646Z" fill="#FFC178"/>
<path d="M24.375 54.2646H1.875C0.8395 54.2646 0 53.4251 0 52.3896V47.3896C0 46.3541 0.8395 45.5146 1.875 45.5146H24.375C25.4105 45.5146 26.25 46.3541 26.25 47.3896V52.3896C26.25 53.4251 25.4105 54.2646 24.375 54.2646Z" fill="#FFC178"/>
<path d="M24.375 45.5146H13.125V54.2646H24.375C25.4105 54.2646 26.25 53.4251 26.25 52.3896V47.3896C26.25 46.3541 25.4105 45.5146 24.375 45.5146Z" fill="#FF8659"/>
<path d="M29.375 45.5146H6.875C5.8395 45.5146 5 44.6751 5 43.6396V38.6396C5 37.6041 5.8395 36.7646 6.875 36.7646H29.375C30.4105 36.7646 31.25 37.6041 31.25 38.6396V43.6396C31.25 44.6751 30.4105 45.5146 29.375 45.5146Z" fill="#FFF16B"/>
<path d="M29.375 36.7646H18.125V45.5146H29.375C30.4105 45.5146 31.25 44.6751 31.25 43.6396V38.6396C31.25 37.6041 30.4105 36.7646 29.375 36.7646Z" fill="#FFC178"/>
<path d="M50.2513 21.1396H34.0013C31.9302 21.1396 30.2513 19.4608 30.2513 17.3896C30.2513 15.3185 31.9302 13.6396 34.0013 13.6396H50.2513C52.3225 13.6396 54.0013 15.3185 54.0013 17.3896C54.0013 19.4608 52.3225 21.1396 50.2513 21.1396Z" fill="#FFF16B"/>
<path d="M50.2513 13.6396H42.1263V21.1396H50.2513C52.3225 21.1396 54.0013 19.4608 54.0013 17.3896C54.0013 15.3185 52.3225 13.6396 50.2513 13.6396Z" fill="#FFC178"/>
</svg>
