<svg width="64" height="65" viewBox="0 0 64 65" fill="none" xmlns="http://www.w3.org/2000/svg">
<g clip-path="url(#clip0)">
<path d="M3.56512 64.756H1.875C0.8395 64.756 0 63.9165 0 62.881V61.1909C0 56.6675 1.15487 52.1823 3.33962 48.2198C5.51662 44.2717 8.68 40.9062 12.4879 38.4873C13.2291 38.0163 14.1981 38.1229 14.819 38.7442L26.0117 49.937C26.6327 50.558 26.7395 51.5269 26.2686 52.2682C23.8496 56.076 20.4841 59.2394 16.536 61.4164C12.5736 63.6013 8.08838 64.756 3.56512 64.756Z" fill="#FFE1B8"/>
<path d="M1.87495 64.7557H3.56507C8.08832 64.7557 12.5736 63.601 16.5361 61.4161C20.4842 59.2391 23.8497 56.0757 26.2687 52.2678C26.7397 51.5265 26.6329 50.5576 26.0118 49.9367L20.4154 44.3403L0.549072 64.2065C0.888447 64.5458 1.3572 64.7557 1.87495 64.7557Z" fill="#FEBD66"/>
<path d="M40.3037 61.6829C40.2038 61.6829 40.1033 61.675 40.0033 61.6588C39.4083 61.5623 38.8962 61.1855 38.6265 60.6464L33.1147 49.6229C32.7083 48.8103 32.9432 47.8233 33.6719 47.2805L49.9627 35.1504C50.5103 34.7426 51.2363 34.6648 51.858 34.9473C52.4798 35.2298 52.8987 35.8278 52.9518 36.5086C53.5632 44.3513 50.7249 52.0382 45.1648 57.5983L41.6293 61.1338C41.2749 61.488 40.7967 61.6829 40.3037 61.6829Z" fill="#F36E2A"/>
<path d="M15.9706 31.8396C15.6873 31.8396 15.4008 31.7754 15.133 31.6415L4.1095 26.1296C3.57037 25.8601 3.19375 25.3479 3.09725 24.7529C3.00075 24.158 3.196 23.5529 3.62225 23.1268L7.15787 19.5913C12.7179 14.0311 20.4054 11.1936 28.2475 11.8043C28.9282 11.8574 29.5264 12.2763 29.8089 12.898C30.0914 13.5198 30.0135 14.2458 29.6057 14.7934L17.4755 31.0841C17.1116 31.573 16.5477 31.8396 15.9706 31.8396Z" fill="#F7873D"/>
<path d="M61.7088 21.316C56.9242 21.0555 52.4343 19.0574 49.0664 15.6896C45.6988 12.3219 43.7005 7.83198 43.44 3.04723L43.406 2.42285C37.2117 4.2786 31.475 7.6481 26.7694 12.3537L26.6765 12.4467C19.3993 19.724 13.877 28.2999 10.2634 37.9364C10.0053 38.6249 10.1733 39.4006 10.6932 39.9205L24.8353 54.0626C25.1933 54.4207 25.6728 54.6119 26.1614 54.6119C26.3823 54.6119 26.6051 54.5727 26.8194 54.4925C36.4558 50.8789 45.0317 45.3567 52.3089 38.0794L52.4023 37.986C57.1077 33.2806 60.4769 27.5442 62.3327 21.35L61.7088 21.316Z" fill="#E6F3FF"/>
<path d="M24.8355 54.0625C25.1935 54.4206 25.673 54.6117 26.1617 54.6117C26.3825 54.6117 26.6054 54.5726 26.8197 54.4923C36.456 50.8787 45.0319 45.3566 52.3093 38.0792L52.4027 37.9858C57.108 33.2805 60.4773 27.5441 62.333 21.3498L61.7088 21.3158C56.9242 21.0553 52.4343 19.0572 49.0664 15.6895L17.7644 46.9913L24.8355 54.0625Z" fill="#D2DCF0"/>
<path d="M63.3614 2.90388C63.2217 2.13563 62.6204 1.53425 61.8521 1.39463C55.159 0.177501 48.3746 0.722376 42.1105 2.83575L42.1901 4.29713C42.4506 9.08175 44.4487 13.5716 47.8165 16.9395C51.1842 20.3071 55.6741 22.3054 60.4589 22.5659L61.9202 22.6455C64.0335 16.3815 64.5782 9.59713 63.3614 2.90388Z" fill="#F7873D"/>
<path d="M47.8164 16.9396C51.1842 20.3072 55.674 22.3054 60.4588 22.5659L61.9202 22.6456C64.0335 16.3816 64.5783 9.59732 63.3614 2.90395C63.2915 2.51982 63.1063 2.17732 62.8424 1.91357L47.8164 16.9396Z" fill="#F36E2A"/>
<path d="M39.4197 33.4614C37.2494 33.4614 35.2089 32.6163 33.6744 31.0817C32.1398 29.5472 31.2946 27.5067 31.2946 25.3364C31.2946 23.1662 32.1397 21.1257 33.6744 19.5912C35.2089 18.0566 37.2494 17.2114 39.4197 17.2114C41.5899 17.2114 43.6304 18.0566 45.1649 19.5912C46.6996 21.1257 47.5447 23.1662 47.5447 25.3364C47.5447 27.5067 46.6996 29.5472 45.1649 31.0817C43.6303 32.6163 41.5899 33.4614 39.4197 33.4614Z" fill="#F7873D"/>
<path d="M13.7871 52.8439C13.3072 52.8439 12.8274 52.6608 12.4614 52.2947C11.7291 51.5625 11.7291 50.3753 12.4614 49.643L28.3711 33.7332C29.1032 33.0011 30.2905 33.0011 31.0227 33.7332C31.755 34.4653 31.755 35.6525 31.0227 36.3848L15.1129 52.2947C14.7467 52.6608 14.2669 52.8439 13.7871 52.8439Z" fill="#F7873D"/>
<path d="M33.6743 31.0818C35.2088 32.6164 37.2493 33.4616 39.4196 33.4616C41.5898 33.4616 43.6303 32.6164 45.1648 31.0818C46.6994 29.5473 47.5446 27.5068 47.5446 25.3366C47.5446 23.1663 46.6994 21.1258 45.1648 19.5913L33.6743 31.0818Z" fill="#F36E2A"/>
<path d="M12.4612 52.2949C12.8273 52.661 13.3072 52.8441 13.7869 52.8441C14.2667 52.8441 14.7467 52.661 15.1127 52.2949L31.0225 36.385C31.7548 35.6529 31.7548 34.4656 31.0225 33.7334C31.0225 33.7334 31.0225 33.7334 31.0224 33.7334L12.4612 52.2949Z" fill="#F36E2A"/>
<path d="M39.4197 29.7114C38.2511 29.7114 37.1524 29.2564 36.3261 28.4301C35.4997 27.6038 35.0446 26.5051 35.0446 25.3364C35.0446 24.1678 35.4997 23.0692 36.3261 22.2428C37.1523 21.4164 38.2511 20.9614 39.4197 20.9614C40.5883 20.9614 41.6869 21.4164 42.5133 22.2428C43.3397 23.0691 43.7947 24.1678 43.7947 25.3364C43.7947 26.5051 43.3397 27.6037 42.5133 28.4301C41.6869 29.2564 40.5882 29.7114 39.4197 29.7114Z" fill="#84D6FF"/>
<path d="M36.326 28.4299C37.1523 29.2563 38.251 29.7113 39.4197 29.7113C40.5883 29.7113 41.6869 29.2563 42.5133 28.4299C43.3397 27.6037 43.7947 26.5049 43.7947 25.3363C43.7947 24.1677 43.3397 23.0691 42.5133 22.2427L36.326 28.4299Z" fill="#37C3FF"/>
</g>
<defs>
<clipPath id="clip0">
<rect width="64" height="64" fill="white" transform="translate(0 0.755859)"/>
</clipPath>
</defs>
</svg>
