<svg width="64" height="65" viewBox="0 0 64 65" fill="none" xmlns="http://www.w3.org/2000/svg">
<g clip-path="url(#clip0)">
<path d="M32 9.13052C30.9645 9.13052 30.125 8.29102 30.125 7.25552V2.26465C30.125 1.22915 30.9645 0.389648 32 0.389648C33.0355 0.389648 33.875 1.22915 33.875 2.26465V7.25552C33.875 8.29102 33.0355 9.13052 32 9.13052Z" fill="#A7A7A7"/>
<path d="M32 0.389648V9.13052C33.0355 9.13052 33.875 8.29102 33.875 7.25552V2.26465C33.875 1.22915 33.0355 0.389648 32 0.389648V0.389648Z" fill="#818181"/>
<path d="M27.2042 16.111C26.8591 16.111 26.5792 15.8311 26.5792 15.486V8.5166C26.5792 7.4811 27.4187 6.6416 28.4542 6.6416H35.5457C36.5812 6.6416 37.4207 7.4811 37.4207 8.5166V15.486C37.4207 15.8311 37.1408 16.111 36.7957 16.111H27.2042Z" fill="#D5D5D5"/>
<path d="M35.5457 6.6416H32V16.111H36.7957C37.1409 16.111 37.4207 15.8311 37.4207 15.486V8.5166C37.4207 7.48098 36.5812 6.6416 35.5457 6.6416Z" fill="#A7A7A7"/>
<path d="M43.906 64.3896H20.094V16.7358C20.094 15.7003 20.9335 14.8608 21.969 14.8608H42.031C43.0665 14.8608 43.906 15.7003 43.906 16.7358V64.3896Z" fill="#A7A7A7"/>
<path d="M42.031 14.8608H32V64.3895H43.906V16.7357C43.906 15.7002 43.0665 14.8608 42.031 14.8608Z" fill="#818181"/>
<path d="M35.75 56.4301C34.7145 56.4301 33.875 55.5906 33.875 54.5551V23.938C33.875 22.9025 34.7145 22.063 35.75 22.063C36.7855 22.063 37.625 22.9025 37.625 23.938V54.5552C37.625 55.5906 36.7855 56.4301 35.75 56.4301Z" fill="#F36E2A"/>
<path d="M28.25 56.4301C27.2145 56.4301 26.375 55.5906 26.375 54.5551V23.938C26.375 22.9025 27.2145 22.063 28.25 22.063C29.2855 22.063 30.125 22.9025 30.125 23.938V54.5552C30.125 55.5906 29.2855 56.4301 28.25 56.4301Z" fill="#FEBD66"/>
<path d="M12.594 36.4544H0V2.26465C0 1.22915 0.8395 0.389648 1.875 0.389648H10.719C11.7545 0.389648 12.594 1.22915 12.594 2.26465V36.4544Z" fill="#A7A7A7"/>
<path d="M10.719 0.389648H6.297V36.4544H12.594V2.26465C12.594 1.22915 11.7545 0.389648 10.719 0.389648Z" fill="#818181"/>
<path d="M20.0951 64.3897H0V56.3041L1.25 54.4291L0 52.5541V48.8041L1.25 46.9291L0 45.0541V41.3041L1.25 39.4291L0 37.5541V33.0859C0 32.0504 0.8395 31.2109 1.875 31.2109H18.2201C19.2556 31.2109 20.0951 32.0504 20.0951 33.0859V37.5539L18.8451 39.4289L20.0951 41.3039V45.0539L18.8451 47.1169L20.0951 48.8039V52.5539L18.8451 54.4289L20.0951 56.3039V64.3897Z" fill="#EAE7EA"/>
<path d="M20.0952 33.0859C20.0952 32.0504 19.2557 31.2109 18.2202 31.2109H10.0476V64.3897H20.0951V56.3041L18.8451 54.4291L20.0951 52.5541V48.8041L18.8451 47.1171L20.0951 45.0541V41.3041L18.8451 39.4291L20.0951 37.5541V33.0859H20.0952Z" fill="#D5D5D5"/>
<path d="M10.0476 56.7729C9.01211 56.7729 8.17261 55.9334 8.17261 54.8979V39.3359C8.17261 38.3004 9.01211 37.4609 10.0476 37.4609C11.0831 37.4609 11.9226 38.3004 11.9226 39.3359V54.8979C11.9226 55.9336 11.0831 56.7729 10.0476 56.7729Z" fill="#A7A7A7"/>
<path d="M10.0476 37.4609V56.7729C11.0831 56.7729 11.9225 55.9334 11.9225 54.8979V39.3359C11.9226 38.3004 11.0831 37.4611 10.0476 37.4609Z" fill="#818181"/>
<path d="M20.0951 52.5542H16.875C15.8395 52.5542 15 53.3937 15 54.4292C15 55.4647 15.8395 56.3042 16.875 56.3042H20.0951V52.5542Z" fill="#4793FF"/>
<path d="M20.0951 45.0542H16.875C15.8395 45.0542 15 45.8937 15 46.9292C15 47.9647 15.8395 48.8042 16.875 48.8042H20.0951V45.0542Z" fill="#4793FF"/>
<path d="M20.0951 37.5542H16.875C15.8395 37.5542 15 38.3937 15 39.4292C15 40.4647 15.8395 41.3042 16.875 41.3042H20.0951V37.5542Z" fill="#4793FF"/>
<path d="M2.90438 52.5542H0V56.3042H2.90438C3.93988 56.3042 4.77938 55.4647 4.77938 54.4292C4.77938 53.3936 3.94 52.5542 2.90438 52.5542Z" fill="#8BB9FF"/>
<path d="M2.90438 45.0542H0V48.8042H2.90438C3.93988 48.8042 4.77938 47.9647 4.77938 46.9292C4.77938 45.8936 3.94 45.0542 2.90438 45.0542Z" fill="#8BB9FF"/>
<path d="M2.90438 37.5542H0V41.3042H2.90438C3.93988 41.3042 4.77938 40.4647 4.77938 39.4292C4.77938 38.3936 3.94 37.5542 2.90438 37.5542Z" fill="#8BB9FF"/>
<path d="M63.9999 64.3898H43.9059V2.38525C43.9059 1.34975 44.7454 0.510254 45.7809 0.510254H62.1249C63.1604 0.510254 63.9999 1.34975 63.9999 2.38525V64.3898Z" fill="#EAE7EA"/>
<path d="M62.125 0.510254H53.953V64.3898H64V2.38525C64 1.34975 63.1605 0.510254 62.125 0.510254Z" fill="#D5D5D5"/>
<path d="M55.5671 49.2603H52.3389C51.3034 49.2603 50.4639 48.4208 50.4639 47.3853C50.4639 46.3498 51.3034 45.5103 52.3389 45.5103H55.5671C56.6026 45.5103 57.4421 46.3498 57.4421 47.3853C57.4421 48.4208 56.6026 49.2603 55.5671 49.2603Z" fill="#8BB9FF"/>
<path d="M55.567 45.5103H53.9529V49.2603H55.567C56.6025 49.2603 57.442 48.4208 57.442 47.3853C57.442 46.3498 56.6025 45.5103 55.567 45.5103Z" fill="#4793FF"/>
<path d="M55.5671 41.7603H52.3389C51.3034 41.7603 50.4639 40.9208 50.4639 39.8853C50.4639 38.8498 51.3034 38.0103 52.3389 38.0103H55.5671C56.6026 38.0103 57.4421 38.8498 57.4421 39.8853C57.4421 40.9208 56.6026 41.7603 55.5671 41.7603Z" fill="#8BB9FF"/>
<path d="M55.567 38.0103H53.9529V41.7603H55.567C56.6025 41.7603 57.442 40.9208 57.442 39.8853C57.442 38.8498 56.6025 38.0103 55.567 38.0103Z" fill="#4793FF"/>
<path d="M55.5671 34.2602H52.3389C51.3034 34.2602 50.4639 33.4207 50.4639 32.3852C50.4639 31.3498 51.3034 30.5103 52.3389 30.5103H55.5671C56.6026 30.5103 57.4421 31.3498 57.4421 32.3852C57.4421 33.4207 56.6026 34.2602 55.5671 34.2602Z" fill="#8BB9FF"/>
<path d="M55.567 30.5103H53.9529V34.2602H55.567C56.6025 34.2602 57.442 33.4207 57.442 32.3852C57.442 31.3498 56.6025 30.5103 55.567 30.5103Z" fill="#4793FF"/>
<path d="M55.5671 26.7603H52.3389C51.3034 26.7603 50.4639 25.9208 50.4639 24.8853C50.4639 23.8498 51.3034 23.0103 52.3389 23.0103H55.5671C56.6026 23.0103 57.4421 23.8498 57.4421 24.8853C57.4421 25.9208 56.6026 26.7603 55.5671 26.7603Z" fill="#8BB9FF"/>
<path d="M55.567 23.0103H53.9529V26.7603H55.567C56.6025 26.7603 57.442 25.9208 57.442 24.8853C57.442 23.8498 56.6025 23.0103 55.567 23.0103Z" fill="#4793FF"/>
<path d="M55.5671 19.2603H52.3389C51.3034 19.2603 50.4639 18.4208 50.4639 17.3853C50.4639 16.3498 51.3034 15.5103 52.3389 15.5103H55.5671C56.6026 15.5103 57.4421 16.3498 57.4421 17.3853C57.4421 18.4208 56.6026 19.2603 55.5671 19.2603Z" fill="#8BB9FF"/>
<path d="M55.567 15.5103H53.9529V19.2603H55.567C56.6025 19.2603 57.442 18.4208 57.442 17.3853C57.442 16.3498 56.6025 15.5103 55.567 15.5103Z" fill="#4793FF"/>
<path d="M55.5671 11.7602H52.3389C51.3034 11.7602 50.4639 10.9208 50.4639 9.88525C50.4639 8.84975 51.3034 8.01025 52.3389 8.01025H55.5671C56.6026 8.01025 57.4421 8.84975 57.4421 9.88525C57.4421 10.9208 56.6026 11.7602 55.5671 11.7602Z" fill="#8BB9FF"/>
<path d="M55.567 8.01025H53.9529V11.7602H55.567C56.6025 11.7602 57.442 10.9208 57.442 9.88525C57.442 8.84975 56.6025 8.01025 55.567 8.01025Z" fill="#4793FF"/>
</g>
<defs>
<clipPath id="clip0">
<rect width="64" height="64" fill="white" transform="translate(0 0.389648)"/>
</clipPath>
</defs>
</svg>
