<svg width="64" height="65" viewBox="0 0 64 65" fill="none" xmlns="http://www.w3.org/2000/svg">
<g clip-path="url(#clip0)">
<path d="M35.75 64.7559H28.25C27.2145 64.7559 26.375 63.9164 26.375 62.8809V40.1309C26.375 32.8396 20.919 26.799 13.875 25.8776V27.6309C13.875 28.3411 13.4738 28.9902 12.8385 29.308C12.2034 29.6256 11.4431 29.557 10.875 29.1309L0.875 21.6309C0.402875 21.2767 0.125 20.721 0.125 20.1309C0.125 19.5407 0.402875 18.985 0.875 18.6309L10.875 11.1309C11.443 10.7047 12.2031 10.6361 12.8385 10.9537C13.4738 11.2715 13.875 11.9206 13.875 12.6309V14.5745C18.3662 14.9041 22.662 16.4142 26.375 18.9501V14.5059H24.5C23.7897 14.5059 23.1406 14.1046 22.8229 13.4694C22.5052 12.8341 22.5739 12.074 23 11.5059L30.5 1.50586C30.8541 1.03373 31.4099 0.755859 32 0.755859C32.5902 0.755859 33.1459 1.03373 33.5 1.50586L41 11.5059C41.4261 12.074 41.4946 12.8341 41.177 13.4694C40.8595 14.1046 40.2103 14.5059 39.5 14.5059H37.625V31.4502C41.338 28.9142 45.6338 27.4041 50.125 27.0746V25.1309C50.125 24.4206 50.5262 23.7715 51.1615 23.4537C51.7966 23.1361 52.557 23.2047 53.125 23.6309L63.125 31.1309C63.5971 31.485 63.875 32.0407 63.875 32.6309C63.875 33.221 63.5971 33.7767 63.125 34.1309L53.125 41.6309C52.5569 42.057 51.7967 42.1255 51.1615 41.808C50.5262 41.4902 50.125 40.8411 50.125 40.1309V38.3776C43.081 39.299 37.625 45.3396 37.625 52.6309V62.8809C37.625 63.9164 36.7855 64.7559 35.75 64.7559Z" fill="#FEBD66"/>
<path d="M35.75 64.7559C36.7855 64.7559 37.625 63.9164 37.625 62.8809V52.6309C37.625 45.3396 43.081 39.299 50.125 38.3776V40.1309C50.125 40.8411 50.5262 41.4902 51.1615 41.808C51.7967 42.1256 52.5569 42.0571 53.125 41.6309L63.125 34.1309C63.5971 33.7767 63.875 33.221 63.875 32.6309C63.875 32.0407 63.5971 31.485 63.125 31.1309L53.125 23.6309C52.557 23.2047 51.7966 23.1361 51.1615 23.4537C50.5262 23.7715 50.125 24.4206 50.125 25.1309V27.0745C45.6337 27.4041 41.338 28.9142 37.625 31.4501V14.5059H39.5C40.2102 14.5059 40.8595 14.1046 41.177 13.4694C41.4946 12.8341 41.4261 12.074 41 11.5059L33.5 1.50586C33.1459 1.03373 32.5903 0.755859 32 0.755859V64.7559H35.75Z" fill="#F36E2A"/>
<path d="M20.75 47.8809H10.75C9.7145 47.8809 8.875 47.0414 8.875 46.0059C8.875 44.9704 9.7145 44.1309 10.75 44.1309H20.75C21.7855 44.1309 22.625 44.9704 22.625 46.0059C22.625 47.0414 21.7855 47.8809 20.75 47.8809Z" fill="#B9C4DB"/>
<path d="M3.875 47.8809C4.91053 47.8809 5.75 47.0414 5.75 46.0059C5.75 44.9703 4.91053 44.1309 3.875 44.1309C2.83947 44.1309 2 44.9703 2 46.0059C2 47.0414 2.83947 47.8809 3.875 47.8809Z" fill="#B9C4DB"/>
<path d="M20.75 47.8809H10.75C9.7145 47.8809 8.875 47.0414 8.875 46.0059C8.875 44.9704 9.7145 44.1309 10.75 44.1309H20.75C21.7855 44.1309 22.625 44.9704 22.625 46.0059C22.625 47.0414 21.7855 47.8809 20.75 47.8809Z" fill="#B9C4DB"/>
<path d="M3.875 47.8809C4.91053 47.8809 5.75 47.0414 5.75 46.0059C5.75 44.9703 4.91053 44.1309 3.875 44.1309C2.83947 44.1309 2 44.9703 2 46.0059C2 47.0414 2.83947 47.8809 3.875 47.8809Z" fill="#B9C4DB"/>
<path d="M20.75 40.3809H10.75C9.7145 40.3809 8.875 39.5414 8.875 38.5059C8.875 37.4704 9.7145 36.6309 10.75 36.6309H20.75C21.7855 36.6309 22.625 37.4704 22.625 38.5059C22.625 39.5414 21.7855 40.3809 20.75 40.3809Z" fill="#B9C4DB"/>
<path d="M3.875 40.3809C4.91053 40.3809 5.75 39.5414 5.75 38.5059C5.75 37.4703 4.91053 36.6309 3.875 36.6309C2.83947 36.6309 2 37.4703 2 38.5059C2 39.5414 2.83947 40.3809 3.875 40.3809Z" fill="#B9C4DB"/>
<path d="M20.75 55.3809H10.75C9.7145 55.3809 8.875 54.5414 8.875 53.5059C8.875 52.4704 9.7145 51.6309 10.75 51.6309H20.75C21.7855 51.6309 22.625 52.4704 22.625 53.5059C22.625 54.5414 21.7855 55.3809 20.75 55.3809Z" fill="#B9C4DB"/>
<path d="M3.875 55.3809C4.91053 55.3809 5.75 54.5414 5.75 53.5059C5.75 52.4703 4.91053 51.6309 3.875 51.6309C2.83947 51.6309 2 52.4703 2 53.5059C2 54.5414 2.83947 55.3809 3.875 55.3809Z" fill="#B9C4DB"/>
<path d="M20.75 62.8809H10.75C9.7145 62.8809 8.875 62.0414 8.875 61.0059C8.875 59.9704 9.7145 59.1309 10.75 59.1309H20.75C21.7855 59.1309 22.625 59.9704 22.625 61.0059C22.625 62.0414 21.7855 62.8809 20.75 62.8809Z" fill="#B9C4DB"/>
<path d="M3.875 62.8809C4.91053 62.8809 5.75 62.0414 5.75 61.0059C5.75 59.9703 4.91053 59.1309 3.875 59.1309C2.83947 59.1309 2 59.9703 2 61.0059C2 62.0414 2.83947 62.8809 3.875 62.8809Z" fill="#B9C4DB"/>
</g>
<defs>
<clipPath id="clip0">
<rect width="64" height="64" fill="white" transform="translate(0 0.755859)"/>
</clipPath>
</defs>
</svg>
